<?xml version="1.0" encoding="utf-8" standalone="no"?>
<!DOCTYPE svg PUBLIC "-//W3C//DTD SVG 1.1//EN"
  "http://www.w3.org/Graphics/SVG/1.1/DTD/svg11.dtd">
<svg xmlns:xlink="http://www.w3.org/1999/xlink" width="460.8pt" height="345.6pt" viewBox="0 0 460.8 345.6" xmlns="http://www.w3.org/2000/svg" version="1.1">
 <metadata>
  <rdf:RDF xmlns:dc="http://purl.org/dc/elements/1.1/" xmlns:cc="http://creativecommons.org/ns#" xmlns:rdf="http://www.w3.org/1999/02/22-rdf-syntax-ns#">
   <cc:Work>
    <dc:type rdf:resource="http://purl.org/dc/dcmitype/StillImage"/>
    <dc:date>2023-09-07T11:13:14.216887</dc:date>
    <dc:format>image/svg+xml</dc:format>
    <dc:creator>
     <cc:Agent>
      <dc:title>Matplotlib v3.7.1, https://matplotlib.org/</dc:title>
     </cc:Agent>
    </dc:creator>
   </cc:Work>
  </rdf:RDF>
 </metadata>
 <defs>
  <style type="text/css">*{stroke-linejoin: round; stroke-linecap: butt}</style>
 </defs>
 <g id="figure_1">
  <g id="patch_1">
   <path d="M 0 345.6 
L 460.8 345.6 
L 460.8 0 
L 0 0 
z
" style="fill: #ffffff"/>
  </g>
  <g id="axes_1">
   <g id="patch_2">
    <path d="M 57.6 307.584 
L 414.72 307.584 
L 414.72 41.472 
L 57.6 41.472 
z
" style="fill: #ffffff"/>
   </g>
   <g id="PathCollection_1">
    <defs>
     <path id="mb162123b93" d="M 0 3 
C 0.795609 3 1.55874 2.683901 2.12132 2.12132 
C 2.683901 1.55874 3 0.795609 3 0 
C 3 -0.795609 2.683901 -1.55874 2.12132 -2.12132 
C 1.55874 -2.683901 0.795609 -3 0 -3 
C -0.795609 -3 -1.55874 -2.683901 -2.12132 -2.12132 
C -2.683901 -1.55874 -3 -0.795609 -3 0 
C -3 0.795609 -2.683901 1.55874 -2.12132 2.12132 
C -1.55874 2.683901 -0.795609 3 0 3 
z
" style="stroke: #000000"/>
    </defs>
    <g clip-path="url(#p6a5b6a6736)">
     <use xlink:href="#mb162123b93" x="155.177297" y="85.348564" style="stroke: #000000"/>
     <use xlink:href="#mb162123b93" x="312.730603" y="69.677181" style="stroke: #000000"/>
     <use xlink:href="#mb162123b93" x="115.446869" y="60.629742" style="stroke: #000000"/>
     <use xlink:href="#mb162123b93" x="165.239394" y="91.087139" style="stroke: #000000"/>
     <use xlink:href="#mb162123b93" x="128.30712" y="93.480326" style="stroke: #000000"/>
     <use xlink:href="#mb162123b93" x="320.334161" y="53.568" style="stroke: #000000"/>
     <use xlink:href="#mb162123b93" x="99.192498" y="62.530044" style="stroke: #000000"/>
     <use xlink:href="#mb162123b93" x="319.548146" y="80.953329" style="stroke: #000000"/>
     <use xlink:href="#mb162123b93" x="111.446237" y="70.90138" style="stroke: #000000"/>
     <use xlink:href="#mb162123b93" x="320.80449" y="110.923758" style="stroke: #000000"/>
     <use xlink:href="#mb162123b93" x="323.309312" y="86.40531" style="stroke: #000000"/>
     <use xlink:href="#mb162123b93" x="200.9597" y="77.72889" style="stroke: #000000"/>
     <use xlink:href="#mb162123b93" x="199.94355" y="74.444136" style="stroke: #000000"/>
     <use xlink:href="#mb162123b93" x="154.594517" y="101.820874" style="stroke: #000000"/>
     <use xlink:href="#mb162123b93" x="129.077289" y="89.331788" style="stroke: #000000"/>
     <use xlink:href="#mb162123b93" x="296.612405" y="80.055375" style="stroke: #000000"/>
     <use xlink:href="#mb162123b93" x="96.417066" y="80.890763" style="stroke: #000000"/>
     <use xlink:href="#mb162123b93" x="218.378519" y="71.680229" style="stroke: #000000"/>
     <use xlink:href="#mb162123b93" x="343.258293" y="90.047761" style="stroke: #000000"/>
     <use xlink:href="#mb162123b93" x="119.018746" y="67.925523" style="stroke: #000000"/>
     <use xlink:href="#mb162123b93" x="101.375754" y="75.062452" style="stroke: #000000"/>
     <use xlink:href="#mb162123b93" x="177.217912" y="95.384649" style="stroke: #000000"/>
     <use xlink:href="#mb162123b93" x="326.110282" y="103.357947" style="stroke: #000000"/>
     <use xlink:href="#mb162123b93" x="99.801959" y="90.616565" style="stroke: #000000"/>
     <use xlink:href="#mb162123b93" x="193.355968" y="65.121538" style="stroke: #000000"/>
     <use xlink:href="#mb162123b93" x="119.45367" y="98.611735" style="stroke: #000000"/>
     <use xlink:href="#mb162123b93" x="178.577204" y="86.252843" style="stroke: #000000"/>
     <use xlink:href="#mb162123b93" x="120.261132" y="86.46652" style="stroke: #000000"/>
     <use xlink:href="#mb162123b93" x="178.744342" y="63.448261" style="stroke: #000000"/>
     <use xlink:href="#mb162123b93" x="187.447649" y="81.414944" style="stroke: #000000"/>
     <use xlink:href="#mb162123b93" x="299.089299" y="94.19785" style="stroke: #000000"/>
     <use xlink:href="#mb162123b93" x="188.647281" y="63.465091" style="stroke: #000000"/>
     <use xlink:href="#mb162123b93" x="333.680509" y="63.896739" style="stroke: #000000"/>
     <use xlink:href="#mb162123b93" x="132.228497" y="110.653553" style="stroke: #000000"/>
     <use xlink:href="#mb162123b93" x="110.490564" y="90.228307" style="stroke: #000000"/>
     <use xlink:href="#mb162123b93" x="132.573182" y="78.480044" style="stroke: #000000"/>
     <use xlink:href="#mb162123b93" x="185.07542" y="100.475391" style="stroke: #000000"/>
     <use xlink:href="#mb162123b93" x="139.242695" y="99.611657" style="stroke: #000000"/>
     <use xlink:href="#mb162123b93" x="139.819302" y="97.266289" style="stroke: #000000"/>
     <use xlink:href="#mb162123b93" x="303.504461" y="71.810648" style="stroke: #000000"/>
     <use xlink:href="#mb162123b93" x="308.334885" y="90.699478" style="stroke: #000000"/>
     <use xlink:href="#mb162123b93" x="316.220261" y="79.922681" style="stroke: #000000"/>
     <use xlink:href="#mb162123b93" x="277.928962" y="81.827418" style="stroke: #000000"/>
     <use xlink:href="#mb162123b93" x="155.679129" y="84.621066" style="stroke: #000000"/>
     <use xlink:href="#mb162123b93" x="307.466624" y="91.881753" style="stroke: #000000"/>
     <use xlink:href="#mb162123b93" x="180.728532" y="72.212676" style="stroke: #000000"/>
     <use xlink:href="#mb162123b93" x="210.930018" y="93.495418" style="stroke: #000000"/>
     <use xlink:href="#mb162123b93" x="168.967969" y="108.24179" style="stroke: #000000"/>
     <use xlink:href="#mb162123b93" x="313.658347" y="62.11669" style="stroke: #000000"/>
     <use xlink:href="#mb162123b93" x="177.925519" y="73.5015" style="stroke: #000000"/>
     <use xlink:href="#mb162123b93" x="274.979514" y="247.415864" style="stroke: #000000"/>
     <use xlink:href="#mb162123b93" x="312.203653" y="244.774768" style="stroke: #000000"/>
     <use xlink:href="#mb162123b93" x="274.365609" y="247.317519" style="stroke: #000000"/>
     <use xlink:href="#mb162123b93" x="211.3206" y="267.227504" style="stroke: #000000"/>
     <use xlink:href="#mb162123b93" x="183.298142" y="260.614023" style="stroke: #000000"/>
     <use xlink:href="#mb162123b93" x="336.866435" y="253.812274" style="stroke: #000000"/>
     <use xlink:href="#mb162123b93" x="319.385899" y="268.459466" style="stroke: #000000"/>
     <use xlink:href="#mb162123b93" x="398.487273" y="259.820109" style="stroke: #000000"/>
     <use xlink:href="#mb162123b93" x="345.771463" y="262.41213" style="stroke: #000000"/>
     <use xlink:href="#mb162123b93" x="217.159856" y="261.347363" style="stroke: #000000"/>
     <use xlink:href="#mb162123b93" x="254.50245" y="258.018898" style="stroke: #000000"/>
     <use xlink:href="#mb162123b93" x="385.386229" y="251.597723" style="stroke: #000000"/>
     <use xlink:href="#mb162123b93" x="284.782274" y="256.259587" style="stroke: #000000"/>
     <use xlink:href="#mb162123b93" x="226.926586" y="277.498778" style="stroke: #000000"/>
     <use xlink:href="#mb162123b93" x="312.657953" y="264.464498" style="stroke: #000000"/>
     <use xlink:href="#mb162123b93" x="188.828337" y="256.936609" style="stroke: #000000"/>
     <use xlink:href="#mb162123b93" x="276.363754" y="259.018641" style="stroke: #000000"/>
     <use xlink:href="#mb162123b93" x="288.159875" y="262.811175" style="stroke: #000000"/>
     <use xlink:href="#mb162123b93" x="279.559279" y="244.549903" style="stroke: #000000"/>
     <use xlink:href="#mb162123b93" x="367.375756" y="253.961204" style="stroke: #000000"/>
     <use xlink:href="#mb162123b93" x="337.292828" y="270.605883" style="stroke: #000000"/>
     <use xlink:href="#mb162123b93" x="310.753891" y="281.331989" style="stroke: #000000"/>
     <use xlink:href="#mb162123b93" x="323.621506" y="269.853102" style="stroke: #000000"/>
     <use xlink:href="#mb162123b93" x="328.261399" y="261.986117" style="stroke: #000000"/>
     <use xlink:href="#mb162123b93" x="329.653975" y="284.562259" style="stroke: #000000"/>
     <use xlink:href="#mb162123b93" x="287.301696" y="268.919837" style="stroke: #000000"/>
     <use xlink:href="#mb162123b93" x="218.287933" y="258.461848" style="stroke: #000000"/>
     <use xlink:href="#mb162123b93" x="271.700939" y="274.774248" style="stroke: #000000"/>
     <use xlink:href="#mb162123b93" x="149.780841" y="260.595332" style="stroke: #000000"/>
     <use xlink:href="#mb162123b93" x="173.725082" y="261.835742" style="stroke: #000000"/>
     <use xlink:href="#mb162123b93" x="247.77464" y="263.913085" style="stroke: #000000"/>
     <use xlink:href="#mb162123b93" x="276.122098" y="267.470835" style="stroke: #000000"/>
     <use xlink:href="#mb162123b93" x="160.268579" y="258.557489" style="stroke: #000000"/>
     <use xlink:href="#mb162123b93" x="230.594672" y="264.601631" style="stroke: #000000"/>
     <use xlink:href="#mb162123b93" x="329.134193" y="263.408552" style="stroke: #000000"/>
     <use xlink:href="#mb162123b93" x="215.008004" y="259.248691" style="stroke: #000000"/>
     <use xlink:href="#mb162123b93" x="342.574274" y="258.531546" style="stroke: #000000"/>
     <use xlink:href="#mb162123b93" x="189.747348" y="265.447558" style="stroke: #000000"/>
     <use xlink:href="#mb162123b93" x="207.917534" y="272.581718" style="stroke: #000000"/>
     <use xlink:href="#mb162123b93" x="220.463601" y="273.425517" style="stroke: #000000"/>
     <use xlink:href="#mb162123b93" x="212.650245" y="265.918005" style="stroke: #000000"/>
     <use xlink:href="#mb162123b93" x="370.294664" y="257.919691" style="stroke: #000000"/>
     <use xlink:href="#mb162123b93" x="349.96756" y="250.435415" style="stroke: #000000"/>
     <use xlink:href="#mb162123b93" x="302.3997" y="274.64546" style="stroke: #000000"/>
     <use xlink:href="#mb162123b93" x="385.49918" y="268.033638" style="stroke: #000000"/>
     <use xlink:href="#mb162123b93" x="232.103902" y="256.258894" style="stroke: #000000"/>
     <use xlink:href="#mb162123b93" x="187.606395" y="241.501928" style="stroke: #000000"/>
     <use xlink:href="#mb162123b93" x="329.008352" y="259.406386" style="stroke: #000000"/>
     <use xlink:href="#mb162123b93" x="286.453381" y="273.390535" style="stroke: #000000"/>
     <use xlink:href="#mb162123b93" x="317.402716" y="259.687404" style="stroke: #000000"/>
     <use xlink:href="#mb162123b93" x="148.228497" y="274.67139" style="stroke: #000000"/>
     <use xlink:href="#mb162123b93" x="146.018601" y="270.522696" style="stroke: #000000"/>
     <use xlink:href="#mb162123b93" x="206.674016" y="268.053072" style="stroke: #000000"/>
     <use xlink:href="#mb162123b93" x="256.971544" y="259.379358" style="stroke: #000000"/>
     <use xlink:href="#mb162123b93" x="219.328796" y="255.864965" style="stroke: #000000"/>
     <use xlink:href="#mb162123b93" x="202.315189" y="271.224002" style="stroke: #000000"/>
     <use xlink:href="#mb162123b93" x="296.521059" y="265.336009" style="stroke: #000000"/>
     <use xlink:href="#mb162123b93" x="318.438051" y="261.148117" style="stroke: #000000"/>
     <use xlink:href="#mb162123b93" x="158.696056" y="255.065073" style="stroke: #000000"/>
     <use xlink:href="#mb162123b93" x="275.956091" y="262.127086" style="stroke: #000000"/>
     <use xlink:href="#mb162123b93" x="371.042369" y="267.484096" style="stroke: #000000"/>
     <use xlink:href="#mb162123b93" x="387.142701" y="271.549474" style="stroke: #000000"/>
     <use xlink:href="#mb162123b93" x="315.784509" y="269.305673" style="stroke: #000000"/>
     <use xlink:href="#mb162123b93" x="320.95006" y="266.222414" style="stroke: #000000"/>
     <use xlink:href="#mb162123b93" x="340.645136" y="259.022043" style="stroke: #000000"/>
     <use xlink:href="#mb162123b93" x="397.547826" y="251.862045" style="stroke: #000000"/>
     <use xlink:href="#mb162123b93" x="168.591875" y="255.706084" style="stroke: #000000"/>
     <use xlink:href="#mb162123b93" x="197.377447" y="248.985622" style="stroke: #000000"/>
     <use xlink:href="#mb162123b93" x="362.164877" y="262.00998" style="stroke: #000000"/>
     <use xlink:href="#mb162123b93" x="376.0275" y="263.541534" style="stroke: #000000"/>
     <use xlink:href="#mb162123b93" x="350.478478" y="262.664368" style="stroke: #000000"/>
     <use xlink:href="#mb162123b93" x="195.24496" y="253.606525" style="stroke: #000000"/>
     <use xlink:href="#mb162123b93" x="306.027494" y="271.587959" style="stroke: #000000"/>
     <use xlink:href="#mb162123b93" x="338.874493" y="262.498556" style="stroke: #000000"/>
     <use xlink:href="#mb162123b93" x="340.322211" y="261.920157" style="stroke: #000000"/>
     <use xlink:href="#mb162123b93" x="356.253053" y="258.873273" style="stroke: #000000"/>
     <use xlink:href="#mb162123b93" x="237.877218" y="276.024722" style="stroke: #000000"/>
     <use xlink:href="#mb162123b93" x="357.129111" y="274.429178" style="stroke: #000000"/>
     <use xlink:href="#mb162123b93" x="323.113676" y="261.108973" style="stroke: #000000"/>
     <use xlink:href="#mb162123b93" x="188.520004" y="269.738888" style="stroke: #000000"/>
     <use xlink:href="#mb162123b93" x="159.493065" y="270.588172" style="stroke: #000000"/>
     <use xlink:href="#mb162123b93" x="358.283132" y="266.981432" style="stroke: #000000"/>
     <use xlink:href="#mb162123b93" x="283.693653" y="252.872943" style="stroke: #000000"/>
     <use xlink:href="#mb162123b93" x="390.05996" y="255.798321" style="stroke: #000000"/>
     <use xlink:href="#mb162123b93" x="310.022684" y="263.050752" style="stroke: #000000"/>
     <use xlink:href="#mb162123b93" x="397.184971" y="269.945975" style="stroke: #000000"/>
     <use xlink:href="#mb162123b93" x="265.008906" y="258.273288" style="stroke: #000000"/>
     <use xlink:href="#mb162123b93" x="147.31833" y="274.118326" style="stroke: #000000"/>
     <use xlink:href="#mb162123b93" x="252.112358" y="262.695726" style="stroke: #000000"/>
     <use xlink:href="#mb162123b93" x="162.089699" y="274.725897" style="stroke: #000000"/>
     <use xlink:href="#mb162123b93" x="393.595327" y="247.520057" style="stroke: #000000"/>
     <use xlink:href="#mb162123b93" x="209.975023" y="275.651359" style="stroke: #000000"/>
     <use xlink:href="#mb162123b93" x="175.93369" y="275.130803" style="stroke: #000000"/>
     <use xlink:href="#mb162123b93" x="180.09734" y="277.366932" style="stroke: #000000"/>
     <use xlink:href="#mb162123b93" x="259.830209" y="269.921187" style="stroke: #000000"/>
     <use xlink:href="#mb162123b93" x="279.524476" y="267.756797" style="stroke: #000000"/>
     <use xlink:href="#mb162123b93" x="326.562671" y="264.004018" style="stroke: #000000"/>
     <use xlink:href="#mb162123b93" x="197.301159" y="256.794174" style="stroke: #000000"/>
     <use xlink:href="#mb162123b93" x="165.720815" y="256.418181" style="stroke: #000000"/>
     <use xlink:href="#mb162123b93" x="320.883032" y="269.548998" style="stroke: #000000"/>
     <use xlink:href="#mb162123b93" x="90.834758" y="295.488" style="stroke: #000000"/>
     <use xlink:href="#mb162123b93" x="100.938857" y="260.064941" style="stroke: #000000"/>
     <use xlink:href="#mb162123b93" x="132.893434" y="256.459422" style="stroke: #000000"/>
     <use xlink:href="#mb162123b93" x="133.497169" y="266.689221" style="stroke: #000000"/>
     <use xlink:href="#mb162123b93" x="109.915137" y="260.512612" style="stroke: #000000"/>
     <use xlink:href="#mb162123b93" x="116.251531" y="261.735467" style="stroke: #000000"/>
     <use xlink:href="#mb162123b93" x="126.296365" y="270.831518" style="stroke: #000000"/>
     <use xlink:href="#mb162123b93" x="102.851236" y="258.149371" style="stroke: #000000"/>
     <use xlink:href="#mb162123b93" x="112.132257" y="253.449443" style="stroke: #000000"/>
     <use xlink:href="#mb162123b93" x="74.168273" y="271.46741" style="stroke: #000000"/>
     <use xlink:href="#mb162123b93" x="110.36831" y="272.918217" style="stroke: #000000"/>
     <use xlink:href="#mb162123b93" x="143.638516" y="253.834888" style="stroke: #000000"/>
     <use xlink:href="#mb162123b93" x="91.713726" y="262.338199" style="stroke: #000000"/>
     <use xlink:href="#mb162123b93" x="98.313802" y="265.901274" style="stroke: #000000"/>
     <use xlink:href="#mb162123b93" x="82.024259" y="263.832704" style="stroke: #000000"/>
     <use xlink:href="#mb162123b93" x="118.213965" y="264.264289" style="stroke: #000000"/>
     <use xlink:href="#mb162123b93" x="126.522546" y="255.588418" style="stroke: #000000"/>
     <use xlink:href="#mb162123b93" x="96.967081" y="272.12711" style="stroke: #000000"/>
     <use xlink:href="#mb162123b93" x="104.552993" y="285.167541" style="stroke: #000000"/>
     <use xlink:href="#mb162123b93" x="92.293697" y="259.498048" style="stroke: #000000"/>
     <use xlink:href="#mb162123b93" x="75.177567" y="262.994877" style="stroke: #000000"/>
     <use xlink:href="#mb162123b93" x="111.101623" y="266.206883" style="stroke: #000000"/>
     <use xlink:href="#mb162123b93" x="92.80982" y="264.084617" style="stroke: #000000"/>
     <use xlink:href="#mb162123b93" x="122.021386" y="260.78315" style="stroke: #000000"/>
     <use xlink:href="#mb162123b93" x="103.976347" y="268.23554" style="stroke: #000000"/>
     <use xlink:href="#mb162123b93" x="86.709801" y="261.915295" style="stroke: #000000"/>
     <use xlink:href="#mb162123b93" x="97.258155" y="248.658273" style="stroke: #000000"/>
     <use xlink:href="#mb162123b93" x="75.564579" y="282.048693" style="stroke: #000000"/>
     <use xlink:href="#mb162123b93" x="85.479467" y="264.473239" style="stroke: #000000"/>
     <use xlink:href="#mb162123b93" x="82.599403" y="268.298058" style="stroke: #000000"/>
     <use xlink:href="#mb162123b93" x="122.990754" y="252.324387" style="stroke: #000000"/>
     <use xlink:href="#mb162123b93" x="96.672561" y="254.118751" style="stroke: #000000"/>
     <use xlink:href="#mb162123b93" x="117.843108" y="263.427654" style="stroke: #000000"/>
     <use xlink:href="#mb162123b93" x="122.369998" y="241.816836" style="stroke: #000000"/>
     <use xlink:href="#mb162123b93" x="73.939617" y="264.995197" style="stroke: #000000"/>
     <use xlink:href="#mb162123b93" x="95.7203" y="271.692818" style="stroke: #000000"/>
     <use xlink:href="#mb162123b93" x="77.513405" y="265.399501" style="stroke: #000000"/>
     <use xlink:href="#mb162123b93" x="109.220025" y="270.279052" style="stroke: #000000"/>
     <use xlink:href="#mb162123b93" x="140.803585" y="285.511568" style="stroke: #000000"/>
     <use xlink:href="#mb162123b93" x="140.756678" y="260.556058" style="stroke: #000000"/>
     <use xlink:href="#mb162123b93" x="115.265626" y="258.741265" style="stroke: #000000"/>
     <use xlink:href="#mb162123b93" x="93.043493" y="265.796863" style="stroke: #000000"/>
     <use xlink:href="#mb162123b93" x="113.275989" y="273.933106" style="stroke: #000000"/>
     <use xlink:href="#mb162123b93" x="131.044448" y="272.632056" style="stroke: #000000"/>
     <use xlink:href="#mb162123b93" x="120.18067" y="268.051107" style="stroke: #000000"/>
     <use xlink:href="#mb162123b93" x="104.658527" y="272.577257" style="stroke: #000000"/>
     <use xlink:href="#mb162123b93" x="109.893112" y="259.37132" style="stroke: #000000"/>
     <use xlink:href="#mb162123b93" x="79.985638" y="267.724171" style="stroke: #000000"/>
     <use xlink:href="#mb162123b93" x="111.010462" y="250.514634" style="stroke: #000000"/>
     <use xlink:href="#mb162123b93" x="74.806556" y="255.803578" style="stroke: #000000"/>
     <use xlink:href="#mb162123b93" x="116.470662" y="255.00313" style="stroke: #000000"/>
     <use xlink:href="#mb162123b93" x="102.212165" y="285.16926" style="stroke: #000000"/>
     <use xlink:href="#mb162123b93" x="132.408349" y="260.445235" style="stroke: #000000"/>
     <use xlink:href="#mb162123b93" x="80.512939" y="282.398348" style="stroke: #000000"/>
     <use xlink:href="#mb162123b93" x="141.48266" y="268.886508" style="stroke: #000000"/>
     <use xlink:href="#mb162123b93" x="75.258154" y="255.397974" style="stroke: #000000"/>
     <use xlink:href="#mb162123b93" x="97.711337" y="253.179622" style="stroke: #000000"/>
     <use xlink:href="#mb162123b93" x="113.111598" y="262.673602" style="stroke: #000000"/>
     <use xlink:href="#mb162123b93" x="113.195246" y="272.610199" style="stroke: #000000"/>
     <use xlink:href="#mb162123b93" x="73.832727" y="266.635351" style="stroke: #000000"/>
     <use xlink:href="#mb162123b93" x="96.386567" y="257.450884" style="stroke: #000000"/>
     <use xlink:href="#mb162123b93" x="74.44714" y="278.873137" style="stroke: #000000"/>
     <use xlink:href="#mb162123b93" x="79.281961" y="257.752049" style="stroke: #000000"/>
     <use xlink:href="#mb162123b93" x="132.312147" y="254.072599" style="stroke: #000000"/>
     <use xlink:href="#mb162123b93" x="96.217423" y="260.341345" style="stroke: #000000"/>
     <use xlink:href="#mb162123b93" x="76.928906" y="263.449193" style="stroke: #000000"/>
     <use xlink:href="#mb162123b93" x="117.217336" y="268.285886" style="stroke: #000000"/>
     <use xlink:href="#mb162123b93" x="86.609818" y="253.413151" style="stroke: #000000"/>
     <use xlink:href="#mb162123b93" x="116.999506" y="279.989161" style="stroke: #000000"/>
     <use xlink:href="#mb162123b93" x="131.695635" y="268.607522" style="stroke: #000000"/>
     <use xlink:href="#mb162123b93" x="97.405624" y="259.564843" style="stroke: #000000"/>
     <use xlink:href="#mb162123b93" x="139.595704" y="253.017497" style="stroke: #000000"/>
     <use xlink:href="#mb162123b93" x="139.707086" y="268.172684" style="stroke: #000000"/>
     <use xlink:href="#mb162123b93" x="127.292616" y="257.506535" style="stroke: #000000"/>
     <use xlink:href="#mb162123b93" x="89.026773" y="247.004141" style="stroke: #000000"/>
     <use xlink:href="#mb162123b93" x="125.34969" y="272.990513" style="stroke: #000000"/>
     <use xlink:href="#mb162123b93" x="85.3185" y="274.095171" style="stroke: #000000"/>
     <use xlink:href="#mb162123b93" x="128.378139" y="258.295759" style="stroke: #000000"/>
     <use xlink:href="#mb162123b93" x="127.530256" y="245.834944" style="stroke: #000000"/>
     <use xlink:href="#mb162123b93" x="115.111928" y="270.326157" style="stroke: #000000"/>
     <use xlink:href="#mb162123b93" x="109.761513" y="272.023573" style="stroke: #000000"/>
     <use xlink:href="#mb162123b93" x="129.903445" y="278.738531" style="stroke: #000000"/>
     <use xlink:href="#mb162123b93" x="121.609955" y="258.917005" style="stroke: #000000"/>
     <use xlink:href="#mb162123b93" x="118.196031" y="259.167233" style="stroke: #000000"/>
     <use xlink:href="#mb162123b93" x="94.809906" y="261.894993" style="stroke: #000000"/>
     <use xlink:href="#mb162123b93" x="87.925746" y="279.634418" style="stroke: #000000"/>
     <use xlink:href="#mb162123b93" x="98.129126" y="262.86061" style="stroke: #000000"/>
     <use xlink:href="#mb162123b93" x="90.555494" y="254.470432" style="stroke: #000000"/>
     <use xlink:href="#mb162123b93" x="112.950767" y="262.962288" style="stroke: #000000"/>
     <use xlink:href="#mb162123b93" x="103.501159" y="268.728711" style="stroke: #000000"/>
     <use xlink:href="#mb162123b93" x="92.258902" y="257.548004" style="stroke: #000000"/>
     <use xlink:href="#mb162123b93" x="117.125932" y="273.551371" style="stroke: #000000"/>
     <use xlink:href="#mb162123b93" x="106.74581" y="269.683313" style="stroke: #000000"/>
     <use xlink:href="#mb162123b93" x="94.920232" y="268.516783" style="stroke: #000000"/>
     <use xlink:href="#mb162123b93" x="99.187821" y="275.740879" style="stroke: #000000"/>
     <use xlink:href="#mb162123b93" x="141.680825" y="270.37184" style="stroke: #000000"/>
     <use xlink:href="#mb162123b93" x="125.732425" y="275.084819" style="stroke: #000000"/>
     <use xlink:href="#mb162123b93" x="112.384173" y="255.234614" style="stroke: #000000"/>
     <use xlink:href="#mb162123b93" x="94.507647" y="258.354323" style="stroke: #000000"/>
     <use xlink:href="#mb162123b93" x="84.343469" y="263.950795" style="stroke: #000000"/>
    </g>
   </g>
   <g id="matplotlib.axis_1">
    <g id="xtick_1">
     <g id="line2d_1">
      <defs>
       <path id="m665019b58b" d="M 0 0 
L 0 3.5 
" style="stroke: #000000; stroke-width: 0.8"/>
      </defs>
      <g>
       <use xlink:href="#m665019b58b" x="73.828572" y="307.584" style="stroke: #000000; stroke-width: 0.8"/>
      </g>
     </g>
     <g id="text_1">
      <!-- 0 -->
      <g transform="translate(70.647322 322.182437) scale(0.1 -0.1)">
       <defs>
        <path id="DejaVuSans-30" d="M 2034 4250 
Q 1547 4250 1301 3770 
Q 1056 3291 1056 2328 
Q 1056 1369 1301 889 
Q 1547 409 2034 409 
Q 2525 409 2770 889 
Q 3016 1369 3016 2328 
Q 3016 3291 2770 3770 
Q 2525 4250 2034 4250 
z
M 2034 4750 
Q 2819 4750 3233 4129 
Q 3647 3509 3647 2328 
Q 3647 1150 3233 529 
Q 2819 -91 2034 -91 
Q 1250 -91 836 529 
Q 422 1150 422 2328 
Q 422 3509 836 4129 
Q 1250 4750 2034 4750 
z
" transform="scale(0.015625)"/>
       </defs>
       <use xlink:href="#DejaVuSans-30"/>
      </g>
     </g>
    </g>
    <g id="xtick_2">
     <g id="line2d_2">
      <g>
       <use xlink:href="#m665019b58b" x="120.429645" y="307.584" style="stroke: #000000; stroke-width: 0.8"/>
      </g>
     </g>
     <g id="text_2">
      <!-- 20 -->
      <g transform="translate(114.067145 322.182437) scale(0.1 -0.1)">
       <defs>
        <path id="DejaVuSans-32" d="M 1228 531 
L 3431 531 
L 3431 0 
L 469 0 
L 469 531 
Q 828 903 1448 1529 
Q 2069 2156 2228 2338 
Q 2531 2678 2651 2914 
Q 2772 3150 2772 3378 
Q 2772 3750 2511 3984 
Q 2250 4219 1831 4219 
Q 1534 4219 1204 4116 
Q 875 4013 500 3803 
L 500 4441 
Q 881 4594 1212 4672 
Q 1544 4750 1819 4750 
Q 2544 4750 2975 4387 
Q 3406 4025 3406 3419 
Q 3406 3131 3298 2873 
Q 3191 2616 2906 2266 
Q 2828 2175 2409 1742 
Q 1991 1309 1228 531 
z
" transform="scale(0.015625)"/>
       </defs>
       <use xlink:href="#DejaVuSans-32"/>
       <use xlink:href="#DejaVuSans-30" x="63.623047"/>
      </g>
     </g>
    </g>
    <g id="xtick_3">
     <g id="line2d_3">
      <g>
       <use xlink:href="#m665019b58b" x="167.030718" y="307.584" style="stroke: #000000; stroke-width: 0.8"/>
      </g>
     </g>
     <g id="text_3">
      <!-- 40 -->
      <g transform="translate(160.668218 322.182437) scale(0.1 -0.1)">
       <defs>
        <path id="DejaVuSans-34" d="M 2419 4116 
L 825 1625 
L 2419 1625 
L 2419 4116 
z
M 2253 4666 
L 3047 4666 
L 3047 1625 
L 3713 1625 
L 3713 1100 
L 3047 1100 
L 3047 0 
L 2419 0 
L 2419 1100 
L 313 1100 
L 313 1709 
L 2253 4666 
z
" transform="scale(0.015625)"/>
       </defs>
       <use xlink:href="#DejaVuSans-34"/>
       <use xlink:href="#DejaVuSans-30" x="63.623047"/>
      </g>
     </g>
    </g>
    <g id="xtick_4">
     <g id="line2d_4">
      <g>
       <use xlink:href="#m665019b58b" x="213.63179" y="307.584" style="stroke: #000000; stroke-width: 0.8"/>
      </g>
     </g>
     <g id="text_4">
      <!-- 60 -->
      <g transform="translate(207.26929 322.182437) scale(0.1 -0.1)">
       <defs>
        <path id="DejaVuSans-36" d="M 2113 2584 
Q 1688 2584 1439 2293 
Q 1191 2003 1191 1497 
Q 1191 994 1439 701 
Q 1688 409 2113 409 
Q 2538 409 2786 701 
Q 3034 994 3034 1497 
Q 3034 2003 2786 2293 
Q 2538 2584 2113 2584 
z
M 3366 4563 
L 3366 3988 
Q 3128 4100 2886 4159 
Q 2644 4219 2406 4219 
Q 1781 4219 1451 3797 
Q 1122 3375 1075 2522 
Q 1259 2794 1537 2939 
Q 1816 3084 2150 3084 
Q 2853 3084 3261 2657 
Q 3669 2231 3669 1497 
Q 3669 778 3244 343 
Q 2819 -91 2113 -91 
Q 1303 -91 875 529 
Q 447 1150 447 2328 
Q 447 3434 972 4092 
Q 1497 4750 2381 4750 
Q 2619 4750 2861 4703 
Q 3103 4656 3366 4563 
z
" transform="scale(0.015625)"/>
       </defs>
       <use xlink:href="#DejaVuSans-36"/>
       <use xlink:href="#DejaVuSans-30" x="63.623047"/>
      </g>
     </g>
    </g>
    <g id="xtick_5">
     <g id="line2d_5">
      <g>
       <use xlink:href="#m665019b58b" x="260.232863" y="307.584" style="stroke: #000000; stroke-width: 0.8"/>
      </g>
     </g>
     <g id="text_5">
      <!-- 80 -->
      <g transform="translate(253.870363 322.182437) scale(0.1 -0.1)">
       <defs>
        <path id="DejaVuSans-38" d="M 2034 2216 
Q 1584 2216 1326 1975 
Q 1069 1734 1069 1313 
Q 1069 891 1326 650 
Q 1584 409 2034 409 
Q 2484 409 2743 651 
Q 3003 894 3003 1313 
Q 3003 1734 2745 1975 
Q 2488 2216 2034 2216 
z
M 1403 2484 
Q 997 2584 770 2862 
Q 544 3141 544 3541 
Q 544 4100 942 4425 
Q 1341 4750 2034 4750 
Q 2731 4750 3128 4425 
Q 3525 4100 3525 3541 
Q 3525 3141 3298 2862 
Q 3072 2584 2669 2484 
Q 3125 2378 3379 2068 
Q 3634 1759 3634 1313 
Q 3634 634 3220 271 
Q 2806 -91 2034 -91 
Q 1263 -91 848 271 
Q 434 634 434 1313 
Q 434 1759 690 2068 
Q 947 2378 1403 2484 
z
M 1172 3481 
Q 1172 3119 1398 2916 
Q 1625 2713 2034 2713 
Q 2441 2713 2670 2916 
Q 2900 3119 2900 3481 
Q 2900 3844 2670 4047 
Q 2441 4250 2034 4250 
Q 1625 4250 1398 4047 
Q 1172 3844 1172 3481 
z
" transform="scale(0.015625)"/>
       </defs>
       <use xlink:href="#DejaVuSans-38"/>
       <use xlink:href="#DejaVuSans-30" x="63.623047"/>
      </g>
     </g>
    </g>
    <g id="xtick_6">
     <g id="line2d_6">
      <g>
       <use xlink:href="#m665019b58b" x="306.833936" y="307.584" style="stroke: #000000; stroke-width: 0.8"/>
      </g>
     </g>
     <g id="text_6">
      <!-- 100 -->
      <g transform="translate(297.290186 322.182437) scale(0.1 -0.1)">
       <defs>
        <path id="DejaVuSans-31" d="M 794 531 
L 1825 531 
L 1825 4091 
L 703 3866 
L 703 4441 
L 1819 4666 
L 2450 4666 
L 2450 531 
L 3481 531 
L 3481 0 
L 794 0 
L 794 531 
z
" transform="scale(0.015625)"/>
       </defs>
       <use xlink:href="#DejaVuSans-31"/>
       <use xlink:href="#DejaVuSans-30" x="63.623047"/>
       <use xlink:href="#DejaVuSans-30" x="127.246094"/>
      </g>
     </g>
    </g>
    <g id="xtick_7">
     <g id="line2d_7">
      <g>
       <use xlink:href="#m665019b58b" x="353.435009" y="307.584" style="stroke: #000000; stroke-width: 0.8"/>
      </g>
     </g>
     <g id="text_7">
      <!-- 120 -->
      <g transform="translate(343.891259 322.182437) scale(0.1 -0.1)">
       <use xlink:href="#DejaVuSans-31"/>
       <use xlink:href="#DejaVuSans-32" x="63.623047"/>
       <use xlink:href="#DejaVuSans-30" x="127.246094"/>
      </g>
     </g>
    </g>
    <g id="xtick_8">
     <g id="line2d_8">
      <g>
       <use xlink:href="#m665019b58b" x="400.036082" y="307.584" style="stroke: #000000; stroke-width: 0.8"/>
      </g>
     </g>
     <g id="text_8">
      <!-- 140 -->
      <g transform="translate(390.492332 322.182437) scale(0.1 -0.1)">
       <use xlink:href="#DejaVuSans-31"/>
       <use xlink:href="#DejaVuSans-34" x="63.623047"/>
       <use xlink:href="#DejaVuSans-30" x="127.246094"/>
      </g>
     </g>
    </g>
    <g id="text_9">
     <!-- Time -->
     <g transform="translate(390.252813 335.860562) scale(0.1 -0.1)">
      <defs>
       <path id="DejaVuSans-54" d="M -19 4666 
L 3928 4666 
L 3928 4134 
L 2272 4134 
L 2272 0 
L 1638 0 
L 1638 4134 
L -19 4134 
L -19 4666 
z
" transform="scale(0.015625)"/>
       <path id="DejaVuSans-69" d="M 603 3500 
L 1178 3500 
L 1178 0 
L 603 0 
L 603 3500 
z
M 603 4863 
L 1178 4863 
L 1178 4134 
L 603 4134 
L 603 4863 
z
" transform="scale(0.015625)"/>
       <path id="DejaVuSans-6d" d="M 3328 2828 
Q 3544 3216 3844 3400 
Q 4144 3584 4550 3584 
Q 5097 3584 5394 3201 
Q 5691 2819 5691 2113 
L 5691 0 
L 5113 0 
L 5113 2094 
Q 5113 2597 4934 2840 
Q 4756 3084 4391 3084 
Q 3944 3084 3684 2787 
Q 3425 2491 3425 1978 
L 3425 0 
L 2847 0 
L 2847 2094 
Q 2847 2600 2669 2842 
Q 2491 3084 2119 3084 
Q 1678 3084 1418 2786 
Q 1159 2488 1159 1978 
L 1159 0 
L 581 0 
L 581 3500 
L 1159 3500 
L 1159 2956 
Q 1356 3278 1631 3431 
Q 1906 3584 2284 3584 
Q 2666 3584 2933 3390 
Q 3200 3197 3328 2828 
z
" transform="scale(0.015625)"/>
       <path id="DejaVuSans-65" d="M 3597 1894 
L 3597 1613 
L 953 1613 
Q 991 1019 1311 708 
Q 1631 397 2203 397 
Q 2534 397 2845 478 
Q 3156 559 3463 722 
L 3463 178 
Q 3153 47 2828 -22 
Q 2503 -91 2169 -91 
Q 1331 -91 842 396 
Q 353 884 353 1716 
Q 353 2575 817 3079 
Q 1281 3584 2069 3584 
Q 2775 3584 3186 3129 
Q 3597 2675 3597 1894 
z
M 3022 2063 
Q 3016 2534 2758 2815 
Q 2500 3097 2075 3097 
Q 1594 3097 1305 2825 
Q 1016 2553 972 2059 
L 3022 2063 
z
" transform="scale(0.015625)"/>
      </defs>
      <use xlink:href="#DejaVuSans-54"/>
      <use xlink:href="#DejaVuSans-69" x="57.958984"/>
      <use xlink:href="#DejaVuSans-6d" x="85.742188"/>
      <use xlink:href="#DejaVuSans-65" x="183.154297"/>
     </g>
    </g>
   </g>
   <g id="matplotlib.axis_2">
    <g id="ytick_1">
     <g id="line2d_9">
      <defs>
       <path id="ma98f2f7573" d="M 0 0 
L -3.5 0 
" style="stroke: #000000; stroke-width: 0.8"/>
      </defs>
      <g>
       <use xlink:href="#ma98f2f7573" x="57.6" y="299.32592" style="stroke: #000000; stroke-width: 0.8"/>
      </g>
     </g>
     <g id="text_10">
      <!-- 80 -->
      <g transform="translate(37.875 303.125138) scale(0.1 -0.1)">
       <use xlink:href="#DejaVuSans-38"/>
       <use xlink:href="#DejaVuSans-30" x="63.623047"/>
      </g>
     </g>
    </g>
    <g id="ytick_2">
     <g id="line2d_10">
      <g>
       <use xlink:href="#ma98f2f7573" x="57.6" y="263.499018" style="stroke: #000000; stroke-width: 0.8"/>
      </g>
     </g>
     <g id="text_11">
      <!-- 100 -->
      <g transform="translate(31.5125 267.298236) scale(0.1 -0.1)">
       <use xlink:href="#DejaVuSans-31"/>
       <use xlink:href="#DejaVuSans-30" x="63.623047"/>
       <use xlink:href="#DejaVuSans-30" x="127.246094"/>
      </g>
     </g>
    </g>
    <g id="ytick_3">
     <g id="line2d_11">
      <g>
       <use xlink:href="#ma98f2f7573" x="57.6" y="227.672115" style="stroke: #000000; stroke-width: 0.8"/>
      </g>
     </g>
     <g id="text_12">
      <!-- 120 -->
      <g transform="translate(31.5125 231.471334) scale(0.1 -0.1)">
       <use xlink:href="#DejaVuSans-31"/>
       <use xlink:href="#DejaVuSans-32" x="63.623047"/>
       <use xlink:href="#DejaVuSans-30" x="127.246094"/>
      </g>
     </g>
    </g>
    <g id="ytick_4">
     <g id="line2d_12">
      <g>
       <use xlink:href="#ma98f2f7573" x="57.6" y="191.845213" style="stroke: #000000; stroke-width: 0.8"/>
      </g>
     </g>
     <g id="text_13">
      <!-- 140 -->
      <g transform="translate(31.5125 195.644432) scale(0.1 -0.1)">
       <use xlink:href="#DejaVuSans-31"/>
       <use xlink:href="#DejaVuSans-34" x="63.623047"/>
       <use xlink:href="#DejaVuSans-30" x="127.246094"/>
      </g>
     </g>
    </g>
    <g id="ytick_5">
     <g id="line2d_13">
      <g>
       <use xlink:href="#ma98f2f7573" x="57.6" y="156.018311" style="stroke: #000000; stroke-width: 0.8"/>
      </g>
     </g>
     <g id="text_14">
      <!-- 160 -->
      <g transform="translate(31.5125 159.81753) scale(0.1 -0.1)">
       <use xlink:href="#DejaVuSans-31"/>
       <use xlink:href="#DejaVuSans-36" x="63.623047"/>
       <use xlink:href="#DejaVuSans-30" x="127.246094"/>
      </g>
     </g>
    </g>
    <g id="ytick_6">
     <g id="line2d_14">
      <g>
       <use xlink:href="#ma98f2f7573" x="57.6" y="120.191409" style="stroke: #000000; stroke-width: 0.8"/>
      </g>
     </g>
     <g id="text_15">
      <!-- 180 -->
      <g transform="translate(31.5125 123.990628) scale(0.1 -0.1)">
       <use xlink:href="#DejaVuSans-31"/>
       <use xlink:href="#DejaVuSans-38" x="63.623047"/>
       <use xlink:href="#DejaVuSans-30" x="127.246094"/>
      </g>
     </g>
    </g>
    <g id="ytick_7">
     <g id="line2d_15">
      <g>
       <use xlink:href="#ma98f2f7573" x="57.6" y="84.364507" style="stroke: #000000; stroke-width: 0.8"/>
      </g>
     </g>
     <g id="text_16">
      <!-- 200 -->
      <g transform="translate(31.5125 88.163725) scale(0.1 -0.1)">
       <use xlink:href="#DejaVuSans-32"/>
       <use xlink:href="#DejaVuSans-30" x="63.623047"/>
       <use xlink:href="#DejaVuSans-30" x="127.246094"/>
      </g>
     </g>
    </g>
    <g id="ytick_8">
     <g id="line2d_16">
      <g>
       <use xlink:href="#ma98f2f7573" x="57.6" y="48.537604" style="stroke: #000000; stroke-width: 0.8"/>
      </g>
     </g>
     <g id="text_17">
      <!-- 220 -->
      <g transform="translate(31.5125 52.336823) scale(0.1 -0.1)">
       <use xlink:href="#DejaVuSans-32"/>
       <use xlink:href="#DejaVuSans-32" x="63.623047"/>
       <use xlink:href="#DejaVuSans-30" x="127.246094"/>
      </g>
     </g>
    </g>
    <g id="text_18">
     <!-- Observed value -->
     <g transform="translate(25.432812 120.079813) rotate(-90) scale(0.1 -0.1)">
      <defs>
       <path id="DejaVuSans-4f" d="M 2522 4238 
Q 1834 4238 1429 3725 
Q 1025 3213 1025 2328 
Q 1025 1447 1429 934 
Q 1834 422 2522 422 
Q 3209 422 3611 934 
Q 4013 1447 4013 2328 
Q 4013 3213 3611 3725 
Q 3209 4238 2522 4238 
z
M 2522 4750 
Q 3503 4750 4090 4092 
Q 4678 3434 4678 2328 
Q 4678 1225 4090 567 
Q 3503 -91 2522 -91 
Q 1538 -91 948 565 
Q 359 1222 359 2328 
Q 359 3434 948 4092 
Q 1538 4750 2522 4750 
z
" transform="scale(0.015625)"/>
       <path id="DejaVuSans-62" d="M 3116 1747 
Q 3116 2381 2855 2742 
Q 2594 3103 2138 3103 
Q 1681 3103 1420 2742 
Q 1159 2381 1159 1747 
Q 1159 1113 1420 752 
Q 1681 391 2138 391 
Q 2594 391 2855 752 
Q 3116 1113 3116 1747 
z
M 1159 2969 
Q 1341 3281 1617 3432 
Q 1894 3584 2278 3584 
Q 2916 3584 3314 3078 
Q 3713 2572 3713 1747 
Q 3713 922 3314 415 
Q 2916 -91 2278 -91 
Q 1894 -91 1617 61 
Q 1341 213 1159 525 
L 1159 0 
L 581 0 
L 581 4863 
L 1159 4863 
L 1159 2969 
z
" transform="scale(0.015625)"/>
       <path id="DejaVuSans-73" d="M 2834 3397 
L 2834 2853 
Q 2591 2978 2328 3040 
Q 2066 3103 1784 3103 
Q 1356 3103 1142 2972 
Q 928 2841 928 2578 
Q 928 2378 1081 2264 
Q 1234 2150 1697 2047 
L 1894 2003 
Q 2506 1872 2764 1633 
Q 3022 1394 3022 966 
Q 3022 478 2636 193 
Q 2250 -91 1575 -91 
Q 1294 -91 989 -36 
Q 684 19 347 128 
L 347 722 
Q 666 556 975 473 
Q 1284 391 1588 391 
Q 1994 391 2212 530 
Q 2431 669 2431 922 
Q 2431 1156 2273 1281 
Q 2116 1406 1581 1522 
L 1381 1569 
Q 847 1681 609 1914 
Q 372 2147 372 2553 
Q 372 3047 722 3315 
Q 1072 3584 1716 3584 
Q 2034 3584 2315 3537 
Q 2597 3491 2834 3397 
z
" transform="scale(0.015625)"/>
       <path id="DejaVuSans-72" d="M 2631 2963 
Q 2534 3019 2420 3045 
Q 2306 3072 2169 3072 
Q 1681 3072 1420 2755 
Q 1159 2438 1159 1844 
L 1159 0 
L 581 0 
L 581 3500 
L 1159 3500 
L 1159 2956 
Q 1341 3275 1631 3429 
Q 1922 3584 2338 3584 
Q 2397 3584 2469 3576 
Q 2541 3569 2628 3553 
L 2631 2963 
z
" transform="scale(0.015625)"/>
       <path id="DejaVuSans-76" d="M 191 3500 
L 800 3500 
L 1894 563 
L 2988 3500 
L 3597 3500 
L 2284 0 
L 1503 0 
L 191 3500 
z
" transform="scale(0.015625)"/>
       <path id="DejaVuSans-64" d="M 2906 2969 
L 2906 4863 
L 3481 4863 
L 3481 0 
L 2906 0 
L 2906 525 
Q 2725 213 2448 61 
Q 2172 -91 1784 -91 
Q 1150 -91 751 415 
Q 353 922 353 1747 
Q 353 2572 751 3078 
Q 1150 3584 1784 3584 
Q 2172 3584 2448 3432 
Q 2725 3281 2906 2969 
z
M 947 1747 
Q 947 1113 1208 752 
Q 1469 391 1925 391 
Q 2381 391 2643 752 
Q 2906 1113 2906 1747 
Q 2906 2381 2643 2742 
Q 2381 3103 1925 3103 
Q 1469 3103 1208 2742 
Q 947 2381 947 1747 
z
" transform="scale(0.015625)"/>
       <path id="DejaVuSans-20" transform="scale(0.015625)"/>
       <path id="DejaVuSans-61" d="M 2194 1759 
Q 1497 1759 1228 1600 
Q 959 1441 959 1056 
Q 959 750 1161 570 
Q 1363 391 1709 391 
Q 2188 391 2477 730 
Q 2766 1069 2766 1631 
L 2766 1759 
L 2194 1759 
z
M 3341 1997 
L 3341 0 
L 2766 0 
L 2766 531 
Q 2569 213 2275 61 
Q 1981 -91 1556 -91 
Q 1019 -91 701 211 
Q 384 513 384 1019 
Q 384 1609 779 1909 
Q 1175 2209 1959 2209 
L 2766 2209 
L 2766 2266 
Q 2766 2663 2505 2880 
Q 2244 3097 1772 3097 
Q 1472 3097 1187 3025 
Q 903 2953 641 2809 
L 641 3341 
Q 956 3463 1253 3523 
Q 1550 3584 1831 3584 
Q 2591 3584 2966 3190 
Q 3341 2797 3341 1997 
z
" transform="scale(0.015625)"/>
       <path id="DejaVuSans-6c" d="M 603 4863 
L 1178 4863 
L 1178 0 
L 603 0 
L 603 4863 
z
" transform="scale(0.015625)"/>
       <path id="DejaVuSans-75" d="M 544 1381 
L 544 3500 
L 1119 3500 
L 1119 1403 
Q 1119 906 1312 657 
Q 1506 409 1894 409 
Q 2359 409 2629 706 
Q 2900 1003 2900 1516 
L 2900 3500 
L 3475 3500 
L 3475 0 
L 2900 0 
L 2900 538 
Q 2691 219 2414 64 
Q 2138 -91 1772 -91 
Q 1169 -91 856 284 
Q 544 659 544 1381 
z
M 1991 3584 
L 1991 3584 
z
" transform="scale(0.015625)"/>
      </defs>
      <use xlink:href="#DejaVuSans-4f"/>
      <use xlink:href="#DejaVuSans-62" x="78.710938"/>
      <use xlink:href="#DejaVuSans-73" x="142.1875"/>
      <use xlink:href="#DejaVuSans-65" x="194.287109"/>
      <use xlink:href="#DejaVuSans-72" x="255.810547"/>
      <use xlink:href="#DejaVuSans-76" x="296.923828"/>
      <use xlink:href="#DejaVuSans-65" x="356.103516"/>
      <use xlink:href="#DejaVuSans-64" x="417.626953"/>
      <use xlink:href="#DejaVuSans-20" x="481.103516"/>
      <use xlink:href="#DejaVuSans-76" x="512.890625"/>
      <use xlink:href="#DejaVuSans-61" x="572.070312"/>
      <use xlink:href="#DejaVuSans-6c" x="633.349609"/>
      <use xlink:href="#DejaVuSans-75" x="661.132812"/>
      <use xlink:href="#DejaVuSans-65" x="724.511719"/>
     </g>
    </g>
   </g>
   <g id="patch_3">
    <path d="M 57.6 307.584 
L 57.6 41.472 
" style="fill: none; stroke: #000000; stroke-width: 0.8; stroke-linejoin: miter; stroke-linecap: square"/>
   </g>
   <g id="patch_4">
    <path d="M 414.72 307.584 
L 414.72 41.472 
" style="fill: none; stroke: #000000; stroke-width: 0.8; stroke-linejoin: miter; stroke-linecap: square"/>
   </g>
   <g id="patch_5">
    <path d="M 57.6 307.584 
L 414.72 307.584 
" style="fill: none; stroke: #000000; stroke-width: 0.8; stroke-linejoin: miter; stroke-linecap: square"/>
   </g>
   <g id="patch_6">
    <path d="M 57.6 41.472 
L 414.72 41.472 
" style="fill: none; stroke: #000000; stroke-width: 0.8; stroke-linejoin: miter; stroke-linecap: square"/>
   </g>
   <g id="legend_1">
    <g id="patch_7">
     <path d="M 337.365313 64.150125 
L 407.72 64.150125 
Q 409.72 64.150125 409.72 62.150125 
L 409.72 48.472 
Q 409.72 46.472 407.72 46.472 
L 337.365313 46.472 
Q 335.365313 46.472 335.365313 48.472 
L 335.365313 62.150125 
Q 335.365313 64.150125 337.365313 64.150125 
z
" style="fill: #ffffff; opacity: 0.8; stroke: #cccccc; stroke-linejoin: miter"/>
    </g>
    <g id="PathCollection_2">
     <g>
      <use xlink:href="#mb162123b93" x="349.365313" y="55.445438" style="stroke: #000000"/>
     </g>
    </g>
    <g id="text_19">
     <!-- Regular -->
     <g transform="translate(367.365313 58.070438) scale(0.1 -0.1)">
      <defs>
       <path id="DejaVuSans-52" d="M 2841 2188 
Q 3044 2119 3236 1894 
Q 3428 1669 3622 1275 
L 4263 0 
L 3584 0 
L 2988 1197 
Q 2756 1666 2539 1819 
Q 2322 1972 1947 1972 
L 1259 1972 
L 1259 0 
L 628 0 
L 628 4666 
L 2053 4666 
Q 2853 4666 3247 4331 
Q 3641 3997 3641 3322 
Q 3641 2881 3436 2590 
Q 3231 2300 2841 2188 
z
M 1259 4147 
L 1259 2491 
L 2053 2491 
Q 2509 2491 2742 2702 
Q 2975 2913 2975 3322 
Q 2975 3731 2742 3939 
Q 2509 4147 2053 4147 
L 1259 4147 
z
" transform="scale(0.015625)"/>
       <path id="DejaVuSans-67" d="M 2906 1791 
Q 2906 2416 2648 2759 
Q 2391 3103 1925 3103 
Q 1463 3103 1205 2759 
Q 947 2416 947 1791 
Q 947 1169 1205 825 
Q 1463 481 1925 481 
Q 2391 481 2648 825 
Q 2906 1169 2906 1791 
z
M 3481 434 
Q 3481 -459 3084 -895 
Q 2688 -1331 1869 -1331 
Q 1566 -1331 1297 -1286 
Q 1028 -1241 775 -1147 
L 775 -588 
Q 1028 -725 1275 -790 
Q 1522 -856 1778 -856 
Q 2344 -856 2625 -561 
Q 2906 -266 2906 331 
L 2906 616 
Q 2728 306 2450 153 
Q 2172 0 1784 0 
Q 1141 0 747 490 
Q 353 981 353 1791 
Q 353 2603 747 3093 
Q 1141 3584 1784 3584 
Q 2172 3584 2450 3431 
Q 2728 3278 2906 2969 
L 2906 3500 
L 3481 3500 
L 3481 434 
z
" transform="scale(0.015625)"/>
      </defs>
      <use xlink:href="#DejaVuSans-52"/>
      <use xlink:href="#DejaVuSans-65" x="64.982422"/>
      <use xlink:href="#DejaVuSans-67" x="126.505859"/>
      <use xlink:href="#DejaVuSans-75" x="189.982422"/>
      <use xlink:href="#DejaVuSans-6c" x="253.361328"/>
      <use xlink:href="#DejaVuSans-61" x="281.144531"/>
      <use xlink:href="#DejaVuSans-72" x="342.423828"/>
     </g>
    </g>
   </g>
  </g>
 </g>
 <defs>
  <clipPath id="p6a5b6a6736">
   <rect x="57.6" y="41.472" width="357.12" height="266.112"/>
  </clipPath>
 </defs>
</svg>
