<?xml version="1.0" encoding="utf-8" standalone="no"?>
<!DOCTYPE svg PUBLIC "-//W3C//DTD SVG 1.1//EN"
  "http://www.w3.org/Graphics/SVG/1.1/DTD/svg11.dtd">
<svg xmlns:xlink="http://www.w3.org/1999/xlink" width="460.8pt" height="345.6pt" viewBox="0 0 460.8 345.6" xmlns="http://www.w3.org/2000/svg" version="1.1">
 <metadata>
  <rdf:RDF xmlns:dc="http://purl.org/dc/elements/1.1/" xmlns:cc="http://creativecommons.org/ns#" xmlns:rdf="http://www.w3.org/1999/02/22-rdf-syntax-ns#">
   <cc:Work>
    <dc:type rdf:resource="http://purl.org/dc/dcmitype/StillImage"/>
    <dc:date>2023-09-06T09:13:48.428877</dc:date>
    <dc:format>image/svg+xml</dc:format>
    <dc:creator>
     <cc:Agent>
      <dc:title>Matplotlib v3.7.1, https://matplotlib.org/</dc:title>
     </cc:Agent>
    </dc:creator>
   </cc:Work>
  </rdf:RDF>
 </metadata>
 <defs>
  <style type="text/css">*{stroke-linejoin: round; stroke-linecap: butt}</style>
 </defs>
 <g id="figure_1">
  <g id="patch_1">
   <path d="M 0 345.6 
L 460.8 345.6 
L 460.8 0 
L 0 0 
z
" style="fill: #ffffff"/>
  </g>
  <g id="axes_1">
   <g id="patch_2">
    <path d="M 57.6 307.584 
L 414.72 307.584 
L 414.72 41.472 
L 57.6 41.472 
z
" style="fill: #ffffff"/>
   </g>
   <g id="PathCollection_1">
    <defs>
     <path id="m303d17a687" d="M 0 3 
C 0.795609 3 1.55874 2.683901 2.12132 2.12132 
C 2.683901 1.55874 3 0.795609 3 0 
C 3 -0.795609 2.683901 -1.55874 2.12132 -2.12132 
C 1.55874 -2.683901 0.795609 -3 0 -3 
C -0.795609 -3 -1.55874 -2.683901 -2.12132 -2.12132 
C -2.683901 -1.55874 -3 -0.795609 -3 0 
C -3 0.795609 -2.683901 1.55874 -2.12132 2.12132 
C -1.55874 2.683901 -0.795609 3 0 3 
z
" style="stroke: #000000"/>
    </defs>
    <g clip-path="url(#p51fe7f5415)">
     <use xlink:href="#m303d17a687" x="201.759013" y="230.443443" style="stroke: #000000"/>
     <use xlink:href="#m303d17a687" x="321.677126" y="76.945933" style="stroke: #000000"/>
     <use xlink:href="#m303d17a687" x="281.435967" y="125.892492" style="stroke: #000000"/>
     <use xlink:href="#m303d17a687" x="263.743371" y="168.91301" style="stroke: #000000"/>
     <use xlink:href="#m303d17a687" x="368.868085" y="154.550721" style="stroke: #000000"/>
     <use xlink:href="#m303d17a687" x="232.320329" y="283.62884" style="stroke: #000000"/>
     <use xlink:href="#m303d17a687" x="238.983227" y="116.950366" style="stroke: #000000"/>
     <use xlink:href="#m303d17a687" x="371.00546" y="142.994817" style="stroke: #000000"/>
     <use xlink:href="#m303d17a687" x="229.56524" y="160.611535" style="stroke: #000000"/>
     <use xlink:href="#m303d17a687" x="300.735158" y="143.134518" style="stroke: #000000"/>
     <use xlink:href="#m303d17a687" x="216.00323" y="134.21327" style="stroke: #000000"/>
     <use xlink:href="#m303d17a687" x="344.216697" y="95.885099" style="stroke: #000000"/>
     <use xlink:href="#m303d17a687" x="208.280508" y="160.836655" style="stroke: #000000"/>
     <use xlink:href="#m303d17a687" x="398.487273" y="101.295696" style="stroke: #000000"/>
     <use xlink:href="#m303d17a687" x="332.950415" y="157.248977" style="stroke: #000000"/>
     <use xlink:href="#m303d17a687" x="289.303423" y="208.676183" style="stroke: #000000"/>
     <use xlink:href="#m303d17a687" x="242.419192" y="119.34899" style="stroke: #000000"/>
     <use xlink:href="#m303d17a687" x="271.770196" y="206.475327" style="stroke: #000000"/>
     <use xlink:href="#m303d17a687" x="209.459661" y="53.568" style="stroke: #000000"/>
     <use xlink:href="#m303d17a687" x="283.723829" y="119.20216" style="stroke: #000000"/>
     <use xlink:href="#m303d17a687" x="243.846421" y="119.468064" style="stroke: #000000"/>
     <use xlink:href="#m303d17a687" x="312.389833" y="160.577954" style="stroke: #000000"/>
     <use xlink:href="#m303d17a687" x="383.812769" y="156.1218" style="stroke: #000000"/>
     <use xlink:href="#m303d17a687" x="305.594399" y="161.631547" style="stroke: #000000"/>
     <use xlink:href="#m303d17a687" x="287.241771" y="88.943172" style="stroke: #000000"/>
     <use xlink:href="#m303d17a687" x="232.225081" y="102.31686" style="stroke: #000000"/>
     <use xlink:href="#m303d17a687" x="208.07483" y="139.176952" style="stroke: #000000"/>
     <use xlink:href="#m303d17a687" x="349.100198" y="104.001455" style="stroke: #000000"/>
     <use xlink:href="#m303d17a687" x="290.206045" y="160.947777" style="stroke: #000000"/>
     <use xlink:href="#m303d17a687" x="260.333613" y="115.759406" style="stroke: #000000"/>
     <use xlink:href="#m303d17a687" x="263.247063" y="200.659989" style="stroke: #000000"/>
     <use xlink:href="#m303d17a687" x="367.103669" y="147.959999" style="stroke: #000000"/>
     <use xlink:href="#m303d17a687" x="393.71002" y="105.127512" style="stroke: #000000"/>
     <use xlink:href="#m303d17a687" x="194.213432" y="160.533897" style="stroke: #000000"/>
     <use xlink:href="#m303d17a687" x="233.777313" y="162.217541" style="stroke: #000000"/>
     <use xlink:href="#m303d17a687" x="359.386143" y="172.471544" style="stroke: #000000"/>
     <use xlink:href="#m303d17a687" x="248.501296" y="197.489758" style="stroke: #000000"/>
     <use xlink:href="#m303d17a687" x="262.309053" y="100.135797" style="stroke: #000000"/>
     <use xlink:href="#m303d17a687" x="227.367895" y="109.955751" style="stroke: #000000"/>
     <use xlink:href="#m303d17a687" x="214.842759" y="141.910643" style="stroke: #000000"/>
     <use xlink:href="#m303d17a687" x="370.066778" y="55.930648" style="stroke: #000000"/>
     <use xlink:href="#m303d17a687" x="335.197919" y="200.167594" style="stroke: #000000"/>
     <use xlink:href="#m303d17a687" x="209.109863" y="149.653466" style="stroke: #000000"/>
     <use xlink:href="#m303d17a687" x="373.698286" y="166.29997" style="stroke: #000000"/>
     <use xlink:href="#m303d17a687" x="285.903048" y="149.288581" style="stroke: #000000"/>
     <use xlink:href="#m303d17a687" x="190.177021" y="170.812355" style="stroke: #000000"/>
     <use xlink:href="#m303d17a687" x="389.605752" y="122.448016" style="stroke: #000000"/>
     <use xlink:href="#m303d17a687" x="341.658889" y="147.86493" style="stroke: #000000"/>
     <use xlink:href="#m303d17a687" x="355.281496" y="96.590902" style="stroke: #000000"/>
     <use xlink:href="#m303d17a687" x="385.773634" y="163.203188" style="stroke: #000000"/>
     <use xlink:href="#m303d17a687" x="213.939112" y="190.982891" style="stroke: #000000"/>
     <use xlink:href="#m303d17a687" x="277.704728" y="165.563521" style="stroke: #000000"/>
     <use xlink:href="#m303d17a687" x="206.603824" y="176.903809" style="stroke: #000000"/>
     <use xlink:href="#m303d17a687" x="343.956961" y="198.203687" style="stroke: #000000"/>
     <use xlink:href="#m303d17a687" x="233.822226" y="107.446245" style="stroke: #000000"/>
     <use xlink:href="#m303d17a687" x="214.08626" y="123.556619" style="stroke: #000000"/>
     <use xlink:href="#m303d17a687" x="245.331495" y="145.126995" style="stroke: #000000"/>
     <use xlink:href="#m303d17a687" x="273.63231" y="150.40183" style="stroke: #000000"/>
     <use xlink:href="#m303d17a687" x="203.500677" y="167.904122" style="stroke: #000000"/>
     <use xlink:href="#m303d17a687" x="198.502447" y="149.832947" style="stroke: #000000"/>
     <use xlink:href="#m303d17a687" x="306.642351" y="177.029999" style="stroke: #000000"/>
     <use xlink:href="#m303d17a687" x="378.728926" y="185.004131" style="stroke: #000000"/>
     <use xlink:href="#m303d17a687" x="193.546194" y="67.861561" style="stroke: #000000"/>
     <use xlink:href="#m303d17a687" x="187.307976" y="196.811818" style="stroke: #000000"/>
     <use xlink:href="#m303d17a687" x="387.185416" y="176.032" style="stroke: #000000"/>
     <use xlink:href="#m303d17a687" x="369.654225" y="88.340552" style="stroke: #000000"/>
     <use xlink:href="#m303d17a687" x="368.45724" y="94.34927" style="stroke: #000000"/>
     <use xlink:href="#m303d17a687" x="322.734623" y="193.697533" style="stroke: #000000"/>
     <use xlink:href="#m303d17a687" x="361.670927" y="78.82357" style="stroke: #000000"/>
     <use xlink:href="#m303d17a687" x="189.475857" y="66.498885" style="stroke: #000000"/>
     <use xlink:href="#m303d17a687" x="392.125537" y="180.818529" style="stroke: #000000"/>
     <use xlink:href="#m303d17a687" x="278.437208" y="86.307758" style="stroke: #000000"/>
     <use xlink:href="#m303d17a687" x="357.348401" y="66.668105" style="stroke: #000000"/>
     <use xlink:href="#m303d17a687" x="203.913216" y="183.120642" style="stroke: #000000"/>
     <use xlink:href="#m303d17a687" x="287.358067" y="203.302258" style="stroke: #000000"/>
     <use xlink:href="#m303d17a687" x="248.764913" y="135.666111" style="stroke: #000000"/>
     <use xlink:href="#m303d17a687" x="296.546475" y="156.216192" style="stroke: #000000"/>
     <use xlink:href="#m303d17a687" x="320.434048" y="89.034101" style="stroke: #000000"/>
     <use xlink:href="#m303d17a687" x="186.931964" y="157.560607" style="stroke: #000000"/>
     <use xlink:href="#m303d17a687" x="307.140362" y="75.597998" style="stroke: #000000"/>
     <use xlink:href="#m303d17a687" x="364.247653" y="121.956345" style="stroke: #000000"/>
     <use xlink:href="#m303d17a687" x="256.328749" y="109.812565" style="stroke: #000000"/>
     <use xlink:href="#m303d17a687" x="332.79416" y="129.273515" style="stroke: #000000"/>
     <use xlink:href="#m303d17a687" x="190.949682" y="157.469397" style="stroke: #000000"/>
     <use xlink:href="#m303d17a687" x="292.193718" y="135.521836" style="stroke: #000000"/>
     <use xlink:href="#m303d17a687" x="327.604682" y="189.941038" style="stroke: #000000"/>
     <use xlink:href="#m303d17a687" x="323.262172" y="295.488" style="stroke: #000000"/>
     <use xlink:href="#m303d17a687" x="394.452689" y="131.983066" style="stroke: #000000"/>
     <use xlink:href="#m303d17a687" x="364.473528" y="114.669041" style="stroke: #000000"/>
     <use xlink:href="#m303d17a687" x="368.083099" y="144.678533" style="stroke: #000000"/>
     <use xlink:href="#m303d17a687" x="208.95324" y="142.117272" style="stroke: #000000"/>
     <use xlink:href="#m303d17a687" x="219.90806" y="192.16819" style="stroke: #000000"/>
     <use xlink:href="#m303d17a687" x="338.331069" y="115.071886" style="stroke: #000000"/>
     <use xlink:href="#m303d17a687" x="259.703972" y="184.540834" style="stroke: #000000"/>
     <use xlink:href="#m303d17a687" x="375.271756" y="199.934644" style="stroke: #000000"/>
     <use xlink:href="#m303d17a687" x="261.404538" y="139.944334" style="stroke: #000000"/>
     <use xlink:href="#m303d17a687" x="281.98862" y="160.315577" style="stroke: #000000"/>
     <use xlink:href="#m303d17a687" x="217.115981" y="230.31487" style="stroke: #000000"/>
     <use xlink:href="#m303d17a687" x="360.752981" y="102.983905" style="stroke: #000000"/>
     <use xlink:href="#m303d17a687" x="304.830381" y="161.940955" style="stroke: #000000"/>
     <use xlink:href="#m303d17a687" x="139.609917" y="143.573661" style="stroke: #000000"/>
     <use xlink:href="#m303d17a687" x="127.781775" y="179.472734" style="stroke: #000000"/>
     <use xlink:href="#m303d17a687" x="80.608287" y="181.290082" style="stroke: #000000"/>
     <use xlink:href="#m303d17a687" x="109.061097" y="89.275405" style="stroke: #000000"/>
     <use xlink:href="#m303d17a687" x="133.536222" y="208.339926" style="stroke: #000000"/>
     <use xlink:href="#m303d17a687" x="87.304991" y="146.423756" style="stroke: #000000"/>
     <use xlink:href="#m303d17a687" x="143.198731" y="139.000278" style="stroke: #000000"/>
     <use xlink:href="#m303d17a687" x="130.018068" y="121.819145" style="stroke: #000000"/>
     <use xlink:href="#m303d17a687" x="146.336307" y="99.075448" style="stroke: #000000"/>
     <use xlink:href="#m303d17a687" x="108.283947" y="170.765932" style="stroke: #000000"/>
     <use xlink:href="#m303d17a687" x="164.140555" y="174.004773" style="stroke: #000000"/>
     <use xlink:href="#m303d17a687" x="156.648767" y="151.951224" style="stroke: #000000"/>
     <use xlink:href="#m303d17a687" x="75.309865" y="141.519732" style="stroke: #000000"/>
     <use xlink:href="#m303d17a687" x="114.944758" y="106.32623" style="stroke: #000000"/>
     <use xlink:href="#m303d17a687" x="153.017154" y="215.340115" style="stroke: #000000"/>
     <use xlink:href="#m303d17a687" x="156.478315" y="124.791491" style="stroke: #000000"/>
     <use xlink:href="#m303d17a687" x="130.556855" y="149.983812" style="stroke: #000000"/>
     <use xlink:href="#m303d17a687" x="134.183873" y="235.404693" style="stroke: #000000"/>
     <use xlink:href="#m303d17a687" x="76.590804" y="67.892353" style="stroke: #000000"/>
     <use xlink:href="#m303d17a687" x="80.789131" y="68.14351" style="stroke: #000000"/>
     <use xlink:href="#m303d17a687" x="164.290962" y="116.935887" style="stroke: #000000"/>
     <use xlink:href="#m303d17a687" x="78.3784" y="114.170417" style="stroke: #000000"/>
     <use xlink:href="#m303d17a687" x="133.088175" y="192.709344" style="stroke: #000000"/>
     <use xlink:href="#m303d17a687" x="146.397894" y="171.099059" style="stroke: #000000"/>
     <use xlink:href="#m303d17a687" x="86.68676" y="193.984925" style="stroke: #000000"/>
     <use xlink:href="#m303d17a687" x="157.707369" y="184.594059" style="stroke: #000000"/>
     <use xlink:href="#m303d17a687" x="144.465063" y="201.588076" style="stroke: #000000"/>
     <use xlink:href="#m303d17a687" x="163.652469" y="195.672899" style="stroke: #000000"/>
     <use xlink:href="#m303d17a687" x="161.072809" y="226.719967" style="stroke: #000000"/>
     <use xlink:href="#m303d17a687" x="124.434831" y="215.065918" style="stroke: #000000"/>
     <use xlink:href="#m303d17a687" x="157.674804" y="143.889465" style="stroke: #000000"/>
     <use xlink:href="#m303d17a687" x="94.320157" y="173.073426" style="stroke: #000000"/>
     <use xlink:href="#m303d17a687" x="80.822779" y="156.11207" style="stroke: #000000"/>
     <use xlink:href="#m303d17a687" x="165.385351" y="195.30275" style="stroke: #000000"/>
     <use xlink:href="#m303d17a687" x="99.394912" y="174.101584" style="stroke: #000000"/>
     <use xlink:href="#m303d17a687" x="115.416854" y="126.121392" style="stroke: #000000"/>
     <use xlink:href="#m303d17a687" x="101.549287" y="120.342996" style="stroke: #000000"/>
     <use xlink:href="#m303d17a687" x="134.517381" y="113.589573" style="stroke: #000000"/>
     <use xlink:href="#m303d17a687" x="147.278505" y="165.474727" style="stroke: #000000"/>
     <use xlink:href="#m303d17a687" x="82.176739" y="202.770054" style="stroke: #000000"/>
     <use xlink:href="#m303d17a687" x="144.467207" y="278.288237" style="stroke: #000000"/>
     <use xlink:href="#m303d17a687" x="88.588354" y="112.425622" style="stroke: #000000"/>
     <use xlink:href="#m303d17a687" x="92.970722" y="176.55451" style="stroke: #000000"/>
     <use xlink:href="#m303d17a687" x="104.756229" y="154.806567" style="stroke: #000000"/>
     <use xlink:href="#m303d17a687" x="98.529203" y="147.822129" style="stroke: #000000"/>
     <use xlink:href="#m303d17a687" x="84.428426" y="105.229682" style="stroke: #000000"/>
     <use xlink:href="#m303d17a687" x="159.646854" y="183.887581" style="stroke: #000000"/>
     <use xlink:href="#m303d17a687" x="90.572974" y="165.321682" style="stroke: #000000"/>
     <use xlink:href="#m303d17a687" x="127.501233" y="101.738582" style="stroke: #000000"/>
     <use xlink:href="#m303d17a687" x="136.818995" y="127.716387" style="stroke: #000000"/>
     <use xlink:href="#m303d17a687" x="86.669063" y="152.373021" style="stroke: #000000"/>
     <use xlink:href="#m303d17a687" x="125.670951" y="170.915865" style="stroke: #000000"/>
     <use xlink:href="#m303d17a687" x="91.388284" y="126.376449" style="stroke: #000000"/>
     <use xlink:href="#m303d17a687" x="109.350234" y="184.555586" style="stroke: #000000"/>
     <use xlink:href="#m303d17a687" x="102.169349" y="126.148625" style="stroke: #000000"/>
     <use xlink:href="#m303d17a687" x="97.709521" y="203.341618" style="stroke: #000000"/>
     <use xlink:href="#m303d17a687" x="78.957853" y="166.418063" style="stroke: #000000"/>
     <use xlink:href="#m303d17a687" x="149.178882" y="210.206911" style="stroke: #000000"/>
     <use xlink:href="#m303d17a687" x="76.87092" y="121.724793" style="stroke: #000000"/>
     <use xlink:href="#m303d17a687" x="161.954475" y="147.543703" style="stroke: #000000"/>
     <use xlink:href="#m303d17a687" x="111.619338" y="148.424675" style="stroke: #000000"/>
     <use xlink:href="#m303d17a687" x="156.90483" y="243.662016" style="stroke: #000000"/>
     <use xlink:href="#m303d17a687" x="78.423138" y="155.067294" style="stroke: #000000"/>
     <use xlink:href="#m303d17a687" x="155.387257" y="198.505323" style="stroke: #000000"/>
     <use xlink:href="#m303d17a687" x="92.984886" y="156.979357" style="stroke: #000000"/>
     <use xlink:href="#m303d17a687" x="82.978912" y="208.801898" style="stroke: #000000"/>
     <use xlink:href="#m303d17a687" x="116.135586" y="192.751131" style="stroke: #000000"/>
     <use xlink:href="#m303d17a687" x="80.199649" y="126.034171" style="stroke: #000000"/>
     <use xlink:href="#m303d17a687" x="80.594894" y="228.687844" style="stroke: #000000"/>
     <use xlink:href="#m303d17a687" x="82.077263" y="118.942616" style="stroke: #000000"/>
     <use xlink:href="#m303d17a687" x="153.555724" y="170.998483" style="stroke: #000000"/>
     <use xlink:href="#m303d17a687" x="141.722667" y="95.278524" style="stroke: #000000"/>
     <use xlink:href="#m303d17a687" x="148.495509" y="134.0795" style="stroke: #000000"/>
     <use xlink:href="#m303d17a687" x="117.844588" y="221.387255" style="stroke: #000000"/>
     <use xlink:href="#m303d17a687" x="157.618506" y="81.653881" style="stroke: #000000"/>
     <use xlink:href="#m303d17a687" x="136.910974" y="235.69418" style="stroke: #000000"/>
     <use xlink:href="#m303d17a687" x="154.266653" y="149.296064" style="stroke: #000000"/>
     <use xlink:href="#m303d17a687" x="112.804457" y="172.684739" style="stroke: #000000"/>
     <use xlink:href="#m303d17a687" x="150.85734" y="74.305822" style="stroke: #000000"/>
     <use xlink:href="#m303d17a687" x="83.319915" y="171.449977" style="stroke: #000000"/>
     <use xlink:href="#m303d17a687" x="94.671168" y="103.014849" style="stroke: #000000"/>
     <use xlink:href="#m303d17a687" x="139.759001" y="140.315961" style="stroke: #000000"/>
     <use xlink:href="#m303d17a687" x="153.434158" y="170.877061" style="stroke: #000000"/>
     <use xlink:href="#m303d17a687" x="164.317336" y="167.694034" style="stroke: #000000"/>
     <use xlink:href="#m303d17a687" x="117.588151" y="167.107283" style="stroke: #000000"/>
     <use xlink:href="#m303d17a687" x="73.832727" y="180.259755" style="stroke: #000000"/>
     <use xlink:href="#m303d17a687" x="93.990957" y="68.685597" style="stroke: #000000"/>
     <use xlink:href="#m303d17a687" x="76.603142" y="121.636456" style="stroke: #000000"/>
     <use xlink:href="#m303d17a687" x="90.27631" y="84.59053" style="stroke: #000000"/>
     <use xlink:href="#m303d17a687" x="156.091261" y="127.541182" style="stroke: #000000"/>
     <use xlink:href="#m303d17a687" x="121.845524" y="162.980571" style="stroke: #000000"/>
     <use xlink:href="#m303d17a687" x="139.779238" y="70.254188" style="stroke: #000000"/>
     <use xlink:href="#m303d17a687" x="147.804541" y="178.156247" style="stroke: #000000"/>
     <use xlink:href="#m303d17a687" x="149.85279" y="149.637791" style="stroke: #000000"/>
     <use xlink:href="#m303d17a687" x="140.50079" y="160.221265" style="stroke: #000000"/>
     <use xlink:href="#m303d17a687" x="88.064096" y="151.522312" style="stroke: #000000"/>
     <use xlink:href="#m303d17a687" x="88.426449" y="118.795183" style="stroke: #000000"/>
     <use xlink:href="#m303d17a687" x="141.333772" y="183.691832" style="stroke: #000000"/>
     <use xlink:href="#m303d17a687" x="85.39484" y="200.431223" style="stroke: #000000"/>
     <use xlink:href="#m303d17a687" x="91.182104" y="112.286253" style="stroke: #000000"/>
    </g>
   </g>
   <g id="matplotlib.axis_1">
    <g id="xtick_1">
     <g id="line2d_1">
      <defs>
       <path id="me24a5b28cd" d="M 0 0 
L 0 3.5 
" style="stroke: #000000; stroke-width: 0.8"/>
      </defs>
      <g>
       <use xlink:href="#me24a5b28cd" x="68.90604" y="307.584" style="stroke: #000000; stroke-width: 0.8"/>
      </g>
     </g>
     <g id="text_1">
      <!-- 0 -->
      <g transform="translate(65.72479 322.182437) scale(0.1 -0.1)">
       <defs>
        <path id="DejaVuSans-30" d="M 2034 4250 
Q 1547 4250 1301 3770 
Q 1056 3291 1056 2328 
Q 1056 1369 1301 889 
Q 1547 409 2034 409 
Q 2525 409 2770 889 
Q 3016 1369 3016 2328 
Q 3016 3291 2770 3770 
Q 2525 4250 2034 4250 
z
M 2034 4750 
Q 2819 4750 3233 4129 
Q 3647 3509 3647 2328 
Q 3647 1150 3233 529 
Q 2819 -91 2034 -91 
Q 1250 -91 836 529 
Q 422 1150 422 2328 
Q 422 3509 836 4129 
Q 1250 4750 2034 4750 
z
" transform="scale(0.015625)"/>
       </defs>
       <use xlink:href="#DejaVuSans-30"/>
      </g>
     </g>
    </g>
    <g id="xtick_2">
     <g id="line2d_2">
      <g>
       <use xlink:href="#me24a5b28cd" x="117.710149" y="307.584" style="stroke: #000000; stroke-width: 0.8"/>
      </g>
     </g>
     <g id="text_2">
      <!-- 25 -->
      <g transform="translate(111.347649 322.182437) scale(0.1 -0.1)">
       <defs>
        <path id="DejaVuSans-32" d="M 1228 531 
L 3431 531 
L 3431 0 
L 469 0 
L 469 531 
Q 828 903 1448 1529 
Q 2069 2156 2228 2338 
Q 2531 2678 2651 2914 
Q 2772 3150 2772 3378 
Q 2772 3750 2511 3984 
Q 2250 4219 1831 4219 
Q 1534 4219 1204 4116 
Q 875 4013 500 3803 
L 500 4441 
Q 881 4594 1212 4672 
Q 1544 4750 1819 4750 
Q 2544 4750 2975 4387 
Q 3406 4025 3406 3419 
Q 3406 3131 3298 2873 
Q 3191 2616 2906 2266 
Q 2828 2175 2409 1742 
Q 1991 1309 1228 531 
z
" transform="scale(0.015625)"/>
        <path id="DejaVuSans-35" d="M 691 4666 
L 3169 4666 
L 3169 4134 
L 1269 4134 
L 1269 2991 
Q 1406 3038 1543 3061 
Q 1681 3084 1819 3084 
Q 2600 3084 3056 2656 
Q 3513 2228 3513 1497 
Q 3513 744 3044 326 
Q 2575 -91 1722 -91 
Q 1428 -91 1123 -41 
Q 819 9 494 109 
L 494 744 
Q 775 591 1075 516 
Q 1375 441 1709 441 
Q 2250 441 2565 725 
Q 2881 1009 2881 1497 
Q 2881 1984 2565 2268 
Q 2250 2553 1709 2553 
Q 1456 2553 1204 2497 
Q 953 2441 691 2322 
L 691 4666 
z
" transform="scale(0.015625)"/>
       </defs>
       <use xlink:href="#DejaVuSans-32"/>
       <use xlink:href="#DejaVuSans-35" x="63.623047"/>
      </g>
     </g>
    </g>
    <g id="xtick_3">
     <g id="line2d_3">
      <g>
       <use xlink:href="#me24a5b28cd" x="166.514258" y="307.584" style="stroke: #000000; stroke-width: 0.8"/>
      </g>
     </g>
     <g id="text_3">
      <!-- 50 -->
      <g transform="translate(160.151758 322.182437) scale(0.1 -0.1)">
       <use xlink:href="#DejaVuSans-35"/>
       <use xlink:href="#DejaVuSans-30" x="63.623047"/>
      </g>
     </g>
    </g>
    <g id="xtick_4">
     <g id="line2d_4">
      <g>
       <use xlink:href="#me24a5b28cd" x="215.318366" y="307.584" style="stroke: #000000; stroke-width: 0.8"/>
      </g>
     </g>
     <g id="text_4">
      <!-- 75 -->
      <g transform="translate(208.955866 322.182437) scale(0.1 -0.1)">
       <defs>
        <path id="DejaVuSans-37" d="M 525 4666 
L 3525 4666 
L 3525 4397 
L 1831 0 
L 1172 0 
L 2766 4134 
L 525 4134 
L 525 4666 
z
" transform="scale(0.015625)"/>
       </defs>
       <use xlink:href="#DejaVuSans-37"/>
       <use xlink:href="#DejaVuSans-35" x="63.623047"/>
      </g>
     </g>
    </g>
    <g id="xtick_5">
     <g id="line2d_5">
      <g>
       <use xlink:href="#me24a5b28cd" x="264.122475" y="307.584" style="stroke: #000000; stroke-width: 0.8"/>
      </g>
     </g>
     <g id="text_5">
      <!-- 100 -->
      <g transform="translate(254.578725 322.182437) scale(0.1 -0.1)">
       <defs>
        <path id="DejaVuSans-31" d="M 794 531 
L 1825 531 
L 1825 4091 
L 703 3866 
L 703 4441 
L 1819 4666 
L 2450 4666 
L 2450 531 
L 3481 531 
L 3481 0 
L 794 0 
L 794 531 
z
" transform="scale(0.015625)"/>
       </defs>
       <use xlink:href="#DejaVuSans-31"/>
       <use xlink:href="#DejaVuSans-30" x="63.623047"/>
       <use xlink:href="#DejaVuSans-30" x="127.246094"/>
      </g>
     </g>
    </g>
    <g id="xtick_6">
     <g id="line2d_6">
      <g>
       <use xlink:href="#me24a5b28cd" x="312.926583" y="307.584" style="stroke: #000000; stroke-width: 0.8"/>
      </g>
     </g>
     <g id="text_6">
      <!-- 125 -->
      <g transform="translate(303.382833 322.182437) scale(0.1 -0.1)">
       <use xlink:href="#DejaVuSans-31"/>
       <use xlink:href="#DejaVuSans-32" x="63.623047"/>
       <use xlink:href="#DejaVuSans-35" x="127.246094"/>
      </g>
     </g>
    </g>
    <g id="xtick_7">
     <g id="line2d_7">
      <g>
       <use xlink:href="#me24a5b28cd" x="361.730692" y="307.584" style="stroke: #000000; stroke-width: 0.8"/>
      </g>
     </g>
     <g id="text_7">
      <!-- 150 -->
      <g transform="translate(352.186942 322.182437) scale(0.1 -0.1)">
       <use xlink:href="#DejaVuSans-31"/>
       <use xlink:href="#DejaVuSans-35" x="63.623047"/>
       <use xlink:href="#DejaVuSans-30" x="127.246094"/>
      </g>
     </g>
    </g>
    <g id="xtick_8">
     <g id="line2d_8">
      <g>
       <use xlink:href="#me24a5b28cd" x="410.534801" y="307.584" style="stroke: #000000; stroke-width: 0.8"/>
      </g>
     </g>
     <g id="text_8">
      <!-- 175 -->
      <g transform="translate(400.991051 322.182437) scale(0.1 -0.1)">
       <use xlink:href="#DejaVuSans-31"/>
       <use xlink:href="#DejaVuSans-37" x="63.623047"/>
       <use xlink:href="#DejaVuSans-35" x="127.246094"/>
      </g>
     </g>
    </g>
    <g id="text_9">
     <!-- Time -->
     <g transform="translate(390.252813 335.860562) scale(0.1 -0.1)">
      <defs>
       <path id="DejaVuSans-54" d="M -19 4666 
L 3928 4666 
L 3928 4134 
L 2272 4134 
L 2272 0 
L 1638 0 
L 1638 4134 
L -19 4134 
L -19 4666 
z
" transform="scale(0.015625)"/>
       <path id="DejaVuSans-69" d="M 603 3500 
L 1178 3500 
L 1178 0 
L 603 0 
L 603 3500 
z
M 603 4863 
L 1178 4863 
L 1178 4134 
L 603 4134 
L 603 4863 
z
" transform="scale(0.015625)"/>
       <path id="DejaVuSans-6d" d="M 3328 2828 
Q 3544 3216 3844 3400 
Q 4144 3584 4550 3584 
Q 5097 3584 5394 3201 
Q 5691 2819 5691 2113 
L 5691 0 
L 5113 0 
L 5113 2094 
Q 5113 2597 4934 2840 
Q 4756 3084 4391 3084 
Q 3944 3084 3684 2787 
Q 3425 2491 3425 1978 
L 3425 0 
L 2847 0 
L 2847 2094 
Q 2847 2600 2669 2842 
Q 2491 3084 2119 3084 
Q 1678 3084 1418 2786 
Q 1159 2488 1159 1978 
L 1159 0 
L 581 0 
L 581 3500 
L 1159 3500 
L 1159 2956 
Q 1356 3278 1631 3431 
Q 1906 3584 2284 3584 
Q 2666 3584 2933 3390 
Q 3200 3197 3328 2828 
z
" transform="scale(0.015625)"/>
       <path id="DejaVuSans-65" d="M 3597 1894 
L 3597 1613 
L 953 1613 
Q 991 1019 1311 708 
Q 1631 397 2203 397 
Q 2534 397 2845 478 
Q 3156 559 3463 722 
L 3463 178 
Q 3153 47 2828 -22 
Q 2503 -91 2169 -91 
Q 1331 -91 842 396 
Q 353 884 353 1716 
Q 353 2575 817 3079 
Q 1281 3584 2069 3584 
Q 2775 3584 3186 3129 
Q 3597 2675 3597 1894 
z
M 3022 2063 
Q 3016 2534 2758 2815 
Q 2500 3097 2075 3097 
Q 1594 3097 1305 2825 
Q 1016 2553 972 2059 
L 3022 2063 
z
" transform="scale(0.015625)"/>
      </defs>
      <use xlink:href="#DejaVuSans-54"/>
      <use xlink:href="#DejaVuSans-69" x="57.958984"/>
      <use xlink:href="#DejaVuSans-6d" x="85.742188"/>
      <use xlink:href="#DejaVuSans-65" x="183.154297"/>
     </g>
    </g>
   </g>
   <g id="matplotlib.axis_2">
    <g id="ytick_1">
     <g id="line2d_9">
      <defs>
       <path id="mddd0d62a33" d="M 0 0 
L -3.5 0 
" style="stroke: #000000; stroke-width: 0.8"/>
      </defs>
      <g>
       <use xlink:href="#mddd0d62a33" x="57.6" y="306.289152" style="stroke: #000000; stroke-width: 0.8"/>
      </g>
     </g>
     <g id="text_10">
      <!-- 80 -->
      <g transform="translate(37.875 310.088371) scale(0.1 -0.1)">
       <defs>
        <path id="DejaVuSans-38" d="M 2034 2216 
Q 1584 2216 1326 1975 
Q 1069 1734 1069 1313 
Q 1069 891 1326 650 
Q 1584 409 2034 409 
Q 2484 409 2743 651 
Q 3003 894 3003 1313 
Q 3003 1734 2745 1975 
Q 2488 2216 2034 2216 
z
M 1403 2484 
Q 997 2584 770 2862 
Q 544 3141 544 3541 
Q 544 4100 942 4425 
Q 1341 4750 2034 4750 
Q 2731 4750 3128 4425 
Q 3525 4100 3525 3541 
Q 3525 3141 3298 2862 
Q 3072 2584 2669 2484 
Q 3125 2378 3379 2068 
Q 3634 1759 3634 1313 
Q 3634 634 3220 271 
Q 2806 -91 2034 -91 
Q 1263 -91 848 271 
Q 434 634 434 1313 
Q 434 1759 690 2068 
Q 947 2378 1403 2484 
z
M 1172 3481 
Q 1172 3119 1398 2916 
Q 1625 2713 2034 2713 
Q 2441 2713 2670 2916 
Q 2900 3119 2900 3481 
Q 2900 3844 2670 4047 
Q 2441 4250 2034 4250 
Q 1625 4250 1398 4047 
Q 1172 3844 1172 3481 
z
" transform="scale(0.015625)"/>
       </defs>
       <use xlink:href="#DejaVuSans-38"/>
       <use xlink:href="#DejaVuSans-30" x="63.623047"/>
      </g>
     </g>
    </g>
    <g id="ytick_2">
     <g id="line2d_10">
      <g>
       <use xlink:href="#mddd0d62a33" x="57.6" y="268.02762" style="stroke: #000000; stroke-width: 0.8"/>
      </g>
     </g>
     <g id="text_11">
      <!-- 85 -->
      <g transform="translate(37.875 271.826838) scale(0.1 -0.1)">
       <use xlink:href="#DejaVuSans-38"/>
       <use xlink:href="#DejaVuSans-35" x="63.623047"/>
      </g>
     </g>
    </g>
    <g id="ytick_3">
     <g id="line2d_11">
      <g>
       <use xlink:href="#mddd0d62a33" x="57.6" y="229.766087" style="stroke: #000000; stroke-width: 0.8"/>
      </g>
     </g>
     <g id="text_12">
      <!-- 90 -->
      <g transform="translate(37.875 233.565306) scale(0.1 -0.1)">
       <defs>
        <path id="DejaVuSans-39" d="M 703 97 
L 703 672 
Q 941 559 1184 500 
Q 1428 441 1663 441 
Q 2288 441 2617 861 
Q 2947 1281 2994 2138 
Q 2813 1869 2534 1725 
Q 2256 1581 1919 1581 
Q 1219 1581 811 2004 
Q 403 2428 403 3163 
Q 403 3881 828 4315 
Q 1253 4750 1959 4750 
Q 2769 4750 3195 4129 
Q 3622 3509 3622 2328 
Q 3622 1225 3098 567 
Q 2575 -91 1691 -91 
Q 1453 -91 1209 -44 
Q 966 3 703 97 
z
M 1959 2075 
Q 2384 2075 2632 2365 
Q 2881 2656 2881 3163 
Q 2881 3666 2632 3958 
Q 2384 4250 1959 4250 
Q 1534 4250 1286 3958 
Q 1038 3666 1038 3163 
Q 1038 2656 1286 2365 
Q 1534 2075 1959 2075 
z
" transform="scale(0.015625)"/>
       </defs>
       <use xlink:href="#DejaVuSans-39"/>
       <use xlink:href="#DejaVuSans-30" x="63.623047"/>
      </g>
     </g>
    </g>
    <g id="ytick_4">
     <g id="line2d_12">
      <g>
       <use xlink:href="#mddd0d62a33" x="57.6" y="191.504554" style="stroke: #000000; stroke-width: 0.8"/>
      </g>
     </g>
     <g id="text_13">
      <!-- 95 -->
      <g transform="translate(37.875 195.303773) scale(0.1 -0.1)">
       <use xlink:href="#DejaVuSans-39"/>
       <use xlink:href="#DejaVuSans-35" x="63.623047"/>
      </g>
     </g>
    </g>
    <g id="ytick_5">
     <g id="line2d_13">
      <g>
       <use xlink:href="#mddd0d62a33" x="57.6" y="153.243022" style="stroke: #000000; stroke-width: 0.8"/>
      </g>
     </g>
     <g id="text_14">
      <!-- 100 -->
      <g transform="translate(31.5125 157.04224) scale(0.1 -0.1)">
       <use xlink:href="#DejaVuSans-31"/>
       <use xlink:href="#DejaVuSans-30" x="63.623047"/>
       <use xlink:href="#DejaVuSans-30" x="127.246094"/>
      </g>
     </g>
    </g>
    <g id="ytick_6">
     <g id="line2d_14">
      <g>
       <use xlink:href="#mddd0d62a33" x="57.6" y="114.981489" style="stroke: #000000; stroke-width: 0.8"/>
      </g>
     </g>
     <g id="text_15">
      <!-- 105 -->
      <g transform="translate(31.5125 118.780708) scale(0.1 -0.1)">
       <use xlink:href="#DejaVuSans-31"/>
       <use xlink:href="#DejaVuSans-30" x="63.623047"/>
       <use xlink:href="#DejaVuSans-35" x="127.246094"/>
      </g>
     </g>
    </g>
    <g id="ytick_7">
     <g id="line2d_15">
      <g>
       <use xlink:href="#mddd0d62a33" x="57.6" y="76.719956" style="stroke: #000000; stroke-width: 0.8"/>
      </g>
     </g>
     <g id="text_16">
      <!-- 110 -->
      <g transform="translate(31.5125 80.519175) scale(0.1 -0.1)">
       <use xlink:href="#DejaVuSans-31"/>
       <use xlink:href="#DejaVuSans-31" x="63.623047"/>
       <use xlink:href="#DejaVuSans-30" x="127.246094"/>
      </g>
     </g>
    </g>
    <g id="text_17">
     <!-- Observed value -->
     <g transform="translate(25.432812 120.079813) rotate(-90) scale(0.1 -0.1)">
      <defs>
       <path id="DejaVuSans-4f" d="M 2522 4238 
Q 1834 4238 1429 3725 
Q 1025 3213 1025 2328 
Q 1025 1447 1429 934 
Q 1834 422 2522 422 
Q 3209 422 3611 934 
Q 4013 1447 4013 2328 
Q 4013 3213 3611 3725 
Q 3209 4238 2522 4238 
z
M 2522 4750 
Q 3503 4750 4090 4092 
Q 4678 3434 4678 2328 
Q 4678 1225 4090 567 
Q 3503 -91 2522 -91 
Q 1538 -91 948 565 
Q 359 1222 359 2328 
Q 359 3434 948 4092 
Q 1538 4750 2522 4750 
z
" transform="scale(0.015625)"/>
       <path id="DejaVuSans-62" d="M 3116 1747 
Q 3116 2381 2855 2742 
Q 2594 3103 2138 3103 
Q 1681 3103 1420 2742 
Q 1159 2381 1159 1747 
Q 1159 1113 1420 752 
Q 1681 391 2138 391 
Q 2594 391 2855 752 
Q 3116 1113 3116 1747 
z
M 1159 2969 
Q 1341 3281 1617 3432 
Q 1894 3584 2278 3584 
Q 2916 3584 3314 3078 
Q 3713 2572 3713 1747 
Q 3713 922 3314 415 
Q 2916 -91 2278 -91 
Q 1894 -91 1617 61 
Q 1341 213 1159 525 
L 1159 0 
L 581 0 
L 581 4863 
L 1159 4863 
L 1159 2969 
z
" transform="scale(0.015625)"/>
       <path id="DejaVuSans-73" d="M 2834 3397 
L 2834 2853 
Q 2591 2978 2328 3040 
Q 2066 3103 1784 3103 
Q 1356 3103 1142 2972 
Q 928 2841 928 2578 
Q 928 2378 1081 2264 
Q 1234 2150 1697 2047 
L 1894 2003 
Q 2506 1872 2764 1633 
Q 3022 1394 3022 966 
Q 3022 478 2636 193 
Q 2250 -91 1575 -91 
Q 1294 -91 989 -36 
Q 684 19 347 128 
L 347 722 
Q 666 556 975 473 
Q 1284 391 1588 391 
Q 1994 391 2212 530 
Q 2431 669 2431 922 
Q 2431 1156 2273 1281 
Q 2116 1406 1581 1522 
L 1381 1569 
Q 847 1681 609 1914 
Q 372 2147 372 2553 
Q 372 3047 722 3315 
Q 1072 3584 1716 3584 
Q 2034 3584 2315 3537 
Q 2597 3491 2834 3397 
z
" transform="scale(0.015625)"/>
       <path id="DejaVuSans-72" d="M 2631 2963 
Q 2534 3019 2420 3045 
Q 2306 3072 2169 3072 
Q 1681 3072 1420 2755 
Q 1159 2438 1159 1844 
L 1159 0 
L 581 0 
L 581 3500 
L 1159 3500 
L 1159 2956 
Q 1341 3275 1631 3429 
Q 1922 3584 2338 3584 
Q 2397 3584 2469 3576 
Q 2541 3569 2628 3553 
L 2631 2963 
z
" transform="scale(0.015625)"/>
       <path id="DejaVuSans-76" d="M 191 3500 
L 800 3500 
L 1894 563 
L 2988 3500 
L 3597 3500 
L 2284 0 
L 1503 0 
L 191 3500 
z
" transform="scale(0.015625)"/>
       <path id="DejaVuSans-64" d="M 2906 2969 
L 2906 4863 
L 3481 4863 
L 3481 0 
L 2906 0 
L 2906 525 
Q 2725 213 2448 61 
Q 2172 -91 1784 -91 
Q 1150 -91 751 415 
Q 353 922 353 1747 
Q 353 2572 751 3078 
Q 1150 3584 1784 3584 
Q 2172 3584 2448 3432 
Q 2725 3281 2906 2969 
z
M 947 1747 
Q 947 1113 1208 752 
Q 1469 391 1925 391 
Q 2381 391 2643 752 
Q 2906 1113 2906 1747 
Q 2906 2381 2643 2742 
Q 2381 3103 1925 3103 
Q 1469 3103 1208 2742 
Q 947 2381 947 1747 
z
" transform="scale(0.015625)"/>
       <path id="DejaVuSans-20" transform="scale(0.015625)"/>
       <path id="DejaVuSans-61" d="M 2194 1759 
Q 1497 1759 1228 1600 
Q 959 1441 959 1056 
Q 959 750 1161 570 
Q 1363 391 1709 391 
Q 2188 391 2477 730 
Q 2766 1069 2766 1631 
L 2766 1759 
L 2194 1759 
z
M 3341 1997 
L 3341 0 
L 2766 0 
L 2766 531 
Q 2569 213 2275 61 
Q 1981 -91 1556 -91 
Q 1019 -91 701 211 
Q 384 513 384 1019 
Q 384 1609 779 1909 
Q 1175 2209 1959 2209 
L 2766 2209 
L 2766 2266 
Q 2766 2663 2505 2880 
Q 2244 3097 1772 3097 
Q 1472 3097 1187 3025 
Q 903 2953 641 2809 
L 641 3341 
Q 956 3463 1253 3523 
Q 1550 3584 1831 3584 
Q 2591 3584 2966 3190 
Q 3341 2797 3341 1997 
z
" transform="scale(0.015625)"/>
       <path id="DejaVuSans-6c" d="M 603 4863 
L 1178 4863 
L 1178 0 
L 603 0 
L 603 4863 
z
" transform="scale(0.015625)"/>
       <path id="DejaVuSans-75" d="M 544 1381 
L 544 3500 
L 1119 3500 
L 1119 1403 
Q 1119 906 1312 657 
Q 1506 409 1894 409 
Q 2359 409 2629 706 
Q 2900 1003 2900 1516 
L 2900 3500 
L 3475 3500 
L 3475 0 
L 2900 0 
L 2900 538 
Q 2691 219 2414 64 
Q 2138 -91 1772 -91 
Q 1169 -91 856 284 
Q 544 659 544 1381 
z
M 1991 3584 
L 1991 3584 
z
" transform="scale(0.015625)"/>
      </defs>
      <use xlink:href="#DejaVuSans-4f"/>
      <use xlink:href="#DejaVuSans-62" x="78.710938"/>
      <use xlink:href="#DejaVuSans-73" x="142.1875"/>
      <use xlink:href="#DejaVuSans-65" x="194.287109"/>
      <use xlink:href="#DejaVuSans-72" x="255.810547"/>
      <use xlink:href="#DejaVuSans-76" x="296.923828"/>
      <use xlink:href="#DejaVuSans-65" x="356.103516"/>
      <use xlink:href="#DejaVuSans-64" x="417.626953"/>
      <use xlink:href="#DejaVuSans-20" x="481.103516"/>
      <use xlink:href="#DejaVuSans-76" x="512.890625"/>
      <use xlink:href="#DejaVuSans-61" x="572.070312"/>
      <use xlink:href="#DejaVuSans-6c" x="633.349609"/>
      <use xlink:href="#DejaVuSans-75" x="661.132812"/>
      <use xlink:href="#DejaVuSans-65" x="724.511719"/>
     </g>
    </g>
   </g>
   <g id="patch_3">
    <path d="M 57.6 307.584 
L 57.6 41.472 
" style="fill: none; stroke: #000000; stroke-width: 0.8; stroke-linejoin: miter; stroke-linecap: square"/>
   </g>
   <g id="patch_4">
    <path d="M 414.72 307.584 
L 414.72 41.472 
" style="fill: none; stroke: #000000; stroke-width: 0.8; stroke-linejoin: miter; stroke-linecap: square"/>
   </g>
   <g id="patch_5">
    <path d="M 57.6 307.584 
L 414.72 307.584 
" style="fill: none; stroke: #000000; stroke-width: 0.8; stroke-linejoin: miter; stroke-linecap: square"/>
   </g>
   <g id="patch_6">
    <path d="M 57.6 41.472 
L 414.72 41.472 
" style="fill: none; stroke: #000000; stroke-width: 0.8; stroke-linejoin: miter; stroke-linecap: square"/>
   </g>
   <g id="legend_1">
    <g id="patch_7">
     <path d="M 64.6 64.150125 
L 134.954688 64.150125 
Q 136.954688 64.150125 136.954688 62.150125 
L 136.954688 48.472 
Q 136.954688 46.472 134.954688 46.472 
L 64.6 46.472 
Q 62.6 46.472 62.6 48.472 
L 62.6 62.150125 
Q 62.6 64.150125 64.6 64.150125 
z
" style="fill: #ffffff; opacity: 0.8; stroke: #cccccc; stroke-linejoin: miter"/>
    </g>
    <g id="PathCollection_2">
     <g>
      <use xlink:href="#m303d17a687" x="76.6" y="55.445438" style="stroke: #000000"/>
     </g>
    </g>
    <g id="text_18">
     <!-- Regular -->
     <g transform="translate(94.6 58.070438) scale(0.1 -0.1)">
      <defs>
       <path id="DejaVuSans-52" d="M 2841 2188 
Q 3044 2119 3236 1894 
Q 3428 1669 3622 1275 
L 4263 0 
L 3584 0 
L 2988 1197 
Q 2756 1666 2539 1819 
Q 2322 1972 1947 1972 
L 1259 1972 
L 1259 0 
L 628 0 
L 628 4666 
L 2053 4666 
Q 2853 4666 3247 4331 
Q 3641 3997 3641 3322 
Q 3641 2881 3436 2590 
Q 3231 2300 2841 2188 
z
M 1259 4147 
L 1259 2491 
L 2053 2491 
Q 2509 2491 2742 2702 
Q 2975 2913 2975 3322 
Q 2975 3731 2742 3939 
Q 2509 4147 2053 4147 
L 1259 4147 
z
" transform="scale(0.015625)"/>
       <path id="DejaVuSans-67" d="M 2906 1791 
Q 2906 2416 2648 2759 
Q 2391 3103 1925 3103 
Q 1463 3103 1205 2759 
Q 947 2416 947 1791 
Q 947 1169 1205 825 
Q 1463 481 1925 481 
Q 2391 481 2648 825 
Q 2906 1169 2906 1791 
z
M 3481 434 
Q 3481 -459 3084 -895 
Q 2688 -1331 1869 -1331 
Q 1566 -1331 1297 -1286 
Q 1028 -1241 775 -1147 
L 775 -588 
Q 1028 -725 1275 -790 
Q 1522 -856 1778 -856 
Q 2344 -856 2625 -561 
Q 2906 -266 2906 331 
L 2906 616 
Q 2728 306 2450 153 
Q 2172 0 1784 0 
Q 1141 0 747 490 
Q 353 981 353 1791 
Q 353 2603 747 3093 
Q 1141 3584 1784 3584 
Q 2172 3584 2450 3431 
Q 2728 3278 2906 2969 
L 2906 3500 
L 3481 3500 
L 3481 434 
z
" transform="scale(0.015625)"/>
      </defs>
      <use xlink:href="#DejaVuSans-52"/>
      <use xlink:href="#DejaVuSans-65" x="64.982422"/>
      <use xlink:href="#DejaVuSans-67" x="126.505859"/>
      <use xlink:href="#DejaVuSans-75" x="189.982422"/>
      <use xlink:href="#DejaVuSans-6c" x="253.361328"/>
      <use xlink:href="#DejaVuSans-61" x="281.144531"/>
      <use xlink:href="#DejaVuSans-72" x="342.423828"/>
     </g>
    </g>
   </g>
  </g>
 </g>
 <defs>
  <clipPath id="p51fe7f5415">
   <rect x="57.6" y="41.472" width="357.12" height="266.112"/>
  </clipPath>
 </defs>
</svg>
