<?xml version="1.0" encoding="utf-8" standalone="no"?>
<!DOCTYPE svg PUBLIC "-//W3C//DTD SVG 1.1//EN"
  "http://www.w3.org/Graphics/SVG/1.1/DTD/svg11.dtd">
<svg xmlns:xlink="http://www.w3.org/1999/xlink" width="460.8pt" height="345.6pt" viewBox="0 0 460.8 345.6" xmlns="http://www.w3.org/2000/svg" version="1.1">
 <metadata>
  <rdf:RDF xmlns:dc="http://purl.org/dc/elements/1.1/" xmlns:cc="http://creativecommons.org/ns#" xmlns:rdf="http://www.w3.org/1999/02/22-rdf-syntax-ns#">
   <cc:Work>
    <dc:type rdf:resource="http://purl.org/dc/dcmitype/StillImage"/>
    <dc:date>2023-09-06T09:22:20.784579</dc:date>
    <dc:format>image/svg+xml</dc:format>
    <dc:creator>
     <cc:Agent>
      <dc:title>Matplotlib v3.7.1, https://matplotlib.org/</dc:title>
     </cc:Agent>
    </dc:creator>
   </cc:Work>
  </rdf:RDF>
 </metadata>
 <defs>
  <style type="text/css">*{stroke-linejoin: round; stroke-linecap: butt}</style>
 </defs>
 <g id="figure_1">
  <g id="patch_1">
   <path d="M 0 345.6 
L 460.8 345.6 
L 460.8 0 
L 0 0 
z
" style="fill: #ffffff"/>
  </g>
  <g id="axes_1">
   <g id="patch_2">
    <path d="M 57.6 307.584 
L 414.72 307.584 
L 414.72 41.472 
L 57.6 41.472 
z
" style="fill: #ffffff"/>
   </g>
   <g id="PathCollection_1">
    <defs>
     <path id="m4829220273" d="M 0 3 
C 0.795609 3 1.55874 2.683901 2.12132 2.12132 
C 2.683901 1.55874 3 0.795609 3 0 
C 3 -0.795609 2.683901 -1.55874 2.12132 -2.12132 
C 1.55874 -2.683901 0.795609 -3 0 -3 
C -0.795609 -3 -1.55874 -2.683901 -2.12132 -2.12132 
C -2.683901 -1.55874 -3 -0.795609 -3 0 
C -3 0.795609 -2.683901 1.55874 -2.12132 2.12132 
C -1.55874 2.683901 -0.795609 3 0 3 
z
" style="stroke: #000000"/>
    </defs>
    <g clip-path="url(#pc7bbea3931)">
     <use xlink:href="#m4829220273" x="201.759013" y="279.520253" style="stroke: #000000"/>
     <use xlink:href="#m4829220273" x="321.677126" y="241.838245" style="stroke: #000000"/>
     <use xlink:href="#m4829220273" x="281.435967" y="253.854105" style="stroke: #000000"/>
     <use xlink:href="#m4829220273" x="263.743371" y="264.415185" style="stroke: #000000"/>
     <use xlink:href="#m4829220273" x="368.868085" y="260.889396" style="stroke: #000000"/>
     <use xlink:href="#m4829220273" x="232.320329" y="292.576702" style="stroke: #000000"/>
     <use xlink:href="#m4829220273" x="238.983227" y="251.658908" style="stroke: #000000"/>
     <use xlink:href="#m4829220273" x="371.00546" y="258.052544" style="stroke: #000000"/>
     <use xlink:href="#m4829220273" x="300.735158" y="258.08684" style="stroke: #000000"/>
     <use xlink:href="#m4829220273" x="216.00323" y="255.896768" style="stroke: #000000"/>
     <use xlink:href="#m4829220273" x="344.216697" y="246.487609" style="stroke: #000000"/>
     <use xlink:href="#m4829220273" x="208.280508" y="262.432526" style="stroke: #000000"/>
     <use xlink:href="#m4829220273" x="332.950415" y="261.551789" style="stroke: #000000"/>
     <use xlink:href="#m4829220273" x="289.303423" y="274.176622" style="stroke: #000000"/>
     <use xlink:href="#m4829220273" x="242.419192" y="252.247745" style="stroke: #000000"/>
     <use xlink:href="#m4829220273" x="271.770196" y="273.636335" style="stroke: #000000"/>
     <use xlink:href="#m4829220273" x="209.459661" y="236.099211" style="stroke: #000000"/>
     <use xlink:href="#m4829220273" x="283.723829" y="252.2117" style="stroke: #000000"/>
     <use xlink:href="#m4829220273" x="243.846421" y="252.276976" style="stroke: #000000"/>
     <use xlink:href="#m4829220273" x="312.389833" y="262.369018" style="stroke: #000000"/>
     <use xlink:href="#m4829220273" x="383.812769" y="261.275079" style="stroke: #000000"/>
     <use xlink:href="#m4829220273" x="305.594399" y="262.627664" style="stroke: #000000"/>
     <use xlink:href="#m4829220273" x="287.241771" y="244.78344" style="stroke: #000000"/>
     <use xlink:href="#m4829220273" x="232.225081" y="248.066538" style="stroke: #000000"/>
     <use xlink:href="#m4829220273" x="208.07483" y="257.115299" style="stroke: #000000"/>
     <use xlink:href="#m4829220273" x="349.100198" y="248.480088" style="stroke: #000000"/>
     <use xlink:href="#m4829220273" x="290.206045" y="262.459805" style="stroke: #000000"/>
     <use xlink:href="#m4829220273" x="260.333613" y="251.36654" style="stroke: #000000"/>
     <use xlink:href="#m4829220273" x="263.247063" y="272.208731" style="stroke: #000000"/>
     <use xlink:href="#m4829220273" x="367.103669" y="259.271444" style="stroke: #000000"/>
     <use xlink:href="#m4829220273" x="194.213432" y="262.358202" style="stroke: #000000"/>
     <use xlink:href="#m4829220273" x="359.386143" y="265.288768" style="stroke: #000000"/>
     <use xlink:href="#m4829220273" x="262.309053" y="247.53111" style="stroke: #000000"/>
     <use xlink:href="#m4829220273" x="227.367895" y="249.941805" style="stroke: #000000"/>
     <use xlink:href="#m4829220273" x="214.842759" y="257.786391" style="stroke: #000000"/>
     <use xlink:href="#m4829220273" x="370.066778" y="236.679216" style="stroke: #000000"/>
     <use xlink:href="#m4829220273" x="335.197919" y="272.087853" style="stroke: #000000"/>
     <use xlink:href="#m4829220273" x="209.109863" y="259.687172" style="stroke: #000000"/>
     <use xlink:href="#m4829220273" x="373.698286" y="263.773712" style="stroke: #000000"/>
     <use xlink:href="#m4829220273" x="285.903048" y="259.597596" style="stroke: #000000"/>
     <use xlink:href="#m4829220273" x="190.177021" y="264.881454" style="stroke: #000000"/>
     <use xlink:href="#m4829220273" x="389.605752" y="253.008523" style="stroke: #000000"/>
     <use xlink:href="#m4829220273" x="341.658889" y="259.248105" style="stroke: #000000"/>
     <use xlink:href="#m4829220273" x="355.281496" y="246.660876" style="stroke: #000000"/>
     <use xlink:href="#m4829220273" x="385.773634" y="263.013484" style="stroke: #000000"/>
     <use xlink:href="#m4829220273" x="277.704728" y="263.592921" style="stroke: #000000"/>
     <use xlink:href="#m4829220273" x="206.603824" y="266.376841" style="stroke: #000000"/>
     <use xlink:href="#m4829220273" x="343.956961" y="271.605735" style="stroke: #000000"/>
     <use xlink:href="#m4829220273" x="233.822226" y="249.325748" style="stroke: #000000"/>
     <use xlink:href="#m4829220273" x="214.08626" y="253.280673" style="stroke: #000000"/>
     <use xlink:href="#m4829220273" x="245.331495" y="258.575971" style="stroke: #000000"/>
     <use xlink:href="#m4829220273" x="273.63231" y="259.870887" style="stroke: #000000"/>
     <use xlink:href="#m4829220273" x="203.500677" y="264.167514" style="stroke: #000000"/>
     <use xlink:href="#m4829220273" x="198.502447" y="259.731233" style="stroke: #000000"/>
     <use xlink:href="#m4829220273" x="306.642351" y="266.40782" style="stroke: #000000"/>
     <use xlink:href="#m4829220273" x="378.728926" y="268.365384" style="stroke: #000000"/>
     <use xlink:href="#m4829220273" x="193.546194" y="239.608129" style="stroke: #000000"/>
     <use xlink:href="#m4829220273" x="187.307976" y="271.264046" style="stroke: #000000"/>
     <use xlink:href="#m4829220273" x="387.185416" y="266.162822" style="stroke: #000000"/>
     <use xlink:href="#m4829220273" x="369.654225" y="244.635503" style="stroke: #000000"/>
     <use xlink:href="#m4829220273" x="368.45724" y="246.110579" style="stroke: #000000"/>
     <use xlink:href="#m4829220273" x="322.734623" y="270.499522" style="stroke: #000000"/>
     <use xlink:href="#m4829220273" x="361.670927" y="242.299185" style="stroke: #000000"/>
     <use xlink:href="#m4829220273" x="189.475857" y="239.273606" style="stroke: #000000"/>
     <use xlink:href="#m4829220273" x="392.125537" y="267.337864" style="stroke: #000000"/>
     <use xlink:href="#m4829220273" x="278.437208" y="244.136474" style="stroke: #000000"/>
     <use xlink:href="#m4829220273" x="357.348401" y="239.315148" style="stroke: #000000"/>
     <use xlink:href="#m4829220273" x="203.913216" y="267.903008" style="stroke: #000000"/>
     <use xlink:href="#m4829220273" x="287.358067" y="272.85738" style="stroke: #000000"/>
     <use xlink:href="#m4829220273" x="248.764913" y="256.253425" style="stroke: #000000"/>
     <use xlink:href="#m4829220273" x="296.546475" y="261.298251" style="stroke: #000000"/>
     <use xlink:href="#m4829220273" x="320.434048" y="244.805762" style="stroke: #000000"/>
     <use xlink:href="#m4829220273" x="186.931964" y="261.628291" style="stroke: #000000"/>
     <use xlink:href="#m4829220273" x="307.140362" y="241.507342" style="stroke: #000000"/>
     <use xlink:href="#m4829220273" x="364.247653" y="252.887823" style="stroke: #000000"/>
     <use xlink:href="#m4829220273" x="256.328749" y="249.906654" style="stroke: #000000"/>
     <use xlink:href="#m4829220273" x="332.79416" y="254.684111" style="stroke: #000000"/>
     <use xlink:href="#m4829220273" x="190.949682" y="261.6059" style="stroke: #000000"/>
     <use xlink:href="#m4829220273" x="292.193718" y="256.218007" style="stroke: #000000"/>
     <use xlink:href="#m4829220273" x="327.604682" y="269.577342" style="stroke: #000000"/>
     <use xlink:href="#m4829220273" x="323.262172" y="295.488" style="stroke: #000000"/>
     <use xlink:href="#m4829220273" x="364.473528" y="251.098867" style="stroke: #000000"/>
     <use xlink:href="#m4829220273" x="368.083099" y="258.465879" style="stroke: #000000"/>
     <use xlink:href="#m4829220273" x="208.95324" y="257.837116" style="stroke: #000000"/>
     <use xlink:href="#m4829220273" x="338.331069" y="251.197762" style="stroke: #000000"/>
     <use xlink:href="#m4829220273" x="259.703972" y="268.25165" style="stroke: #000000"/>
     <use xlink:href="#m4829220273" x="375.271756" y="272.030667" style="stroke: #000000"/>
     <use xlink:href="#m4829220273" x="261.404538" y="257.303683" style="stroke: #000000"/>
     <use xlink:href="#m4829220273" x="281.98862" y="262.304607" style="stroke: #000000"/>
     <use xlink:href="#m4829220273" x="360.752981" y="248.230291" style="stroke: #000000"/>
     <use xlink:href="#m4829220273" x="304.830381" y="262.70362" style="stroke: #000000"/>
     <use xlink:href="#m4829220273" x="139.609917" y="258.194644" style="stroke: #000000"/>
     <use xlink:href="#m4829220273" x="127.781775" y="267.007485" style="stroke: #000000"/>
     <use xlink:href="#m4829220273" x="80.608287" y="267.453625" style="stroke: #000000"/>
     <use xlink:href="#m4829220273" x="109.061097" y="244.864999" style="stroke: #000000"/>
     <use xlink:href="#m4829220273" x="133.536222" y="274.094074" style="stroke: #000000"/>
     <use xlink:href="#m4829220273" x="87.304991" y="258.894312" style="stroke: #000000"/>
     <use xlink:href="#m4829220273" x="143.198731" y="257.071927" style="stroke: #000000"/>
     <use xlink:href="#m4829220273" x="130.018068" y="252.854142" style="stroke: #000000"/>
     <use xlink:href="#m4829220273" x="146.336307" y="247.270806" style="stroke: #000000"/>
     <use xlink:href="#m4829220273" x="108.283947" y="264.870058" style="stroke: #000000"/>
     <use xlink:href="#m4829220273" x="164.140555" y="265.665159" style="stroke: #000000"/>
     <use xlink:href="#m4829220273" x="156.648767" y="260.251247" style="stroke: #000000"/>
     <use xlink:href="#m4829220273" x="75.309865" y="257.690427" style="stroke: #000000"/>
     <use xlink:href="#m4829220273" x="114.944758" y="249.050796" style="stroke: #000000"/>
     <use xlink:href="#m4829220273" x="153.017154" y="275.812546" style="stroke: #000000"/>
     <use xlink:href="#m4829220273" x="156.478315" y="253.583821" style="stroke: #000000"/>
     <use xlink:href="#m4829220273" x="130.556855" y="259.768268" style="stroke: #000000"/>
     <use xlink:href="#m4829220273" x="134.183873" y="280.738187" style="stroke: #000000"/>
     <use xlink:href="#m4829220273" x="76.590804" y="239.615688" style="stroke: #000000"/>
     <use xlink:href="#m4829220273" x="80.789131" y="239.677344" style="stroke: #000000"/>
     <use xlink:href="#m4829220273" x="164.290962" y="251.655354" style="stroke: #000000"/>
     <use xlink:href="#m4829220273" x="78.3784" y="250.97646" style="stroke: #000000"/>
     <use xlink:href="#m4829220273" x="133.088175" y="270.256932" style="stroke: #000000"/>
     <use xlink:href="#m4829220273" x="146.397894" y="264.951837" style="stroke: #000000"/>
     <use xlink:href="#m4829220273" x="86.68676" y="270.570074" style="stroke: #000000"/>
     <use xlink:href="#m4829220273" x="157.707369" y="268.264716" style="stroke: #000000"/>
     <use xlink:href="#m4829220273" x="144.465063" y="272.436567" style="stroke: #000000"/>
     <use xlink:href="#m4829220273" x="163.652469" y="270.984454" style="stroke: #000000"/>
     <use xlink:href="#m4829220273" x="161.072809" y="278.606179" style="stroke: #000000"/>
     <use xlink:href="#m4829220273" x="124.434831" y="275.745234" style="stroke: #000000"/>
     <use xlink:href="#m4829220273" x="157.674804" y="258.272171" style="stroke: #000000"/>
     <use xlink:href="#m4829220273" x="94.320157" y="265.436523" style="stroke: #000000"/>
     <use xlink:href="#m4829220273" x="80.822779" y="261.27269" style="stroke: #000000"/>
     <use xlink:href="#m4829220273" x="165.385351" y="270.893586" style="stroke: #000000"/>
     <use xlink:href="#m4829220273" x="99.394912" y="265.688925" style="stroke: #000000"/>
     <use xlink:href="#m4829220273" x="115.416854" y="253.910298" style="stroke: #000000"/>
     <use xlink:href="#m4829220273" x="101.549287" y="252.491763" style="stroke: #000000"/>
     <use xlink:href="#m4829220273" x="134.517381" y="250.833869" style="stroke: #000000"/>
     <use xlink:href="#m4829220273" x="147.278505" y="263.571123" style="stroke: #000000"/>
     <use xlink:href="#m4829220273" x="82.176739" y="272.72673" style="stroke: #000000"/>
     <use xlink:href="#m4829220273" x="144.467207" y="291.265641" style="stroke: #000000"/>
     <use xlink:href="#m4829220273" x="88.588354" y="250.548132" style="stroke: #000000"/>
     <use xlink:href="#m4829220273" x="92.970722" y="266.291092" style="stroke: #000000"/>
     <use xlink:href="#m4829220273" x="104.756229" y="260.952203" style="stroke: #000000"/>
     <use xlink:href="#m4829220273" x="98.529203" y="259.237598" style="stroke: #000000"/>
     <use xlink:href="#m4829220273" x="84.428426" y="248.781605" style="stroke: #000000"/>
     <use xlink:href="#m4829220273" x="159.646854" y="268.091283" style="stroke: #000000"/>
     <use xlink:href="#m4829220273" x="90.572974" y="263.533552" style="stroke: #000000"/>
     <use xlink:href="#m4829220273" x="127.501233" y="247.924577" style="stroke: #000000"/>
     <use xlink:href="#m4829220273" x="136.818995" y="254.301852" style="stroke: #000000"/>
     <use xlink:href="#m4829220273" x="86.669063" y="260.354794" style="stroke: #000000"/>
     <use xlink:href="#m4829220273" x="125.670951" y="264.906865" style="stroke: #000000"/>
     <use xlink:href="#m4829220273" x="91.388284" y="253.972912" style="stroke: #000000"/>
     <use xlink:href="#m4829220273" x="109.350234" y="268.255271" style="stroke: #000000"/>
     <use xlink:href="#m4829220273" x="102.169349" y="253.916983" style="stroke: #000000"/>
     <use xlink:href="#m4829220273" x="97.709521" y="272.867042" style="stroke: #000000"/>
     <use xlink:href="#m4829220273" x="78.957853" y="263.802702" style="stroke: #000000"/>
     <use xlink:href="#m4829220273" x="149.178882" y="274.552399" style="stroke: #000000"/>
     <use xlink:href="#m4829220273" x="76.87092" y="252.830979" style="stroke: #000000"/>
     <use xlink:href="#m4829220273" x="161.954475" y="259.169247" style="stroke: #000000"/>
     <use xlink:href="#m4829220273" x="111.619338" y="259.385517" style="stroke: #000000"/>
     <use xlink:href="#m4829220273" x="156.90483" y="282.765272" style="stroke: #000000"/>
     <use xlink:href="#m4829220273" x="78.423138" y="261.016209" style="stroke: #000000"/>
     <use xlink:href="#m4829220273" x="155.387257" y="271.679784" style="stroke: #000000"/>
     <use xlink:href="#m4829220273" x="92.984886" y="261.4856" style="stroke: #000000"/>
     <use xlink:href="#m4829220273" x="82.978912" y="274.207483" style="stroke: #000000"/>
     <use xlink:href="#m4829220273" x="116.135586" y="270.26719" style="stroke: #000000"/>
     <use xlink:href="#m4829220273" x="80.199649" y="253.888886" style="stroke: #000000"/>
     <use xlink:href="#m4829220273" x="80.594894" y="279.089272" style="stroke: #000000"/>
     <use xlink:href="#m4829220273" x="82.077263" y="252.147984" style="stroke: #000000"/>
     <use xlink:href="#m4829220273" x="153.555724" y="264.927147" style="stroke: #000000"/>
     <use xlink:href="#m4829220273" x="141.722667" y="246.338702" style="stroke: #000000"/>
     <use xlink:href="#m4829220273" x="148.495509" y="255.863929" style="stroke: #000000"/>
     <use xlink:href="#m4829220273" x="117.844588" y="277.297055" style="stroke: #000000"/>
     <use xlink:href="#m4829220273" x="157.618506" y="242.993996" style="stroke: #000000"/>
     <use xlink:href="#m4829220273" x="136.910974" y="280.809253" style="stroke: #000000"/>
     <use xlink:href="#m4829220273" x="154.266653" y="259.599434" style="stroke: #000000"/>
     <use xlink:href="#m4829220273" x="112.804457" y="265.341105" style="stroke: #000000"/>
     <use xlink:href="#m4829220273" x="150.85734" y="241.190126" style="stroke: #000000"/>
     <use xlink:href="#m4829220273" x="83.319915" y="265.037984" style="stroke: #000000"/>
     <use xlink:href="#m4829220273" x="94.671168" y="248.237887" style="stroke: #000000"/>
     <use xlink:href="#m4829220273" x="139.759001" y="257.394914" style="stroke: #000000"/>
     <use xlink:href="#m4829220273" x="153.434158" y="264.897339" style="stroke: #000000"/>
     <use xlink:href="#m4829220273" x="164.317336" y="264.11594" style="stroke: #000000"/>
     <use xlink:href="#m4829220273" x="117.588151" y="263.971898" style="stroke: #000000"/>
     <use xlink:href="#m4829220273" x="73.832727" y="267.200691" style="stroke: #000000"/>
     <use xlink:href="#m4829220273" x="93.990957" y="239.810421" style="stroke: #000000"/>
     <use xlink:href="#m4829220273" x="76.603142" y="252.809294" style="stroke: #000000"/>
     <use xlink:href="#m4829220273" x="90.27631" y="243.714913" style="stroke: #000000"/>
     <use xlink:href="#m4829220273" x="156.091261" y="254.258841" style="stroke: #000000"/>
     <use xlink:href="#m4829220273" x="121.845524" y="262.958834" style="stroke: #000000"/>
     <use xlink:href="#m4829220273" x="139.779238" y="240.195493" style="stroke: #000000"/>
     <use xlink:href="#m4829220273" x="147.804541" y="266.684302" style="stroke: #000000"/>
     <use xlink:href="#m4829220273" x="149.85279" y="259.683324" style="stroke: #000000"/>
     <use xlink:href="#m4829220273" x="140.50079" y="262.281454" style="stroke: #000000"/>
     <use xlink:href="#m4829220273" x="88.064096" y="260.145954" style="stroke: #000000"/>
     <use xlink:href="#m4829220273" x="88.426449" y="252.111791" style="stroke: #000000"/>
     <use xlink:href="#m4829220273" x="141.333772" y="268.043229" style="stroke: #000000"/>
     <use xlink:href="#m4829220273" x="85.39484" y="272.152572" style="stroke: #000000"/>
     <use xlink:href="#m4829220273" x="91.182104" y="250.513918" style="stroke: #000000"/>
    </g>
   </g>
   <g id="PathCollection_2">
    <defs>
     <path id="m6534c2271b" d="M 0 3 
C 0.795609 3 1.55874 2.683901 2.12132 2.12132 
C 2.683901 1.55874 3 0.795609 3 0 
C 3 -0.795609 2.683901 -1.55874 2.12132 -2.12132 
C 1.55874 -2.683901 0.795609 -3 0 -3 
C -0.795609 -3 -1.55874 -2.683901 -2.12132 -2.12132 
C -2.683901 -1.55874 -3 -0.795609 -3 0 
C -3 0.795609 -2.683901 1.55874 -2.12132 2.12132 
C -1.55874 2.683901 -0.795609 3 0 3 
z
" style="stroke: #000000"/>
    </defs>
    <g clip-path="url(#pc7bbea3931)">
     <use xlink:href="#m6534c2271b" x="131.4984" y="78.648841" style="fill: #ffffff; stroke: #000000"/>
     <use xlink:href="#m6534c2271b" x="118.018107" y="81.901983" style="fill: #ffffff; stroke: #000000"/>
     <use xlink:href="#m6534c2271b" x="101.910165" y="66.391089" style="fill: #ffffff; stroke: #000000"/>
     <use xlink:href="#m6534c2271b" x="111.114952" y="53.568" style="fill: #ffffff; stroke: #000000"/>
     <use xlink:href="#m6534c2271b" x="90.591464" y="64.571068" style="fill: #ffffff; stroke: #000000"/>
     <use xlink:href="#m6534c2271b" x="136.537984" y="72.411503" style="fill: #ffffff; stroke: #000000"/>
     <use xlink:href="#m6534c2271b" x="112.508533" y="73.760302" style="fill: #ffffff; stroke: #000000"/>
     <use xlink:href="#m6534c2271b" x="149.18154" y="74.902324" style="fill: #ffffff; stroke: #000000"/>
     <use xlink:href="#m6534c2271b" x="117.969922" y="75.710646" style="fill: #ffffff; stroke: #000000"/>
     <use xlink:href="#m6534c2271b" x="126.742149" y="69.728729" style="fill: #ffffff; stroke: #000000"/>
     <use xlink:href="#m6534c2271b" x="229.56524" y="262.377261" style="fill: #ffffff; stroke: #000000"/>
     <use xlink:href="#m6534c2271b" x="398.487273" y="247.815853" style="fill: #ffffff; stroke: #000000"/>
     <use xlink:href="#m6534c2271b" x="393.71002" y="248.756523" style="fill: #ffffff; stroke: #000000"/>
     <use xlink:href="#m6534c2271b" x="233.777313" y="262.771519" style="fill: #ffffff; stroke: #000000"/>
     <use xlink:href="#m6534c2271b" x="248.501296" y="271.430473" style="fill: #ffffff; stroke: #000000"/>
     <use xlink:href="#m6534c2271b" x="213.939112" y="269.833107" style="fill: #ffffff; stroke: #000000"/>
     <use xlink:href="#m6534c2271b" x="394.452689" y="255.349276" style="fill: #ffffff; stroke: #000000"/>
     <use xlink:href="#m6534c2271b" x="219.90806" y="270.124085" style="fill: #ffffff; stroke: #000000"/>
     <use xlink:href="#m6534c2271b" x="217.115981" y="279.488689" style="fill: #ffffff; stroke: #000000"/>
    </g>
   </g>
   <g id="matplotlib.axis_1">
    <g id="xtick_1">
     <g id="line2d_1">
      <defs>
       <path id="me903383b03" d="M 0 0 
L 0 3.5 
" style="stroke: #000000; stroke-width: 0.8"/>
      </defs>
      <g>
       <use xlink:href="#me903383b03" x="102.110024" y="307.584" style="stroke: #000000; stroke-width: 0.8"/>
      </g>
     </g>
     <g id="text_1">
      <!-- −1.0 -->
      <g transform="translate(89.968618 322.182437) scale(0.1 -0.1)">
       <defs>
        <path id="DejaVuSans-2212" d="M 678 2272 
L 4684 2272 
L 4684 1741 
L 678 1741 
L 678 2272 
z
" transform="scale(0.015625)"/>
        <path id="DejaVuSans-31" d="M 794 531 
L 1825 531 
L 1825 4091 
L 703 3866 
L 703 4441 
L 1819 4666 
L 2450 4666 
L 2450 531 
L 3481 531 
L 3481 0 
L 794 0 
L 794 531 
z
" transform="scale(0.015625)"/>
        <path id="DejaVuSans-2e" d="M 684 794 
L 1344 794 
L 1344 0 
L 684 0 
L 684 794 
z
" transform="scale(0.015625)"/>
        <path id="DejaVuSans-30" d="M 2034 4250 
Q 1547 4250 1301 3770 
Q 1056 3291 1056 2328 
Q 1056 1369 1301 889 
Q 1547 409 2034 409 
Q 2525 409 2770 889 
Q 3016 1369 3016 2328 
Q 3016 3291 2770 3770 
Q 2525 4250 2034 4250 
z
M 2034 4750 
Q 2819 4750 3233 4129 
Q 3647 3509 3647 2328 
Q 3647 1150 3233 529 
Q 2819 -91 2034 -91 
Q 1250 -91 836 529 
Q 422 1150 422 2328 
Q 422 3509 836 4129 
Q 1250 4750 2034 4750 
z
" transform="scale(0.015625)"/>
       </defs>
       <use xlink:href="#DejaVuSans-2212"/>
       <use xlink:href="#DejaVuSans-31" x="83.789062"/>
       <use xlink:href="#DejaVuSans-2e" x="147.412109"/>
       <use xlink:href="#DejaVuSans-30" x="179.199219"/>
      </g>
     </g>
    </g>
    <g id="xtick_2">
     <g id="line2d_2">
      <g>
       <use xlink:href="#me903383b03" x="151.10128" y="307.584" style="stroke: #000000; stroke-width: 0.8"/>
      </g>
     </g>
     <g id="text_2">
      <!-- −0.5 -->
      <g transform="translate(138.959874 322.182437) scale(0.1 -0.1)">
       <defs>
        <path id="DejaVuSans-35" d="M 691 4666 
L 3169 4666 
L 3169 4134 
L 1269 4134 
L 1269 2991 
Q 1406 3038 1543 3061 
Q 1681 3084 1819 3084 
Q 2600 3084 3056 2656 
Q 3513 2228 3513 1497 
Q 3513 744 3044 326 
Q 2575 -91 1722 -91 
Q 1428 -91 1123 -41 
Q 819 9 494 109 
L 494 744 
Q 775 591 1075 516 
Q 1375 441 1709 441 
Q 2250 441 2565 725 
Q 2881 1009 2881 1497 
Q 2881 1984 2565 2268 
Q 2250 2553 1709 2553 
Q 1456 2553 1204 2497 
Q 953 2441 691 2322 
L 691 4666 
z
" transform="scale(0.015625)"/>
       </defs>
       <use xlink:href="#DejaVuSans-2212"/>
       <use xlink:href="#DejaVuSans-30" x="83.789062"/>
       <use xlink:href="#DejaVuSans-2e" x="147.412109"/>
       <use xlink:href="#DejaVuSans-35" x="179.199219"/>
      </g>
     </g>
    </g>
    <g id="xtick_3">
     <g id="line2d_3">
      <g>
       <use xlink:href="#me903383b03" x="200.092537" y="307.584" style="stroke: #000000; stroke-width: 0.8"/>
      </g>
     </g>
     <g id="text_3">
      <!-- 0.0 -->
      <g transform="translate(192.140974 322.182437) scale(0.1 -0.1)">
       <use xlink:href="#DejaVuSans-30"/>
       <use xlink:href="#DejaVuSans-2e" x="63.623047"/>
       <use xlink:href="#DejaVuSans-30" x="95.410156"/>
      </g>
     </g>
    </g>
    <g id="xtick_4">
     <g id="line2d_4">
      <g>
       <use xlink:href="#me903383b03" x="249.083793" y="307.584" style="stroke: #000000; stroke-width: 0.8"/>
      </g>
     </g>
     <g id="text_4">
      <!-- 0.5 -->
      <g transform="translate(241.13223 322.182437) scale(0.1 -0.1)">
       <use xlink:href="#DejaVuSans-30"/>
       <use xlink:href="#DejaVuSans-2e" x="63.623047"/>
       <use xlink:href="#DejaVuSans-35" x="95.410156"/>
      </g>
     </g>
    </g>
    <g id="xtick_5">
     <g id="line2d_5">
      <g>
       <use xlink:href="#me903383b03" x="298.075049" y="307.584" style="stroke: #000000; stroke-width: 0.8"/>
      </g>
     </g>
     <g id="text_5">
      <!-- 1.0 -->
      <g transform="translate(290.123487 322.182437) scale(0.1 -0.1)">
       <use xlink:href="#DejaVuSans-31"/>
       <use xlink:href="#DejaVuSans-2e" x="63.623047"/>
       <use xlink:href="#DejaVuSans-30" x="95.410156"/>
      </g>
     </g>
    </g>
    <g id="xtick_6">
     <g id="line2d_6">
      <g>
       <use xlink:href="#me903383b03" x="347.066306" y="307.584" style="stroke: #000000; stroke-width: 0.8"/>
      </g>
     </g>
     <g id="text_6">
      <!-- 1.5 -->
      <g transform="translate(339.114743 322.182437) scale(0.1 -0.1)">
       <use xlink:href="#DejaVuSans-31"/>
       <use xlink:href="#DejaVuSans-2e" x="63.623047"/>
       <use xlink:href="#DejaVuSans-35" x="95.410156"/>
      </g>
     </g>
    </g>
    <g id="xtick_7">
     <g id="line2d_7">
      <g>
       <use xlink:href="#me903383b03" x="396.057562" y="307.584" style="stroke: #000000; stroke-width: 0.8"/>
      </g>
     </g>
     <g id="text_7">
      <!-- 2.0 -->
      <g transform="translate(388.106 322.182437) scale(0.1 -0.1)">
       <defs>
        <path id="DejaVuSans-32" d="M 1228 531 
L 3431 531 
L 3431 0 
L 469 0 
L 469 531 
Q 828 903 1448 1529 
Q 2069 2156 2228 2338 
Q 2531 2678 2651 2914 
Q 2772 3150 2772 3378 
Q 2772 3750 2511 3984 
Q 2250 4219 1831 4219 
Q 1534 4219 1204 4116 
Q 875 4013 500 3803 
L 500 4441 
Q 881 4594 1212 4672 
Q 1544 4750 1819 4750 
Q 2544 4750 2975 4387 
Q 3406 4025 3406 3419 
Q 3406 3131 3298 2873 
Q 3191 2616 2906 2266 
Q 2828 2175 2409 1742 
Q 1991 1309 1228 531 
z
" transform="scale(0.015625)"/>
       </defs>
       <use xlink:href="#DejaVuSans-32"/>
       <use xlink:href="#DejaVuSans-2e" x="63.623047"/>
       <use xlink:href="#DejaVuSans-30" x="95.410156"/>
      </g>
     </g>
    </g>
    <g id="text_8">
     <!-- Time -->
     <g transform="translate(390.252813 335.860562) scale(0.1 -0.1)">
      <defs>
       <path id="DejaVuSans-54" d="M -19 4666 
L 3928 4666 
L 3928 4134 
L 2272 4134 
L 2272 0 
L 1638 0 
L 1638 4134 
L -19 4134 
L -19 4666 
z
" transform="scale(0.015625)"/>
       <path id="DejaVuSans-69" d="M 603 3500 
L 1178 3500 
L 1178 0 
L 603 0 
L 603 3500 
z
M 603 4863 
L 1178 4863 
L 1178 4134 
L 603 4134 
L 603 4863 
z
" transform="scale(0.015625)"/>
       <path id="DejaVuSans-6d" d="M 3328 2828 
Q 3544 3216 3844 3400 
Q 4144 3584 4550 3584 
Q 5097 3584 5394 3201 
Q 5691 2819 5691 2113 
L 5691 0 
L 5113 0 
L 5113 2094 
Q 5113 2597 4934 2840 
Q 4756 3084 4391 3084 
Q 3944 3084 3684 2787 
Q 3425 2491 3425 1978 
L 3425 0 
L 2847 0 
L 2847 2094 
Q 2847 2600 2669 2842 
Q 2491 3084 2119 3084 
Q 1678 3084 1418 2786 
Q 1159 2488 1159 1978 
L 1159 0 
L 581 0 
L 581 3500 
L 1159 3500 
L 1159 2956 
Q 1356 3278 1631 3431 
Q 1906 3584 2284 3584 
Q 2666 3584 2933 3390 
Q 3200 3197 3328 2828 
z
" transform="scale(0.015625)"/>
       <path id="DejaVuSans-65" d="M 3597 1894 
L 3597 1613 
L 953 1613 
Q 991 1019 1311 708 
Q 1631 397 2203 397 
Q 2534 397 2845 478 
Q 3156 559 3463 722 
L 3463 178 
Q 3153 47 2828 -22 
Q 2503 -91 2169 -91 
Q 1331 -91 842 396 
Q 353 884 353 1716 
Q 353 2575 817 3079 
Q 1281 3584 2069 3584 
Q 2775 3584 3186 3129 
Q 3597 2675 3597 1894 
z
M 3022 2063 
Q 3016 2534 2758 2815 
Q 2500 3097 2075 3097 
Q 1594 3097 1305 2825 
Q 1016 2553 972 2059 
L 3022 2063 
z
" transform="scale(0.015625)"/>
      </defs>
      <use xlink:href="#DejaVuSans-54"/>
      <use xlink:href="#DejaVuSans-69" x="57.958984"/>
      <use xlink:href="#DejaVuSans-6d" x="85.742188"/>
      <use xlink:href="#DejaVuSans-65" x="183.154297"/>
     </g>
    </g>
   </g>
   <g id="matplotlib.axis_2">
    <g id="ytick_1">
     <g id="line2d_8">
      <defs>
       <path id="mefa9a79679" d="M 0 0 
L -3.5 0 
" style="stroke: #000000; stroke-width: 0.8"/>
      </defs>
      <g>
       <use xlink:href="#mefa9a79679" x="57.6" y="292.583263" style="stroke: #000000; stroke-width: 0.8"/>
      </g>
     </g>
     <g id="text_9">
      <!-- −1 -->
      <g transform="translate(35.857813 296.382482) scale(0.1 -0.1)">
       <use xlink:href="#DejaVuSans-2212"/>
       <use xlink:href="#DejaVuSans-31" x="83.789062"/>
      </g>
     </g>
    </g>
    <g id="ytick_2">
     <g id="line2d_9">
      <g>
       <use xlink:href="#mefa9a79679" x="57.6" y="250.966926" style="stroke: #000000; stroke-width: 0.8"/>
      </g>
     </g>
     <g id="text_10">
      <!-- 0 -->
      <g transform="translate(44.2375 254.766144) scale(0.1 -0.1)">
       <use xlink:href="#DejaVuSans-30"/>
      </g>
     </g>
    </g>
    <g id="ytick_3">
     <g id="line2d_10">
      <g>
       <use xlink:href="#mefa9a79679" x="57.6" y="209.350588" style="stroke: #000000; stroke-width: 0.8"/>
      </g>
     </g>
     <g id="text_11">
      <!-- 1 -->
      <g transform="translate(44.2375 213.149807) scale(0.1 -0.1)">
       <use xlink:href="#DejaVuSans-31"/>
      </g>
     </g>
    </g>
    <g id="ytick_4">
     <g id="line2d_11">
      <g>
       <use xlink:href="#mefa9a79679" x="57.6" y="167.73425" style="stroke: #000000; stroke-width: 0.8"/>
      </g>
     </g>
     <g id="text_12">
      <!-- 2 -->
      <g transform="translate(44.2375 171.533469) scale(0.1 -0.1)">
       <use xlink:href="#DejaVuSans-32"/>
      </g>
     </g>
    </g>
    <g id="ytick_5">
     <g id="line2d_12">
      <g>
       <use xlink:href="#mefa9a79679" x="57.6" y="126.117912" style="stroke: #000000; stroke-width: 0.8"/>
      </g>
     </g>
     <g id="text_13">
      <!-- 3 -->
      <g transform="translate(44.2375 129.917131) scale(0.1 -0.1)">
       <defs>
        <path id="DejaVuSans-33" d="M 2597 2516 
Q 3050 2419 3304 2112 
Q 3559 1806 3559 1356 
Q 3559 666 3084 287 
Q 2609 -91 1734 -91 
Q 1441 -91 1130 -33 
Q 819 25 488 141 
L 488 750 
Q 750 597 1062 519 
Q 1375 441 1716 441 
Q 2309 441 2620 675 
Q 2931 909 2931 1356 
Q 2931 1769 2642 2001 
Q 2353 2234 1838 2234 
L 1294 2234 
L 1294 2753 
L 1863 2753 
Q 2328 2753 2575 2939 
Q 2822 3125 2822 3475 
Q 2822 3834 2567 4026 
Q 2313 4219 1838 4219 
Q 1578 4219 1281 4162 
Q 984 4106 628 3988 
L 628 4550 
Q 988 4650 1302 4700 
Q 1616 4750 1894 4750 
Q 2613 4750 3031 4423 
Q 3450 4097 3450 3541 
Q 3450 3153 3228 2886 
Q 3006 2619 2597 2516 
z
" transform="scale(0.015625)"/>
       </defs>
       <use xlink:href="#DejaVuSans-33"/>
      </g>
     </g>
    </g>
    <g id="ytick_6">
     <g id="line2d_13">
      <g>
       <use xlink:href="#mefa9a79679" x="57.6" y="84.501575" style="stroke: #000000; stroke-width: 0.8"/>
      </g>
     </g>
     <g id="text_14">
      <!-- 4 -->
      <g transform="translate(44.2375 88.300793) scale(0.1 -0.1)">
       <defs>
        <path id="DejaVuSans-34" d="M 2419 4116 
L 825 1625 
L 2419 1625 
L 2419 4116 
z
M 2253 4666 
L 3047 4666 
L 3047 1625 
L 3713 1625 
L 3713 1100 
L 3047 1100 
L 3047 0 
L 2419 0 
L 2419 1100 
L 313 1100 
L 313 1709 
L 2253 4666 
z
" transform="scale(0.015625)"/>
       </defs>
       <use xlink:href="#DejaVuSans-34"/>
      </g>
     </g>
    </g>
    <g id="ytick_7">
     <g id="line2d_14">
      <g>
       <use xlink:href="#mefa9a79679" x="57.6" y="42.885237" style="stroke: #000000; stroke-width: 0.8"/>
      </g>
     </g>
     <g id="text_15">
      <!-- 5 -->
      <g transform="translate(44.2375 46.684456) scale(0.1 -0.1)">
       <use xlink:href="#DejaVuSans-35"/>
      </g>
     </g>
    </g>
    <g id="text_16">
     <!-- Observed value -->
     <g transform="translate(29.778125 120.079813) rotate(-90) scale(0.1 -0.1)">
      <defs>
       <path id="DejaVuSans-4f" d="M 2522 4238 
Q 1834 4238 1429 3725 
Q 1025 3213 1025 2328 
Q 1025 1447 1429 934 
Q 1834 422 2522 422 
Q 3209 422 3611 934 
Q 4013 1447 4013 2328 
Q 4013 3213 3611 3725 
Q 3209 4238 2522 4238 
z
M 2522 4750 
Q 3503 4750 4090 4092 
Q 4678 3434 4678 2328 
Q 4678 1225 4090 567 
Q 3503 -91 2522 -91 
Q 1538 -91 948 565 
Q 359 1222 359 2328 
Q 359 3434 948 4092 
Q 1538 4750 2522 4750 
z
" transform="scale(0.015625)"/>
       <path id="DejaVuSans-62" d="M 3116 1747 
Q 3116 2381 2855 2742 
Q 2594 3103 2138 3103 
Q 1681 3103 1420 2742 
Q 1159 2381 1159 1747 
Q 1159 1113 1420 752 
Q 1681 391 2138 391 
Q 2594 391 2855 752 
Q 3116 1113 3116 1747 
z
M 1159 2969 
Q 1341 3281 1617 3432 
Q 1894 3584 2278 3584 
Q 2916 3584 3314 3078 
Q 3713 2572 3713 1747 
Q 3713 922 3314 415 
Q 2916 -91 2278 -91 
Q 1894 -91 1617 61 
Q 1341 213 1159 525 
L 1159 0 
L 581 0 
L 581 4863 
L 1159 4863 
L 1159 2969 
z
" transform="scale(0.015625)"/>
       <path id="DejaVuSans-73" d="M 2834 3397 
L 2834 2853 
Q 2591 2978 2328 3040 
Q 2066 3103 1784 3103 
Q 1356 3103 1142 2972 
Q 928 2841 928 2578 
Q 928 2378 1081 2264 
Q 1234 2150 1697 2047 
L 1894 2003 
Q 2506 1872 2764 1633 
Q 3022 1394 3022 966 
Q 3022 478 2636 193 
Q 2250 -91 1575 -91 
Q 1294 -91 989 -36 
Q 684 19 347 128 
L 347 722 
Q 666 556 975 473 
Q 1284 391 1588 391 
Q 1994 391 2212 530 
Q 2431 669 2431 922 
Q 2431 1156 2273 1281 
Q 2116 1406 1581 1522 
L 1381 1569 
Q 847 1681 609 1914 
Q 372 2147 372 2553 
Q 372 3047 722 3315 
Q 1072 3584 1716 3584 
Q 2034 3584 2315 3537 
Q 2597 3491 2834 3397 
z
" transform="scale(0.015625)"/>
       <path id="DejaVuSans-72" d="M 2631 2963 
Q 2534 3019 2420 3045 
Q 2306 3072 2169 3072 
Q 1681 3072 1420 2755 
Q 1159 2438 1159 1844 
L 1159 0 
L 581 0 
L 581 3500 
L 1159 3500 
L 1159 2956 
Q 1341 3275 1631 3429 
Q 1922 3584 2338 3584 
Q 2397 3584 2469 3576 
Q 2541 3569 2628 3553 
L 2631 2963 
z
" transform="scale(0.015625)"/>
       <path id="DejaVuSans-76" d="M 191 3500 
L 800 3500 
L 1894 563 
L 2988 3500 
L 3597 3500 
L 2284 0 
L 1503 0 
L 191 3500 
z
" transform="scale(0.015625)"/>
       <path id="DejaVuSans-64" d="M 2906 2969 
L 2906 4863 
L 3481 4863 
L 3481 0 
L 2906 0 
L 2906 525 
Q 2725 213 2448 61 
Q 2172 -91 1784 -91 
Q 1150 -91 751 415 
Q 353 922 353 1747 
Q 353 2572 751 3078 
Q 1150 3584 1784 3584 
Q 2172 3584 2448 3432 
Q 2725 3281 2906 2969 
z
M 947 1747 
Q 947 1113 1208 752 
Q 1469 391 1925 391 
Q 2381 391 2643 752 
Q 2906 1113 2906 1747 
Q 2906 2381 2643 2742 
Q 2381 3103 1925 3103 
Q 1469 3103 1208 2742 
Q 947 2381 947 1747 
z
" transform="scale(0.015625)"/>
       <path id="DejaVuSans-20" transform="scale(0.015625)"/>
       <path id="DejaVuSans-61" d="M 2194 1759 
Q 1497 1759 1228 1600 
Q 959 1441 959 1056 
Q 959 750 1161 570 
Q 1363 391 1709 391 
Q 2188 391 2477 730 
Q 2766 1069 2766 1631 
L 2766 1759 
L 2194 1759 
z
M 3341 1997 
L 3341 0 
L 2766 0 
L 2766 531 
Q 2569 213 2275 61 
Q 1981 -91 1556 -91 
Q 1019 -91 701 211 
Q 384 513 384 1019 
Q 384 1609 779 1909 
Q 1175 2209 1959 2209 
L 2766 2209 
L 2766 2266 
Q 2766 2663 2505 2880 
Q 2244 3097 1772 3097 
Q 1472 3097 1187 3025 
Q 903 2953 641 2809 
L 641 3341 
Q 956 3463 1253 3523 
Q 1550 3584 1831 3584 
Q 2591 3584 2966 3190 
Q 3341 2797 3341 1997 
z
" transform="scale(0.015625)"/>
       <path id="DejaVuSans-6c" d="M 603 4863 
L 1178 4863 
L 1178 0 
L 603 0 
L 603 4863 
z
" transform="scale(0.015625)"/>
       <path id="DejaVuSans-75" d="M 544 1381 
L 544 3500 
L 1119 3500 
L 1119 1403 
Q 1119 906 1312 657 
Q 1506 409 1894 409 
Q 2359 409 2629 706 
Q 2900 1003 2900 1516 
L 2900 3500 
L 3475 3500 
L 3475 0 
L 2900 0 
L 2900 538 
Q 2691 219 2414 64 
Q 2138 -91 1772 -91 
Q 1169 -91 856 284 
Q 544 659 544 1381 
z
M 1991 3584 
L 1991 3584 
z
" transform="scale(0.015625)"/>
      </defs>
      <use xlink:href="#DejaVuSans-4f"/>
      <use xlink:href="#DejaVuSans-62" x="78.710938"/>
      <use xlink:href="#DejaVuSans-73" x="142.1875"/>
      <use xlink:href="#DejaVuSans-65" x="194.287109"/>
      <use xlink:href="#DejaVuSans-72" x="255.810547"/>
      <use xlink:href="#DejaVuSans-76" x="296.923828"/>
      <use xlink:href="#DejaVuSans-65" x="356.103516"/>
      <use xlink:href="#DejaVuSans-64" x="417.626953"/>
      <use xlink:href="#DejaVuSans-20" x="481.103516"/>
      <use xlink:href="#DejaVuSans-76" x="512.890625"/>
      <use xlink:href="#DejaVuSans-61" x="572.070312"/>
      <use xlink:href="#DejaVuSans-6c" x="633.349609"/>
      <use xlink:href="#DejaVuSans-75" x="661.132812"/>
      <use xlink:href="#DejaVuSans-65" x="724.511719"/>
     </g>
    </g>
   </g>
   <g id="patch_3">
    <path d="M 57.6 307.584 
L 57.6 41.472 
" style="fill: none; stroke: #000000; stroke-width: 0.8; stroke-linejoin: miter; stroke-linecap: square"/>
   </g>
   <g id="patch_4">
    <path d="M 414.72 307.584 
L 414.72 41.472 
" style="fill: none; stroke: #000000; stroke-width: 0.8; stroke-linejoin: miter; stroke-linecap: square"/>
   </g>
   <g id="patch_5">
    <path d="M 57.6 307.584 
L 414.72 307.584 
" style="fill: none; stroke: #000000; stroke-width: 0.8; stroke-linejoin: miter; stroke-linecap: square"/>
   </g>
   <g id="patch_6">
    <path d="M 57.6 41.472 
L 414.72 41.472 
" style="fill: none; stroke: #000000; stroke-width: 0.8; stroke-linejoin: miter; stroke-linecap: square"/>
   </g>
   <g id="legend_1">
    <g id="patch_7">
     <path d="M 337.365313 78.82825 
L 407.72 78.82825 
Q 409.72 78.82825 409.72 76.82825 
L 409.72 48.472 
Q 409.72 46.472 407.72 46.472 
L 337.365313 46.472 
Q 335.365313 46.472 335.365313 48.472 
L 335.365313 76.82825 
Q 335.365313 78.82825 337.365313 78.82825 
z
" style="fill: #ffffff; opacity: 0.8; stroke: #cccccc; stroke-linejoin: miter"/>
    </g>
    <g id="PathCollection_3">
     <g>
      <use xlink:href="#m4829220273" x="349.365313" y="55.445437" style="stroke: #000000"/>
     </g>
    </g>
    <g id="text_17">
     <!-- Regular -->
     <g transform="translate(367.365313 58.070437) scale(0.1 -0.1)">
      <defs>
       <path id="DejaVuSans-52" d="M 2841 2188 
Q 3044 2119 3236 1894 
Q 3428 1669 3622 1275 
L 4263 0 
L 3584 0 
L 2988 1197 
Q 2756 1666 2539 1819 
Q 2322 1972 1947 1972 
L 1259 1972 
L 1259 0 
L 628 0 
L 628 4666 
L 2053 4666 
Q 2853 4666 3247 4331 
Q 3641 3997 3641 3322 
Q 3641 2881 3436 2590 
Q 3231 2300 2841 2188 
z
M 1259 4147 
L 1259 2491 
L 2053 2491 
Q 2509 2491 2742 2702 
Q 2975 2913 2975 3322 
Q 2975 3731 2742 3939 
Q 2509 4147 2053 4147 
L 1259 4147 
z
" transform="scale(0.015625)"/>
       <path id="DejaVuSans-67" d="M 2906 1791 
Q 2906 2416 2648 2759 
Q 2391 3103 1925 3103 
Q 1463 3103 1205 2759 
Q 947 2416 947 1791 
Q 947 1169 1205 825 
Q 1463 481 1925 481 
Q 2391 481 2648 825 
Q 2906 1169 2906 1791 
z
M 3481 434 
Q 3481 -459 3084 -895 
Q 2688 -1331 1869 -1331 
Q 1566 -1331 1297 -1286 
Q 1028 -1241 775 -1147 
L 775 -588 
Q 1028 -725 1275 -790 
Q 1522 -856 1778 -856 
Q 2344 -856 2625 -561 
Q 2906 -266 2906 331 
L 2906 616 
Q 2728 306 2450 153 
Q 2172 0 1784 0 
Q 1141 0 747 490 
Q 353 981 353 1791 
Q 353 2603 747 3093 
Q 1141 3584 1784 3584 
Q 2172 3584 2450 3431 
Q 2728 3278 2906 2969 
L 2906 3500 
L 3481 3500 
L 3481 434 
z
" transform="scale(0.015625)"/>
      </defs>
      <use xlink:href="#DejaVuSans-52"/>
      <use xlink:href="#DejaVuSans-65" x="64.982422"/>
      <use xlink:href="#DejaVuSans-67" x="126.505859"/>
      <use xlink:href="#DejaVuSans-75" x="189.982422"/>
      <use xlink:href="#DejaVuSans-6c" x="253.361328"/>
      <use xlink:href="#DejaVuSans-61" x="281.144531"/>
      <use xlink:href="#DejaVuSans-72" x="342.423828"/>
     </g>
    </g>
    <g id="PathCollection_4">
     <g>
      <use xlink:href="#m6534c2271b" x="349.365313" y="70.123562" style="fill: #ffffff; stroke: #000000"/>
     </g>
    </g>
    <g id="text_18">
     <!-- Outlier -->
     <g transform="translate(367.365313 72.748562) scale(0.1 -0.1)">
      <defs>
       <path id="DejaVuSans-74" d="M 1172 4494 
L 1172 3500 
L 2356 3500 
L 2356 3053 
L 1172 3053 
L 1172 1153 
Q 1172 725 1289 603 
Q 1406 481 1766 481 
L 2356 481 
L 2356 0 
L 1766 0 
Q 1100 0 847 248 
Q 594 497 594 1153 
L 594 3053 
L 172 3053 
L 172 3500 
L 594 3500 
L 594 4494 
L 1172 4494 
z
" transform="scale(0.015625)"/>
      </defs>
      <use xlink:href="#DejaVuSans-4f"/>
      <use xlink:href="#DejaVuSans-75" x="78.710938"/>
      <use xlink:href="#DejaVuSans-74" x="142.089844"/>
      <use xlink:href="#DejaVuSans-6c" x="181.298828"/>
      <use xlink:href="#DejaVuSans-69" x="209.082031"/>
      <use xlink:href="#DejaVuSans-65" x="236.865234"/>
      <use xlink:href="#DejaVuSans-72" x="298.388672"/>
     </g>
    </g>
   </g>
  </g>
 </g>
 <defs>
  <clipPath id="pc7bbea3931">
   <rect x="57.6" y="41.472" width="357.12" height="266.112"/>
  </clipPath>
 </defs>
</svg>
