<?xml version="1.0" encoding="utf-8" standalone="no"?>
<!DOCTYPE svg PUBLIC "-//W3C//DTD SVG 1.1//EN"
  "http://www.w3.org/Graphics/SVG/1.1/DTD/svg11.dtd">
<svg xmlns:xlink="http://www.w3.org/1999/xlink" width="460.8pt" height="345.6pt" viewBox="0 0 460.8 345.6" xmlns="http://www.w3.org/2000/svg" version="1.1">
 <metadata>
  <rdf:RDF xmlns:dc="http://purl.org/dc/elements/1.1/" xmlns:cc="http://creativecommons.org/ns#" xmlns:rdf="http://www.w3.org/1999/02/22-rdf-syntax-ns#">
   <cc:Work>
    <dc:type rdf:resource="http://purl.org/dc/dcmitype/StillImage"/>
    <dc:date>2023-09-07T12:21:57.688944</dc:date>
    <dc:format>image/svg+xml</dc:format>
    <dc:creator>
     <cc:Agent>
      <dc:title>Matplotlib v3.7.1, https://matplotlib.org/</dc:title>
     </cc:Agent>
    </dc:creator>
   </cc:Work>
  </rdf:RDF>
 </metadata>
 <defs>
  <style type="text/css">*{stroke-linejoin: round; stroke-linecap: butt}</style>
 </defs>
 <g id="figure_1">
  <g id="patch_1">
   <path d="M 0 345.6 
L 460.8 345.6 
L 460.8 0 
L 0 0 
z
" style="fill: #ffffff"/>
  </g>
  <g id="axes_1">
   <g id="patch_2">
    <path d="M 57.6 307.584 
L 414.72 307.584 
L 414.72 41.472 
L 57.6 41.472 
z
" style="fill: #ffffff"/>
   </g>
   <g id="PathCollection_1">
    <defs>
     <path id="m15e16241a9" d="M 0 3 
C 0.795609 3 1.55874 2.683901 2.12132 2.12132 
C 2.683901 1.55874 3 0.795609 3 0 
C 3 -0.795609 2.683901 -1.55874 2.12132 -2.12132 
C 1.55874 -2.683901 0.795609 -3 0 -3 
C -0.795609 -3 -1.55874 -2.683901 -2.12132 -2.12132 
C -2.683901 -1.55874 -3 -0.795609 -3 0 
C -3 0.795609 -2.683901 1.55874 -2.12132 2.12132 
C -1.55874 2.683901 -0.795609 3 0 3 
z
" style="stroke: #000000"/>
    </defs>
    <g clip-path="url(#p6378e42bac)">
     <use xlink:href="#m15e16241a9" x="371.49153" y="264.052027" style="stroke: #000000"/>
     <use xlink:href="#m15e16241a9" x="371.940126" y="275.160186" style="stroke: #000000"/>
     <use xlink:href="#m15e16241a9" x="161.288307" y="274.911611" style="stroke: #000000"/>
     <use xlink:href="#m15e16241a9" x="379.565121" y="253.205541" style="stroke: #000000"/>
     <use xlink:href="#m15e16241a9" x="165.422858" y="267.393708" style="stroke: #000000"/>
     <use xlink:href="#m15e16241a9" x="289.285267" y="261.699571" style="stroke: #000000"/>
     <use xlink:href="#m15e16241a9" x="250.862441" y="253.170993" style="stroke: #000000"/>
     <use xlink:href="#m15e16241a9" x="346.480565" y="256.162174" style="stroke: #000000"/>
     <use xlink:href="#m15e16241a9" x="297.000621" y="260.056752" style="stroke: #000000"/>
     <use xlink:href="#m15e16241a9" x="378.864377" y="262.185182" style="stroke: #000000"/>
     <use xlink:href="#m15e16241a9" x="344.872957" y="280.77563" style="stroke: #000000"/>
     <use xlink:href="#m15e16241a9" x="269.394165" y="243.497556" style="stroke: #000000"/>
     <use xlink:href="#m15e16241a9" x="308.32497" y="270.140105" style="stroke: #000000"/>
     <use xlink:href="#m15e16241a9" x="228.04027" y="270.26292" style="stroke: #000000"/>
     <use xlink:href="#m15e16241a9" x="386.10995" y="278.213042" style="stroke: #000000"/>
     <use xlink:href="#m15e16241a9" x="166.810877" y="246.869218" style="stroke: #000000"/>
     <use xlink:href="#m15e16241a9" x="278.239623" y="281.309515" style="stroke: #000000"/>
     <use xlink:href="#m15e16241a9" x="191.965483" y="280.785682" style="stroke: #000000"/>
     <use xlink:href="#m15e16241a9" x="293.43623" y="278.861489" style="stroke: #000000"/>
     <use xlink:href="#m15e16241a9" x="316.689112" y="267.968739" style="stroke: #000000"/>
     <use xlink:href="#m15e16241a9" x="280.984884" y="259.365322" style="stroke: #000000"/>
     <use xlink:href="#m15e16241a9" x="344.980552" y="259.24078" style="stroke: #000000"/>
     <use xlink:href="#m15e16241a9" x="396.83163" y="263.931315" style="stroke: #000000"/>
     <use xlink:href="#m15e16241a9" x="313.369213" y="253.578262" style="stroke: #000000"/>
     <use xlink:href="#m15e16241a9" x="389.56128" y="271.429032" style="stroke: #000000"/>
     <use xlink:href="#m15e16241a9" x="161.701761" y="259.24145" style="stroke: #000000"/>
     <use xlink:href="#m15e16241a9" x="169.605418" y="248.75525" style="stroke: #000000"/>
     <use xlink:href="#m15e16241a9" x="180.470894" y="279.612119" style="stroke: #000000"/>
     <use xlink:href="#m15e16241a9" x="216.80756" y="267.058413" style="stroke: #000000"/>
     <use xlink:href="#m15e16241a9" x="396.533668" y="269.357173" style="stroke: #000000"/>
     <use xlink:href="#m15e16241a9" x="281.979021" y="288.752071" style="stroke: #000000"/>
     <use xlink:href="#m15e16241a9" x="150.256595" y="281.577057" style="stroke: #000000"/>
     <use xlink:href="#m15e16241a9" x="230.776439" y="262.393775" style="stroke: #000000"/>
     <use xlink:href="#m15e16241a9" x="156.391679" y="248.471492" style="stroke: #000000"/>
     <use xlink:href="#m15e16241a9" x="328.690696" y="254.993442" style="stroke: #000000"/>
     <use xlink:href="#m15e16241a9" x="368.886011" y="282.45608" style="stroke: #000000"/>
     <use xlink:href="#m15e16241a9" x="271.239709" y="261.868447" style="stroke: #000000"/>
     <use xlink:href="#m15e16241a9" x="261.507633" y="274.866751" style="stroke: #000000"/>
     <use xlink:href="#m15e16241a9" x="329.019808" y="277.05265" style="stroke: #000000"/>
     <use xlink:href="#m15e16241a9" x="157.581629" y="262.46606" style="stroke: #000000"/>
     <use xlink:href="#m15e16241a9" x="388.03184" y="287.489622" style="stroke: #000000"/>
     <use xlink:href="#m15e16241a9" x="382.070217" y="267.936009" style="stroke: #000000"/>
     <use xlink:href="#m15e16241a9" x="391.823535" y="285.369978" style="stroke: #000000"/>
     <use xlink:href="#m15e16241a9" x="289.030068" y="275.385087" style="stroke: #000000"/>
     <use xlink:href="#m15e16241a9" x="161.032087" y="258.152236" style="stroke: #000000"/>
     <use xlink:href="#m15e16241a9" x="204.00457" y="271.748423" style="stroke: #000000"/>
     <use xlink:href="#m15e16241a9" x="249.378978" y="255.058406" style="stroke: #000000"/>
     <use xlink:href="#m15e16241a9" x="321.565159" y="279.233656" style="stroke: #000000"/>
     <use xlink:href="#m15e16241a9" x="193.317881" y="266.234808" style="stroke: #000000"/>
     <use xlink:href="#m15e16241a9" x="261.170329" y="269.183594" style="stroke: #000000"/>
     <use xlink:href="#m15e16241a9" x="276.855805" y="284.415435" style="stroke: #000000"/>
     <use xlink:href="#m15e16241a9" x="398.487273" y="248.657917" style="stroke: #000000"/>
     <use xlink:href="#m15e16241a9" x="167.207964" y="269.133428" style="stroke: #000000"/>
     <use xlink:href="#m15e16241a9" x="257.636615" y="253.007091" style="stroke: #000000"/>
     <use xlink:href="#m15e16241a9" x="170.546382" y="266.968646" style="stroke: #000000"/>
     <use xlink:href="#m15e16241a9" x="396.63402" y="271.677226" style="stroke: #000000"/>
     <use xlink:href="#m15e16241a9" x="335.091668" y="258.765679" style="stroke: #000000"/>
     <use xlink:href="#m15e16241a9" x="213.748357" y="280.0828" style="stroke: #000000"/>
     <use xlink:href="#m15e16241a9" x="299.761606" y="256.511826" style="stroke: #000000"/>
     <use xlink:href="#m15e16241a9" x="145.762066" y="235.471209" style="stroke: #000000"/>
     <use xlink:href="#m15e16241a9" x="270.454102" y="248.104918" style="stroke: #000000"/>
     <use xlink:href="#m15e16241a9" x="395.23622" y="274.874457" style="stroke: #000000"/>
     <use xlink:href="#m15e16241a9" x="268.390467" y="272.091145" style="stroke: #000000"/>
     <use xlink:href="#m15e16241a9" x="195.479203" y="284.488919" style="stroke: #000000"/>
     <use xlink:href="#m15e16241a9" x="218.633772" y="277.738026" style="stroke: #000000"/>
     <use xlink:href="#m15e16241a9" x="247.307889" y="266.062327" style="stroke: #000000"/>
     <use xlink:href="#m15e16241a9" x="367.784042" y="249.358031" style="stroke: #000000"/>
     <use xlink:href="#m15e16241a9" x="378.715416" y="261.683994" style="stroke: #000000"/>
     <use xlink:href="#m15e16241a9" x="185.453263" y="286.947382" style="stroke: #000000"/>
     <use xlink:href="#m15e16241a9" x="370.428454" y="251.787868" style="stroke: #000000"/>
     <use xlink:href="#m15e16241a9" x="195.467059" y="264.431821" style="stroke: #000000"/>
     <use xlink:href="#m15e16241a9" x="266.056423" y="273.304408" style="stroke: #000000"/>
     <use xlink:href="#m15e16241a9" x="252.938857" y="278.038995" style="stroke: #000000"/>
     <use xlink:href="#m15e16241a9" x="180.742482" y="263.693315" style="stroke: #000000"/>
     <use xlink:href="#m15e16241a9" x="365.359495" y="266.047635" style="stroke: #000000"/>
     <use xlink:href="#m15e16241a9" x="289.392764" y="263.330525" style="stroke: #000000"/>
     <use xlink:href="#m15e16241a9" x="308.915084" y="263.613883" style="stroke: #000000"/>
     <use xlink:href="#m15e16241a9" x="331.060233" y="282.418597" style="stroke: #000000"/>
     <use xlink:href="#m15e16241a9" x="273.996795" y="251.964403" style="stroke: #000000"/>
     <use xlink:href="#m15e16241a9" x="211.795196" y="276.257176" style="stroke: #000000"/>
     <use xlink:href="#m15e16241a9" x="357.379446" y="265.386175" style="stroke: #000000"/>
     <use xlink:href="#m15e16241a9" x="350.349683" y="270.789146" style="stroke: #000000"/>
     <use xlink:href="#m15e16241a9" x="392.241979" y="246.764384" style="stroke: #000000"/>
     <use xlink:href="#m15e16241a9" x="160.657017" y="269.762822" style="stroke: #000000"/>
     <use xlink:href="#m15e16241a9" x="193.927582" y="260.931574" style="stroke: #000000"/>
     <use xlink:href="#m15e16241a9" x="184.408765" y="254.760133" style="stroke: #000000"/>
     <use xlink:href="#m15e16241a9" x="178.34302" y="268.523767" style="stroke: #000000"/>
     <use xlink:href="#m15e16241a9" x="252.327752" y="257.052842" style="stroke: #000000"/>
     <use xlink:href="#m15e16241a9" x="216.111431" y="280.741777" style="stroke: #000000"/>
     <use xlink:href="#m15e16241a9" x="263.650754" y="271.423852" style="stroke: #000000"/>
     <use xlink:href="#m15e16241a9" x="357.265118" y="271.305223" style="stroke: #000000"/>
     <use xlink:href="#m15e16241a9" x="297.104225" y="248.960702" style="stroke: #000000"/>
     <use xlink:href="#m15e16241a9" x="259.552527" y="278.550202" style="stroke: #000000"/>
     <use xlink:href="#m15e16241a9" x="198.434424" y="266.413932" style="stroke: #000000"/>
     <use xlink:href="#m15e16241a9" x="152.345269" y="273.618966" style="stroke: #000000"/>
     <use xlink:href="#m15e16241a9" x="331.461019" y="279.938562" style="stroke: #000000"/>
     <use xlink:href="#m15e16241a9" x="172.944383" y="262.565442" style="stroke: #000000"/>
     <use xlink:href="#m15e16241a9" x="239.748191" y="259.493538" style="stroke: #000000"/>
     <use xlink:href="#m15e16241a9" x="376.822305" y="277.887229" style="stroke: #000000"/>
     <use xlink:href="#m15e16241a9" x="227.468646" y="271.466832" style="stroke: #000000"/>
     <use xlink:href="#m15e16241a9" x="105.305525" y="245.653592" style="stroke: #000000"/>
     <use xlink:href="#m15e16241a9" x="131.560964" y="265.093482" style="stroke: #000000"/>
     <use xlink:href="#m15e16241a9" x="92.598205" y="271.700189" style="stroke: #000000"/>
     <use xlink:href="#m15e16241a9" x="80.595033" y="271.500228" style="stroke: #000000"/>
     <use xlink:href="#m15e16241a9" x="86.091448" y="275.054637" style="stroke: #000000"/>
     <use xlink:href="#m15e16241a9" x="106.342062" y="256.070838" style="stroke: #000000"/>
     <use xlink:href="#m15e16241a9" x="120.446666" y="288.069122" style="stroke: #000000"/>
     <use xlink:href="#m15e16241a9" x="88.715667" y="276.169784" style="stroke: #000000"/>
     <use xlink:href="#m15e16241a9" x="137.059311" y="269.067751" style="stroke: #000000"/>
     <use xlink:href="#m15e16241a9" x="118.963639" y="266.870136" style="stroke: #000000"/>
     <use xlink:href="#m15e16241a9" x="97.481157" y="258.09691" style="stroke: #000000"/>
     <use xlink:href="#m15e16241a9" x="119.672529" y="274.696595" style="stroke: #000000"/>
     <use xlink:href="#m15e16241a9" x="98.922824" y="275.743945" style="stroke: #000000"/>
     <use xlink:href="#m15e16241a9" x="80.59837" y="258.196657" style="stroke: #000000"/>
     <use xlink:href="#m15e16241a9" x="120.575281" y="262.793782" style="stroke: #000000"/>
     <use xlink:href="#m15e16241a9" x="81.885477" y="274.226172" style="stroke: #000000"/>
     <use xlink:href="#m15e16241a9" x="99.245075" y="272.056377" style="stroke: #000000"/>
     <use xlink:href="#m15e16241a9" x="90.411791" y="274.282369" style="stroke: #000000"/>
     <use xlink:href="#m15e16241a9" x="124.121147" y="264.892179" style="stroke: #000000"/>
     <use xlink:href="#m15e16241a9" x="139.717946" y="254.852801" style="stroke: #000000"/>
     <use xlink:href="#m15e16241a9" x="111.250455" y="263.025212" style="stroke: #000000"/>
     <use xlink:href="#m15e16241a9" x="138.978224" y="256.220564" style="stroke: #000000"/>
     <use xlink:href="#m15e16241a9" x="85.598343" y="268.80899" style="stroke: #000000"/>
     <use xlink:href="#m15e16241a9" x="85.666728" y="278.288197" style="stroke: #000000"/>
     <use xlink:href="#m15e16241a9" x="86.545398" y="249.897027" style="stroke: #000000"/>
     <use xlink:href="#m15e16241a9" x="106.163636" y="262.553092" style="stroke: #000000"/>
     <use xlink:href="#m15e16241a9" x="134.035494" y="248.939035" style="stroke: #000000"/>
     <use xlink:href="#m15e16241a9" x="136.760403" y="265.982438" style="stroke: #000000"/>
     <use xlink:href="#m15e16241a9" x="97.813665" y="255.944877" style="stroke: #000000"/>
     <use xlink:href="#m15e16241a9" x="107.226371" y="277.34864" style="stroke: #000000"/>
     <use xlink:href="#m15e16241a9" x="128.610816" y="277.963801" style="stroke: #000000"/>
     <use xlink:href="#m15e16241a9" x="94.801108" y="268.876599" style="stroke: #000000"/>
     <use xlink:href="#m15e16241a9" x="134.888001" y="262.545257" style="stroke: #000000"/>
     <use xlink:href="#m15e16241a9" x="104.220366" y="269.862637" style="stroke: #000000"/>
     <use xlink:href="#m15e16241a9" x="111.213278" y="273.715727" style="stroke: #000000"/>
     <use xlink:href="#m15e16241a9" x="127.5499" y="277.405735" style="stroke: #000000"/>
     <use xlink:href="#m15e16241a9" x="140.781073" y="268.856034" style="stroke: #000000"/>
     <use xlink:href="#m15e16241a9" x="130.697255" y="285.673355" style="stroke: #000000"/>
     <use xlink:href="#m15e16241a9" x="113.695895" y="281.964535" style="stroke: #000000"/>
     <use xlink:href="#m15e16241a9" x="134.06412" y="269.118338" style="stroke: #000000"/>
     <use xlink:href="#m15e16241a9" x="76.029635" y="274.869948" style="stroke: #000000"/>
     <use xlink:href="#m15e16241a9" x="81.953056" y="248.174498" style="stroke: #000000"/>
     <use xlink:href="#m15e16241a9" x="88.144644" y="279.042674" style="stroke: #000000"/>
     <use xlink:href="#m15e16241a9" x="91.283521" y="271.909601" style="stroke: #000000"/>
     <use xlink:href="#m15e16241a9" x="77.019717" y="275.326563" style="stroke: #000000"/>
     <use xlink:href="#m15e16241a9" x="79.911766" y="272.435602" style="stroke: #000000"/>
     <use xlink:href="#m15e16241a9" x="97.990906" y="281.226483" style="stroke: #000000"/>
     <use xlink:href="#m15e16241a9" x="112.27076" y="262.816949" style="stroke: #000000"/>
     <use xlink:href="#m15e16241a9" x="137.275248" y="277.612624" style="stroke: #000000"/>
     <use xlink:href="#m15e16241a9" x="114.809596" y="278.557604" style="stroke: #000000"/>
     <use xlink:href="#m15e16241a9" x="132.983085" y="264.53537" style="stroke: #000000"/>
     <use xlink:href="#m15e16241a9" x="134.129556" y="257.872547" style="stroke: #000000"/>
     <use xlink:href="#m15e16241a9" x="110.544214" y="268.331737" style="stroke: #000000"/>
     <use xlink:href="#m15e16241a9" x="96.860036" y="268.66392" style="stroke: #000000"/>
     <use xlink:href="#m15e16241a9" x="130.590943" y="259.999479" style="stroke: #000000"/>
     <use xlink:href="#m15e16241a9" x="142.967031" y="267.261341" style="stroke: #000000"/>
     <use xlink:href="#m15e16241a9" x="103.975914" y="260.04834" style="stroke: #000000"/>
     <use xlink:href="#m15e16241a9" x="137.312301" y="267.844385" style="stroke: #000000"/>
     <use xlink:href="#m15e16241a9" x="118.744858" y="267.996439" style="stroke: #000000"/>
     <use xlink:href="#m15e16241a9" x="122.587425" y="285.504243" style="stroke: #000000"/>
     <use xlink:href="#m15e16241a9" x="135.575436" y="268.988209" style="stroke: #000000"/>
     <use xlink:href="#m15e16241a9" x="83.502332" y="278.527288" style="stroke: #000000"/>
     <use xlink:href="#m15e16241a9" x="140.927062" y="257.124264" style="stroke: #000000"/>
     <use xlink:href="#m15e16241a9" x="115.823196" y="273.100234" style="stroke: #000000"/>
     <use xlink:href="#m15e16241a9" x="83.507272" y="273.952004" style="stroke: #000000"/>
     <use xlink:href="#m15e16241a9" x="110.781547" y="274.711595" style="stroke: #000000"/>
     <use xlink:href="#m15e16241a9" x="105.242384" y="264.996084" style="stroke: #000000"/>
     <use xlink:href="#m15e16241a9" x="113.553043" y="265.861406" style="stroke: #000000"/>
     <use xlink:href="#m15e16241a9" x="125.611476" y="272.490239" style="stroke: #000000"/>
     <use xlink:href="#m15e16241a9" x="111.55531" y="279.210714" style="stroke: #000000"/>
     <use xlink:href="#m15e16241a9" x="101.799662" y="270.392265" style="stroke: #000000"/>
     <use xlink:href="#m15e16241a9" x="87.719361" y="265.760668" style="stroke: #000000"/>
     <use xlink:href="#m15e16241a9" x="73.958793" y="265.626472" style="stroke: #000000"/>
     <use xlink:href="#m15e16241a9" x="141.008584" y="286.443819" style="stroke: #000000"/>
     <use xlink:href="#m15e16241a9" x="107.555156" y="260.287319" style="stroke: #000000"/>
     <use xlink:href="#m15e16241a9" x="110.222165" y="264.929499" style="stroke: #000000"/>
     <use xlink:href="#m15e16241a9" x="111.961531" y="266.982352" style="stroke: #000000"/>
     <use xlink:href="#m15e16241a9" x="109.166402" y="269.924534" style="stroke: #000000"/>
     <use xlink:href="#m15e16241a9" x="92.344528" y="269.453463" style="stroke: #000000"/>
     <use xlink:href="#m15e16241a9" x="94.508166" y="282.679825" style="stroke: #000000"/>
     <use xlink:href="#m15e16241a9" x="130.108938" y="278.228933" style="stroke: #000000"/>
     <use xlink:href="#m15e16241a9" x="99.942844" y="265.80968" style="stroke: #000000"/>
     <use xlink:href="#m15e16241a9" x="132.742487" y="263.774533" style="stroke: #000000"/>
     <use xlink:href="#m15e16241a9" x="78.587569" y="267.933316" style="stroke: #000000"/>
     <use xlink:href="#m15e16241a9" x="73.832727" y="282.949804" style="stroke: #000000"/>
     <use xlink:href="#m15e16241a9" x="109.650074" y="274.209113" style="stroke: #000000"/>
     <use xlink:href="#m15e16241a9" x="88.61011" y="251.677088" style="stroke: #000000"/>
     <use xlink:href="#m15e16241a9" x="93.332178" y="255.293416" style="stroke: #000000"/>
     <use xlink:href="#m15e16241a9" x="141.686111" y="267.854184" style="stroke: #000000"/>
     <use xlink:href="#m15e16241a9" x="78.552983" y="273.502804" style="stroke: #000000"/>
     <use xlink:href="#m15e16241a9" x="94.571528" y="273.331456" style="stroke: #000000"/>
     <use xlink:href="#m15e16241a9" x="120.918207" y="276.299656" style="stroke: #000000"/>
     <use xlink:href="#m15e16241a9" x="111.283886" y="275.307051" style="stroke: #000000"/>
     <use xlink:href="#m15e16241a9" x="114.520653" y="259.504964" style="stroke: #000000"/>
     <use xlink:href="#m15e16241a9" x="117.094495" y="285.883121" style="stroke: #000000"/>
     <use xlink:href="#m15e16241a9" x="124.862272" y="251.905158" style="stroke: #000000"/>
     <use xlink:href="#m15e16241a9" x="76.580512" y="270.843398" style="stroke: #000000"/>
     <use xlink:href="#m15e16241a9" x="79.091131" y="271.998625" style="stroke: #000000"/>
     <use xlink:href="#m15e16241a9" x="91.731837" y="257.359001" style="stroke: #000000"/>
    </g>
   </g>
   <g id="PathCollection_2">
    <defs>
     <path id="meac3ff46ad" d="M 0 3 
C 0.795609 3 1.55874 2.683901 2.12132 2.12132 
C 2.683901 1.55874 3 0.795609 3 0 
C 3 -0.795609 2.683901 -1.55874 2.12132 -2.12132 
C 1.55874 -2.683901 0.795609 -3 0 -3 
C -0.795609 -3 -1.55874 -2.683901 -2.12132 -2.12132 
C -2.683901 -1.55874 -3 -0.795609 -3 0 
C -3 0.795609 -2.683901 1.55874 -2.12132 2.12132 
C -1.55874 2.683901 -0.795609 3 0 3 
z
" style="stroke: #000000"/>
    </defs>
    <g clip-path="url(#p6378e42bac)">
     <use xlink:href="#meac3ff46ad" x="75.559245" y="73.417673" style="fill: #ffffff; stroke: #000000"/>
     <use xlink:href="#meac3ff46ad" x="88.607157" y="71.579592" style="fill: #ffffff; stroke: #000000"/>
     <use xlink:href="#meac3ff46ad" x="104.738661" y="53.568" style="fill: #ffffff; stroke: #000000"/>
     <use xlink:href="#meac3ff46ad" x="93.137411" y="70.78196" style="fill: #ffffff; stroke: #000000"/>
     <use xlink:href="#meac3ff46ad" x="90.524834" y="295.488" style="fill: #ffffff; stroke: #000000"/>
    </g>
   </g>
   <g id="matplotlib.axis_1">
    <g id="xtick_1">
     <g id="line2d_1">
      <defs>
       <path id="m678659805f" d="M 0 0 
L 0 3.5 
" style="stroke: #000000; stroke-width: 0.8"/>
      </defs>
      <g>
       <use xlink:href="#m678659805f" x="73.350455" y="307.584" style="stroke: #000000; stroke-width: 0.8"/>
      </g>
     </g>
     <g id="text_1">
      <!-- 0 -->
      <g transform="translate(70.169205 322.182437) scale(0.1 -0.1)">
       <defs>
        <path id="DejaVuSans-30" d="M 2034 4250 
Q 1547 4250 1301 3770 
Q 1056 3291 1056 2328 
Q 1056 1369 1301 889 
Q 1547 409 2034 409 
Q 2525 409 2770 889 
Q 3016 1369 3016 2328 
Q 3016 3291 2770 3770 
Q 2525 4250 2034 4250 
z
M 2034 4750 
Q 2819 4750 3233 4129 
Q 3647 3509 3647 2328 
Q 3647 1150 3233 529 
Q 2819 -91 2034 -91 
Q 1250 -91 836 529 
Q 422 1150 422 2328 
Q 422 3509 836 4129 
Q 1250 4750 2034 4750 
z
" transform="scale(0.015625)"/>
       </defs>
       <use xlink:href="#DejaVuSans-30"/>
      </g>
     </g>
    </g>
    <g id="xtick_2">
     <g id="line2d_2">
      <g>
       <use xlink:href="#m678659805f" x="119.827445" y="307.584" style="stroke: #000000; stroke-width: 0.8"/>
      </g>
     </g>
     <g id="text_2">
      <!-- 20 -->
      <g transform="translate(113.464945 322.182437) scale(0.1 -0.1)">
       <defs>
        <path id="DejaVuSans-32" d="M 1228 531 
L 3431 531 
L 3431 0 
L 469 0 
L 469 531 
Q 828 903 1448 1529 
Q 2069 2156 2228 2338 
Q 2531 2678 2651 2914 
Q 2772 3150 2772 3378 
Q 2772 3750 2511 3984 
Q 2250 4219 1831 4219 
Q 1534 4219 1204 4116 
Q 875 4013 500 3803 
L 500 4441 
Q 881 4594 1212 4672 
Q 1544 4750 1819 4750 
Q 2544 4750 2975 4387 
Q 3406 4025 3406 3419 
Q 3406 3131 3298 2873 
Q 3191 2616 2906 2266 
Q 2828 2175 2409 1742 
Q 1991 1309 1228 531 
z
" transform="scale(0.015625)"/>
       </defs>
       <use xlink:href="#DejaVuSans-32"/>
       <use xlink:href="#DejaVuSans-30" x="63.623047"/>
      </g>
     </g>
    </g>
    <g id="xtick_3">
     <g id="line2d_3">
      <g>
       <use xlink:href="#m678659805f" x="166.304435" y="307.584" style="stroke: #000000; stroke-width: 0.8"/>
      </g>
     </g>
     <g id="text_3">
      <!-- 40 -->
      <g transform="translate(159.941935 322.182437) scale(0.1 -0.1)">
       <defs>
        <path id="DejaVuSans-34" d="M 2419 4116 
L 825 1625 
L 2419 1625 
L 2419 4116 
z
M 2253 4666 
L 3047 4666 
L 3047 1625 
L 3713 1625 
L 3713 1100 
L 3047 1100 
L 3047 0 
L 2419 0 
L 2419 1100 
L 313 1100 
L 313 1709 
L 2253 4666 
z
" transform="scale(0.015625)"/>
       </defs>
       <use xlink:href="#DejaVuSans-34"/>
       <use xlink:href="#DejaVuSans-30" x="63.623047"/>
      </g>
     </g>
    </g>
    <g id="xtick_4">
     <g id="line2d_4">
      <g>
       <use xlink:href="#m678659805f" x="212.781425" y="307.584" style="stroke: #000000; stroke-width: 0.8"/>
      </g>
     </g>
     <g id="text_4">
      <!-- 60 -->
      <g transform="translate(206.418925 322.182437) scale(0.1 -0.1)">
       <defs>
        <path id="DejaVuSans-36" d="M 2113 2584 
Q 1688 2584 1439 2293 
Q 1191 2003 1191 1497 
Q 1191 994 1439 701 
Q 1688 409 2113 409 
Q 2538 409 2786 701 
Q 3034 994 3034 1497 
Q 3034 2003 2786 2293 
Q 2538 2584 2113 2584 
z
M 3366 4563 
L 3366 3988 
Q 3128 4100 2886 4159 
Q 2644 4219 2406 4219 
Q 1781 4219 1451 3797 
Q 1122 3375 1075 2522 
Q 1259 2794 1537 2939 
Q 1816 3084 2150 3084 
Q 2853 3084 3261 2657 
Q 3669 2231 3669 1497 
Q 3669 778 3244 343 
Q 2819 -91 2113 -91 
Q 1303 -91 875 529 
Q 447 1150 447 2328 
Q 447 3434 972 4092 
Q 1497 4750 2381 4750 
Q 2619 4750 2861 4703 
Q 3103 4656 3366 4563 
z
" transform="scale(0.015625)"/>
       </defs>
       <use xlink:href="#DejaVuSans-36"/>
       <use xlink:href="#DejaVuSans-30" x="63.623047"/>
      </g>
     </g>
    </g>
    <g id="xtick_5">
     <g id="line2d_5">
      <g>
       <use xlink:href="#m678659805f" x="259.258414" y="307.584" style="stroke: #000000; stroke-width: 0.8"/>
      </g>
     </g>
     <g id="text_5">
      <!-- 80 -->
      <g transform="translate(252.895914 322.182437) scale(0.1 -0.1)">
       <defs>
        <path id="DejaVuSans-38" d="M 2034 2216 
Q 1584 2216 1326 1975 
Q 1069 1734 1069 1313 
Q 1069 891 1326 650 
Q 1584 409 2034 409 
Q 2484 409 2743 651 
Q 3003 894 3003 1313 
Q 3003 1734 2745 1975 
Q 2488 2216 2034 2216 
z
M 1403 2484 
Q 997 2584 770 2862 
Q 544 3141 544 3541 
Q 544 4100 942 4425 
Q 1341 4750 2034 4750 
Q 2731 4750 3128 4425 
Q 3525 4100 3525 3541 
Q 3525 3141 3298 2862 
Q 3072 2584 2669 2484 
Q 3125 2378 3379 2068 
Q 3634 1759 3634 1313 
Q 3634 634 3220 271 
Q 2806 -91 2034 -91 
Q 1263 -91 848 271 
Q 434 634 434 1313 
Q 434 1759 690 2068 
Q 947 2378 1403 2484 
z
M 1172 3481 
Q 1172 3119 1398 2916 
Q 1625 2713 2034 2713 
Q 2441 2713 2670 2916 
Q 2900 3119 2900 3481 
Q 2900 3844 2670 4047 
Q 2441 4250 2034 4250 
Q 1625 4250 1398 4047 
Q 1172 3844 1172 3481 
z
" transform="scale(0.015625)"/>
       </defs>
       <use xlink:href="#DejaVuSans-38"/>
       <use xlink:href="#DejaVuSans-30" x="63.623047"/>
      </g>
     </g>
    </g>
    <g id="xtick_6">
     <g id="line2d_6">
      <g>
       <use xlink:href="#m678659805f" x="305.735404" y="307.584" style="stroke: #000000; stroke-width: 0.8"/>
      </g>
     </g>
     <g id="text_6">
      <!-- 100 -->
      <g transform="translate(296.191654 322.182437) scale(0.1 -0.1)">
       <defs>
        <path id="DejaVuSans-31" d="M 794 531 
L 1825 531 
L 1825 4091 
L 703 3866 
L 703 4441 
L 1819 4666 
L 2450 4666 
L 2450 531 
L 3481 531 
L 3481 0 
L 794 0 
L 794 531 
z
" transform="scale(0.015625)"/>
       </defs>
       <use xlink:href="#DejaVuSans-31"/>
       <use xlink:href="#DejaVuSans-30" x="63.623047"/>
       <use xlink:href="#DejaVuSans-30" x="127.246094"/>
      </g>
     </g>
    </g>
    <g id="xtick_7">
     <g id="line2d_7">
      <g>
       <use xlink:href="#m678659805f" x="352.212394" y="307.584" style="stroke: #000000; stroke-width: 0.8"/>
      </g>
     </g>
     <g id="text_7">
      <!-- 120 -->
      <g transform="translate(342.668644 322.182437) scale(0.1 -0.1)">
       <use xlink:href="#DejaVuSans-31"/>
       <use xlink:href="#DejaVuSans-32" x="63.623047"/>
       <use xlink:href="#DejaVuSans-30" x="127.246094"/>
      </g>
     </g>
    </g>
    <g id="xtick_8">
     <g id="line2d_8">
      <g>
       <use xlink:href="#m678659805f" x="398.689384" y="307.584" style="stroke: #000000; stroke-width: 0.8"/>
      </g>
     </g>
     <g id="text_8">
      <!-- 140 -->
      <g transform="translate(389.145634 322.182437) scale(0.1 -0.1)">
       <use xlink:href="#DejaVuSans-31"/>
       <use xlink:href="#DejaVuSans-34" x="63.623047"/>
       <use xlink:href="#DejaVuSans-30" x="127.246094"/>
      </g>
     </g>
    </g>
    <g id="text_9">
     <!-- Time -->
     <g transform="translate(390.252813 335.860562) scale(0.1 -0.1)">
      <defs>
       <path id="DejaVuSans-54" d="M -19 4666 
L 3928 4666 
L 3928 4134 
L 2272 4134 
L 2272 0 
L 1638 0 
L 1638 4134 
L -19 4134 
L -19 4666 
z
" transform="scale(0.015625)"/>
       <path id="DejaVuSans-69" d="M 603 3500 
L 1178 3500 
L 1178 0 
L 603 0 
L 603 3500 
z
M 603 4863 
L 1178 4863 
L 1178 4134 
L 603 4134 
L 603 4863 
z
" transform="scale(0.015625)"/>
       <path id="DejaVuSans-6d" d="M 3328 2828 
Q 3544 3216 3844 3400 
Q 4144 3584 4550 3584 
Q 5097 3584 5394 3201 
Q 5691 2819 5691 2113 
L 5691 0 
L 5113 0 
L 5113 2094 
Q 5113 2597 4934 2840 
Q 4756 3084 4391 3084 
Q 3944 3084 3684 2787 
Q 3425 2491 3425 1978 
L 3425 0 
L 2847 0 
L 2847 2094 
Q 2847 2600 2669 2842 
Q 2491 3084 2119 3084 
Q 1678 3084 1418 2786 
Q 1159 2488 1159 1978 
L 1159 0 
L 581 0 
L 581 3500 
L 1159 3500 
L 1159 2956 
Q 1356 3278 1631 3431 
Q 1906 3584 2284 3584 
Q 2666 3584 2933 3390 
Q 3200 3197 3328 2828 
z
" transform="scale(0.015625)"/>
       <path id="DejaVuSans-65" d="M 3597 1894 
L 3597 1613 
L 953 1613 
Q 991 1019 1311 708 
Q 1631 397 2203 397 
Q 2534 397 2845 478 
Q 3156 559 3463 722 
L 3463 178 
Q 3153 47 2828 -22 
Q 2503 -91 2169 -91 
Q 1331 -91 842 396 
Q 353 884 353 1716 
Q 353 2575 817 3079 
Q 1281 3584 2069 3584 
Q 2775 3584 3186 3129 
Q 3597 2675 3597 1894 
z
M 3022 2063 
Q 3016 2534 2758 2815 
Q 2500 3097 2075 3097 
Q 1594 3097 1305 2825 
Q 1016 2553 972 2059 
L 3022 2063 
z
" transform="scale(0.015625)"/>
      </defs>
      <use xlink:href="#DejaVuSans-54"/>
      <use xlink:href="#DejaVuSans-69" x="57.958984"/>
      <use xlink:href="#DejaVuSans-6d" x="85.742188"/>
      <use xlink:href="#DejaVuSans-65" x="183.154297"/>
     </g>
    </g>
   </g>
   <g id="matplotlib.axis_2">
    <g id="ytick_1">
     <g id="line2d_9">
      <defs>
       <path id="mff0eae0095" d="M 0 0 
L -3.5 0 
" style="stroke: #000000; stroke-width: 0.8"/>
      </defs>
      <g>
       <use xlink:href="#mff0eae0095" x="57.6" y="305.439424" style="stroke: #000000; stroke-width: 0.8"/>
      </g>
     </g>
     <g id="text_10">
      <!-- 80 -->
      <g transform="translate(37.875 309.238643) scale(0.1 -0.1)">
       <use xlink:href="#DejaVuSans-38"/>
       <use xlink:href="#DejaVuSans-30" x="63.623047"/>
      </g>
     </g>
    </g>
    <g id="ytick_2">
     <g id="line2d_10">
      <g>
       <use xlink:href="#mff0eae0095" x="57.6" y="266.316911" style="stroke: #000000; stroke-width: 0.8"/>
      </g>
     </g>
     <g id="text_11">
      <!-- 100 -->
      <g transform="translate(31.5125 270.11613) scale(0.1 -0.1)">
       <use xlink:href="#DejaVuSans-31"/>
       <use xlink:href="#DejaVuSans-30" x="63.623047"/>
       <use xlink:href="#DejaVuSans-30" x="127.246094"/>
      </g>
     </g>
    </g>
    <g id="ytick_3">
     <g id="line2d_11">
      <g>
       <use xlink:href="#mff0eae0095" x="57.6" y="227.194398" style="stroke: #000000; stroke-width: 0.8"/>
      </g>
     </g>
     <g id="text_12">
      <!-- 120 -->
      <g transform="translate(31.5125 230.993617) scale(0.1 -0.1)">
       <use xlink:href="#DejaVuSans-31"/>
       <use xlink:href="#DejaVuSans-32" x="63.623047"/>
       <use xlink:href="#DejaVuSans-30" x="127.246094"/>
      </g>
     </g>
    </g>
    <g id="ytick_4">
     <g id="line2d_12">
      <g>
       <use xlink:href="#mff0eae0095" x="57.6" y="188.071885" style="stroke: #000000; stroke-width: 0.8"/>
      </g>
     </g>
     <g id="text_13">
      <!-- 140 -->
      <g transform="translate(31.5125 191.871104) scale(0.1 -0.1)">
       <use xlink:href="#DejaVuSans-31"/>
       <use xlink:href="#DejaVuSans-34" x="63.623047"/>
       <use xlink:href="#DejaVuSans-30" x="127.246094"/>
      </g>
     </g>
    </g>
    <g id="ytick_5">
     <g id="line2d_13">
      <g>
       <use xlink:href="#mff0eae0095" x="57.6" y="148.949372" style="stroke: #000000; stroke-width: 0.8"/>
      </g>
     </g>
     <g id="text_14">
      <!-- 160 -->
      <g transform="translate(31.5125 152.748591) scale(0.1 -0.1)">
       <use xlink:href="#DejaVuSans-31"/>
       <use xlink:href="#DejaVuSans-36" x="63.623047"/>
       <use xlink:href="#DejaVuSans-30" x="127.246094"/>
      </g>
     </g>
    </g>
    <g id="ytick_6">
     <g id="line2d_14">
      <g>
       <use xlink:href="#mff0eae0095" x="57.6" y="109.826859" style="stroke: #000000; stroke-width: 0.8"/>
      </g>
     </g>
     <g id="text_15">
      <!-- 180 -->
      <g transform="translate(31.5125 113.626078) scale(0.1 -0.1)">
       <use xlink:href="#DejaVuSans-31"/>
       <use xlink:href="#DejaVuSans-38" x="63.623047"/>
       <use xlink:href="#DejaVuSans-30" x="127.246094"/>
      </g>
     </g>
    </g>
    <g id="ytick_7">
     <g id="line2d_15">
      <g>
       <use xlink:href="#mff0eae0095" x="57.6" y="70.704346" style="stroke: #000000; stroke-width: 0.8"/>
      </g>
     </g>
     <g id="text_16">
      <!-- 200 -->
      <g transform="translate(31.5125 74.503565) scale(0.1 -0.1)">
       <use xlink:href="#DejaVuSans-32"/>
       <use xlink:href="#DejaVuSans-30" x="63.623047"/>
       <use xlink:href="#DejaVuSans-30" x="127.246094"/>
      </g>
     </g>
    </g>
    <g id="text_17">
     <!-- Observed value -->
     <g transform="translate(25.432812 120.079813) rotate(-90) scale(0.1 -0.1)">
      <defs>
       <path id="DejaVuSans-4f" d="M 2522 4238 
Q 1834 4238 1429 3725 
Q 1025 3213 1025 2328 
Q 1025 1447 1429 934 
Q 1834 422 2522 422 
Q 3209 422 3611 934 
Q 4013 1447 4013 2328 
Q 4013 3213 3611 3725 
Q 3209 4238 2522 4238 
z
M 2522 4750 
Q 3503 4750 4090 4092 
Q 4678 3434 4678 2328 
Q 4678 1225 4090 567 
Q 3503 -91 2522 -91 
Q 1538 -91 948 565 
Q 359 1222 359 2328 
Q 359 3434 948 4092 
Q 1538 4750 2522 4750 
z
" transform="scale(0.015625)"/>
       <path id="DejaVuSans-62" d="M 3116 1747 
Q 3116 2381 2855 2742 
Q 2594 3103 2138 3103 
Q 1681 3103 1420 2742 
Q 1159 2381 1159 1747 
Q 1159 1113 1420 752 
Q 1681 391 2138 391 
Q 2594 391 2855 752 
Q 3116 1113 3116 1747 
z
M 1159 2969 
Q 1341 3281 1617 3432 
Q 1894 3584 2278 3584 
Q 2916 3584 3314 3078 
Q 3713 2572 3713 1747 
Q 3713 922 3314 415 
Q 2916 -91 2278 -91 
Q 1894 -91 1617 61 
Q 1341 213 1159 525 
L 1159 0 
L 581 0 
L 581 4863 
L 1159 4863 
L 1159 2969 
z
" transform="scale(0.015625)"/>
       <path id="DejaVuSans-73" d="M 2834 3397 
L 2834 2853 
Q 2591 2978 2328 3040 
Q 2066 3103 1784 3103 
Q 1356 3103 1142 2972 
Q 928 2841 928 2578 
Q 928 2378 1081 2264 
Q 1234 2150 1697 2047 
L 1894 2003 
Q 2506 1872 2764 1633 
Q 3022 1394 3022 966 
Q 3022 478 2636 193 
Q 2250 -91 1575 -91 
Q 1294 -91 989 -36 
Q 684 19 347 128 
L 347 722 
Q 666 556 975 473 
Q 1284 391 1588 391 
Q 1994 391 2212 530 
Q 2431 669 2431 922 
Q 2431 1156 2273 1281 
Q 2116 1406 1581 1522 
L 1381 1569 
Q 847 1681 609 1914 
Q 372 2147 372 2553 
Q 372 3047 722 3315 
Q 1072 3584 1716 3584 
Q 2034 3584 2315 3537 
Q 2597 3491 2834 3397 
z
" transform="scale(0.015625)"/>
       <path id="DejaVuSans-72" d="M 2631 2963 
Q 2534 3019 2420 3045 
Q 2306 3072 2169 3072 
Q 1681 3072 1420 2755 
Q 1159 2438 1159 1844 
L 1159 0 
L 581 0 
L 581 3500 
L 1159 3500 
L 1159 2956 
Q 1341 3275 1631 3429 
Q 1922 3584 2338 3584 
Q 2397 3584 2469 3576 
Q 2541 3569 2628 3553 
L 2631 2963 
z
" transform="scale(0.015625)"/>
       <path id="DejaVuSans-76" d="M 191 3500 
L 800 3500 
L 1894 563 
L 2988 3500 
L 3597 3500 
L 2284 0 
L 1503 0 
L 191 3500 
z
" transform="scale(0.015625)"/>
       <path id="DejaVuSans-64" d="M 2906 2969 
L 2906 4863 
L 3481 4863 
L 3481 0 
L 2906 0 
L 2906 525 
Q 2725 213 2448 61 
Q 2172 -91 1784 -91 
Q 1150 -91 751 415 
Q 353 922 353 1747 
Q 353 2572 751 3078 
Q 1150 3584 1784 3584 
Q 2172 3584 2448 3432 
Q 2725 3281 2906 2969 
z
M 947 1747 
Q 947 1113 1208 752 
Q 1469 391 1925 391 
Q 2381 391 2643 752 
Q 2906 1113 2906 1747 
Q 2906 2381 2643 2742 
Q 2381 3103 1925 3103 
Q 1469 3103 1208 2742 
Q 947 2381 947 1747 
z
" transform="scale(0.015625)"/>
       <path id="DejaVuSans-20" transform="scale(0.015625)"/>
       <path id="DejaVuSans-61" d="M 2194 1759 
Q 1497 1759 1228 1600 
Q 959 1441 959 1056 
Q 959 750 1161 570 
Q 1363 391 1709 391 
Q 2188 391 2477 730 
Q 2766 1069 2766 1631 
L 2766 1759 
L 2194 1759 
z
M 3341 1997 
L 3341 0 
L 2766 0 
L 2766 531 
Q 2569 213 2275 61 
Q 1981 -91 1556 -91 
Q 1019 -91 701 211 
Q 384 513 384 1019 
Q 384 1609 779 1909 
Q 1175 2209 1959 2209 
L 2766 2209 
L 2766 2266 
Q 2766 2663 2505 2880 
Q 2244 3097 1772 3097 
Q 1472 3097 1187 3025 
Q 903 2953 641 2809 
L 641 3341 
Q 956 3463 1253 3523 
Q 1550 3584 1831 3584 
Q 2591 3584 2966 3190 
Q 3341 2797 3341 1997 
z
" transform="scale(0.015625)"/>
       <path id="DejaVuSans-6c" d="M 603 4863 
L 1178 4863 
L 1178 0 
L 603 0 
L 603 4863 
z
" transform="scale(0.015625)"/>
       <path id="DejaVuSans-75" d="M 544 1381 
L 544 3500 
L 1119 3500 
L 1119 1403 
Q 1119 906 1312 657 
Q 1506 409 1894 409 
Q 2359 409 2629 706 
Q 2900 1003 2900 1516 
L 2900 3500 
L 3475 3500 
L 3475 0 
L 2900 0 
L 2900 538 
Q 2691 219 2414 64 
Q 2138 -91 1772 -91 
Q 1169 -91 856 284 
Q 544 659 544 1381 
z
M 1991 3584 
L 1991 3584 
z
" transform="scale(0.015625)"/>
      </defs>
      <use xlink:href="#DejaVuSans-4f"/>
      <use xlink:href="#DejaVuSans-62" x="78.710938"/>
      <use xlink:href="#DejaVuSans-73" x="142.1875"/>
      <use xlink:href="#DejaVuSans-65" x="194.287109"/>
      <use xlink:href="#DejaVuSans-72" x="255.810547"/>
      <use xlink:href="#DejaVuSans-76" x="296.923828"/>
      <use xlink:href="#DejaVuSans-65" x="356.103516"/>
      <use xlink:href="#DejaVuSans-64" x="417.626953"/>
      <use xlink:href="#DejaVuSans-20" x="481.103516"/>
      <use xlink:href="#DejaVuSans-76" x="512.890625"/>
      <use xlink:href="#DejaVuSans-61" x="572.070312"/>
      <use xlink:href="#DejaVuSans-6c" x="633.349609"/>
      <use xlink:href="#DejaVuSans-75" x="661.132812"/>
      <use xlink:href="#DejaVuSans-65" x="724.511719"/>
     </g>
    </g>
   </g>
   <g id="patch_3">
    <path d="M 57.6 307.584 
L 57.6 41.472 
" style="fill: none; stroke: #000000; stroke-width: 0.8; stroke-linejoin: miter; stroke-linecap: square"/>
   </g>
   <g id="patch_4">
    <path d="M 414.72 307.584 
L 414.72 41.472 
" style="fill: none; stroke: #000000; stroke-width: 0.8; stroke-linejoin: miter; stroke-linecap: square"/>
   </g>
   <g id="patch_5">
    <path d="M 57.6 307.584 
L 414.72 307.584 
" style="fill: none; stroke: #000000; stroke-width: 0.8; stroke-linejoin: miter; stroke-linecap: square"/>
   </g>
   <g id="patch_6">
    <path d="M 57.6 41.472 
L 414.72 41.472 
" style="fill: none; stroke: #000000; stroke-width: 0.8; stroke-linejoin: miter; stroke-linecap: square"/>
   </g>
   <g id="legend_1">
    <g id="patch_7">
     <path d="M 337.365313 78.82825 
L 407.72 78.82825 
Q 409.72 78.82825 409.72 76.82825 
L 409.72 48.472 
Q 409.72 46.472 407.72 46.472 
L 337.365313 46.472 
Q 335.365313 46.472 335.365313 48.472 
L 335.365313 76.82825 
Q 335.365313 78.82825 337.365313 78.82825 
z
" style="fill: #ffffff; opacity: 0.8; stroke: #cccccc; stroke-linejoin: miter"/>
    </g>
    <g id="PathCollection_3">
     <g>
      <use xlink:href="#m15e16241a9" x="349.365313" y="55.445437" style="stroke: #000000"/>
     </g>
    </g>
    <g id="text_18">
     <!-- Regular -->
     <g transform="translate(367.365313 58.070437) scale(0.1 -0.1)">
      <defs>
       <path id="DejaVuSans-52" d="M 2841 2188 
Q 3044 2119 3236 1894 
Q 3428 1669 3622 1275 
L 4263 0 
L 3584 0 
L 2988 1197 
Q 2756 1666 2539 1819 
Q 2322 1972 1947 1972 
L 1259 1972 
L 1259 0 
L 628 0 
L 628 4666 
L 2053 4666 
Q 2853 4666 3247 4331 
Q 3641 3997 3641 3322 
Q 3641 2881 3436 2590 
Q 3231 2300 2841 2188 
z
M 1259 4147 
L 1259 2491 
L 2053 2491 
Q 2509 2491 2742 2702 
Q 2975 2913 2975 3322 
Q 2975 3731 2742 3939 
Q 2509 4147 2053 4147 
L 1259 4147 
z
" transform="scale(0.015625)"/>
       <path id="DejaVuSans-67" d="M 2906 1791 
Q 2906 2416 2648 2759 
Q 2391 3103 1925 3103 
Q 1463 3103 1205 2759 
Q 947 2416 947 1791 
Q 947 1169 1205 825 
Q 1463 481 1925 481 
Q 2391 481 2648 825 
Q 2906 1169 2906 1791 
z
M 3481 434 
Q 3481 -459 3084 -895 
Q 2688 -1331 1869 -1331 
Q 1566 -1331 1297 -1286 
Q 1028 -1241 775 -1147 
L 775 -588 
Q 1028 -725 1275 -790 
Q 1522 -856 1778 -856 
Q 2344 -856 2625 -561 
Q 2906 -266 2906 331 
L 2906 616 
Q 2728 306 2450 153 
Q 2172 0 1784 0 
Q 1141 0 747 490 
Q 353 981 353 1791 
Q 353 2603 747 3093 
Q 1141 3584 1784 3584 
Q 2172 3584 2450 3431 
Q 2728 3278 2906 2969 
L 2906 3500 
L 3481 3500 
L 3481 434 
z
" transform="scale(0.015625)"/>
      </defs>
      <use xlink:href="#DejaVuSans-52"/>
      <use xlink:href="#DejaVuSans-65" x="64.982422"/>
      <use xlink:href="#DejaVuSans-67" x="126.505859"/>
      <use xlink:href="#DejaVuSans-75" x="189.982422"/>
      <use xlink:href="#DejaVuSans-6c" x="253.361328"/>
      <use xlink:href="#DejaVuSans-61" x="281.144531"/>
      <use xlink:href="#DejaVuSans-72" x="342.423828"/>
     </g>
    </g>
    <g id="PathCollection_4">
     <g>
      <use xlink:href="#meac3ff46ad" x="349.365313" y="70.123562" style="fill: #ffffff; stroke: #000000"/>
     </g>
    </g>
    <g id="text_19">
     <!-- Outlier -->
     <g transform="translate(367.365313 72.748562) scale(0.1 -0.1)">
      <defs>
       <path id="DejaVuSans-74" d="M 1172 4494 
L 1172 3500 
L 2356 3500 
L 2356 3053 
L 1172 3053 
L 1172 1153 
Q 1172 725 1289 603 
Q 1406 481 1766 481 
L 2356 481 
L 2356 0 
L 1766 0 
Q 1100 0 847 248 
Q 594 497 594 1153 
L 594 3053 
L 172 3053 
L 172 3500 
L 594 3500 
L 594 4494 
L 1172 4494 
z
" transform="scale(0.015625)"/>
      </defs>
      <use xlink:href="#DejaVuSans-4f"/>
      <use xlink:href="#DejaVuSans-75" x="78.710938"/>
      <use xlink:href="#DejaVuSans-74" x="142.089844"/>
      <use xlink:href="#DejaVuSans-6c" x="181.298828"/>
      <use xlink:href="#DejaVuSans-69" x="209.082031"/>
      <use xlink:href="#DejaVuSans-65" x="236.865234"/>
      <use xlink:href="#DejaVuSans-72" x="298.388672"/>
     </g>
    </g>
   </g>
  </g>
 </g>
 <defs>
  <clipPath id="p6378e42bac">
   <rect x="57.6" y="41.472" width="357.12" height="266.112"/>
  </clipPath>
 </defs>
</svg>
