<?xml version="1.0" encoding="utf-8" standalone="no"?>
<!DOCTYPE svg PUBLIC "-//W3C//DTD SVG 1.1//EN"
  "http://www.w3.org/Graphics/SVG/1.1/DTD/svg11.dtd">
<svg xmlns:xlink="http://www.w3.org/1999/xlink" width="460.8pt" height="345.6pt" viewBox="0 0 460.8 345.6" xmlns="http://www.w3.org/2000/svg" version="1.1">
 <metadata>
  <rdf:RDF xmlns:dc="http://purl.org/dc/elements/1.1/" xmlns:cc="http://creativecommons.org/ns#" xmlns:rdf="http://www.w3.org/1999/02/22-rdf-syntax-ns#">
   <cc:Work>
    <dc:type rdf:resource="http://purl.org/dc/dcmitype/StillImage"/>
    <dc:date>2023-09-07T12:06:24.204220</dc:date>
    <dc:format>image/svg+xml</dc:format>
    <dc:creator>
     <cc:Agent>
      <dc:title>Matplotlib v3.7.1, https://matplotlib.org/</dc:title>
     </cc:Agent>
    </dc:creator>
   </cc:Work>
  </rdf:RDF>
 </metadata>
 <defs>
  <style type="text/css">*{stroke-linejoin: round; stroke-linecap: butt}</style>
 </defs>
 <g id="figure_1">
  <g id="patch_1">
   <path d="M 0 345.6 
L 460.8 345.6 
L 460.8 0 
L 0 0 
z
" style="fill: #ffffff"/>
  </g>
  <g id="axes_1">
   <g id="patch_2">
    <path d="M 57.6 307.584 
L 414.72 307.584 
L 414.72 41.472 
L 57.6 41.472 
z
" style="fill: #ffffff"/>
   </g>
   <g id="PathCollection_1">
    <defs>
     <path id="mff5728a52a" d="M 0 3 
C 0.795609 3 1.55874 2.683901 2.12132 2.12132 
C 2.683901 1.55874 3 0.795609 3 0 
C 3 -0.795609 2.683901 -1.55874 2.12132 -2.12132 
C 1.55874 -2.683901 0.795609 -3 0 -3 
C -0.795609 -3 -1.55874 -2.683901 -2.12132 -2.12132 
C -2.683901 -1.55874 -3 -0.795609 -3 0 
C -3 0.795609 -2.683901 1.55874 -2.12132 2.12132 
C -1.55874 2.683901 -0.795609 3 0 3 
z
" style="stroke: #000000"/>
    </defs>
    <g clip-path="url(#ped1fa6d65c)">
     <use xlink:href="#mff5728a52a" x="352.915263" y="271.016771" style="stroke: #000000"/>
     <use xlink:href="#mff5728a52a" x="324.934017" y="265.213558" style="stroke: #000000"/>
     <use xlink:href="#mff5728a52a" x="396.654222" y="256.258257" style="stroke: #000000"/>
     <use xlink:href="#mff5728a52a" x="359.544657" y="257.306828" style="stroke: #000000"/>
     <use xlink:href="#mff5728a52a" x="288.75605" y="275.583622" style="stroke: #000000"/>
     <use xlink:href="#mff5728a52a" x="263.684613" y="271.747544" style="stroke: #000000"/>
     <use xlink:href="#mff5728a52a" x="368.33576" y="285.339535" style="stroke: #000000"/>
     <use xlink:href="#mff5728a52a" x="230.15755" y="272.367676" style="stroke: #000000"/>
     <use xlink:href="#mff5728a52a" x="313.208038" y="278.682099" style="stroke: #000000"/>
     <use xlink:href="#mff5728a52a" x="368.644243" y="249.98667" style="stroke: #000000"/>
     <use xlink:href="#mff5728a52a" x="218.307473" y="252.804928" style="stroke: #000000"/>
     <use xlink:href="#mff5728a52a" x="381.546899" y="257.043664" style="stroke: #000000"/>
     <use xlink:href="#mff5728a52a" x="380.687431" y="264.343009" style="stroke: #000000"/>
     <use xlink:href="#mff5728a52a" x="264.740444" y="255.700319" style="stroke: #000000"/>
     <use xlink:href="#mff5728a52a" x="378.283778" y="268.308705" style="stroke: #000000"/>
     <use xlink:href="#mff5728a52a" x="233.987774" y="259.063798" style="stroke: #000000"/>
     <use xlink:href="#mff5728a52a" x="242.526241" y="249.643906" style="stroke: #000000"/>
     <use xlink:href="#mff5728a52a" x="292.930376" y="270.927892" style="stroke: #000000"/>
     <use xlink:href="#mff5728a52a" x="398.487273" y="286.940783" style="stroke: #000000"/>
     <use xlink:href="#mff5728a52a" x="357.941548" y="267.266656" style="stroke: #000000"/>
     <use xlink:href="#mff5728a52a" x="201.689977" y="262.490543" style="stroke: #000000"/>
     <use xlink:href="#mff5728a52a" x="384.295478" y="266.039038" style="stroke: #000000"/>
     <use xlink:href="#mff5728a52a" x="275.731411" y="276.154116" style="stroke: #000000"/>
     <use xlink:href="#mff5728a52a" x="223.103807" y="259.903828" style="stroke: #000000"/>
     <use xlink:href="#mff5728a52a" x="344.348775" y="260.764938" style="stroke: #000000"/>
     <use xlink:href="#mff5728a52a" x="199.79463" y="258.819395" style="stroke: #000000"/>
     <use xlink:href="#mff5728a52a" x="299.04986" y="259.593019" style="stroke: #000000"/>
     <use xlink:href="#mff5728a52a" x="194.614652" y="272.383296" style="stroke: #000000"/>
     <use xlink:href="#mff5728a52a" x="221.329311" y="256.190122" style="stroke: #000000"/>
     <use xlink:href="#mff5728a52a" x="396.852464" y="267.654816" style="stroke: #000000"/>
     <use xlink:href="#mff5728a52a" x="331.80012" y="276.818399" style="stroke: #000000"/>
     <use xlink:href="#mff5728a52a" x="258.068509" y="253.811114" style="stroke: #000000"/>
     <use xlink:href="#mff5728a52a" x="201.6807" y="276.797459" style="stroke: #000000"/>
     <use xlink:href="#mff5728a52a" x="231.974641" y="269.341352" style="stroke: #000000"/>
     <use xlink:href="#mff5728a52a" x="342.890267" y="266.20048" style="stroke: #000000"/>
     <use xlink:href="#mff5728a52a" x="391.464452" y="258.268229" style="stroke: #000000"/>
     <use xlink:href="#mff5728a52a" x="262.78862" y="260.37724" style="stroke: #000000"/>
     <use xlink:href="#mff5728a52a" x="242.024773" y="250.119532" style="stroke: #000000"/>
     <use xlink:href="#mff5728a52a" x="352.902599" y="294.74092" style="stroke: #000000"/>
     <use xlink:href="#mff5728a52a" x="197.925286" y="277.189848" style="stroke: #000000"/>
     <use xlink:href="#mff5728a52a" x="369.999953" y="266.422124" style="stroke: #000000"/>
     <use xlink:href="#mff5728a52a" x="218.824698" y="282.269556" style="stroke: #000000"/>
     <use xlink:href="#mff5728a52a" x="317.814589" y="267.560204" style="stroke: #000000"/>
     <use xlink:href="#mff5728a52a" x="225.949878" y="272.704546" style="stroke: #000000"/>
     <use xlink:href="#mff5728a52a" x="370.207921" y="252.847434" style="stroke: #000000"/>
     <use xlink:href="#mff5728a52a" x="300.769875" y="254.405787" style="stroke: #000000"/>
     <use xlink:href="#mff5728a52a" x="381.040759" y="270.807929" style="stroke: #000000"/>
     <use xlink:href="#mff5728a52a" x="357.946341" y="258.671774" style="stroke: #000000"/>
     <use xlink:href="#mff5728a52a" x="394.098789" y="261.851279" style="stroke: #000000"/>
     <use xlink:href="#mff5728a52a" x="210.787231" y="265.742589" style="stroke: #000000"/>
     <use xlink:href="#mff5728a52a" x="282.137161" y="277.292592" style="stroke: #000000"/>
     <use xlink:href="#mff5728a52a" x="216.303628" y="269.043819" style="stroke: #000000"/>
     <use xlink:href="#mff5728a52a" x="395.529654" y="278.58185" style="stroke: #000000"/>
     <use xlink:href="#mff5728a52a" x="269.632998" y="272.700228" style="stroke: #000000"/>
     <use xlink:href="#mff5728a52a" x="261.257896" y="295.488" style="stroke: #000000"/>
     <use xlink:href="#mff5728a52a" x="373.931728" y="280.232511" style="stroke: #000000"/>
     <use xlink:href="#mff5728a52a" x="342.426398" y="265.259626" style="stroke: #000000"/>
     <use xlink:href="#mff5728a52a" x="238.951376" y="270.306828" style="stroke: #000000"/>
     <use xlink:href="#mff5728a52a" x="328.244307" y="265.045063" style="stroke: #000000"/>
     <use xlink:href="#mff5728a52a" x="335.895114" y="261.802967" style="stroke: #000000"/>
     <use xlink:href="#mff5728a52a" x="234.638226" y="259.810315" style="stroke: #000000"/>
     <use xlink:href="#mff5728a52a" x="260.590488" y="269.323732" style="stroke: #000000"/>
     <use xlink:href="#mff5728a52a" x="383.726573" y="277.130019" style="stroke: #000000"/>
     <use xlink:href="#mff5728a52a" x="189.227002" y="276.636639" style="stroke: #000000"/>
     <use xlink:href="#mff5728a52a" x="338.475089" y="270.909136" style="stroke: #000000"/>
     <use xlink:href="#mff5728a52a" x="335.961401" y="280.999446" style="stroke: #000000"/>
     <use xlink:href="#mff5728a52a" x="317.633981" y="287.431857" style="stroke: #000000"/>
     <use xlink:href="#mff5728a52a" x="310.100198" y="263.261537" style="stroke: #000000"/>
     <use xlink:href="#mff5728a52a" x="231.04358" y="264.767878" style="stroke: #000000"/>
     <use xlink:href="#mff5728a52a" x="361.502584" y="260.713984" style="stroke: #000000"/>
     <use xlink:href="#mff5728a52a" x="325.163233" y="252.239109" style="stroke: #000000"/>
     <use xlink:href="#mff5728a52a" x="240.287156" y="266.897409" style="stroke: #000000"/>
     <use xlink:href="#mff5728a52a" x="357.718225" y="265.870012" style="stroke: #000000"/>
     <use xlink:href="#mff5728a52a" x="220.912369" y="262.911898" style="stroke: #000000"/>
     <use xlink:href="#mff5728a52a" x="307.077998" y="277.67497" style="stroke: #000000"/>
     <use xlink:href="#mff5728a52a" x="244.029965" y="280.903418" style="stroke: #000000"/>
     <use xlink:href="#mff5728a52a" x="342.577151" y="261.456919" style="stroke: #000000"/>
     <use xlink:href="#mff5728a52a" x="388.115169" y="269.383114" style="stroke: #000000"/>
     <use xlink:href="#mff5728a52a" x="314.672442" y="258.575908" style="stroke: #000000"/>
     <use xlink:href="#mff5728a52a" x="358.183595" y="278.268909" style="stroke: #000000"/>
     <use xlink:href="#mff5728a52a" x="240.914478" y="262.017506" style="stroke: #000000"/>
     <use xlink:href="#mff5728a52a" x="348.457417" y="260.676525" style="stroke: #000000"/>
     <use xlink:href="#mff5728a52a" x="381.79003" y="267.386526" style="stroke: #000000"/>
     <use xlink:href="#mff5728a52a" x="197.440076" y="255.633624" style="stroke: #000000"/>
     <use xlink:href="#mff5728a52a" x="334.592806" y="277.14992" style="stroke: #000000"/>
     <use xlink:href="#mff5728a52a" x="264.935639" y="275.40406" style="stroke: #000000"/>
     <use xlink:href="#mff5728a52a" x="397.489803" y="289.55612" style="stroke: #000000"/>
     <use xlink:href="#mff5728a52a" x="194.442638" y="273.985944" style="stroke: #000000"/>
     <use xlink:href="#mff5728a52a" x="288.618282" y="266.5129" style="stroke: #000000"/>
     <use xlink:href="#mff5728a52a" x="214.219788" y="282.153787" style="stroke: #000000"/>
     <use xlink:href="#mff5728a52a" x="304.379023" y="278.91094" style="stroke: #000000"/>
     <use xlink:href="#mff5728a52a" x="361.023783" y="265.53421" style="stroke: #000000"/>
     <use xlink:href="#mff5728a52a" x="273.193163" y="281.346646" style="stroke: #000000"/>
     <use xlink:href="#mff5728a52a" x="313.501459" y="257.532594" style="stroke: #000000"/>
     <use xlink:href="#mff5728a52a" x="343.426758" y="273.739981" style="stroke: #000000"/>
     <use xlink:href="#mff5728a52a" x="274.642662" y="281.848625" style="stroke: #000000"/>
     <use xlink:href="#mff5728a52a" x="198.367788" y="255.948662" style="stroke: #000000"/>
     <use xlink:href="#mff5728a52a" x="319.789716" y="283.725032" style="stroke: #000000"/>
     <use xlink:href="#mff5728a52a" x="352.935664" y="271.981338" style="stroke: #000000"/>
     <use xlink:href="#mff5728a52a" x="204.044332" y="275.870493" style="stroke: #000000"/>
     <use xlink:href="#mff5728a52a" x="140.469221" y="287.841095" style="stroke: #000000"/>
     <use xlink:href="#mff5728a52a" x="134.687668" y="263.474458" style="stroke: #000000"/>
     <use xlink:href="#mff5728a52a" x="97.020793" y="272.329932" style="stroke: #000000"/>
     <use xlink:href="#mff5728a52a" x="75.824793" y="268.221739" style="stroke: #000000"/>
     <use xlink:href="#mff5728a52a" x="76.119908" y="259.888842" style="stroke: #000000"/>
     <use xlink:href="#mff5728a52a" x="124.019939" y="269.51802" style="stroke: #000000"/>
     <use xlink:href="#mff5728a52a" x="90.877554" y="273.673849" style="stroke: #000000"/>
     <use xlink:href="#mff5728a52a" x="127.683938" y="270.547823" style="stroke: #000000"/>
     <use xlink:href="#mff5728a52a" x="113.702175" y="264.933992" style="stroke: #000000"/>
     <use xlink:href="#mff5728a52a" x="117.47635" y="276.188585" style="stroke: #000000"/>
     <use xlink:href="#mff5728a52a" x="145.813079" y="260.062934" style="stroke: #000000"/>
     <use xlink:href="#mff5728a52a" x="113.808343" y="261.23034" style="stroke: #000000"/>
     <use xlink:href="#mff5728a52a" x="115.554925" y="253.283018" style="stroke: #000000"/>
     <use xlink:href="#mff5728a52a" x="114.454423" y="268.008957" style="stroke: #000000"/>
     <use xlink:href="#mff5728a52a" x="78.671813" y="251.738538" style="stroke: #000000"/>
     <use xlink:href="#mff5728a52a" x="140.290608" y="278.164482" style="stroke: #000000"/>
     <use xlink:href="#mff5728a52a" x="106.460037" y="259.336452" style="stroke: #000000"/>
     <use xlink:href="#mff5728a52a" x="113.751941" y="280.115674" style="stroke: #000000"/>
     <use xlink:href="#mff5728a52a" x="113.651149" y="266.732011" style="stroke: #000000"/>
     <use xlink:href="#mff5728a52a" x="87.838036" y="277.420065" style="stroke: #000000"/>
     <use xlink:href="#mff5728a52a" x="166.391482" y="247.851154" style="stroke: #000000"/>
     <use xlink:href="#mff5728a52a" x="159.035402" y="266.844219" style="stroke: #000000"/>
     <use xlink:href="#mff5728a52a" x="87.483368" y="272.70256" style="stroke: #000000"/>
     <use xlink:href="#mff5728a52a" x="103.204954" y="258.026714" style="stroke: #000000"/>
     <use xlink:href="#mff5728a52a" x="152.814848" y="270.666597" style="stroke: #000000"/>
     <use xlink:href="#mff5728a52a" x="127.439462" y="265.878116" style="stroke: #000000"/>
     <use xlink:href="#mff5728a52a" x="118.471573" y="276.27835" style="stroke: #000000"/>
     <use xlink:href="#mff5728a52a" x="127.723398" y="265.934255" style="stroke: #000000"/>
     <use xlink:href="#mff5728a52a" x="129.710497" y="263.271594" style="stroke: #000000"/>
     <use xlink:href="#mff5728a52a" x="124.574856" y="264.298493" style="stroke: #000000"/>
     <use xlink:href="#mff5728a52a" x="111.494077" y="271.116692" style="stroke: #000000"/>
     <use xlink:href="#mff5728a52a" x="139.929041" y="265.528571" style="stroke: #000000"/>
     <use xlink:href="#mff5728a52a" x="125.018967" y="274.408577" style="stroke: #000000"/>
     <use xlink:href="#mff5728a52a" x="106.60319" y="263.205692" style="stroke: #000000"/>
     <use xlink:href="#mff5728a52a" x="108.368488" y="274.976275" style="stroke: #000000"/>
     <use xlink:href="#mff5728a52a" x="166.211443" y="276.771655" style="stroke: #000000"/>
     <use xlink:href="#mff5728a52a" x="164.057095" y="283.510032" style="stroke: #000000"/>
     <use xlink:href="#mff5728a52a" x="107.219125" y="285.053585" style="stroke: #000000"/>
     <use xlink:href="#mff5728a52a" x="96.047895" y="265.18733" style="stroke: #000000"/>
     <use xlink:href="#mff5728a52a" x="142.930051" y="263.944792" style="stroke: #000000"/>
     <use xlink:href="#mff5728a52a" x="130.853871" y="284.974198" style="stroke: #000000"/>
     <use xlink:href="#mff5728a52a" x="88.239464" y="276.505397" style="stroke: #000000"/>
     <use xlink:href="#mff5728a52a" x="135.627225" y="267.901884" style="stroke: #000000"/>
     <use xlink:href="#mff5728a52a" x="153.647732" y="270.880458" style="stroke: #000000"/>
     <use xlink:href="#mff5728a52a" x="136.159187" y="271.309736" style="stroke: #000000"/>
     <use xlink:href="#mff5728a52a" x="102.480028" y="269.917939" style="stroke: #000000"/>
     <use xlink:href="#mff5728a52a" x="149.351625" y="275.229373" style="stroke: #000000"/>
     <use xlink:href="#mff5728a52a" x="91.585415" y="270.152499" style="stroke: #000000"/>
     <use xlink:href="#mff5728a52a" x="164.162489" y="274.377232" style="stroke: #000000"/>
     <use xlink:href="#mff5728a52a" x="132.586662" y="264.492775" style="stroke: #000000"/>
     <use xlink:href="#mff5728a52a" x="109.791398" y="258.384656" style="stroke: #000000"/>
     <use xlink:href="#mff5728a52a" x="78.900415" y="275.163846" style="stroke: #000000"/>
     <use xlink:href="#mff5728a52a" x="125.744632" y="287.934272" style="stroke: #000000"/>
     <use xlink:href="#mff5728a52a" x="101.025787" y="263.53061" style="stroke: #000000"/>
     <use xlink:href="#mff5728a52a" x="117.388614" y="264.902267" style="stroke: #000000"/>
     <use xlink:href="#mff5728a52a" x="106.434104" y="256.774471" style="stroke: #000000"/>
     <use xlink:href="#mff5728a52a" x="92.443808" y="242.701592" style="stroke: #000000"/>
     <use xlink:href="#mff5728a52a" x="87.054023" y="273.446875" style="stroke: #000000"/>
     <use xlink:href="#mff5728a52a" x="146.325738" y="281.763784" style="stroke: #000000"/>
     <use xlink:href="#mff5728a52a" x="114.186222" y="287.207608" style="stroke: #000000"/>
     <use xlink:href="#mff5728a52a" x="114.166084" y="266.150828" style="stroke: #000000"/>
     <use xlink:href="#mff5728a52a" x="101.654206" y="261.798516" style="stroke: #000000"/>
     <use xlink:href="#mff5728a52a" x="154.315333" y="267.946761" style="stroke: #000000"/>
     <use xlink:href="#mff5728a52a" x="80.420927" y="262.56652" style="stroke: #000000"/>
     <use xlink:href="#mff5728a52a" x="88.780957" y="280.483307" style="stroke: #000000"/>
     <use xlink:href="#mff5728a52a" x="145.329706" y="275.704223" style="stroke: #000000"/>
     <use xlink:href="#mff5728a52a" x="121.360365" y="257.416971" style="stroke: #000000"/>
     <use xlink:href="#mff5728a52a" x="106.009414" y="272.245323" style="stroke: #000000"/>
     <use xlink:href="#mff5728a52a" x="124.364983" y="254.007078" style="stroke: #000000"/>
     <use xlink:href="#mff5728a52a" x="75.919147" y="267.668461" style="stroke: #000000"/>
     <use xlink:href="#mff5728a52a" x="134.153959" y="280.021598" style="stroke: #000000"/>
     <use xlink:href="#mff5728a52a" x="99.249638" y="262.30884" style="stroke: #000000"/>
     <use xlink:href="#mff5728a52a" x="160.47747" y="266.927844" style="stroke: #000000"/>
     <use xlink:href="#mff5728a52a" x="83.514833" y="268.185167" style="stroke: #000000"/>
     <use xlink:href="#mff5728a52a" x="154.564092" y="259.578017" style="stroke: #000000"/>
     <use xlink:href="#mff5728a52a" x="149.336536" y="279.415135" style="stroke: #000000"/>
     <use xlink:href="#mff5728a52a" x="93.298177" y="272.033338" style="stroke: #000000"/>
     <use xlink:href="#mff5728a52a" x="92.244087" y="265.497848" style="stroke: #000000"/>
     <use xlink:href="#mff5728a52a" x="80.868741" y="268.379603" style="stroke: #000000"/>
     <use xlink:href="#mff5728a52a" x="88.548553" y="254.687852" style="stroke: #000000"/>
     <use xlink:href="#mff5728a52a" x="116.138551" y="258.869852" style="stroke: #000000"/>
     <use xlink:href="#mff5728a52a" x="78.918937" y="268.906214" style="stroke: #000000"/>
     <use xlink:href="#mff5728a52a" x="73.832727" y="271.767184" style="stroke: #000000"/>
     <use xlink:href="#mff5728a52a" x="90.899657" y="282.892244" style="stroke: #000000"/>
     <use xlink:href="#mff5728a52a" x="78.781111" y="276.394362" style="stroke: #000000"/>
     <use xlink:href="#mff5728a52a" x="145.090735" y="264.741021" style="stroke: #000000"/>
     <use xlink:href="#mff5728a52a" x="80.908386" y="256.431101" style="stroke: #000000"/>
     <use xlink:href="#mff5728a52a" x="107.925887" y="257.952881" style="stroke: #000000"/>
     <use xlink:href="#mff5728a52a" x="132.63195" y="256.976676" style="stroke: #000000"/>
     <use xlink:href="#mff5728a52a" x="156.221661" y="263.699021" style="stroke: #000000"/>
     <use xlink:href="#mff5728a52a" x="103.357954" y="267.480345" style="stroke: #000000"/>
     <use xlink:href="#mff5728a52a" x="130.962053" y="272.08325" style="stroke: #000000"/>
     <use xlink:href="#mff5728a52a" x="163.052263" y="273.107722" style="stroke: #000000"/>
     <use xlink:href="#mff5728a52a" x="83.398077" y="280.723723" style="stroke: #000000"/>
     <use xlink:href="#mff5728a52a" x="158.31019" y="272.573737" style="stroke: #000000"/>
     <use xlink:href="#mff5728a52a" x="129.304892" y="265.800715" style="stroke: #000000"/>
     <use xlink:href="#mff5728a52a" x="99.089623" y="270.342902" style="stroke: #000000"/>
     <use xlink:href="#mff5728a52a" x="84.756549" y="288.301395" style="stroke: #000000"/>
     <use xlink:href="#mff5728a52a" x="92.136616" y="269.679165" style="stroke: #000000"/>
    </g>
   </g>
   <g id="PathCollection_2">
    <defs>
     <path id="m4ed9a9817d" d="M 0 3 
C 0.795609 3 1.55874 2.683901 2.12132 2.12132 
C 2.683901 1.55874 3 0.795609 3 0 
C 3 -0.795609 2.683901 -1.55874 2.12132 -2.12132 
C 1.55874 -2.683901 0.795609 -3 0 -3 
C -0.795609 -3 -1.55874 -2.683901 -2.12132 -2.12132 
C -2.683901 -1.55874 -3 -0.795609 -3 0 
C -3 0.795609 -2.683901 1.55874 -2.12132 2.12132 
C -1.55874 2.683901 -0.795609 3 0 3 
z
" style="stroke: #000000"/>
    </defs>
    <g clip-path="url(#ped1fa6d65c)">
     <use xlink:href="#m4ed9a9817d" x="119.794009" y="97.515368" style="fill: #ffffff; stroke: #000000"/>
     <use xlink:href="#m4ed9a9817d" x="136.941598" y="105.740824" style="fill: #ffffff; stroke: #000000"/>
     <use xlink:href="#m4ed9a9817d" x="217.910694" y="55.724644" style="fill: #ffffff; stroke: #000000"/>
     <use xlink:href="#m4ed9a9817d" x="98.856929" y="130.82642" style="fill: #ffffff; stroke: #000000"/>
     <use xlink:href="#m4ed9a9817d" x="243.21966" y="90.985857" style="fill: #ffffff; stroke: #000000"/>
     <use xlink:href="#m4ed9a9817d" x="213.122754" y="77.913787" style="fill: #ffffff; stroke: #000000"/>
     <use xlink:href="#m4ed9a9817d" x="215.03909" y="53.568" style="fill: #ffffff; stroke: #000000"/>
     <use xlink:href="#m4ed9a9817d" x="238.066339" y="103.762255" style="fill: #ffffff; stroke: #000000"/>
     <use xlink:href="#m4ed9a9817d" x="124.33145" y="124.686922" style="fill: #ffffff; stroke: #000000"/>
     <use xlink:href="#m4ed9a9817d" x="125.01003" y="94.422516" style="fill: #ffffff; stroke: #000000"/>
     <use xlink:href="#m4ed9a9817d" x="74.351322" y="241.363783" style="fill: #ffffff; stroke: #000000"/>
    </g>
   </g>
   <g id="matplotlib.axis_1">
    <g id="xtick_1">
     <g id="line2d_1">
      <defs>
       <path id="m369e38f6a4" d="M 0 0 
L 0 3.5 
" style="stroke: #000000; stroke-width: 0.8"/>
      </defs>
      <g>
       <use xlink:href="#m369e38f6a4" x="73.162547" y="307.584" style="stroke: #000000; stroke-width: 0.8"/>
      </g>
     </g>
     <g id="text_1">
      <!-- 0 -->
      <g transform="translate(69.981297 322.182437) scale(0.1 -0.1)">
       <defs>
        <path id="DejaVuSans-30" d="M 2034 4250 
Q 1547 4250 1301 3770 
Q 1056 3291 1056 2328 
Q 1056 1369 1301 889 
Q 1547 409 2034 409 
Q 2525 409 2770 889 
Q 3016 1369 3016 2328 
Q 3016 3291 2770 3770 
Q 2525 4250 2034 4250 
z
M 2034 4750 
Q 2819 4750 3233 4129 
Q 3647 3509 3647 2328 
Q 3647 1150 3233 529 
Q 2819 -91 2034 -91 
Q 1250 -91 836 529 
Q 422 1150 422 2328 
Q 422 3509 836 4129 
Q 1250 4750 2034 4750 
z
" transform="scale(0.015625)"/>
       </defs>
       <use xlink:href="#DejaVuSans-30"/>
      </g>
     </g>
    </g>
    <g id="xtick_2">
     <g id="line2d_2">
      <g>
       <use xlink:href="#m369e38f6a4" x="121.487888" y="307.584" style="stroke: #000000; stroke-width: 0.8"/>
      </g>
     </g>
     <g id="text_2">
      <!-- 25 -->
      <g transform="translate(115.125388 322.182437) scale(0.1 -0.1)">
       <defs>
        <path id="DejaVuSans-32" d="M 1228 531 
L 3431 531 
L 3431 0 
L 469 0 
L 469 531 
Q 828 903 1448 1529 
Q 2069 2156 2228 2338 
Q 2531 2678 2651 2914 
Q 2772 3150 2772 3378 
Q 2772 3750 2511 3984 
Q 2250 4219 1831 4219 
Q 1534 4219 1204 4116 
Q 875 4013 500 3803 
L 500 4441 
Q 881 4594 1212 4672 
Q 1544 4750 1819 4750 
Q 2544 4750 2975 4387 
Q 3406 4025 3406 3419 
Q 3406 3131 3298 2873 
Q 3191 2616 2906 2266 
Q 2828 2175 2409 1742 
Q 1991 1309 1228 531 
z
" transform="scale(0.015625)"/>
        <path id="DejaVuSans-35" d="M 691 4666 
L 3169 4666 
L 3169 4134 
L 1269 4134 
L 1269 2991 
Q 1406 3038 1543 3061 
Q 1681 3084 1819 3084 
Q 2600 3084 3056 2656 
Q 3513 2228 3513 1497 
Q 3513 744 3044 326 
Q 2575 -91 1722 -91 
Q 1428 -91 1123 -41 
Q 819 9 494 109 
L 494 744 
Q 775 591 1075 516 
Q 1375 441 1709 441 
Q 2250 441 2565 725 
Q 2881 1009 2881 1497 
Q 2881 1984 2565 2268 
Q 2250 2553 1709 2553 
Q 1456 2553 1204 2497 
Q 953 2441 691 2322 
L 691 4666 
z
" transform="scale(0.015625)"/>
       </defs>
       <use xlink:href="#DejaVuSans-32"/>
       <use xlink:href="#DejaVuSans-35" x="63.623047"/>
      </g>
     </g>
    </g>
    <g id="xtick_3">
     <g id="line2d_3">
      <g>
       <use xlink:href="#m369e38f6a4" x="169.81323" y="307.584" style="stroke: #000000; stroke-width: 0.8"/>
      </g>
     </g>
     <g id="text_3">
      <!-- 50 -->
      <g transform="translate(163.45073 322.182437) scale(0.1 -0.1)">
       <use xlink:href="#DejaVuSans-35"/>
       <use xlink:href="#DejaVuSans-30" x="63.623047"/>
      </g>
     </g>
    </g>
    <g id="xtick_4">
     <g id="line2d_4">
      <g>
       <use xlink:href="#m369e38f6a4" x="218.138571" y="307.584" style="stroke: #000000; stroke-width: 0.8"/>
      </g>
     </g>
     <g id="text_4">
      <!-- 75 -->
      <g transform="translate(211.776071 322.182437) scale(0.1 -0.1)">
       <defs>
        <path id="DejaVuSans-37" d="M 525 4666 
L 3525 4666 
L 3525 4397 
L 1831 0 
L 1172 0 
L 2766 4134 
L 525 4134 
L 525 4666 
z
" transform="scale(0.015625)"/>
       </defs>
       <use xlink:href="#DejaVuSans-37"/>
       <use xlink:href="#DejaVuSans-35" x="63.623047"/>
      </g>
     </g>
    </g>
    <g id="xtick_5">
     <g id="line2d_5">
      <g>
       <use xlink:href="#m369e38f6a4" x="266.463912" y="307.584" style="stroke: #000000; stroke-width: 0.8"/>
      </g>
     </g>
     <g id="text_5">
      <!-- 100 -->
      <g transform="translate(256.920162 322.182437) scale(0.1 -0.1)">
       <defs>
        <path id="DejaVuSans-31" d="M 794 531 
L 1825 531 
L 1825 4091 
L 703 3866 
L 703 4441 
L 1819 4666 
L 2450 4666 
L 2450 531 
L 3481 531 
L 3481 0 
L 794 0 
L 794 531 
z
" transform="scale(0.015625)"/>
       </defs>
       <use xlink:href="#DejaVuSans-31"/>
       <use xlink:href="#DejaVuSans-30" x="63.623047"/>
       <use xlink:href="#DejaVuSans-30" x="127.246094"/>
      </g>
     </g>
    </g>
    <g id="xtick_6">
     <g id="line2d_6">
      <g>
       <use xlink:href="#m369e38f6a4" x="314.789253" y="307.584" style="stroke: #000000; stroke-width: 0.8"/>
      </g>
     </g>
     <g id="text_6">
      <!-- 125 -->
      <g transform="translate(305.245503 322.182437) scale(0.1 -0.1)">
       <use xlink:href="#DejaVuSans-31"/>
       <use xlink:href="#DejaVuSans-32" x="63.623047"/>
       <use xlink:href="#DejaVuSans-35" x="127.246094"/>
      </g>
     </g>
    </g>
    <g id="xtick_7">
     <g id="line2d_7">
      <g>
       <use xlink:href="#m369e38f6a4" x="363.114594" y="307.584" style="stroke: #000000; stroke-width: 0.8"/>
      </g>
     </g>
     <g id="text_7">
      <!-- 150 -->
      <g transform="translate(353.570844 322.182437) scale(0.1 -0.1)">
       <use xlink:href="#DejaVuSans-31"/>
       <use xlink:href="#DejaVuSans-35" x="63.623047"/>
       <use xlink:href="#DejaVuSans-30" x="127.246094"/>
      </g>
     </g>
    </g>
    <g id="xtick_8">
     <g id="line2d_8">
      <g>
       <use xlink:href="#m369e38f6a4" x="411.439935" y="307.584" style="stroke: #000000; stroke-width: 0.8"/>
      </g>
     </g>
     <g id="text_8">
      <!-- 175 -->
      <g transform="translate(401.896185 322.182437) scale(0.1 -0.1)">
       <use xlink:href="#DejaVuSans-31"/>
       <use xlink:href="#DejaVuSans-37" x="63.623047"/>
       <use xlink:href="#DejaVuSans-35" x="127.246094"/>
      </g>
     </g>
    </g>
    <g id="text_9">
     <!-- Time -->
     <g transform="translate(390.252813 335.860562) scale(0.1 -0.1)">
      <defs>
       <path id="DejaVuSans-54" d="M -19 4666 
L 3928 4666 
L 3928 4134 
L 2272 4134 
L 2272 0 
L 1638 0 
L 1638 4134 
L -19 4134 
L -19 4666 
z
" transform="scale(0.015625)"/>
       <path id="DejaVuSans-69" d="M 603 3500 
L 1178 3500 
L 1178 0 
L 603 0 
L 603 3500 
z
M 603 4863 
L 1178 4863 
L 1178 4134 
L 603 4134 
L 603 4863 
z
" transform="scale(0.015625)"/>
       <path id="DejaVuSans-6d" d="M 3328 2828 
Q 3544 3216 3844 3400 
Q 4144 3584 4550 3584 
Q 5097 3584 5394 3201 
Q 5691 2819 5691 2113 
L 5691 0 
L 5113 0 
L 5113 2094 
Q 5113 2597 4934 2840 
Q 4756 3084 4391 3084 
Q 3944 3084 3684 2787 
Q 3425 2491 3425 1978 
L 3425 0 
L 2847 0 
L 2847 2094 
Q 2847 2600 2669 2842 
Q 2491 3084 2119 3084 
Q 1678 3084 1418 2786 
Q 1159 2488 1159 1978 
L 1159 0 
L 581 0 
L 581 3500 
L 1159 3500 
L 1159 2956 
Q 1356 3278 1631 3431 
Q 1906 3584 2284 3584 
Q 2666 3584 2933 3390 
Q 3200 3197 3328 2828 
z
" transform="scale(0.015625)"/>
       <path id="DejaVuSans-65" d="M 3597 1894 
L 3597 1613 
L 953 1613 
Q 991 1019 1311 708 
Q 1631 397 2203 397 
Q 2534 397 2845 478 
Q 3156 559 3463 722 
L 3463 178 
Q 3153 47 2828 -22 
Q 2503 -91 2169 -91 
Q 1331 -91 842 396 
Q 353 884 353 1716 
Q 353 2575 817 3079 
Q 1281 3584 2069 3584 
Q 2775 3584 3186 3129 
Q 3597 2675 3597 1894 
z
M 3022 2063 
Q 3016 2534 2758 2815 
Q 2500 3097 2075 3097 
Q 1594 3097 1305 2825 
Q 1016 2553 972 2059 
L 3022 2063 
z
" transform="scale(0.015625)"/>
      </defs>
      <use xlink:href="#DejaVuSans-54"/>
      <use xlink:href="#DejaVuSans-69" x="57.958984"/>
      <use xlink:href="#DejaVuSans-6d" x="85.742188"/>
      <use xlink:href="#DejaVuSans-65" x="183.154297"/>
     </g>
    </g>
   </g>
   <g id="matplotlib.axis_2">
    <g id="ytick_1">
     <g id="line2d_9">
      <defs>
       <path id="m86a43cc0df" d="M 0 0 
L -3.5 0 
" style="stroke: #000000; stroke-width: 0.8"/>
      </defs>
      <g>
       <use xlink:href="#m86a43cc0df" x="57.6" y="306.262216" style="stroke: #000000; stroke-width: 0.8"/>
      </g>
     </g>
     <g id="text_10">
      <!-- 80 -->
      <g transform="translate(37.875 310.061435) scale(0.1 -0.1)">
       <defs>
        <path id="DejaVuSans-38" d="M 2034 2216 
Q 1584 2216 1326 1975 
Q 1069 1734 1069 1313 
Q 1069 891 1326 650 
Q 1584 409 2034 409 
Q 2484 409 2743 651 
Q 3003 894 3003 1313 
Q 3003 1734 2745 1975 
Q 2488 2216 2034 2216 
z
M 1403 2484 
Q 997 2584 770 2862 
Q 544 3141 544 3541 
Q 544 4100 942 4425 
Q 1341 4750 2034 4750 
Q 2731 4750 3128 4425 
Q 3525 4100 3525 3541 
Q 3525 3141 3298 2862 
Q 3072 2584 2669 2484 
Q 3125 2378 3379 2068 
Q 3634 1759 3634 1313 
Q 3634 634 3220 271 
Q 2806 -91 2034 -91 
Q 1263 -91 848 271 
Q 434 634 434 1313 
Q 434 1759 690 2068 
Q 947 2378 1403 2484 
z
M 1172 3481 
Q 1172 3119 1398 2916 
Q 1625 2713 2034 2713 
Q 2441 2713 2670 2916 
Q 2900 3119 2900 3481 
Q 2900 3844 2670 4047 
Q 2441 4250 2034 4250 
Q 1625 4250 1398 4047 
Q 1172 3844 1172 3481 
z
" transform="scale(0.015625)"/>
       </defs>
       <use xlink:href="#DejaVuSans-38"/>
       <use xlink:href="#DejaVuSans-30" x="63.623047"/>
      </g>
     </g>
    </g>
    <g id="ytick_2">
     <g id="line2d_10">
      <g>
       <use xlink:href="#m86a43cc0df" x="57.6" y="268.356186" style="stroke: #000000; stroke-width: 0.8"/>
      </g>
     </g>
     <g id="text_11">
      <!-- 100 -->
      <g transform="translate(31.5125 272.155405) scale(0.1 -0.1)">
       <use xlink:href="#DejaVuSans-31"/>
       <use xlink:href="#DejaVuSans-30" x="63.623047"/>
       <use xlink:href="#DejaVuSans-30" x="127.246094"/>
      </g>
     </g>
    </g>
    <g id="ytick_3">
     <g id="line2d_11">
      <g>
       <use xlink:href="#m86a43cc0df" x="57.6" y="230.450156" style="stroke: #000000; stroke-width: 0.8"/>
      </g>
     </g>
     <g id="text_12">
      <!-- 120 -->
      <g transform="translate(31.5125 234.249375) scale(0.1 -0.1)">
       <use xlink:href="#DejaVuSans-31"/>
       <use xlink:href="#DejaVuSans-32" x="63.623047"/>
       <use xlink:href="#DejaVuSans-30" x="127.246094"/>
      </g>
     </g>
    </g>
    <g id="ytick_4">
     <g id="line2d_12">
      <g>
       <use xlink:href="#m86a43cc0df" x="57.6" y="192.544126" style="stroke: #000000; stroke-width: 0.8"/>
      </g>
     </g>
     <g id="text_13">
      <!-- 140 -->
      <g transform="translate(31.5125 196.343345) scale(0.1 -0.1)">
       <defs>
        <path id="DejaVuSans-34" d="M 2419 4116 
L 825 1625 
L 2419 1625 
L 2419 4116 
z
M 2253 4666 
L 3047 4666 
L 3047 1625 
L 3713 1625 
L 3713 1100 
L 3047 1100 
L 3047 0 
L 2419 0 
L 2419 1100 
L 313 1100 
L 313 1709 
L 2253 4666 
z
" transform="scale(0.015625)"/>
       </defs>
       <use xlink:href="#DejaVuSans-31"/>
       <use xlink:href="#DejaVuSans-34" x="63.623047"/>
       <use xlink:href="#DejaVuSans-30" x="127.246094"/>
      </g>
     </g>
    </g>
    <g id="ytick_5">
     <g id="line2d_13">
      <g>
       <use xlink:href="#m86a43cc0df" x="57.6" y="154.638096" style="stroke: #000000; stroke-width: 0.8"/>
      </g>
     </g>
     <g id="text_14">
      <!-- 160 -->
      <g transform="translate(31.5125 158.437314) scale(0.1 -0.1)">
       <defs>
        <path id="DejaVuSans-36" d="M 2113 2584 
Q 1688 2584 1439 2293 
Q 1191 2003 1191 1497 
Q 1191 994 1439 701 
Q 1688 409 2113 409 
Q 2538 409 2786 701 
Q 3034 994 3034 1497 
Q 3034 2003 2786 2293 
Q 2538 2584 2113 2584 
z
M 3366 4563 
L 3366 3988 
Q 3128 4100 2886 4159 
Q 2644 4219 2406 4219 
Q 1781 4219 1451 3797 
Q 1122 3375 1075 2522 
Q 1259 2794 1537 2939 
Q 1816 3084 2150 3084 
Q 2853 3084 3261 2657 
Q 3669 2231 3669 1497 
Q 3669 778 3244 343 
Q 2819 -91 2113 -91 
Q 1303 -91 875 529 
Q 447 1150 447 2328 
Q 447 3434 972 4092 
Q 1497 4750 2381 4750 
Q 2619 4750 2861 4703 
Q 3103 4656 3366 4563 
z
" transform="scale(0.015625)"/>
       </defs>
       <use xlink:href="#DejaVuSans-31"/>
       <use xlink:href="#DejaVuSans-36" x="63.623047"/>
       <use xlink:href="#DejaVuSans-30" x="127.246094"/>
      </g>
     </g>
    </g>
    <g id="ytick_6">
     <g id="line2d_14">
      <g>
       <use xlink:href="#m86a43cc0df" x="57.6" y="116.732065" style="stroke: #000000; stroke-width: 0.8"/>
      </g>
     </g>
     <g id="text_15">
      <!-- 180 -->
      <g transform="translate(31.5125 120.531284) scale(0.1 -0.1)">
       <use xlink:href="#DejaVuSans-31"/>
       <use xlink:href="#DejaVuSans-38" x="63.623047"/>
       <use xlink:href="#DejaVuSans-30" x="127.246094"/>
      </g>
     </g>
    </g>
    <g id="ytick_7">
     <g id="line2d_15">
      <g>
       <use xlink:href="#m86a43cc0df" x="57.6" y="78.826035" style="stroke: #000000; stroke-width: 0.8"/>
      </g>
     </g>
     <g id="text_16">
      <!-- 200 -->
      <g transform="translate(31.5125 82.625254) scale(0.1 -0.1)">
       <use xlink:href="#DejaVuSans-32"/>
       <use xlink:href="#DejaVuSans-30" x="63.623047"/>
       <use xlink:href="#DejaVuSans-30" x="127.246094"/>
      </g>
     </g>
    </g>
    <g id="text_17">
     <!-- Observed value -->
     <g transform="translate(25.432812 120.079813) rotate(-90) scale(0.1 -0.1)">
      <defs>
       <path id="DejaVuSans-4f" d="M 2522 4238 
Q 1834 4238 1429 3725 
Q 1025 3213 1025 2328 
Q 1025 1447 1429 934 
Q 1834 422 2522 422 
Q 3209 422 3611 934 
Q 4013 1447 4013 2328 
Q 4013 3213 3611 3725 
Q 3209 4238 2522 4238 
z
M 2522 4750 
Q 3503 4750 4090 4092 
Q 4678 3434 4678 2328 
Q 4678 1225 4090 567 
Q 3503 -91 2522 -91 
Q 1538 -91 948 565 
Q 359 1222 359 2328 
Q 359 3434 948 4092 
Q 1538 4750 2522 4750 
z
" transform="scale(0.015625)"/>
       <path id="DejaVuSans-62" d="M 3116 1747 
Q 3116 2381 2855 2742 
Q 2594 3103 2138 3103 
Q 1681 3103 1420 2742 
Q 1159 2381 1159 1747 
Q 1159 1113 1420 752 
Q 1681 391 2138 391 
Q 2594 391 2855 752 
Q 3116 1113 3116 1747 
z
M 1159 2969 
Q 1341 3281 1617 3432 
Q 1894 3584 2278 3584 
Q 2916 3584 3314 3078 
Q 3713 2572 3713 1747 
Q 3713 922 3314 415 
Q 2916 -91 2278 -91 
Q 1894 -91 1617 61 
Q 1341 213 1159 525 
L 1159 0 
L 581 0 
L 581 4863 
L 1159 4863 
L 1159 2969 
z
" transform="scale(0.015625)"/>
       <path id="DejaVuSans-73" d="M 2834 3397 
L 2834 2853 
Q 2591 2978 2328 3040 
Q 2066 3103 1784 3103 
Q 1356 3103 1142 2972 
Q 928 2841 928 2578 
Q 928 2378 1081 2264 
Q 1234 2150 1697 2047 
L 1894 2003 
Q 2506 1872 2764 1633 
Q 3022 1394 3022 966 
Q 3022 478 2636 193 
Q 2250 -91 1575 -91 
Q 1294 -91 989 -36 
Q 684 19 347 128 
L 347 722 
Q 666 556 975 473 
Q 1284 391 1588 391 
Q 1994 391 2212 530 
Q 2431 669 2431 922 
Q 2431 1156 2273 1281 
Q 2116 1406 1581 1522 
L 1381 1569 
Q 847 1681 609 1914 
Q 372 2147 372 2553 
Q 372 3047 722 3315 
Q 1072 3584 1716 3584 
Q 2034 3584 2315 3537 
Q 2597 3491 2834 3397 
z
" transform="scale(0.015625)"/>
       <path id="DejaVuSans-72" d="M 2631 2963 
Q 2534 3019 2420 3045 
Q 2306 3072 2169 3072 
Q 1681 3072 1420 2755 
Q 1159 2438 1159 1844 
L 1159 0 
L 581 0 
L 581 3500 
L 1159 3500 
L 1159 2956 
Q 1341 3275 1631 3429 
Q 1922 3584 2338 3584 
Q 2397 3584 2469 3576 
Q 2541 3569 2628 3553 
L 2631 2963 
z
" transform="scale(0.015625)"/>
       <path id="DejaVuSans-76" d="M 191 3500 
L 800 3500 
L 1894 563 
L 2988 3500 
L 3597 3500 
L 2284 0 
L 1503 0 
L 191 3500 
z
" transform="scale(0.015625)"/>
       <path id="DejaVuSans-64" d="M 2906 2969 
L 2906 4863 
L 3481 4863 
L 3481 0 
L 2906 0 
L 2906 525 
Q 2725 213 2448 61 
Q 2172 -91 1784 -91 
Q 1150 -91 751 415 
Q 353 922 353 1747 
Q 353 2572 751 3078 
Q 1150 3584 1784 3584 
Q 2172 3584 2448 3432 
Q 2725 3281 2906 2969 
z
M 947 1747 
Q 947 1113 1208 752 
Q 1469 391 1925 391 
Q 2381 391 2643 752 
Q 2906 1113 2906 1747 
Q 2906 2381 2643 2742 
Q 2381 3103 1925 3103 
Q 1469 3103 1208 2742 
Q 947 2381 947 1747 
z
" transform="scale(0.015625)"/>
       <path id="DejaVuSans-20" transform="scale(0.015625)"/>
       <path id="DejaVuSans-61" d="M 2194 1759 
Q 1497 1759 1228 1600 
Q 959 1441 959 1056 
Q 959 750 1161 570 
Q 1363 391 1709 391 
Q 2188 391 2477 730 
Q 2766 1069 2766 1631 
L 2766 1759 
L 2194 1759 
z
M 3341 1997 
L 3341 0 
L 2766 0 
L 2766 531 
Q 2569 213 2275 61 
Q 1981 -91 1556 -91 
Q 1019 -91 701 211 
Q 384 513 384 1019 
Q 384 1609 779 1909 
Q 1175 2209 1959 2209 
L 2766 2209 
L 2766 2266 
Q 2766 2663 2505 2880 
Q 2244 3097 1772 3097 
Q 1472 3097 1187 3025 
Q 903 2953 641 2809 
L 641 3341 
Q 956 3463 1253 3523 
Q 1550 3584 1831 3584 
Q 2591 3584 2966 3190 
Q 3341 2797 3341 1997 
z
" transform="scale(0.015625)"/>
       <path id="DejaVuSans-6c" d="M 603 4863 
L 1178 4863 
L 1178 0 
L 603 0 
L 603 4863 
z
" transform="scale(0.015625)"/>
       <path id="DejaVuSans-75" d="M 544 1381 
L 544 3500 
L 1119 3500 
L 1119 1403 
Q 1119 906 1312 657 
Q 1506 409 1894 409 
Q 2359 409 2629 706 
Q 2900 1003 2900 1516 
L 2900 3500 
L 3475 3500 
L 3475 0 
L 2900 0 
L 2900 538 
Q 2691 219 2414 64 
Q 2138 -91 1772 -91 
Q 1169 -91 856 284 
Q 544 659 544 1381 
z
M 1991 3584 
L 1991 3584 
z
" transform="scale(0.015625)"/>
      </defs>
      <use xlink:href="#DejaVuSans-4f"/>
      <use xlink:href="#DejaVuSans-62" x="78.710938"/>
      <use xlink:href="#DejaVuSans-73" x="142.1875"/>
      <use xlink:href="#DejaVuSans-65" x="194.287109"/>
      <use xlink:href="#DejaVuSans-72" x="255.810547"/>
      <use xlink:href="#DejaVuSans-76" x="296.923828"/>
      <use xlink:href="#DejaVuSans-65" x="356.103516"/>
      <use xlink:href="#DejaVuSans-64" x="417.626953"/>
      <use xlink:href="#DejaVuSans-20" x="481.103516"/>
      <use xlink:href="#DejaVuSans-76" x="512.890625"/>
      <use xlink:href="#DejaVuSans-61" x="572.070312"/>
      <use xlink:href="#DejaVuSans-6c" x="633.349609"/>
      <use xlink:href="#DejaVuSans-75" x="661.132812"/>
      <use xlink:href="#DejaVuSans-65" x="724.511719"/>
     </g>
    </g>
   </g>
   <g id="patch_3">
    <path d="M 57.6 307.584 
L 57.6 41.472 
" style="fill: none; stroke: #000000; stroke-width: 0.8; stroke-linejoin: miter; stroke-linecap: square"/>
   </g>
   <g id="patch_4">
    <path d="M 414.72 307.584 
L 414.72 41.472 
" style="fill: none; stroke: #000000; stroke-width: 0.8; stroke-linejoin: miter; stroke-linecap: square"/>
   </g>
   <g id="patch_5">
    <path d="M 57.6 307.584 
L 414.72 307.584 
" style="fill: none; stroke: #000000; stroke-width: 0.8; stroke-linejoin: miter; stroke-linecap: square"/>
   </g>
   <g id="patch_6">
    <path d="M 57.6 41.472 
L 414.72 41.472 
" style="fill: none; stroke: #000000; stroke-width: 0.8; stroke-linejoin: miter; stroke-linecap: square"/>
   </g>
   <g id="legend_1">
    <g id="patch_7">
     <path d="M 337.365313 78.82825 
L 407.72 78.82825 
Q 409.72 78.82825 409.72 76.82825 
L 409.72 48.472 
Q 409.72 46.472 407.72 46.472 
L 337.365313 46.472 
Q 335.365313 46.472 335.365313 48.472 
L 335.365313 76.82825 
Q 335.365313 78.82825 337.365313 78.82825 
z
" style="fill: #ffffff; opacity: 0.8; stroke: #cccccc; stroke-linejoin: miter"/>
    </g>
    <g id="PathCollection_3">
     <g>
      <use xlink:href="#mff5728a52a" x="349.365313" y="55.445437" style="stroke: #000000"/>
     </g>
    </g>
    <g id="text_18">
     <!-- Regular -->
     <g transform="translate(367.365313 58.070437) scale(0.1 -0.1)">
      <defs>
       <path id="DejaVuSans-52" d="M 2841 2188 
Q 3044 2119 3236 1894 
Q 3428 1669 3622 1275 
L 4263 0 
L 3584 0 
L 2988 1197 
Q 2756 1666 2539 1819 
Q 2322 1972 1947 1972 
L 1259 1972 
L 1259 0 
L 628 0 
L 628 4666 
L 2053 4666 
Q 2853 4666 3247 4331 
Q 3641 3997 3641 3322 
Q 3641 2881 3436 2590 
Q 3231 2300 2841 2188 
z
M 1259 4147 
L 1259 2491 
L 2053 2491 
Q 2509 2491 2742 2702 
Q 2975 2913 2975 3322 
Q 2975 3731 2742 3939 
Q 2509 4147 2053 4147 
L 1259 4147 
z
" transform="scale(0.015625)"/>
       <path id="DejaVuSans-67" d="M 2906 1791 
Q 2906 2416 2648 2759 
Q 2391 3103 1925 3103 
Q 1463 3103 1205 2759 
Q 947 2416 947 1791 
Q 947 1169 1205 825 
Q 1463 481 1925 481 
Q 2391 481 2648 825 
Q 2906 1169 2906 1791 
z
M 3481 434 
Q 3481 -459 3084 -895 
Q 2688 -1331 1869 -1331 
Q 1566 -1331 1297 -1286 
Q 1028 -1241 775 -1147 
L 775 -588 
Q 1028 -725 1275 -790 
Q 1522 -856 1778 -856 
Q 2344 -856 2625 -561 
Q 2906 -266 2906 331 
L 2906 616 
Q 2728 306 2450 153 
Q 2172 0 1784 0 
Q 1141 0 747 490 
Q 353 981 353 1791 
Q 353 2603 747 3093 
Q 1141 3584 1784 3584 
Q 2172 3584 2450 3431 
Q 2728 3278 2906 2969 
L 2906 3500 
L 3481 3500 
L 3481 434 
z
" transform="scale(0.015625)"/>
      </defs>
      <use xlink:href="#DejaVuSans-52"/>
      <use xlink:href="#DejaVuSans-65" x="64.982422"/>
      <use xlink:href="#DejaVuSans-67" x="126.505859"/>
      <use xlink:href="#DejaVuSans-75" x="189.982422"/>
      <use xlink:href="#DejaVuSans-6c" x="253.361328"/>
      <use xlink:href="#DejaVuSans-61" x="281.144531"/>
      <use xlink:href="#DejaVuSans-72" x="342.423828"/>
     </g>
    </g>
    <g id="PathCollection_4">
     <g>
      <use xlink:href="#m4ed9a9817d" x="349.365313" y="70.123562" style="fill: #ffffff; stroke: #000000"/>
     </g>
    </g>
    <g id="text_19">
     <!-- Outlier -->
     <g transform="translate(367.365313 72.748562) scale(0.1 -0.1)">
      <defs>
       <path id="DejaVuSans-74" d="M 1172 4494 
L 1172 3500 
L 2356 3500 
L 2356 3053 
L 1172 3053 
L 1172 1153 
Q 1172 725 1289 603 
Q 1406 481 1766 481 
L 2356 481 
L 2356 0 
L 1766 0 
Q 1100 0 847 248 
Q 594 497 594 1153 
L 594 3053 
L 172 3053 
L 172 3500 
L 594 3500 
L 594 4494 
L 1172 4494 
z
" transform="scale(0.015625)"/>
      </defs>
      <use xlink:href="#DejaVuSans-4f"/>
      <use xlink:href="#DejaVuSans-75" x="78.710938"/>
      <use xlink:href="#DejaVuSans-74" x="142.089844"/>
      <use xlink:href="#DejaVuSans-6c" x="181.298828"/>
      <use xlink:href="#DejaVuSans-69" x="209.082031"/>
      <use xlink:href="#DejaVuSans-65" x="236.865234"/>
      <use xlink:href="#DejaVuSans-72" x="298.388672"/>
     </g>
    </g>
   </g>
  </g>
 </g>
 <defs>
  <clipPath id="ped1fa6d65c">
   <rect x="57.6" y="41.472" width="357.12" height="266.112"/>
  </clipPath>
 </defs>
</svg>
