<?xml version="1.0" encoding="utf-8" standalone="no"?>
<!DOCTYPE svg PUBLIC "-//W3C//DTD SVG 1.1//EN"
  "http://www.w3.org/Graphics/SVG/1.1/DTD/svg11.dtd">
<svg xmlns:xlink="http://www.w3.org/1999/xlink" width="460.8pt" height="345.6pt" viewBox="0 0 460.8 345.6" xmlns="http://www.w3.org/2000/svg" version="1.1">
 <metadata>
  <rdf:RDF xmlns:dc="http://purl.org/dc/elements/1.1/" xmlns:cc="http://creativecommons.org/ns#" xmlns:rdf="http://www.w3.org/1999/02/22-rdf-syntax-ns#">
   <cc:Work>
    <dc:type rdf:resource="http://purl.org/dc/dcmitype/StillImage"/>
    <dc:date>2023-09-07T13:14:13.180838</dc:date>
    <dc:format>image/svg+xml</dc:format>
    <dc:creator>
     <cc:Agent>
      <dc:title>Matplotlib v3.7.1, https://matplotlib.org/</dc:title>
     </cc:Agent>
    </dc:creator>
   </cc:Work>
  </rdf:RDF>
 </metadata>
 <defs>
  <style type="text/css">*{stroke-linejoin: round; stroke-linecap: butt}</style>
 </defs>
 <g id="figure_1">
  <g id="patch_1">
   <path d="M 0 345.6 
L 460.8 345.6 
L 460.8 0 
L 0 0 
z
" style="fill: #ffffff"/>
  </g>
  <g id="axes_1">
   <g id="patch_2">
    <path d="M 57.6 307.584 
L 414.72 307.584 
L 414.72 41.472 
L 57.6 41.472 
z
" style="fill: #ffffff"/>
   </g>
   <g id="PathCollection_1">
    <defs>
     <path id="mf6c23c019a" d="M 0 3 
C 0.795609 3 1.55874 2.683901 2.12132 2.12132 
C 2.683901 1.55874 3 0.795609 3 0 
C 3 -0.795609 2.683901 -1.55874 2.12132 -2.12132 
C 1.55874 -2.683901 0.795609 -3 0 -3 
C -0.795609 -3 -1.55874 -2.683901 -2.12132 -2.12132 
C -2.683901 -1.55874 -3 -0.795609 -3 0 
C -3 0.795609 -2.683901 1.55874 -2.12132 2.12132 
C -1.55874 2.683901 -0.795609 3 0 3 
z
" style="stroke: #000000"/>
    </defs>
    <g clip-path="url(#p7ead21679c)">
     <use xlink:href="#mf6c23c019a" x="231.805012" y="274.481238" style="stroke: #000000"/>
     <use xlink:href="#mf6c23c019a" x="262.367341" y="263.076281" style="stroke: #000000"/>
     <use xlink:href="#mf6c23c019a" x="332.924515" y="277.563309" style="stroke: #000000"/>
     <use xlink:href="#mf6c23c019a" x="309.547851" y="274.269153" style="stroke: #000000"/>
     <use xlink:href="#mf6c23c019a" x="334.025989" y="264.542918" style="stroke: #000000"/>
     <use xlink:href="#mf6c23c019a" x="262.987347" y="270.103951" style="stroke: #000000"/>
     <use xlink:href="#mf6c23c019a" x="221.118234" y="269.967583" style="stroke: #000000"/>
     <use xlink:href="#mf6c23c019a" x="315.745811" y="263.698689" style="stroke: #000000"/>
     <use xlink:href="#mf6c23c019a" x="391.455621" y="286.718649" style="stroke: #000000"/>
     <use xlink:href="#mf6c23c019a" x="336.214186" y="274.24202" style="stroke: #000000"/>
     <use xlink:href="#mf6c23c019a" x="299.47802" y="270.345278" style="stroke: #000000"/>
     <use xlink:href="#mf6c23c019a" x="318.404057" y="286.105196" style="stroke: #000000"/>
     <use xlink:href="#mf6c23c019a" x="281.533928" y="274.698244" style="stroke: #000000"/>
     <use xlink:href="#mf6c23c019a" x="256.405617" y="270.633086" style="stroke: #000000"/>
     <use xlink:href="#mf6c23c019a" x="342.716176" y="267.753834" style="stroke: #000000"/>
     <use xlink:href="#mf6c23c019a" x="243.054646" y="280.468238" style="stroke: #000000"/>
     <use xlink:href="#mf6c23c019a" x="343.786043" y="270.607336" style="stroke: #000000"/>
     <use xlink:href="#mf6c23c019a" x="287.533236" y="268.608468" style="stroke: #000000"/>
     <use xlink:href="#mf6c23c019a" x="297.211531" y="276.185905" style="stroke: #000000"/>
     <use xlink:href="#mf6c23c019a" x="287.266125" y="277.425856" style="stroke: #000000"/>
     <use xlink:href="#mf6c23c019a" x="229.674056" y="265.085782" style="stroke: #000000"/>
     <use xlink:href="#mf6c23c019a" x="245.63463" y="270.173325" style="stroke: #000000"/>
     <use xlink:href="#mf6c23c019a" x="353.572777" y="264.82775" style="stroke: #000000"/>
     <use xlink:href="#mf6c23c019a" x="273.418754" y="291.062154" style="stroke: #000000"/>
     <use xlink:href="#mf6c23c019a" x="354.952086" y="293.564471" style="stroke: #000000"/>
     <use xlink:href="#mf6c23c019a" x="393.407662" y="276.257671" style="stroke: #000000"/>
     <use xlink:href="#mf6c23c019a" x="287.502198" y="283.046034" style="stroke: #000000"/>
     <use xlink:href="#mf6c23c019a" x="306.53035" y="267.347949" style="stroke: #000000"/>
     <use xlink:href="#mf6c23c019a" x="244.386241" y="278.742026" style="stroke: #000000"/>
     <use xlink:href="#mf6c23c019a" x="387.488196" y="262.047014" style="stroke: #000000"/>
     <use xlink:href="#mf6c23c019a" x="332.024148" y="270.173485" style="stroke: #000000"/>
     <use xlink:href="#mf6c23c019a" x="362.626509" y="264.717626" style="stroke: #000000"/>
     <use xlink:href="#mf6c23c019a" x="382.879939" y="275.342306" style="stroke: #000000"/>
     <use xlink:href="#mf6c23c019a" x="360.458805" y="264.077914" style="stroke: #000000"/>
     <use xlink:href="#mf6c23c019a" x="393.894294" y="273.151739" style="stroke: #000000"/>
     <use xlink:href="#mf6c23c019a" x="351.826875" y="287.917944" style="stroke: #000000"/>
     <use xlink:href="#mf6c23c019a" x="347.683557" y="269.261108" style="stroke: #000000"/>
     <use xlink:href="#mf6c23c019a" x="209.481598" y="271.554754" style="stroke: #000000"/>
     <use xlink:href="#mf6c23c019a" x="227.168167" y="273.195766" style="stroke: #000000"/>
     <use xlink:href="#mf6c23c019a" x="300.065803" y="267.407177" style="stroke: #000000"/>
     <use xlink:href="#mf6c23c019a" x="276.813257" y="268.428266" style="stroke: #000000"/>
     <use xlink:href="#mf6c23c019a" x="260.129065" y="267.801872" style="stroke: #000000"/>
     <use xlink:href="#mf6c23c019a" x="392.243077" y="275.321537" style="stroke: #000000"/>
     <use xlink:href="#mf6c23c019a" x="311.553107" y="278.068765" style="stroke: #000000"/>
     <use xlink:href="#mf6c23c019a" x="392.161744" y="288.931992" style="stroke: #000000"/>
     <use xlink:href="#mf6c23c019a" x="353.467885" y="295.488" style="stroke: #000000"/>
     <use xlink:href="#mf6c23c019a" x="262.293339" y="271.558618" style="stroke: #000000"/>
     <use xlink:href="#mf6c23c019a" x="289.678312" y="268.268036" style="stroke: #000000"/>
     <use xlink:href="#mf6c23c019a" x="206.684155" y="269.005736" style="stroke: #000000"/>
     <use xlink:href="#mf6c23c019a" x="207.696143" y="271.22684" style="stroke: #000000"/>
     <use xlink:href="#mf6c23c019a" x="373.500375" y="270.431526" style="stroke: #000000"/>
     <use xlink:href="#mf6c23c019a" x="281.010878" y="281.907009" style="stroke: #000000"/>
     <use xlink:href="#mf6c23c019a" x="244.202619" y="270.78291" style="stroke: #000000"/>
     <use xlink:href="#mf6c23c019a" x="351.397237" y="282.31919" style="stroke: #000000"/>
     <use xlink:href="#mf6c23c019a" x="288.713398" y="263.171744" style="stroke: #000000"/>
     <use xlink:href="#mf6c23c019a" x="200.921397" y="261.767228" style="stroke: #000000"/>
     <use xlink:href="#mf6c23c019a" x="352.005573" y="281.349151" style="stroke: #000000"/>
     <use xlink:href="#mf6c23c019a" x="398.12456" y="266.697425" style="stroke: #000000"/>
     <use xlink:href="#mf6c23c019a" x="350.222511" y="278.759147" style="stroke: #000000"/>
     <use xlink:href="#mf6c23c019a" x="355.812706" y="277.531161" style="stroke: #000000"/>
     <use xlink:href="#mf6c23c019a" x="299.047568" y="267.73365" style="stroke: #000000"/>
     <use xlink:href="#mf6c23c019a" x="333.713222" y="268.632111" style="stroke: #000000"/>
     <use xlink:href="#mf6c23c019a" x="358.496775" y="265.520732" style="stroke: #000000"/>
     <use xlink:href="#mf6c23c019a" x="390.672795" y="271.651963" style="stroke: #000000"/>
     <use xlink:href="#mf6c23c019a" x="199.330602" y="278.684196" style="stroke: #000000"/>
     <use xlink:href="#mf6c23c019a" x="338.663478" y="265.445285" style="stroke: #000000"/>
     <use xlink:href="#mf6c23c019a" x="298.629273" y="271.790955" style="stroke: #000000"/>
     <use xlink:href="#mf6c23c019a" x="285.218478" y="263.479759" style="stroke: #000000"/>
     <use xlink:href="#mf6c23c019a" x="289.560536" y="263.930345" style="stroke: #000000"/>
     <use xlink:href="#mf6c23c019a" x="194.438912" y="268.638177" style="stroke: #000000"/>
     <use xlink:href="#mf6c23c019a" x="346.230109" y="281.680679" style="stroke: #000000"/>
     <use xlink:href="#mf6c23c019a" x="338.726856" y="281.85014" style="stroke: #000000"/>
     <use xlink:href="#mf6c23c019a" x="388.936601" y="261.595077" style="stroke: #000000"/>
     <use xlink:href="#mf6c23c019a" x="192.264868" y="273.118264" style="stroke: #000000"/>
     <use xlink:href="#mf6c23c019a" x="224.865203" y="272.826469" style="stroke: #000000"/>
     <use xlink:href="#mf6c23c019a" x="366.757023" y="268.923923" style="stroke: #000000"/>
     <use xlink:href="#mf6c23c019a" x="250.041886" y="267.745424" style="stroke: #000000"/>
     <use xlink:href="#mf6c23c019a" x="251.636755" y="281.269902" style="stroke: #000000"/>
     <use xlink:href="#mf6c23c019a" x="341.870535" y="278.423536" style="stroke: #000000"/>
     <use xlink:href="#mf6c23c019a" x="250.482032" y="270.072436" style="stroke: #000000"/>
     <use xlink:href="#mf6c23c019a" x="253.64769" y="264.030989" style="stroke: #000000"/>
     <use xlink:href="#mf6c23c019a" x="296.230631" y="286.134528" style="stroke: #000000"/>
     <use xlink:href="#mf6c23c019a" x="316.294523" y="265.067365" style="stroke: #000000"/>
     <use xlink:href="#mf6c23c019a" x="116.199161" y="278.53196" style="stroke: #000000"/>
     <use xlink:href="#mf6c23c019a" x="164.847597" y="274.914709" style="stroke: #000000"/>
     <use xlink:href="#mf6c23c019a" x="158.257503" y="272.148574" style="stroke: #000000"/>
     <use xlink:href="#mf6c23c019a" x="90.510824" y="289.149091" style="stroke: #000000"/>
     <use xlink:href="#mf6c23c019a" x="116.264028" y="288.689738" style="stroke: #000000"/>
     <use xlink:href="#mf6c23c019a" x="76.883167" y="270.373039" style="stroke: #000000"/>
     <use xlink:href="#mf6c23c019a" x="136.405941" y="273.027702" style="stroke: #000000"/>
     <use xlink:href="#mf6c23c019a" x="110.665541" y="275.591608" style="stroke: #000000"/>
     <use xlink:href="#mf6c23c019a" x="87.990481" y="267.136179" style="stroke: #000000"/>
     <use xlink:href="#mf6c23c019a" x="163.99636" y="269.25504" style="stroke: #000000"/>
     <use xlink:href="#mf6c23c019a" x="98.324207" y="261.903906" style="stroke: #000000"/>
     <use xlink:href="#mf6c23c019a" x="155.074483" y="270.568458" style="stroke: #000000"/>
     <use xlink:href="#mf6c23c019a" x="102.717883" y="269.695428" style="stroke: #000000"/>
     <use xlink:href="#mf6c23c019a" x="107.39499" y="267.085525" style="stroke: #000000"/>
     <use xlink:href="#mf6c23c019a" x="94.718339" y="268.201194" style="stroke: #000000"/>
     <use xlink:href="#mf6c23c019a" x="85.664067" y="273.443738" style="stroke: #000000"/>
     <use xlink:href="#mf6c23c019a" x="107.034193" y="268.78729" style="stroke: #000000"/>
     <use xlink:href="#mf6c23c019a" x="85.921909" y="261.844873" style="stroke: #000000"/>
     <use xlink:href="#mf6c23c019a" x="124.025077" y="264.237152" style="stroke: #000000"/>
     <use xlink:href="#mf6c23c019a" x="139.898542" y="272.743703" style="stroke: #000000"/>
     <use xlink:href="#mf6c23c019a" x="160.456703" y="274.409843" style="stroke: #000000"/>
     <use xlink:href="#mf6c23c019a" x="113.295076" y="271.236501" style="stroke: #000000"/>
     <use xlink:href="#mf6c23c019a" x="111.503338" y="285.506413" style="stroke: #000000"/>
     <use xlink:href="#mf6c23c019a" x="114.045213" y="276.132456" style="stroke: #000000"/>
     <use xlink:href="#mf6c23c019a" x="119.394696" y="264.73094" style="stroke: #000000"/>
     <use xlink:href="#mf6c23c019a" x="168.265086" y="267.007011" style="stroke: #000000"/>
     <use xlink:href="#mf6c23c019a" x="100.56181" y="268.462075" style="stroke: #000000"/>
     <use xlink:href="#mf6c23c019a" x="136.940524" y="266.437939" style="stroke: #000000"/>
     <use xlink:href="#mf6c23c019a" x="75.190194" y="268.830617" style="stroke: #000000"/>
     <use xlink:href="#mf6c23c019a" x="80.17372" y="284.511731" style="stroke: #000000"/>
     <use xlink:href="#mf6c23c019a" x="75.922402" y="271.252963" style="stroke: #000000"/>
     <use xlink:href="#mf6c23c019a" x="138.599547" y="268.785511" style="stroke: #000000"/>
     <use xlink:href="#mf6c23c019a" x="127.203409" y="269.988762" style="stroke: #000000"/>
     <use xlink:href="#mf6c23c019a" x="132.579069" y="272.677356" style="stroke: #000000"/>
     <use xlink:href="#mf6c23c019a" x="94.215223" y="268.502353" style="stroke: #000000"/>
     <use xlink:href="#mf6c23c019a" x="109.557478" y="272.143548" style="stroke: #000000"/>
     <use xlink:href="#mf6c23c019a" x="81.722979" y="286.149786" style="stroke: #000000"/>
     <use xlink:href="#mf6c23c019a" x="167.06726" y="268.579587" style="stroke: #000000"/>
     <use xlink:href="#mf6c23c019a" x="83.379616" y="275.702213" style="stroke: #000000"/>
     <use xlink:href="#mf6c23c019a" x="108.855661" y="268.094123" style="stroke: #000000"/>
     <use xlink:href="#mf6c23c019a" x="75.680104" y="270.582736" style="stroke: #000000"/>
     <use xlink:href="#mf6c23c019a" x="105.498455" y="272.448926" style="stroke: #000000"/>
     <use xlink:href="#mf6c23c019a" x="93.063029" y="269.87073" style="stroke: #000000"/>
     <use xlink:href="#mf6c23c019a" x="134.472832" y="279.99878" style="stroke: #000000"/>
     <use xlink:href="#mf6c23c019a" x="91.7608" y="278.397892" style="stroke: #000000"/>
     <use xlink:href="#mf6c23c019a" x="108.879639" y="267.741282" style="stroke: #000000"/>
     <use xlink:href="#mf6c23c019a" x="110.920283" y="270.216068" style="stroke: #000000"/>
     <use xlink:href="#mf6c23c019a" x="94.020039" y="266.322372" style="stroke: #000000"/>
     <use xlink:href="#mf6c23c019a" x="77.283607" y="281.157115" style="stroke: #000000"/>
     <use xlink:href="#mf6c23c019a" x="109.860067" y="271.997154" style="stroke: #000000"/>
     <use xlink:href="#mf6c23c019a" x="147.148232" y="286.376065" style="stroke: #000000"/>
     <use xlink:href="#mf6c23c019a" x="147.468342" y="269.587239" style="stroke: #000000"/>
     <use xlink:href="#mf6c23c019a" x="124.88446" y="281.930499" style="stroke: #000000"/>
     <use xlink:href="#mf6c23c019a" x="107.721206" y="263.958186" style="stroke: #000000"/>
     <use xlink:href="#mf6c23c019a" x="80.000339" y="273.710562" style="stroke: #000000"/>
     <use xlink:href="#mf6c23c019a" x="148.271654" y="266.622202" style="stroke: #000000"/>
     <use xlink:href="#mf6c23c019a" x="105.289997" y="288.93261" style="stroke: #000000"/>
     <use xlink:href="#mf6c23c019a" x="94.34029" y="282.051724" style="stroke: #000000"/>
     <use xlink:href="#mf6c23c019a" x="103.530659" y="270.384738" style="stroke: #000000"/>
     <use xlink:href="#mf6c23c019a" x="106.912324" y="262.154893" style="stroke: #000000"/>
     <use xlink:href="#mf6c23c019a" x="132.903796" y="265.535421" style="stroke: #000000"/>
     <use xlink:href="#mf6c23c019a" x="154.966132" y="282.074266" style="stroke: #000000"/>
     <use xlink:href="#mf6c23c019a" x="93.421095" y="272.135818" style="stroke: #000000"/>
     <use xlink:href="#mf6c23c019a" x="100.959149" y="270.215822" style="stroke: #000000"/>
     <use xlink:href="#mf6c23c019a" x="97.437351" y="263.257315" style="stroke: #000000"/>
     <use xlink:href="#mf6c23c019a" x="131.794454" y="275.551714" style="stroke: #000000"/>
     <use xlink:href="#mf6c23c019a" x="159.423433" y="263.854533" style="stroke: #000000"/>
     <use xlink:href="#mf6c23c019a" x="142.00397" y="266.682177" style="stroke: #000000"/>
     <use xlink:href="#mf6c23c019a" x="96.585363" y="271.766812" style="stroke: #000000"/>
     <use xlink:href="#mf6c23c019a" x="106.182676" y="271.355772" style="stroke: #000000"/>
     <use xlink:href="#mf6c23c019a" x="127.962791" y="262.132868" style="stroke: #000000"/>
     <use xlink:href="#mf6c23c019a" x="168.065238" y="266.656759" style="stroke: #000000"/>
     <use xlink:href="#mf6c23c019a" x="85.853608" y="269.889345" style="stroke: #000000"/>
     <use xlink:href="#mf6c23c019a" x="73.832727" y="276.186501" style="stroke: #000000"/>
     <use xlink:href="#mf6c23c019a" x="93.446458" y="268.908452" style="stroke: #000000"/>
     <use xlink:href="#mf6c23c019a" x="152.367429" y="277.421242" style="stroke: #000000"/>
     <use xlink:href="#mf6c23c019a" x="163.810944" y="268.205794" style="stroke: #000000"/>
     <use xlink:href="#mf6c23c019a" x="98.233913" y="270.90889" style="stroke: #000000"/>
     <use xlink:href="#mf6c23c019a" x="162.738151" y="270.271981" style="stroke: #000000"/>
     <use xlink:href="#mf6c23c019a" x="100.780925" y="279.331723" style="stroke: #000000"/>
     <use xlink:href="#mf6c23c019a" x="132.992205" y="266.887659" style="stroke: #000000"/>
     <use xlink:href="#mf6c23c019a" x="103.699227" y="266.29855" style="stroke: #000000"/>
     <use xlink:href="#mf6c23c019a" x="118.000567" y="268.339502" style="stroke: #000000"/>
     <use xlink:href="#mf6c23c019a" x="147.763484" y="269.749007" style="stroke: #000000"/>
     <use xlink:href="#mf6c23c019a" x="109.301492" y="272.369662" style="stroke: #000000"/>
     <use xlink:href="#mf6c23c019a" x="168.513223" y="269.735724" style="stroke: #000000"/>
     <use xlink:href="#mf6c23c019a" x="145.493657" y="262.332139" style="stroke: #000000"/>
    </g>
   </g>
   <g id="PathCollection_2">
    <defs>
     <path id="m1cc6a5511b" d="M 0 3 
C 0.795609 3 1.55874 2.683901 2.12132 2.12132 
C 2.683901 1.55874 3 0.795609 3 0 
C 3 -0.795609 2.683901 -1.55874 2.12132 -2.12132 
C 1.55874 -2.683901 0.795609 -3 0 -3 
C -0.795609 -3 -1.55874 -2.683901 -2.12132 -2.12132 
C -2.683901 -1.55874 -3 -0.795609 -3 0 
C -3 0.795609 -2.683901 1.55874 -2.12132 2.12132 
C -1.55874 2.683901 -0.795609 3 0 3 
z
" style="stroke: #000000"/>
    </defs>
    <g clip-path="url(#p7ead21679c)">
     <use xlink:href="#m1cc6a5511b" x="115.983083" y="104.759762" style="fill: #ffffff; stroke: #000000"/>
     <use xlink:href="#m1cc6a5511b" x="127.395615" y="53.568" style="fill: #ffffff; stroke: #000000"/>
     <use xlink:href="#m1cc6a5511b" x="117.383808" y="68.270795" style="fill: #ffffff; stroke: #000000"/>
     <use xlink:href="#m1cc6a5511b" x="111.430899" y="90.1429" style="fill: #ffffff; stroke: #000000"/>
     <use xlink:href="#m1cc6a5511b" x="121.819278" y="106.946722" style="fill: #ffffff; stroke: #000000"/>
     <use xlink:href="#m1cc6a5511b" x="146.210758" y="98.211477" style="fill: #ffffff; stroke: #000000"/>
     <use xlink:href="#m1cc6a5511b" x="133.207727" y="88.476613" style="fill: #ffffff; stroke: #000000"/>
     <use xlink:href="#m1cc6a5511b" x="103.455936" y="110.613199" style="fill: #ffffff; stroke: #000000"/>
     <use xlink:href="#m1cc6a5511b" x="137.978637" y="85.126103" style="fill: #ffffff; stroke: #000000"/>
     <use xlink:href="#m1cc6a5511b" x="122.911127" y="74.171673" style="fill: #ffffff; stroke: #000000"/>
     <use xlink:href="#m1cc6a5511b" x="293.137597" y="253.205413" style="fill: #ffffff; stroke: #000000"/>
     <use xlink:href="#m1cc6a5511b" x="311.956718" y="260.304698" style="fill: #ffffff; stroke: #000000"/>
     <use xlink:href="#m1cc6a5511b" x="304.137395" y="248.843835" style="fill: #ffffff; stroke: #000000"/>
     <use xlink:href="#m1cc6a5511b" x="349.994264" y="258.944687" style="fill: #ffffff; stroke: #000000"/>
     <use xlink:href="#m1cc6a5511b" x="244.724245" y="256.191506" style="fill: #ffffff; stroke: #000000"/>
     <use xlink:href="#m1cc6a5511b" x="238.198319" y="259.191014" style="fill: #ffffff; stroke: #000000"/>
     <use xlink:href="#m1cc6a5511b" x="270.172606" y="259.636012" style="fill: #ffffff; stroke: #000000"/>
     <use xlink:href="#m1cc6a5511b" x="398.487273" y="256.56419" style="fill: #ffffff; stroke: #000000"/>
     <use xlink:href="#m1cc6a5511b" x="343.575601" y="259.813631" style="fill: #ffffff; stroke: #000000"/>
     <use xlink:href="#m1cc6a5511b" x="331.92741" y="259.925526" style="fill: #ffffff; stroke: #000000"/>
     <use xlink:href="#m1cc6a5511b" x="374.768429" y="259.500163" style="fill: #ffffff; stroke: #000000"/>
     <use xlink:href="#m1cc6a5511b" x="289.407462" y="257.161355" style="fill: #ffffff; stroke: #000000"/>
     <use xlink:href="#m1cc6a5511b" x="229.386869" y="260.442434" style="fill: #ffffff; stroke: #000000"/>
     <use xlink:href="#m1cc6a5511b" x="248.942657" y="255.457769" style="fill: #ffffff; stroke: #000000"/>
     <use xlink:href="#m1cc6a5511b" x="356.575711" y="258.426496" style="fill: #ffffff; stroke: #000000"/>
     <use xlink:href="#m1cc6a5511b" x="357.009232" y="257.388804" style="fill: #ffffff; stroke: #000000"/>
     <use xlink:href="#m1cc6a5511b" x="294.320013" y="253.786489" style="fill: #ffffff; stroke: #000000"/>
     <use xlink:href="#m1cc6a5511b" x="108.021302" y="256.564308" style="fill: #ffffff; stroke: #000000"/>
     <use xlink:href="#m1cc6a5511b" x="131.628199" y="259.029283" style="fill: #ffffff; stroke: #000000"/>
     <use xlink:href="#m1cc6a5511b" x="97.611864" y="257.795471" style="fill: #ffffff; stroke: #000000"/>
     <use xlink:href="#m1cc6a5511b" x="139.455969" y="229.723424" style="fill: #ffffff; stroke: #000000"/>
     <use xlink:href="#m1cc6a5511b" x="164.533997" y="260.635052" style="fill: #ffffff; stroke: #000000"/>
     <use xlink:href="#m1cc6a5511b" x="82.337" y="261.090614" style="fill: #ffffff; stroke: #000000"/>
     <use xlink:href="#m1cc6a5511b" x="78.020947" y="247.816476" style="fill: #ffffff; stroke: #000000"/>
     <use xlink:href="#m1cc6a5511b" x="136.616741" y="247.053404" style="fill: #ffffff; stroke: #000000"/>
     <use xlink:href="#m1cc6a5511b" x="79.539632" y="260.005263" style="fill: #ffffff; stroke: #000000"/>
     <use xlink:href="#m1cc6a5511b" x="128.196906" y="260.914583" style="fill: #ffffff; stroke: #000000"/>
     <use xlink:href="#m1cc6a5511b" x="134.531194" y="258.762969" style="fill: #ffffff; stroke: #000000"/>
     <use xlink:href="#m1cc6a5511b" x="129.876719" y="260.513177" style="fill: #ffffff; stroke: #000000"/>
     <use xlink:href="#m1cc6a5511b" x="150.82719" y="260.819466" style="fill: #ffffff; stroke: #000000"/>
    </g>
   </g>
   <g id="matplotlib.axis_1">
    <g id="xtick_1">
     <g id="line2d_1">
      <defs>
       <path id="mf4f4b372df" d="M 0 0 
L 0 3.5 
" style="stroke: #000000; stroke-width: 0.8"/>
      </defs>
      <g>
       <use xlink:href="#mf4f4b372df" x="73.652419" y="307.584" style="stroke: #000000; stroke-width: 0.8"/>
      </g>
     </g>
     <g id="text_1">
      <!-- 0 -->
      <g transform="translate(70.471169 322.182437) scale(0.1 -0.1)">
       <defs>
        <path id="DejaVuSans-30" d="M 2034 4250 
Q 1547 4250 1301 3770 
Q 1056 3291 1056 2328 
Q 1056 1369 1301 889 
Q 1547 409 2034 409 
Q 2525 409 2770 889 
Q 3016 1369 3016 2328 
Q 3016 3291 2770 3770 
Q 2525 4250 2034 4250 
z
M 2034 4750 
Q 2819 4750 3233 4129 
Q 3647 3509 3647 2328 
Q 3647 1150 3233 529 
Q 2819 -91 2034 -91 
Q 1250 -91 836 529 
Q 422 1150 422 2328 
Q 422 3509 836 4129 
Q 1250 4750 2034 4750 
z
" transform="scale(0.015625)"/>
       </defs>
       <use xlink:href="#DejaVuSans-30"/>
      </g>
     </g>
    </g>
    <g id="xtick_2">
     <g id="line2d_2">
      <g>
       <use xlink:href="#mf4f4b372df" x="121.464816" y="307.584" style="stroke: #000000; stroke-width: 0.8"/>
      </g>
     </g>
     <g id="text_2">
      <!-- 25 -->
      <g transform="translate(115.102316 322.182437) scale(0.1 -0.1)">
       <defs>
        <path id="DejaVuSans-32" d="M 1228 531 
L 3431 531 
L 3431 0 
L 469 0 
L 469 531 
Q 828 903 1448 1529 
Q 2069 2156 2228 2338 
Q 2531 2678 2651 2914 
Q 2772 3150 2772 3378 
Q 2772 3750 2511 3984 
Q 2250 4219 1831 4219 
Q 1534 4219 1204 4116 
Q 875 4013 500 3803 
L 500 4441 
Q 881 4594 1212 4672 
Q 1544 4750 1819 4750 
Q 2544 4750 2975 4387 
Q 3406 4025 3406 3419 
Q 3406 3131 3298 2873 
Q 3191 2616 2906 2266 
Q 2828 2175 2409 1742 
Q 1991 1309 1228 531 
z
" transform="scale(0.015625)"/>
        <path id="DejaVuSans-35" d="M 691 4666 
L 3169 4666 
L 3169 4134 
L 1269 4134 
L 1269 2991 
Q 1406 3038 1543 3061 
Q 1681 3084 1819 3084 
Q 2600 3084 3056 2656 
Q 3513 2228 3513 1497 
Q 3513 744 3044 326 
Q 2575 -91 1722 -91 
Q 1428 -91 1123 -41 
Q 819 9 494 109 
L 494 744 
Q 775 591 1075 516 
Q 1375 441 1709 441 
Q 2250 441 2565 725 
Q 2881 1009 2881 1497 
Q 2881 1984 2565 2268 
Q 2250 2553 1709 2553 
Q 1456 2553 1204 2497 
Q 953 2441 691 2322 
L 691 4666 
z
" transform="scale(0.015625)"/>
       </defs>
       <use xlink:href="#DejaVuSans-32"/>
       <use xlink:href="#DejaVuSans-35" x="63.623047"/>
      </g>
     </g>
    </g>
    <g id="xtick_3">
     <g id="line2d_3">
      <g>
       <use xlink:href="#mf4f4b372df" x="169.277214" y="307.584" style="stroke: #000000; stroke-width: 0.8"/>
      </g>
     </g>
     <g id="text_3">
      <!-- 50 -->
      <g transform="translate(162.914714 322.182437) scale(0.1 -0.1)">
       <use xlink:href="#DejaVuSans-35"/>
       <use xlink:href="#DejaVuSans-30" x="63.623047"/>
      </g>
     </g>
    </g>
    <g id="xtick_4">
     <g id="line2d_4">
      <g>
       <use xlink:href="#mf4f4b372df" x="217.089611" y="307.584" style="stroke: #000000; stroke-width: 0.8"/>
      </g>
     </g>
     <g id="text_4">
      <!-- 75 -->
      <g transform="translate(210.727111 322.182437) scale(0.1 -0.1)">
       <defs>
        <path id="DejaVuSans-37" d="M 525 4666 
L 3525 4666 
L 3525 4397 
L 1831 0 
L 1172 0 
L 2766 4134 
L 525 4134 
L 525 4666 
z
" transform="scale(0.015625)"/>
       </defs>
       <use xlink:href="#DejaVuSans-37"/>
       <use xlink:href="#DejaVuSans-35" x="63.623047"/>
      </g>
     </g>
    </g>
    <g id="xtick_5">
     <g id="line2d_5">
      <g>
       <use xlink:href="#mf4f4b372df" x="264.902009" y="307.584" style="stroke: #000000; stroke-width: 0.8"/>
      </g>
     </g>
     <g id="text_5">
      <!-- 100 -->
      <g transform="translate(255.358259 322.182437) scale(0.1 -0.1)">
       <defs>
        <path id="DejaVuSans-31" d="M 794 531 
L 1825 531 
L 1825 4091 
L 703 3866 
L 703 4441 
L 1819 4666 
L 2450 4666 
L 2450 531 
L 3481 531 
L 3481 0 
L 794 0 
L 794 531 
z
" transform="scale(0.015625)"/>
       </defs>
       <use xlink:href="#DejaVuSans-31"/>
       <use xlink:href="#DejaVuSans-30" x="63.623047"/>
       <use xlink:href="#DejaVuSans-30" x="127.246094"/>
      </g>
     </g>
    </g>
    <g id="xtick_6">
     <g id="line2d_6">
      <g>
       <use xlink:href="#mf4f4b372df" x="312.714406" y="307.584" style="stroke: #000000; stroke-width: 0.8"/>
      </g>
     </g>
     <g id="text_6">
      <!-- 125 -->
      <g transform="translate(303.170656 322.182437) scale(0.1 -0.1)">
       <use xlink:href="#DejaVuSans-31"/>
       <use xlink:href="#DejaVuSans-32" x="63.623047"/>
       <use xlink:href="#DejaVuSans-35" x="127.246094"/>
      </g>
     </g>
    </g>
    <g id="xtick_7">
     <g id="line2d_7">
      <g>
       <use xlink:href="#mf4f4b372df" x="360.526803" y="307.584" style="stroke: #000000; stroke-width: 0.8"/>
      </g>
     </g>
     <g id="text_7">
      <!-- 150 -->
      <g transform="translate(350.983053 322.182437) scale(0.1 -0.1)">
       <use xlink:href="#DejaVuSans-31"/>
       <use xlink:href="#DejaVuSans-35" x="63.623047"/>
       <use xlink:href="#DejaVuSans-30" x="127.246094"/>
      </g>
     </g>
    </g>
    <g id="xtick_8">
     <g id="line2d_8">
      <g>
       <use xlink:href="#mf4f4b372df" x="408.339201" y="307.584" style="stroke: #000000; stroke-width: 0.8"/>
      </g>
     </g>
     <g id="text_8">
      <!-- 175 -->
      <g transform="translate(398.795451 322.182437) scale(0.1 -0.1)">
       <use xlink:href="#DejaVuSans-31"/>
       <use xlink:href="#DejaVuSans-37" x="63.623047"/>
       <use xlink:href="#DejaVuSans-35" x="127.246094"/>
      </g>
     </g>
    </g>
    <g id="text_9">
     <!-- Time -->
     <g transform="translate(390.252813 335.860562) scale(0.1 -0.1)">
      <defs>
       <path id="DejaVuSans-54" d="M -19 4666 
L 3928 4666 
L 3928 4134 
L 2272 4134 
L 2272 0 
L 1638 0 
L 1638 4134 
L -19 4134 
L -19 4666 
z
" transform="scale(0.015625)"/>
       <path id="DejaVuSans-69" d="M 603 3500 
L 1178 3500 
L 1178 0 
L 603 0 
L 603 3500 
z
M 603 4863 
L 1178 4863 
L 1178 4134 
L 603 4134 
L 603 4863 
z
" transform="scale(0.015625)"/>
       <path id="DejaVuSans-6d" d="M 3328 2828 
Q 3544 3216 3844 3400 
Q 4144 3584 4550 3584 
Q 5097 3584 5394 3201 
Q 5691 2819 5691 2113 
L 5691 0 
L 5113 0 
L 5113 2094 
Q 5113 2597 4934 2840 
Q 4756 3084 4391 3084 
Q 3944 3084 3684 2787 
Q 3425 2491 3425 1978 
L 3425 0 
L 2847 0 
L 2847 2094 
Q 2847 2600 2669 2842 
Q 2491 3084 2119 3084 
Q 1678 3084 1418 2786 
Q 1159 2488 1159 1978 
L 1159 0 
L 581 0 
L 581 3500 
L 1159 3500 
L 1159 2956 
Q 1356 3278 1631 3431 
Q 1906 3584 2284 3584 
Q 2666 3584 2933 3390 
Q 3200 3197 3328 2828 
z
" transform="scale(0.015625)"/>
       <path id="DejaVuSans-65" d="M 3597 1894 
L 3597 1613 
L 953 1613 
Q 991 1019 1311 708 
Q 1631 397 2203 397 
Q 2534 397 2845 478 
Q 3156 559 3463 722 
L 3463 178 
Q 3153 47 2828 -22 
Q 2503 -91 2169 -91 
Q 1331 -91 842 396 
Q 353 884 353 1716 
Q 353 2575 817 3079 
Q 1281 3584 2069 3584 
Q 2775 3584 3186 3129 
Q 3597 2675 3597 1894 
z
M 3022 2063 
Q 3016 2534 2758 2815 
Q 2500 3097 2075 3097 
Q 1594 3097 1305 2825 
Q 1016 2553 972 2059 
L 3022 2063 
z
" transform="scale(0.015625)"/>
      </defs>
      <use xlink:href="#DejaVuSans-54"/>
      <use xlink:href="#DejaVuSans-69" x="57.958984"/>
      <use xlink:href="#DejaVuSans-6d" x="85.742188"/>
      <use xlink:href="#DejaVuSans-65" x="183.154297"/>
     </g>
    </g>
   </g>
   <g id="matplotlib.axis_2">
    <g id="ytick_1">
     <g id="line2d_9">
      <defs>
       <path id="m0ceab8ecc2" d="M 0 0 
L -3.5 0 
" style="stroke: #000000; stroke-width: 0.8"/>
      </defs>
      <g>
       <use xlink:href="#m0ceab8ecc2" x="57.6" y="270.367595" style="stroke: #000000; stroke-width: 0.8"/>
      </g>
     </g>
     <g id="text_10">
      <!-- 100 -->
      <g transform="translate(31.5125 274.166814) scale(0.1 -0.1)">
       <use xlink:href="#DejaVuSans-31"/>
       <use xlink:href="#DejaVuSans-30" x="63.623047"/>
       <use xlink:href="#DejaVuSans-30" x="127.246094"/>
      </g>
     </g>
    </g>
    <g id="ytick_2">
     <g id="line2d_10">
      <g>
       <use xlink:href="#m0ceab8ecc2" x="57.6" y="232.936128" style="stroke: #000000; stroke-width: 0.8"/>
      </g>
     </g>
     <g id="text_11">
      <!-- 120 -->
      <g transform="translate(31.5125 236.735347) scale(0.1 -0.1)">
       <use xlink:href="#DejaVuSans-31"/>
       <use xlink:href="#DejaVuSans-32" x="63.623047"/>
       <use xlink:href="#DejaVuSans-30" x="127.246094"/>
      </g>
     </g>
    </g>
    <g id="ytick_3">
     <g id="line2d_11">
      <g>
       <use xlink:href="#m0ceab8ecc2" x="57.6" y="195.504662" style="stroke: #000000; stroke-width: 0.8"/>
      </g>
     </g>
     <g id="text_12">
      <!-- 140 -->
      <g transform="translate(31.5125 199.30388) scale(0.1 -0.1)">
       <defs>
        <path id="DejaVuSans-34" d="M 2419 4116 
L 825 1625 
L 2419 1625 
L 2419 4116 
z
M 2253 4666 
L 3047 4666 
L 3047 1625 
L 3713 1625 
L 3713 1100 
L 3047 1100 
L 3047 0 
L 2419 0 
L 2419 1100 
L 313 1100 
L 313 1709 
L 2253 4666 
z
" transform="scale(0.015625)"/>
       </defs>
       <use xlink:href="#DejaVuSans-31"/>
       <use xlink:href="#DejaVuSans-34" x="63.623047"/>
       <use xlink:href="#DejaVuSans-30" x="127.246094"/>
      </g>
     </g>
    </g>
    <g id="ytick_4">
     <g id="line2d_12">
      <g>
       <use xlink:href="#m0ceab8ecc2" x="57.6" y="158.073195" style="stroke: #000000; stroke-width: 0.8"/>
      </g>
     </g>
     <g id="text_13">
      <!-- 160 -->
      <g transform="translate(31.5125 161.872413) scale(0.1 -0.1)">
       <defs>
        <path id="DejaVuSans-36" d="M 2113 2584 
Q 1688 2584 1439 2293 
Q 1191 2003 1191 1497 
Q 1191 994 1439 701 
Q 1688 409 2113 409 
Q 2538 409 2786 701 
Q 3034 994 3034 1497 
Q 3034 2003 2786 2293 
Q 2538 2584 2113 2584 
z
M 3366 4563 
L 3366 3988 
Q 3128 4100 2886 4159 
Q 2644 4219 2406 4219 
Q 1781 4219 1451 3797 
Q 1122 3375 1075 2522 
Q 1259 2794 1537 2939 
Q 1816 3084 2150 3084 
Q 2853 3084 3261 2657 
Q 3669 2231 3669 1497 
Q 3669 778 3244 343 
Q 2819 -91 2113 -91 
Q 1303 -91 875 529 
Q 447 1150 447 2328 
Q 447 3434 972 4092 
Q 1497 4750 2381 4750 
Q 2619 4750 2861 4703 
Q 3103 4656 3366 4563 
z
" transform="scale(0.015625)"/>
       </defs>
       <use xlink:href="#DejaVuSans-31"/>
       <use xlink:href="#DejaVuSans-36" x="63.623047"/>
       <use xlink:href="#DejaVuSans-30" x="127.246094"/>
      </g>
     </g>
    </g>
    <g id="ytick_5">
     <g id="line2d_13">
      <g>
       <use xlink:href="#m0ceab8ecc2" x="57.6" y="120.641728" style="stroke: #000000; stroke-width: 0.8"/>
      </g>
     </g>
     <g id="text_14">
      <!-- 180 -->
      <g transform="translate(31.5125 124.440946) scale(0.1 -0.1)">
       <defs>
        <path id="DejaVuSans-38" d="M 2034 2216 
Q 1584 2216 1326 1975 
Q 1069 1734 1069 1313 
Q 1069 891 1326 650 
Q 1584 409 2034 409 
Q 2484 409 2743 651 
Q 3003 894 3003 1313 
Q 3003 1734 2745 1975 
Q 2488 2216 2034 2216 
z
M 1403 2484 
Q 997 2584 770 2862 
Q 544 3141 544 3541 
Q 544 4100 942 4425 
Q 1341 4750 2034 4750 
Q 2731 4750 3128 4425 
Q 3525 4100 3525 3541 
Q 3525 3141 3298 2862 
Q 3072 2584 2669 2484 
Q 3125 2378 3379 2068 
Q 3634 1759 3634 1313 
Q 3634 634 3220 271 
Q 2806 -91 2034 -91 
Q 1263 -91 848 271 
Q 434 634 434 1313 
Q 434 1759 690 2068 
Q 947 2378 1403 2484 
z
M 1172 3481 
Q 1172 3119 1398 2916 
Q 1625 2713 2034 2713 
Q 2441 2713 2670 2916 
Q 2900 3119 2900 3481 
Q 2900 3844 2670 4047 
Q 2441 4250 2034 4250 
Q 1625 4250 1398 4047 
Q 1172 3844 1172 3481 
z
" transform="scale(0.015625)"/>
       </defs>
       <use xlink:href="#DejaVuSans-31"/>
       <use xlink:href="#DejaVuSans-38" x="63.623047"/>
       <use xlink:href="#DejaVuSans-30" x="127.246094"/>
      </g>
     </g>
    </g>
    <g id="ytick_6">
     <g id="line2d_14">
      <g>
       <use xlink:href="#m0ceab8ecc2" x="57.6" y="83.210261" style="stroke: #000000; stroke-width: 0.8"/>
      </g>
     </g>
     <g id="text_15">
      <!-- 200 -->
      <g transform="translate(31.5125 87.00948) scale(0.1 -0.1)">
       <use xlink:href="#DejaVuSans-32"/>
       <use xlink:href="#DejaVuSans-30" x="63.623047"/>
       <use xlink:href="#DejaVuSans-30" x="127.246094"/>
      </g>
     </g>
    </g>
    <g id="ytick_7">
     <g id="line2d_15">
      <g>
       <use xlink:href="#m0ceab8ecc2" x="57.6" y="45.778794" style="stroke: #000000; stroke-width: 0.8"/>
      </g>
     </g>
     <g id="text_16">
      <!-- 220 -->
      <g transform="translate(31.5125 49.578013) scale(0.1 -0.1)">
       <use xlink:href="#DejaVuSans-32"/>
       <use xlink:href="#DejaVuSans-32" x="63.623047"/>
       <use xlink:href="#DejaVuSans-30" x="127.246094"/>
      </g>
     </g>
    </g>
    <g id="text_17">
     <!-- Observed value -->
     <g transform="translate(25.432812 120.079813) rotate(-90) scale(0.1 -0.1)">
      <defs>
       <path id="DejaVuSans-4f" d="M 2522 4238 
Q 1834 4238 1429 3725 
Q 1025 3213 1025 2328 
Q 1025 1447 1429 934 
Q 1834 422 2522 422 
Q 3209 422 3611 934 
Q 4013 1447 4013 2328 
Q 4013 3213 3611 3725 
Q 3209 4238 2522 4238 
z
M 2522 4750 
Q 3503 4750 4090 4092 
Q 4678 3434 4678 2328 
Q 4678 1225 4090 567 
Q 3503 -91 2522 -91 
Q 1538 -91 948 565 
Q 359 1222 359 2328 
Q 359 3434 948 4092 
Q 1538 4750 2522 4750 
z
" transform="scale(0.015625)"/>
       <path id="DejaVuSans-62" d="M 3116 1747 
Q 3116 2381 2855 2742 
Q 2594 3103 2138 3103 
Q 1681 3103 1420 2742 
Q 1159 2381 1159 1747 
Q 1159 1113 1420 752 
Q 1681 391 2138 391 
Q 2594 391 2855 752 
Q 3116 1113 3116 1747 
z
M 1159 2969 
Q 1341 3281 1617 3432 
Q 1894 3584 2278 3584 
Q 2916 3584 3314 3078 
Q 3713 2572 3713 1747 
Q 3713 922 3314 415 
Q 2916 -91 2278 -91 
Q 1894 -91 1617 61 
Q 1341 213 1159 525 
L 1159 0 
L 581 0 
L 581 4863 
L 1159 4863 
L 1159 2969 
z
" transform="scale(0.015625)"/>
       <path id="DejaVuSans-73" d="M 2834 3397 
L 2834 2853 
Q 2591 2978 2328 3040 
Q 2066 3103 1784 3103 
Q 1356 3103 1142 2972 
Q 928 2841 928 2578 
Q 928 2378 1081 2264 
Q 1234 2150 1697 2047 
L 1894 2003 
Q 2506 1872 2764 1633 
Q 3022 1394 3022 966 
Q 3022 478 2636 193 
Q 2250 -91 1575 -91 
Q 1294 -91 989 -36 
Q 684 19 347 128 
L 347 722 
Q 666 556 975 473 
Q 1284 391 1588 391 
Q 1994 391 2212 530 
Q 2431 669 2431 922 
Q 2431 1156 2273 1281 
Q 2116 1406 1581 1522 
L 1381 1569 
Q 847 1681 609 1914 
Q 372 2147 372 2553 
Q 372 3047 722 3315 
Q 1072 3584 1716 3584 
Q 2034 3584 2315 3537 
Q 2597 3491 2834 3397 
z
" transform="scale(0.015625)"/>
       <path id="DejaVuSans-72" d="M 2631 2963 
Q 2534 3019 2420 3045 
Q 2306 3072 2169 3072 
Q 1681 3072 1420 2755 
Q 1159 2438 1159 1844 
L 1159 0 
L 581 0 
L 581 3500 
L 1159 3500 
L 1159 2956 
Q 1341 3275 1631 3429 
Q 1922 3584 2338 3584 
Q 2397 3584 2469 3576 
Q 2541 3569 2628 3553 
L 2631 2963 
z
" transform="scale(0.015625)"/>
       <path id="DejaVuSans-76" d="M 191 3500 
L 800 3500 
L 1894 563 
L 2988 3500 
L 3597 3500 
L 2284 0 
L 1503 0 
L 191 3500 
z
" transform="scale(0.015625)"/>
       <path id="DejaVuSans-64" d="M 2906 2969 
L 2906 4863 
L 3481 4863 
L 3481 0 
L 2906 0 
L 2906 525 
Q 2725 213 2448 61 
Q 2172 -91 1784 -91 
Q 1150 -91 751 415 
Q 353 922 353 1747 
Q 353 2572 751 3078 
Q 1150 3584 1784 3584 
Q 2172 3584 2448 3432 
Q 2725 3281 2906 2969 
z
M 947 1747 
Q 947 1113 1208 752 
Q 1469 391 1925 391 
Q 2381 391 2643 752 
Q 2906 1113 2906 1747 
Q 2906 2381 2643 2742 
Q 2381 3103 1925 3103 
Q 1469 3103 1208 2742 
Q 947 2381 947 1747 
z
" transform="scale(0.015625)"/>
       <path id="DejaVuSans-20" transform="scale(0.015625)"/>
       <path id="DejaVuSans-61" d="M 2194 1759 
Q 1497 1759 1228 1600 
Q 959 1441 959 1056 
Q 959 750 1161 570 
Q 1363 391 1709 391 
Q 2188 391 2477 730 
Q 2766 1069 2766 1631 
L 2766 1759 
L 2194 1759 
z
M 3341 1997 
L 3341 0 
L 2766 0 
L 2766 531 
Q 2569 213 2275 61 
Q 1981 -91 1556 -91 
Q 1019 -91 701 211 
Q 384 513 384 1019 
Q 384 1609 779 1909 
Q 1175 2209 1959 2209 
L 2766 2209 
L 2766 2266 
Q 2766 2663 2505 2880 
Q 2244 3097 1772 3097 
Q 1472 3097 1187 3025 
Q 903 2953 641 2809 
L 641 3341 
Q 956 3463 1253 3523 
Q 1550 3584 1831 3584 
Q 2591 3584 2966 3190 
Q 3341 2797 3341 1997 
z
" transform="scale(0.015625)"/>
       <path id="DejaVuSans-6c" d="M 603 4863 
L 1178 4863 
L 1178 0 
L 603 0 
L 603 4863 
z
" transform="scale(0.015625)"/>
       <path id="DejaVuSans-75" d="M 544 1381 
L 544 3500 
L 1119 3500 
L 1119 1403 
Q 1119 906 1312 657 
Q 1506 409 1894 409 
Q 2359 409 2629 706 
Q 2900 1003 2900 1516 
L 2900 3500 
L 3475 3500 
L 3475 0 
L 2900 0 
L 2900 538 
Q 2691 219 2414 64 
Q 2138 -91 1772 -91 
Q 1169 -91 856 284 
Q 544 659 544 1381 
z
M 1991 3584 
L 1991 3584 
z
" transform="scale(0.015625)"/>
      </defs>
      <use xlink:href="#DejaVuSans-4f"/>
      <use xlink:href="#DejaVuSans-62" x="78.710938"/>
      <use xlink:href="#DejaVuSans-73" x="142.1875"/>
      <use xlink:href="#DejaVuSans-65" x="194.287109"/>
      <use xlink:href="#DejaVuSans-72" x="255.810547"/>
      <use xlink:href="#DejaVuSans-76" x="296.923828"/>
      <use xlink:href="#DejaVuSans-65" x="356.103516"/>
      <use xlink:href="#DejaVuSans-64" x="417.626953"/>
      <use xlink:href="#DejaVuSans-20" x="481.103516"/>
      <use xlink:href="#DejaVuSans-76" x="512.890625"/>
      <use xlink:href="#DejaVuSans-61" x="572.070312"/>
      <use xlink:href="#DejaVuSans-6c" x="633.349609"/>
      <use xlink:href="#DejaVuSans-75" x="661.132812"/>
      <use xlink:href="#DejaVuSans-65" x="724.511719"/>
     </g>
    </g>
   </g>
   <g id="line2d_16">
    <path d="M 57.6 261.344161 
L 414.72 261.344161 
" clip-path="url(#p7ead21679c)" style="fill: none; stroke: #1f77b4; stroke-width: 1.5; stroke-linecap: square"/>
   </g>
   <g id="patch_3">
    <path d="M 57.6 307.584 
L 57.6 41.472 
" style="fill: none; stroke: #000000; stroke-width: 0.8; stroke-linejoin: miter; stroke-linecap: square"/>
   </g>
   <g id="patch_4">
    <path d="M 414.72 307.584 
L 414.72 41.472 
" style="fill: none; stroke: #000000; stroke-width: 0.8; stroke-linejoin: miter; stroke-linecap: square"/>
   </g>
   <g id="patch_5">
    <path d="M 57.6 307.584 
L 414.72 307.584 
" style="fill: none; stroke: #000000; stroke-width: 0.8; stroke-linejoin: miter; stroke-linecap: square"/>
   </g>
   <g id="patch_6">
    <path d="M 57.6 41.472 
L 414.72 41.472 
" style="fill: none; stroke: #000000; stroke-width: 0.8; stroke-linejoin: miter; stroke-linecap: square"/>
   </g>
   <g id="legend_1">
    <g id="patch_7">
     <path d="M 337.365313 78.82825 
L 407.72 78.82825 
Q 409.72 78.82825 409.72 76.82825 
L 409.72 48.472 
Q 409.72 46.472 407.72 46.472 
L 337.365313 46.472 
Q 335.365313 46.472 335.365313 48.472 
L 335.365313 76.82825 
Q 335.365313 78.82825 337.365313 78.82825 
z
" style="fill: #ffffff; opacity: 0.8; stroke: #cccccc; stroke-linejoin: miter"/>
    </g>
    <g id="PathCollection_3">
     <g>
      <use xlink:href="#mf6c23c019a" x="349.365313" y="55.445437" style="stroke: #000000"/>
     </g>
    </g>
    <g id="text_18">
     <!-- Regular -->
     <g transform="translate(367.365313 58.070437) scale(0.1 -0.1)">
      <defs>
       <path id="DejaVuSans-52" d="M 2841 2188 
Q 3044 2119 3236 1894 
Q 3428 1669 3622 1275 
L 4263 0 
L 3584 0 
L 2988 1197 
Q 2756 1666 2539 1819 
Q 2322 1972 1947 1972 
L 1259 1972 
L 1259 0 
L 628 0 
L 628 4666 
L 2053 4666 
Q 2853 4666 3247 4331 
Q 3641 3997 3641 3322 
Q 3641 2881 3436 2590 
Q 3231 2300 2841 2188 
z
M 1259 4147 
L 1259 2491 
L 2053 2491 
Q 2509 2491 2742 2702 
Q 2975 2913 2975 3322 
Q 2975 3731 2742 3939 
Q 2509 4147 2053 4147 
L 1259 4147 
z
" transform="scale(0.015625)"/>
       <path id="DejaVuSans-67" d="M 2906 1791 
Q 2906 2416 2648 2759 
Q 2391 3103 1925 3103 
Q 1463 3103 1205 2759 
Q 947 2416 947 1791 
Q 947 1169 1205 825 
Q 1463 481 1925 481 
Q 2391 481 2648 825 
Q 2906 1169 2906 1791 
z
M 3481 434 
Q 3481 -459 3084 -895 
Q 2688 -1331 1869 -1331 
Q 1566 -1331 1297 -1286 
Q 1028 -1241 775 -1147 
L 775 -588 
Q 1028 -725 1275 -790 
Q 1522 -856 1778 -856 
Q 2344 -856 2625 -561 
Q 2906 -266 2906 331 
L 2906 616 
Q 2728 306 2450 153 
Q 2172 0 1784 0 
Q 1141 0 747 490 
Q 353 981 353 1791 
Q 353 2603 747 3093 
Q 1141 3584 1784 3584 
Q 2172 3584 2450 3431 
Q 2728 3278 2906 2969 
L 2906 3500 
L 3481 3500 
L 3481 434 
z
" transform="scale(0.015625)"/>
      </defs>
      <use xlink:href="#DejaVuSans-52"/>
      <use xlink:href="#DejaVuSans-65" x="64.982422"/>
      <use xlink:href="#DejaVuSans-67" x="126.505859"/>
      <use xlink:href="#DejaVuSans-75" x="189.982422"/>
      <use xlink:href="#DejaVuSans-6c" x="253.361328"/>
      <use xlink:href="#DejaVuSans-61" x="281.144531"/>
      <use xlink:href="#DejaVuSans-72" x="342.423828"/>
     </g>
    </g>
    <g id="PathCollection_4">
     <g>
      <use xlink:href="#m1cc6a5511b" x="349.365313" y="70.123562" style="fill: #ffffff; stroke: #000000"/>
     </g>
    </g>
    <g id="text_19">
     <!-- Outlier -->
     <g transform="translate(367.365313 72.748562) scale(0.1 -0.1)">
      <defs>
       <path id="DejaVuSans-74" d="M 1172 4494 
L 1172 3500 
L 2356 3500 
L 2356 3053 
L 1172 3053 
L 1172 1153 
Q 1172 725 1289 603 
Q 1406 481 1766 481 
L 2356 481 
L 2356 0 
L 1766 0 
Q 1100 0 847 248 
Q 594 497 594 1153 
L 594 3053 
L 172 3053 
L 172 3500 
L 594 3500 
L 594 4494 
L 1172 4494 
z
" transform="scale(0.015625)"/>
      </defs>
      <use xlink:href="#DejaVuSans-4f"/>
      <use xlink:href="#DejaVuSans-75" x="78.710938"/>
      <use xlink:href="#DejaVuSans-74" x="142.089844"/>
      <use xlink:href="#DejaVuSans-6c" x="181.298828"/>
      <use xlink:href="#DejaVuSans-69" x="209.082031"/>
      <use xlink:href="#DejaVuSans-65" x="236.865234"/>
      <use xlink:href="#DejaVuSans-72" x="298.388672"/>
     </g>
    </g>
   </g>
  </g>
 </g>
 <defs>
  <clipPath id="p7ead21679c">
   <rect x="57.6" y="41.472" width="357.12" height="266.112"/>
  </clipPath>
 </defs>
</svg>
