<?xml version="1.0" encoding="utf-8" standalone="no"?>
<!DOCTYPE svg PUBLIC "-//W3C//DTD SVG 1.1//EN"
  "http://www.w3.org/Graphics/SVG/1.1/DTD/svg11.dtd">
<svg xmlns:xlink="http://www.w3.org/1999/xlink" width="460.8pt" height="345.6pt" viewBox="0 0 460.8 345.6" xmlns="http://www.w3.org/2000/svg" version="1.1">
 <metadata>
  <rdf:RDF xmlns:dc="http://purl.org/dc/elements/1.1/" xmlns:cc="http://creativecommons.org/ns#" xmlns:rdf="http://www.w3.org/1999/02/22-rdf-syntax-ns#">
   <cc:Work>
    <dc:type rdf:resource="http://purl.org/dc/dcmitype/StillImage"/>
    <dc:date>2023-09-07T12:21:35.865615</dc:date>
    <dc:format>image/svg+xml</dc:format>
    <dc:creator>
     <cc:Agent>
      <dc:title>Matplotlib v3.7.1, https://matplotlib.org/</dc:title>
     </cc:Agent>
    </dc:creator>
   </cc:Work>
  </rdf:RDF>
 </metadata>
 <defs>
  <style type="text/css">*{stroke-linejoin: round; stroke-linecap: butt}</style>
 </defs>
 <g id="figure_1">
  <g id="patch_1">
   <path d="M 0 345.6 
L 460.8 345.6 
L 460.8 0 
L 0 0 
z
" style="fill: #ffffff"/>
  </g>
  <g id="axes_1">
   <g id="patch_2">
    <path d="M 57.6 307.584 
L 414.72 307.584 
L 414.72 41.472 
L 57.6 41.472 
z
" style="fill: #ffffff"/>
   </g>
   <g id="PathCollection_1">
    <defs>
     <path id="m6e4fd01725" d="M 0 3 
C 0.795609 3 1.55874 2.683901 2.12132 2.12132 
C 2.683901 1.55874 3 0.795609 3 0 
C 3 -0.795609 2.683901 -1.55874 2.12132 -2.12132 
C 1.55874 -2.683901 0.795609 -3 0 -3 
C -0.795609 -3 -1.55874 -2.683901 -2.12132 -2.12132 
C -2.683901 -1.55874 -3 -0.795609 -3 0 
C -3 0.795609 -2.683901 1.55874 -2.12132 2.12132 
C -1.55874 2.683901 -0.795609 3 0 3 
z
" style="stroke: #000000"/>
    </defs>
    <g clip-path="url(#p8525c897cc)">
     <use xlink:href="#m6e4fd01725" x="309.820598" y="272.907996" style="stroke: #000000"/>
     <use xlink:href="#m6e4fd01725" x="153.329833" y="256.305698" style="stroke: #000000"/>
     <use xlink:href="#m6e4fd01725" x="236.008683" y="249.992469" style="stroke: #000000"/>
     <use xlink:href="#m6e4fd01725" x="247.413038" y="262.676311" style="stroke: #000000"/>
     <use xlink:href="#m6e4fd01725" x="243.66556" y="264.934755" style="stroke: #000000"/>
     <use xlink:href="#m6e4fd01725" x="187.526122" y="275.552242" style="stroke: #000000"/>
     <use xlink:href="#m6e4fd01725" x="150.672562" y="281.65306" style="stroke: #000000"/>
     <use xlink:href="#m6e4fd01725" x="161.029084" y="262.444496" style="stroke: #000000"/>
     <use xlink:href="#m6e4fd01725" x="189.93759" y="275.889796" style="stroke: #000000"/>
     <use xlink:href="#m6e4fd01725" x="384.371932" y="266.300961" style="stroke: #000000"/>
     <use xlink:href="#m6e4fd01725" x="249.299878" y="255.526776" style="stroke: #000000"/>
     <use xlink:href="#m6e4fd01725" x="298.03464" y="265.032937" style="stroke: #000000"/>
     <use xlink:href="#m6e4fd01725" x="168.721677" y="269.673374" style="stroke: #000000"/>
     <use xlink:href="#m6e4fd01725" x="370.184414" y="263.912429" style="stroke: #000000"/>
     <use xlink:href="#m6e4fd01725" x="187.070282" y="254.604627" style="stroke: #000000"/>
     <use xlink:href="#m6e4fd01725" x="360.079498" y="262.676642" style="stroke: #000000"/>
     <use xlink:href="#m6e4fd01725" x="382.50138" y="262.817518" style="stroke: #000000"/>
     <use xlink:href="#m6e4fd01725" x="206.245148" y="268.299709" style="stroke: #000000"/>
     <use xlink:href="#m6e4fd01725" x="189.936334" y="252.3471" style="stroke: #000000"/>
     <use xlink:href="#m6e4fd01725" x="188.57943" y="264.975443" style="stroke: #000000"/>
     <use xlink:href="#m6e4fd01725" x="183.524911" y="266.460627" style="stroke: #000000"/>
     <use xlink:href="#m6e4fd01725" x="329.394318" y="265.526626" style="stroke: #000000"/>
     <use xlink:href="#m6e4fd01725" x="308.949257" y="256.402753" style="stroke: #000000"/>
     <use xlink:href="#m6e4fd01725" x="215.194997" y="266.447812" style="stroke: #000000"/>
     <use xlink:href="#m6e4fd01725" x="251.458775" y="270.625711" style="stroke: #000000"/>
     <use xlink:href="#m6e4fd01725" x="214.733163" y="264.796088" style="stroke: #000000"/>
     <use xlink:href="#m6e4fd01725" x="305.39708" y="261.5706" style="stroke: #000000"/>
     <use xlink:href="#m6e4fd01725" x="271.784563" y="263.179054" style="stroke: #000000"/>
     <use xlink:href="#m6e4fd01725" x="270.856077" y="282.083929" style="stroke: #000000"/>
     <use xlink:href="#m6e4fd01725" x="258.215029" y="258.4787" style="stroke: #000000"/>
     <use xlink:href="#m6e4fd01725" x="398.487273" y="257.398464" style="stroke: #000000"/>
     <use xlink:href="#m6e4fd01725" x="303.098771" y="257.088138" style="stroke: #000000"/>
     <use xlink:href="#m6e4fd01725" x="320.361288" y="244.81344" style="stroke: #000000"/>
     <use xlink:href="#m6e4fd01725" x="386.567871" y="263.525083" style="stroke: #000000"/>
     <use xlink:href="#m6e4fd01725" x="160.162457" y="264.981965" style="stroke: #000000"/>
     <use xlink:href="#m6e4fd01725" x="164.779446" y="256.326026" style="stroke: #000000"/>
     <use xlink:href="#m6e4fd01725" x="209.523012" y="255.263184" style="stroke: #000000"/>
     <use xlink:href="#m6e4fd01725" x="269.177606" y="262.324702" style="stroke: #000000"/>
     <use xlink:href="#m6e4fd01725" x="185.74051" y="256.721572" style="stroke: #000000"/>
     <use xlink:href="#m6e4fd01725" x="393.687246" y="271.914836" style="stroke: #000000"/>
     <use xlink:href="#m6e4fd01725" x="300.302046" y="261.490962" style="stroke: #000000"/>
     <use xlink:href="#m6e4fd01725" x="291.997305" y="266.97801" style="stroke: #000000"/>
     <use xlink:href="#m6e4fd01725" x="163.106301" y="260.082717" style="stroke: #000000"/>
     <use xlink:href="#m6e4fd01725" x="254.794194" y="262.360824" style="stroke: #000000"/>
     <use xlink:href="#m6e4fd01725" x="262.689966" y="247.303892" style="stroke: #000000"/>
     <use xlink:href="#m6e4fd01725" x="350.233573" y="261.768544" style="stroke: #000000"/>
     <use xlink:href="#m6e4fd01725" x="196.562881" y="250.080222" style="stroke: #000000"/>
     <use xlink:href="#m6e4fd01725" x="289.444214" y="271.328216" style="stroke: #000000"/>
     <use xlink:href="#m6e4fd01725" x="314.882651" y="286.100271" style="stroke: #000000"/>
     <use xlink:href="#m6e4fd01725" x="169.015305" y="258.956257" style="stroke: #000000"/>
     <use xlink:href="#m6e4fd01725" x="207.872207" y="256.239812" style="stroke: #000000"/>
     <use xlink:href="#m6e4fd01725" x="182.894563" y="269.067432" style="stroke: #000000"/>
     <use xlink:href="#m6e4fd01725" x="384.346996" y="268.580743" style="stroke: #000000"/>
     <use xlink:href="#m6e4fd01725" x="363.916602" y="290.952277" style="stroke: #000000"/>
     <use xlink:href="#m6e4fd01725" x="366.506758" y="262.004679" style="stroke: #000000"/>
     <use xlink:href="#m6e4fd01725" x="398.292723" y="265.452848" style="stroke: #000000"/>
     <use xlink:href="#m6e4fd01725" x="217.346826" y="265.252737" style="stroke: #000000"/>
     <use xlink:href="#m6e4fd01725" x="258.067596" y="280.678315" style="stroke: #000000"/>
     <use xlink:href="#m6e4fd01725" x="201.326095" y="266.886003" style="stroke: #000000"/>
     <use xlink:href="#m6e4fd01725" x="265.422667" y="258.948507" style="stroke: #000000"/>
     <use xlink:href="#m6e4fd01725" x="320.082652" y="253.527286" style="stroke: #000000"/>
     <use xlink:href="#m6e4fd01725" x="146.464398" y="251.645914" style="stroke: #000000"/>
     <use xlink:href="#m6e4fd01725" x="392.645102" y="265.788672" style="stroke: #000000"/>
     <use xlink:href="#m6e4fd01725" x="149.758486" y="272.36075" style="stroke: #000000"/>
     <use xlink:href="#m6e4fd01725" x="299.874888" y="255.239865" style="stroke: #000000"/>
     <use xlink:href="#m6e4fd01725" x="160.942664" y="260.701413" style="stroke: #000000"/>
     <use xlink:href="#m6e4fd01725" x="234.0919" y="276.625213" style="stroke: #000000"/>
     <use xlink:href="#m6e4fd01725" x="170.333424" y="270.348841" style="stroke: #000000"/>
     <use xlink:href="#m6e4fd01725" x="177.489642" y="259.146059" style="stroke: #000000"/>
     <use xlink:href="#m6e4fd01725" x="364.855237" y="266.937063" style="stroke: #000000"/>
     <use xlink:href="#m6e4fd01725" x="179.067907" y="263.629671" style="stroke: #000000"/>
     <use xlink:href="#m6e4fd01725" x="268.581064" y="257.718357" style="stroke: #000000"/>
     <use xlink:href="#m6e4fd01725" x="334.168847" y="261.588629" style="stroke: #000000"/>
     <use xlink:href="#m6e4fd01725" x="159.505803" y="271.494429" style="stroke: #000000"/>
     <use xlink:href="#m6e4fd01725" x="297.208" y="284.781737" style="stroke: #000000"/>
     <use xlink:href="#m6e4fd01725" x="236.844716" y="266.618354" style="stroke: #000000"/>
     <use xlink:href="#m6e4fd01725" x="272.735565" y="261.934185" style="stroke: #000000"/>
     <use xlink:href="#m6e4fd01725" x="144.492664" y="258.294254" style="stroke: #000000"/>
     <use xlink:href="#m6e4fd01725" x="375.526269" y="250.610762" style="stroke: #000000"/>
     <use xlink:href="#m6e4fd01725" x="147.0883" y="256.832924" style="stroke: #000000"/>
     <use xlink:href="#m6e4fd01725" x="145.017524" y="259.114358" style="stroke: #000000"/>
     <use xlink:href="#m6e4fd01725" x="235.306545" y="257.489848" style="stroke: #000000"/>
     <use xlink:href="#m6e4fd01725" x="249.258557" y="263.033747" style="stroke: #000000"/>
     <use xlink:href="#m6e4fd01725" x="257.724918" y="255.7833" style="stroke: #000000"/>
     <use xlink:href="#m6e4fd01725" x="387.305938" y="264.103968" style="stroke: #000000"/>
     <use xlink:href="#m6e4fd01725" x="344.038743" y="259.959281" style="stroke: #000000"/>
     <use xlink:href="#m6e4fd01725" x="321.669866" y="261.039264" style="stroke: #000000"/>
     <use xlink:href="#m6e4fd01725" x="242.609523" y="259.289417" style="stroke: #000000"/>
     <use xlink:href="#m6e4fd01725" x="177.090287" y="269.826627" style="stroke: #000000"/>
     <use xlink:href="#m6e4fd01725" x="360.431852" y="260.725405" style="stroke: #000000"/>
     <use xlink:href="#m6e4fd01725" x="150.123847" y="263.32788" style="stroke: #000000"/>
     <use xlink:href="#m6e4fd01725" x="172.007433" y="272.396402" style="stroke: #000000"/>
     <use xlink:href="#m6e4fd01725" x="247.840019" y="257.064554" style="stroke: #000000"/>
     <use xlink:href="#m6e4fd01725" x="254.627581" y="260.91796" style="stroke: #000000"/>
     <use xlink:href="#m6e4fd01725" x="396.772961" y="264.230172" style="stroke: #000000"/>
     <use xlink:href="#m6e4fd01725" x="348.75691" y="262.553721" style="stroke: #000000"/>
     <use xlink:href="#m6e4fd01725" x="396.282068" y="254.864979" style="stroke: #000000"/>
     <use xlink:href="#m6e4fd01725" x="149.097221" y="254.768179" style="stroke: #000000"/>
     <use xlink:href="#m6e4fd01725" x="217.522524" y="253.197778" style="stroke: #000000"/>
     <use xlink:href="#m6e4fd01725" x="83.672803" y="274.258635" style="stroke: #000000"/>
     <use xlink:href="#m6e4fd01725" x="75.616418" y="262.325067" style="stroke: #000000"/>
     <use xlink:href="#m6e4fd01725" x="88.186453" y="253.639323" style="stroke: #000000"/>
     <use xlink:href="#m6e4fd01725" x="101.92514" y="265.895323" style="stroke: #000000"/>
     <use xlink:href="#m6e4fd01725" x="113.344277" y="259.336541" style="stroke: #000000"/>
     <use xlink:href="#m6e4fd01725" x="111.4603" y="274.479454" style="stroke: #000000"/>
     <use xlink:href="#m6e4fd01725" x="108.21235" y="268.364329" style="stroke: #000000"/>
     <use xlink:href="#m6e4fd01725" x="110.195259" y="264.217817" style="stroke: #000000"/>
     <use xlink:href="#m6e4fd01725" x="87.765526" y="263.889511" style="stroke: #000000"/>
     <use xlink:href="#m6e4fd01725" x="101.748348" y="272.187417" style="stroke: #000000"/>
     <use xlink:href="#m6e4fd01725" x="80.842614" y="268.625341" style="stroke: #000000"/>
     <use xlink:href="#m6e4fd01725" x="101.878055" y="258.516984" style="stroke: #000000"/>
     <use xlink:href="#m6e4fd01725" x="107.266765" y="259.313941" style="stroke: #000000"/>
     <use xlink:href="#m6e4fd01725" x="109.853954" y="268.084562" style="stroke: #000000"/>
     <use xlink:href="#m6e4fd01725" x="100.024873" y="266.178" style="stroke: #000000"/>
     <use xlink:href="#m6e4fd01725" x="102.931373" y="255.902544" style="stroke: #000000"/>
     <use xlink:href="#m6e4fd01725" x="115.113429" y="261.711841" style="stroke: #000000"/>
     <use xlink:href="#m6e4fd01725" x="77.136244" y="269.671358" style="stroke: #000000"/>
     <use xlink:href="#m6e4fd01725" x="115.646619" y="255.020722" style="stroke: #000000"/>
     <use xlink:href="#m6e4fd01725" x="112.526551" y="251.400436" style="stroke: #000000"/>
     <use xlink:href="#m6e4fd01725" x="108.058888" y="253.872788" style="stroke: #000000"/>
     <use xlink:href="#m6e4fd01725" x="89.835353" y="272.048931" style="stroke: #000000"/>
     <use xlink:href="#m6e4fd01725" x="80.207047" y="277.871246" style="stroke: #000000"/>
     <use xlink:href="#m6e4fd01725" x="97.505055" y="261.817602" style="stroke: #000000"/>
     <use xlink:href="#m6e4fd01725" x="104.876653" y="282.982045" style="stroke: #000000"/>
     <use xlink:href="#m6e4fd01725" x="118.313654" y="257.926271" style="stroke: #000000"/>
     <use xlink:href="#m6e4fd01725" x="88.637331" y="254.479969" style="stroke: #000000"/>
     <use xlink:href="#m6e4fd01725" x="92.094821" y="256.320245" style="stroke: #000000"/>
     <use xlink:href="#m6e4fd01725" x="83.435313" y="277.413844" style="stroke: #000000"/>
     <use xlink:href="#m6e4fd01725" x="82.261605" y="247.46677" style="stroke: #000000"/>
     <use xlink:href="#m6e4fd01725" x="118.288778" y="266.441031" style="stroke: #000000"/>
     <use xlink:href="#m6e4fd01725" x="86.054521" y="265.149778" style="stroke: #000000"/>
     <use xlink:href="#m6e4fd01725" x="75.86149" y="271.561259" style="stroke: #000000"/>
     <use xlink:href="#m6e4fd01725" x="95.863415" y="268.526706" style="stroke: #000000"/>
     <use xlink:href="#m6e4fd01725" x="91.153699" y="267.07221" style="stroke: #000000"/>
     <use xlink:href="#m6e4fd01725" x="117.751007" y="261.487491" style="stroke: #000000"/>
     <use xlink:href="#m6e4fd01725" x="88.298013" y="265.120701" style="stroke: #000000"/>
     <use xlink:href="#m6e4fd01725" x="110.429714" y="253.245901" style="stroke: #000000"/>
     <use xlink:href="#m6e4fd01725" x="111.923261" y="259.016358" style="stroke: #000000"/>
     <use xlink:href="#m6e4fd01725" x="91.4113" y="269.222491" style="stroke: #000000"/>
     <use xlink:href="#m6e4fd01725" x="89.764366" y="279.999675" style="stroke: #000000"/>
     <use xlink:href="#m6e4fd01725" x="96.454138" y="263.568847" style="stroke: #000000"/>
     <use xlink:href="#m6e4fd01725" x="93.134096" y="282.388477" style="stroke: #000000"/>
     <use xlink:href="#m6e4fd01725" x="97.103894" y="248.774542" style="stroke: #000000"/>
     <use xlink:href="#m6e4fd01725" x="105.049143" y="272.538388" style="stroke: #000000"/>
     <use xlink:href="#m6e4fd01725" x="111.105178" y="257.048092" style="stroke: #000000"/>
     <use xlink:href="#m6e4fd01725" x="115.486401" y="258.033889" style="stroke: #000000"/>
     <use xlink:href="#m6e4fd01725" x="106.481151" y="276.414599" style="stroke: #000000"/>
     <use xlink:href="#m6e4fd01725" x="108.828981" y="256.677363" style="stroke: #000000"/>
     <use xlink:href="#m6e4fd01725" x="81.934947" y="272.947189" style="stroke: #000000"/>
     <use xlink:href="#m6e4fd01725" x="87.077881" y="254.977414" style="stroke: #000000"/>
     <use xlink:href="#m6e4fd01725" x="112.755249" y="260.80121" style="stroke: #000000"/>
     <use xlink:href="#m6e4fd01725" x="119.585412" y="263.245128" style="stroke: #000000"/>
     <use xlink:href="#m6e4fd01725" x="85.496241" y="271.332894" style="stroke: #000000"/>
     <use xlink:href="#m6e4fd01725" x="98.525938" y="278.094574" style="stroke: #000000"/>
     <use xlink:href="#m6e4fd01725" x="92.51623" y="253.376042" style="stroke: #000000"/>
     <use xlink:href="#m6e4fd01725" x="95.092269" y="264.586529" style="stroke: #000000"/>
     <use xlink:href="#m6e4fd01725" x="84.134768" y="246.430855" style="stroke: #000000"/>
     <use xlink:href="#m6e4fd01725" x="92.917893" y="269.158461" style="stroke: #000000"/>
     <use xlink:href="#m6e4fd01725" x="89.912821" y="264.672325" style="stroke: #000000"/>
     <use xlink:href="#m6e4fd01725" x="108.981611" y="254.181042" style="stroke: #000000"/>
     <use xlink:href="#m6e4fd01725" x="92.061853" y="276.117632" style="stroke: #000000"/>
     <use xlink:href="#m6e4fd01725" x="73.832727" y="261.717826" style="stroke: #000000"/>
     <use xlink:href="#m6e4fd01725" x="111.966935" y="258.866846" style="stroke: #000000"/>
     <use xlink:href="#m6e4fd01725" x="111.228373" y="271.181511" style="stroke: #000000"/>
     <use xlink:href="#m6e4fd01725" x="96.748059" y="284.118791" style="stroke: #000000"/>
     <use xlink:href="#m6e4fd01725" x="118.741471" y="273.370955" style="stroke: #000000"/>
     <use xlink:href="#m6e4fd01725" x="101.98305" y="248.851438" style="stroke: #000000"/>
     <use xlink:href="#m6e4fd01725" x="90.29139" y="246.310397" style="stroke: #000000"/>
     <use xlink:href="#m6e4fd01725" x="118.377682" y="268.059834" style="stroke: #000000"/>
     <use xlink:href="#m6e4fd01725" x="84.717375" y="269.231312" style="stroke: #000000"/>
     <use xlink:href="#m6e4fd01725" x="118.257058" y="268.824389" style="stroke: #000000"/>
     <use xlink:href="#m6e4fd01725" x="109.054425" y="248.755003" style="stroke: #000000"/>
     <use xlink:href="#m6e4fd01725" x="111.196334" y="264.676729" style="stroke: #000000"/>
     <use xlink:href="#m6e4fd01725" x="87.739626" y="269.897325" style="stroke: #000000"/>
     <use xlink:href="#m6e4fd01725" x="101.353244" y="254.591471" style="stroke: #000000"/>
     <use xlink:href="#m6e4fd01725" x="109.622977" y="269.755386" style="stroke: #000000"/>
     <use xlink:href="#m6e4fd01725" x="105.453751" y="269.133405" style="stroke: #000000"/>
     <use xlink:href="#m6e4fd01725" x="112.956665" y="270.966037" style="stroke: #000000"/>
     <use xlink:href="#m6e4fd01725" x="77.585217" y="270.536199" style="stroke: #000000"/>
     <use xlink:href="#m6e4fd01725" x="101.695867" y="266.138359" style="stroke: #000000"/>
     <use xlink:href="#m6e4fd01725" x="105.297839" y="261.12164" style="stroke: #000000"/>
     <use xlink:href="#m6e4fd01725" x="82.033442" y="271.675279" style="stroke: #000000"/>
     <use xlink:href="#m6e4fd01725" x="84.256374" y="263.726462" style="stroke: #000000"/>
     <use xlink:href="#m6e4fd01725" x="82.316554" y="260.704401" style="stroke: #000000"/>
     <use xlink:href="#m6e4fd01725" x="103.357631" y="259.871091" style="stroke: #000000"/>
     <use xlink:href="#m6e4fd01725" x="110.849193" y="286.181079" style="stroke: #000000"/>
     <use xlink:href="#m6e4fd01725" x="95.530699" y="247.705494" style="stroke: #000000"/>
     <use xlink:href="#m6e4fd01725" x="103.906408" y="271.084316" style="stroke: #000000"/>
     <use xlink:href="#m6e4fd01725" x="79.290732" y="258.508916" style="stroke: #000000"/>
     <use xlink:href="#m6e4fd01725" x="109.501193" y="266.430586" style="stroke: #000000"/>
     <use xlink:href="#m6e4fd01725" x="115.514022" y="275.792306" style="stroke: #000000"/>
    </g>
   </g>
   <g id="PathCollection_2">
    <defs>
     <path id="mdebad4aa3a" d="M 0 3 
C 0.795609 3 1.55874 2.683901 2.12132 2.12132 
C 2.683901 1.55874 3 0.795609 3 0 
C 3 -0.795609 2.683901 -1.55874 2.12132 -2.12132 
C 1.55874 -2.683901 0.795609 -3 0 -3 
C -0.795609 -3 -1.55874 -2.683901 -2.12132 -2.12132 
C -2.683901 -1.55874 -3 -0.795609 -3 0 
C -3 0.795609 -2.683901 1.55874 -2.12132 2.12132 
C -1.55874 2.683901 -0.795609 3 0 3 
z
" style="stroke: #000000"/>
    </defs>
    <g clip-path="url(#p8525c897cc)">
     <use xlink:href="#mdebad4aa3a" x="284.213179" y="86.399439" style="fill: #ffffff; stroke: #000000"/>
     <use xlink:href="#mdebad4aa3a" x="305.684972" y="91.987746" style="fill: #ffffff; stroke: #000000"/>
     <use xlink:href="#mdebad4aa3a" x="273.411709" y="77.993978" style="fill: #ffffff; stroke: #000000"/>
     <use xlink:href="#mdebad4aa3a" x="323.282085" y="73.355308" style="fill: #ffffff; stroke: #000000"/>
     <use xlink:href="#mdebad4aa3a" x="302.800499" y="95.815169" style="fill: #ffffff; stroke: #000000"/>
     <use xlink:href="#mdebad4aa3a" x="293.737336" y="75.4685" style="fill: #ffffff; stroke: #000000"/>
     <use xlink:href="#mdebad4aa3a" x="302.94769" y="78.035141" style="fill: #ffffff; stroke: #000000"/>
     <use xlink:href="#mdebad4aa3a" x="262.075137" y="95.547638" style="fill: #ffffff; stroke: #000000"/>
     <use xlink:href="#mdebad4aa3a" x="303.703452" y="84.330295" style="fill: #ffffff; stroke: #000000"/>
     <use xlink:href="#mdebad4aa3a" x="294.924001" y="76.582207" style="fill: #ffffff; stroke: #000000"/>
     <use xlink:href="#mdebad4aa3a" x="312.0193" y="77.018941" style="fill: #ffffff; stroke: #000000"/>
     <use xlink:href="#mdebad4aa3a" x="308.362876" y="76.829318" style="fill: #ffffff; stroke: #000000"/>
     <use xlink:href="#mdebad4aa3a" x="299.789155" y="76.025223" style="fill: #ffffff; stroke: #000000"/>
     <use xlink:href="#mdebad4aa3a" x="260.938691" y="53.568" style="fill: #ffffff; stroke: #000000"/>
     <use xlink:href="#mdebad4aa3a" x="309.311866" y="75.181527" style="fill: #ffffff; stroke: #000000"/>
     <use xlink:href="#mdebad4aa3a" x="294.484266" y="71.404879" style="fill: #ffffff; stroke: #000000"/>
     <use xlink:href="#mdebad4aa3a" x="289.658873" y="84.367188" style="fill: #ffffff; stroke: #000000"/>
     <use xlink:href="#mdebad4aa3a" x="299.636597" y="81.878032" style="fill: #ffffff; stroke: #000000"/>
     <use xlink:href="#mdebad4aa3a" x="265.023557" y="86.92442" style="fill: #ffffff; stroke: #000000"/>
     <use xlink:href="#mdebad4aa3a" x="258.115487" y="95.046163" style="fill: #ffffff; stroke: #000000"/>
     <use xlink:href="#mdebad4aa3a" x="263.193949" y="73.929382" style="fill: #ffffff; stroke: #000000"/>
     <use xlink:href="#mdebad4aa3a" x="285.564005" y="74.250347" style="fill: #ffffff; stroke: #000000"/>
     <use xlink:href="#mdebad4aa3a" x="304.57985" y="93.663279" style="fill: #ffffff; stroke: #000000"/>
     <use xlink:href="#mdebad4aa3a" x="280.635202" y="74.250984" style="fill: #ffffff; stroke: #000000"/>
     <use xlink:href="#mdebad4aa3a" x="274.43711" y="77.209449" style="fill: #ffffff; stroke: #000000"/>
     <use xlink:href="#mdebad4aa3a" x="282.668483" y="284.491451" style="fill: #ffffff; stroke: #000000"/>
     <use xlink:href="#mdebad4aa3a" x="74.444037" y="253.930774" style="fill: #ffffff; stroke: #000000"/>
     <use xlink:href="#mdebad4aa3a" x="77.93259" y="245.117151" style="fill: #ffffff; stroke: #000000"/>
     <use xlink:href="#mdebad4aa3a" x="96.173639" y="290.453753" style="fill: #ffffff; stroke: #000000"/>
     <use xlink:href="#mdebad4aa3a" x="75.62761" y="275.687398" style="fill: #ffffff; stroke: #000000"/>
     <use xlink:href="#mdebad4aa3a" x="119.671337" y="295.488" style="fill: #ffffff; stroke: #000000"/>
     <use xlink:href="#mdebad4aa3a" x="74.193407" y="270.584428" style="fill: #ffffff; stroke: #000000"/>
     <use xlink:href="#mdebad4aa3a" x="79.759291" y="280.558052" style="fill: #ffffff; stroke: #000000"/>
     <use xlink:href="#mdebad4aa3a" x="79.972049" y="241.53407" style="fill: #ffffff; stroke: #000000"/>
    </g>
   </g>
   <g id="matplotlib.axis_1">
    <g id="xtick_1">
     <g id="line2d_1">
      <defs>
       <path id="m5dfc09a6a0" d="M 0 0 
L 0 3.5 
" style="stroke: #000000; stroke-width: 0.8"/>
      </defs>
      <g>
       <use xlink:href="#m5dfc09a6a0" x="73.284574" y="307.584" style="stroke: #000000; stroke-width: 0.8"/>
      </g>
     </g>
     <g id="text_1">
      <!-- 0 -->
      <g transform="translate(70.103324 322.182437) scale(0.1 -0.1)">
       <defs>
        <path id="DejaVuSans-30" d="M 2034 4250 
Q 1547 4250 1301 3770 
Q 1056 3291 1056 2328 
Q 1056 1369 1301 889 
Q 1547 409 2034 409 
Q 2525 409 2770 889 
Q 3016 1369 3016 2328 
Q 3016 3291 2770 3770 
Q 2525 4250 2034 4250 
z
M 2034 4750 
Q 2819 4750 3233 4129 
Q 3647 3509 3647 2328 
Q 3647 1150 3233 529 
Q 2819 -91 2034 -91 
Q 1250 -91 836 529 
Q 422 1150 422 2328 
Q 422 3509 836 4129 
Q 1250 4750 2034 4750 
z
" transform="scale(0.015625)"/>
       </defs>
       <use xlink:href="#DejaVuSans-30"/>
      </g>
     </g>
    </g>
    <g id="xtick_2">
     <g id="line2d_2">
      <g>
       <use xlink:href="#m5dfc09a6a0" x="119.836237" y="307.584" style="stroke: #000000; stroke-width: 0.8"/>
      </g>
     </g>
     <g id="text_2">
      <!-- 20 -->
      <g transform="translate(113.473737 322.182437) scale(0.1 -0.1)">
       <defs>
        <path id="DejaVuSans-32" d="M 1228 531 
L 3431 531 
L 3431 0 
L 469 0 
L 469 531 
Q 828 903 1448 1529 
Q 2069 2156 2228 2338 
Q 2531 2678 2651 2914 
Q 2772 3150 2772 3378 
Q 2772 3750 2511 3984 
Q 2250 4219 1831 4219 
Q 1534 4219 1204 4116 
Q 875 4013 500 3803 
L 500 4441 
Q 881 4594 1212 4672 
Q 1544 4750 1819 4750 
Q 2544 4750 2975 4387 
Q 3406 4025 3406 3419 
Q 3406 3131 3298 2873 
Q 3191 2616 2906 2266 
Q 2828 2175 2409 1742 
Q 1991 1309 1228 531 
z
" transform="scale(0.015625)"/>
       </defs>
       <use xlink:href="#DejaVuSans-32"/>
       <use xlink:href="#DejaVuSans-30" x="63.623047"/>
      </g>
     </g>
    </g>
    <g id="xtick_3">
     <g id="line2d_3">
      <g>
       <use xlink:href="#m5dfc09a6a0" x="166.3879" y="307.584" style="stroke: #000000; stroke-width: 0.8"/>
      </g>
     </g>
     <g id="text_3">
      <!-- 40 -->
      <g transform="translate(160.0254 322.182437) scale(0.1 -0.1)">
       <defs>
        <path id="DejaVuSans-34" d="M 2419 4116 
L 825 1625 
L 2419 1625 
L 2419 4116 
z
M 2253 4666 
L 3047 4666 
L 3047 1625 
L 3713 1625 
L 3713 1100 
L 3047 1100 
L 3047 0 
L 2419 0 
L 2419 1100 
L 313 1100 
L 313 1709 
L 2253 4666 
z
" transform="scale(0.015625)"/>
       </defs>
       <use xlink:href="#DejaVuSans-34"/>
       <use xlink:href="#DejaVuSans-30" x="63.623047"/>
      </g>
     </g>
    </g>
    <g id="xtick_4">
     <g id="line2d_4">
      <g>
       <use xlink:href="#m5dfc09a6a0" x="212.939564" y="307.584" style="stroke: #000000; stroke-width: 0.8"/>
      </g>
     </g>
     <g id="text_4">
      <!-- 60 -->
      <g transform="translate(206.577064 322.182437) scale(0.1 -0.1)">
       <defs>
        <path id="DejaVuSans-36" d="M 2113 2584 
Q 1688 2584 1439 2293 
Q 1191 2003 1191 1497 
Q 1191 994 1439 701 
Q 1688 409 2113 409 
Q 2538 409 2786 701 
Q 3034 994 3034 1497 
Q 3034 2003 2786 2293 
Q 2538 2584 2113 2584 
z
M 3366 4563 
L 3366 3988 
Q 3128 4100 2886 4159 
Q 2644 4219 2406 4219 
Q 1781 4219 1451 3797 
Q 1122 3375 1075 2522 
Q 1259 2794 1537 2939 
Q 1816 3084 2150 3084 
Q 2853 3084 3261 2657 
Q 3669 2231 3669 1497 
Q 3669 778 3244 343 
Q 2819 -91 2113 -91 
Q 1303 -91 875 529 
Q 447 1150 447 2328 
Q 447 3434 972 4092 
Q 1497 4750 2381 4750 
Q 2619 4750 2861 4703 
Q 3103 4656 3366 4563 
z
" transform="scale(0.015625)"/>
       </defs>
       <use xlink:href="#DejaVuSans-36"/>
       <use xlink:href="#DejaVuSans-30" x="63.623047"/>
      </g>
     </g>
    </g>
    <g id="xtick_5">
     <g id="line2d_5">
      <g>
       <use xlink:href="#m5dfc09a6a0" x="259.491227" y="307.584" style="stroke: #000000; stroke-width: 0.8"/>
      </g>
     </g>
     <g id="text_5">
      <!-- 80 -->
      <g transform="translate(253.128727 322.182437) scale(0.1 -0.1)">
       <defs>
        <path id="DejaVuSans-38" d="M 2034 2216 
Q 1584 2216 1326 1975 
Q 1069 1734 1069 1313 
Q 1069 891 1326 650 
Q 1584 409 2034 409 
Q 2484 409 2743 651 
Q 3003 894 3003 1313 
Q 3003 1734 2745 1975 
Q 2488 2216 2034 2216 
z
M 1403 2484 
Q 997 2584 770 2862 
Q 544 3141 544 3541 
Q 544 4100 942 4425 
Q 1341 4750 2034 4750 
Q 2731 4750 3128 4425 
Q 3525 4100 3525 3541 
Q 3525 3141 3298 2862 
Q 3072 2584 2669 2484 
Q 3125 2378 3379 2068 
Q 3634 1759 3634 1313 
Q 3634 634 3220 271 
Q 2806 -91 2034 -91 
Q 1263 -91 848 271 
Q 434 634 434 1313 
Q 434 1759 690 2068 
Q 947 2378 1403 2484 
z
M 1172 3481 
Q 1172 3119 1398 2916 
Q 1625 2713 2034 2713 
Q 2441 2713 2670 2916 
Q 2900 3119 2900 3481 
Q 2900 3844 2670 4047 
Q 2441 4250 2034 4250 
Q 1625 4250 1398 4047 
Q 1172 3844 1172 3481 
z
" transform="scale(0.015625)"/>
       </defs>
       <use xlink:href="#DejaVuSans-38"/>
       <use xlink:href="#DejaVuSans-30" x="63.623047"/>
      </g>
     </g>
    </g>
    <g id="xtick_6">
     <g id="line2d_6">
      <g>
       <use xlink:href="#m5dfc09a6a0" x="306.04289" y="307.584" style="stroke: #000000; stroke-width: 0.8"/>
      </g>
     </g>
     <g id="text_6">
      <!-- 100 -->
      <g transform="translate(296.49914 322.182437) scale(0.1 -0.1)">
       <defs>
        <path id="DejaVuSans-31" d="M 794 531 
L 1825 531 
L 1825 4091 
L 703 3866 
L 703 4441 
L 1819 4666 
L 2450 4666 
L 2450 531 
L 3481 531 
L 3481 0 
L 794 0 
L 794 531 
z
" transform="scale(0.015625)"/>
       </defs>
       <use xlink:href="#DejaVuSans-31"/>
       <use xlink:href="#DejaVuSans-30" x="63.623047"/>
       <use xlink:href="#DejaVuSans-30" x="127.246094"/>
      </g>
     </g>
    </g>
    <g id="xtick_7">
     <g id="line2d_7">
      <g>
       <use xlink:href="#m5dfc09a6a0" x="352.594553" y="307.584" style="stroke: #000000; stroke-width: 0.8"/>
      </g>
     </g>
     <g id="text_7">
      <!-- 120 -->
      <g transform="translate(343.050803 322.182437) scale(0.1 -0.1)">
       <use xlink:href="#DejaVuSans-31"/>
       <use xlink:href="#DejaVuSans-32" x="63.623047"/>
       <use xlink:href="#DejaVuSans-30" x="127.246094"/>
      </g>
     </g>
    </g>
    <g id="xtick_8">
     <g id="line2d_8">
      <g>
       <use xlink:href="#m5dfc09a6a0" x="399.146217" y="307.584" style="stroke: #000000; stroke-width: 0.8"/>
      </g>
     </g>
     <g id="text_8">
      <!-- 140 -->
      <g transform="translate(389.602467 322.182437) scale(0.1 -0.1)">
       <use xlink:href="#DejaVuSans-31"/>
       <use xlink:href="#DejaVuSans-34" x="63.623047"/>
       <use xlink:href="#DejaVuSans-30" x="127.246094"/>
      </g>
     </g>
    </g>
    <g id="text_9">
     <!-- Time -->
     <g transform="translate(390.252813 335.860562) scale(0.1 -0.1)">
      <defs>
       <path id="DejaVuSans-54" d="M -19 4666 
L 3928 4666 
L 3928 4134 
L 2272 4134 
L 2272 0 
L 1638 0 
L 1638 4134 
L -19 4134 
L -19 4666 
z
" transform="scale(0.015625)"/>
       <path id="DejaVuSans-69" d="M 603 3500 
L 1178 3500 
L 1178 0 
L 603 0 
L 603 3500 
z
M 603 4863 
L 1178 4863 
L 1178 4134 
L 603 4134 
L 603 4863 
z
" transform="scale(0.015625)"/>
       <path id="DejaVuSans-6d" d="M 3328 2828 
Q 3544 3216 3844 3400 
Q 4144 3584 4550 3584 
Q 5097 3584 5394 3201 
Q 5691 2819 5691 2113 
L 5691 0 
L 5113 0 
L 5113 2094 
Q 5113 2597 4934 2840 
Q 4756 3084 4391 3084 
Q 3944 3084 3684 2787 
Q 3425 2491 3425 1978 
L 3425 0 
L 2847 0 
L 2847 2094 
Q 2847 2600 2669 2842 
Q 2491 3084 2119 3084 
Q 1678 3084 1418 2786 
Q 1159 2488 1159 1978 
L 1159 0 
L 581 0 
L 581 3500 
L 1159 3500 
L 1159 2956 
Q 1356 3278 1631 3431 
Q 1906 3584 2284 3584 
Q 2666 3584 2933 3390 
Q 3200 3197 3328 2828 
z
" transform="scale(0.015625)"/>
       <path id="DejaVuSans-65" d="M 3597 1894 
L 3597 1613 
L 953 1613 
Q 991 1019 1311 708 
Q 1631 397 2203 397 
Q 2534 397 2845 478 
Q 3156 559 3463 722 
L 3463 178 
Q 3153 47 2828 -22 
Q 2503 -91 2169 -91 
Q 1331 -91 842 396 
Q 353 884 353 1716 
Q 353 2575 817 3079 
Q 1281 3584 2069 3584 
Q 2775 3584 3186 3129 
Q 3597 2675 3597 1894 
z
M 3022 2063 
Q 3016 2534 2758 2815 
Q 2500 3097 2075 3097 
Q 1594 3097 1305 2825 
Q 1016 2553 972 2059 
L 3022 2063 
z
" transform="scale(0.015625)"/>
      </defs>
      <use xlink:href="#DejaVuSans-54"/>
      <use xlink:href="#DejaVuSans-69" x="57.958984"/>
      <use xlink:href="#DejaVuSans-6d" x="85.742188"/>
      <use xlink:href="#DejaVuSans-65" x="183.154297"/>
     </g>
    </g>
   </g>
   <g id="matplotlib.axis_2">
    <g id="ytick_1">
     <g id="line2d_9">
      <defs>
       <path id="mf0facb5103" d="M 0 0 
L -3.5 0 
" style="stroke: #000000; stroke-width: 0.8"/>
      </defs>
      <g>
       <use xlink:href="#mf0facb5103" x="57.6" y="301.311238" style="stroke: #000000; stroke-width: 0.8"/>
      </g>
     </g>
     <g id="text_10">
      <!-- 80 -->
      <g transform="translate(37.875 305.110457) scale(0.1 -0.1)">
       <use xlink:href="#DejaVuSans-38"/>
       <use xlink:href="#DejaVuSans-30" x="63.623047"/>
      </g>
     </g>
    </g>
    <g id="ytick_2">
     <g id="line2d_10">
      <g>
       <use xlink:href="#mf0facb5103" x="57.6" y="264.926195" style="stroke: #000000; stroke-width: 0.8"/>
      </g>
     </g>
     <g id="text_11">
      <!-- 100 -->
      <g transform="translate(31.5125 268.725413) scale(0.1 -0.1)">
       <use xlink:href="#DejaVuSans-31"/>
       <use xlink:href="#DejaVuSans-30" x="63.623047"/>
       <use xlink:href="#DejaVuSans-30" x="127.246094"/>
      </g>
     </g>
    </g>
    <g id="ytick_3">
     <g id="line2d_11">
      <g>
       <use xlink:href="#mf0facb5103" x="57.6" y="228.541151" style="stroke: #000000; stroke-width: 0.8"/>
      </g>
     </g>
     <g id="text_12">
      <!-- 120 -->
      <g transform="translate(31.5125 232.34037) scale(0.1 -0.1)">
       <use xlink:href="#DejaVuSans-31"/>
       <use xlink:href="#DejaVuSans-32" x="63.623047"/>
       <use xlink:href="#DejaVuSans-30" x="127.246094"/>
      </g>
     </g>
    </g>
    <g id="ytick_4">
     <g id="line2d_12">
      <g>
       <use xlink:href="#mf0facb5103" x="57.6" y="192.156108" style="stroke: #000000; stroke-width: 0.8"/>
      </g>
     </g>
     <g id="text_13">
      <!-- 140 -->
      <g transform="translate(31.5125 195.955327) scale(0.1 -0.1)">
       <use xlink:href="#DejaVuSans-31"/>
       <use xlink:href="#DejaVuSans-34" x="63.623047"/>
       <use xlink:href="#DejaVuSans-30" x="127.246094"/>
      </g>
     </g>
    </g>
    <g id="ytick_5">
     <g id="line2d_13">
      <g>
       <use xlink:href="#mf0facb5103" x="57.6" y="155.771065" style="stroke: #000000; stroke-width: 0.8"/>
      </g>
     </g>
     <g id="text_14">
      <!-- 160 -->
      <g transform="translate(31.5125 159.570283) scale(0.1 -0.1)">
       <use xlink:href="#DejaVuSans-31"/>
       <use xlink:href="#DejaVuSans-36" x="63.623047"/>
       <use xlink:href="#DejaVuSans-30" x="127.246094"/>
      </g>
     </g>
    </g>
    <g id="ytick_6">
     <g id="line2d_14">
      <g>
       <use xlink:href="#mf0facb5103" x="57.6" y="119.386021" style="stroke: #000000; stroke-width: 0.8"/>
      </g>
     </g>
     <g id="text_15">
      <!-- 180 -->
      <g transform="translate(31.5125 123.18524) scale(0.1 -0.1)">
       <use xlink:href="#DejaVuSans-31"/>
       <use xlink:href="#DejaVuSans-38" x="63.623047"/>
       <use xlink:href="#DejaVuSans-30" x="127.246094"/>
      </g>
     </g>
    </g>
    <g id="ytick_7">
     <g id="line2d_15">
      <g>
       <use xlink:href="#mf0facb5103" x="57.6" y="83.000978" style="stroke: #000000; stroke-width: 0.8"/>
      </g>
     </g>
     <g id="text_16">
      <!-- 200 -->
      <g transform="translate(31.5125 86.800197) scale(0.1 -0.1)">
       <use xlink:href="#DejaVuSans-32"/>
       <use xlink:href="#DejaVuSans-30" x="63.623047"/>
       <use xlink:href="#DejaVuSans-30" x="127.246094"/>
      </g>
     </g>
    </g>
    <g id="ytick_8">
     <g id="line2d_16">
      <g>
       <use xlink:href="#mf0facb5103" x="57.6" y="46.615934" style="stroke: #000000; stroke-width: 0.8"/>
      </g>
     </g>
     <g id="text_17">
      <!-- 220 -->
      <g transform="translate(31.5125 50.415153) scale(0.1 -0.1)">
       <use xlink:href="#DejaVuSans-32"/>
       <use xlink:href="#DejaVuSans-32" x="63.623047"/>
       <use xlink:href="#DejaVuSans-30" x="127.246094"/>
      </g>
     </g>
    </g>
    <g id="text_18">
     <!-- Observed value -->
     <g transform="translate(25.432812 120.079813) rotate(-90) scale(0.1 -0.1)">
      <defs>
       <path id="DejaVuSans-4f" d="M 2522 4238 
Q 1834 4238 1429 3725 
Q 1025 3213 1025 2328 
Q 1025 1447 1429 934 
Q 1834 422 2522 422 
Q 3209 422 3611 934 
Q 4013 1447 4013 2328 
Q 4013 3213 3611 3725 
Q 3209 4238 2522 4238 
z
M 2522 4750 
Q 3503 4750 4090 4092 
Q 4678 3434 4678 2328 
Q 4678 1225 4090 567 
Q 3503 -91 2522 -91 
Q 1538 -91 948 565 
Q 359 1222 359 2328 
Q 359 3434 948 4092 
Q 1538 4750 2522 4750 
z
" transform="scale(0.015625)"/>
       <path id="DejaVuSans-62" d="M 3116 1747 
Q 3116 2381 2855 2742 
Q 2594 3103 2138 3103 
Q 1681 3103 1420 2742 
Q 1159 2381 1159 1747 
Q 1159 1113 1420 752 
Q 1681 391 2138 391 
Q 2594 391 2855 752 
Q 3116 1113 3116 1747 
z
M 1159 2969 
Q 1341 3281 1617 3432 
Q 1894 3584 2278 3584 
Q 2916 3584 3314 3078 
Q 3713 2572 3713 1747 
Q 3713 922 3314 415 
Q 2916 -91 2278 -91 
Q 1894 -91 1617 61 
Q 1341 213 1159 525 
L 1159 0 
L 581 0 
L 581 4863 
L 1159 4863 
L 1159 2969 
z
" transform="scale(0.015625)"/>
       <path id="DejaVuSans-73" d="M 2834 3397 
L 2834 2853 
Q 2591 2978 2328 3040 
Q 2066 3103 1784 3103 
Q 1356 3103 1142 2972 
Q 928 2841 928 2578 
Q 928 2378 1081 2264 
Q 1234 2150 1697 2047 
L 1894 2003 
Q 2506 1872 2764 1633 
Q 3022 1394 3022 966 
Q 3022 478 2636 193 
Q 2250 -91 1575 -91 
Q 1294 -91 989 -36 
Q 684 19 347 128 
L 347 722 
Q 666 556 975 473 
Q 1284 391 1588 391 
Q 1994 391 2212 530 
Q 2431 669 2431 922 
Q 2431 1156 2273 1281 
Q 2116 1406 1581 1522 
L 1381 1569 
Q 847 1681 609 1914 
Q 372 2147 372 2553 
Q 372 3047 722 3315 
Q 1072 3584 1716 3584 
Q 2034 3584 2315 3537 
Q 2597 3491 2834 3397 
z
" transform="scale(0.015625)"/>
       <path id="DejaVuSans-72" d="M 2631 2963 
Q 2534 3019 2420 3045 
Q 2306 3072 2169 3072 
Q 1681 3072 1420 2755 
Q 1159 2438 1159 1844 
L 1159 0 
L 581 0 
L 581 3500 
L 1159 3500 
L 1159 2956 
Q 1341 3275 1631 3429 
Q 1922 3584 2338 3584 
Q 2397 3584 2469 3576 
Q 2541 3569 2628 3553 
L 2631 2963 
z
" transform="scale(0.015625)"/>
       <path id="DejaVuSans-76" d="M 191 3500 
L 800 3500 
L 1894 563 
L 2988 3500 
L 3597 3500 
L 2284 0 
L 1503 0 
L 191 3500 
z
" transform="scale(0.015625)"/>
       <path id="DejaVuSans-64" d="M 2906 2969 
L 2906 4863 
L 3481 4863 
L 3481 0 
L 2906 0 
L 2906 525 
Q 2725 213 2448 61 
Q 2172 -91 1784 -91 
Q 1150 -91 751 415 
Q 353 922 353 1747 
Q 353 2572 751 3078 
Q 1150 3584 1784 3584 
Q 2172 3584 2448 3432 
Q 2725 3281 2906 2969 
z
M 947 1747 
Q 947 1113 1208 752 
Q 1469 391 1925 391 
Q 2381 391 2643 752 
Q 2906 1113 2906 1747 
Q 2906 2381 2643 2742 
Q 2381 3103 1925 3103 
Q 1469 3103 1208 2742 
Q 947 2381 947 1747 
z
" transform="scale(0.015625)"/>
       <path id="DejaVuSans-20" transform="scale(0.015625)"/>
       <path id="DejaVuSans-61" d="M 2194 1759 
Q 1497 1759 1228 1600 
Q 959 1441 959 1056 
Q 959 750 1161 570 
Q 1363 391 1709 391 
Q 2188 391 2477 730 
Q 2766 1069 2766 1631 
L 2766 1759 
L 2194 1759 
z
M 3341 1997 
L 3341 0 
L 2766 0 
L 2766 531 
Q 2569 213 2275 61 
Q 1981 -91 1556 -91 
Q 1019 -91 701 211 
Q 384 513 384 1019 
Q 384 1609 779 1909 
Q 1175 2209 1959 2209 
L 2766 2209 
L 2766 2266 
Q 2766 2663 2505 2880 
Q 2244 3097 1772 3097 
Q 1472 3097 1187 3025 
Q 903 2953 641 2809 
L 641 3341 
Q 956 3463 1253 3523 
Q 1550 3584 1831 3584 
Q 2591 3584 2966 3190 
Q 3341 2797 3341 1997 
z
" transform="scale(0.015625)"/>
       <path id="DejaVuSans-6c" d="M 603 4863 
L 1178 4863 
L 1178 0 
L 603 0 
L 603 4863 
z
" transform="scale(0.015625)"/>
       <path id="DejaVuSans-75" d="M 544 1381 
L 544 3500 
L 1119 3500 
L 1119 1403 
Q 1119 906 1312 657 
Q 1506 409 1894 409 
Q 2359 409 2629 706 
Q 2900 1003 2900 1516 
L 2900 3500 
L 3475 3500 
L 3475 0 
L 2900 0 
L 2900 538 
Q 2691 219 2414 64 
Q 2138 -91 1772 -91 
Q 1169 -91 856 284 
Q 544 659 544 1381 
z
M 1991 3584 
L 1991 3584 
z
" transform="scale(0.015625)"/>
      </defs>
      <use xlink:href="#DejaVuSans-4f"/>
      <use xlink:href="#DejaVuSans-62" x="78.710938"/>
      <use xlink:href="#DejaVuSans-73" x="142.1875"/>
      <use xlink:href="#DejaVuSans-65" x="194.287109"/>
      <use xlink:href="#DejaVuSans-72" x="255.810547"/>
      <use xlink:href="#DejaVuSans-76" x="296.923828"/>
      <use xlink:href="#DejaVuSans-65" x="356.103516"/>
      <use xlink:href="#DejaVuSans-64" x="417.626953"/>
      <use xlink:href="#DejaVuSans-20" x="481.103516"/>
      <use xlink:href="#DejaVuSans-76" x="512.890625"/>
      <use xlink:href="#DejaVuSans-61" x="572.070312"/>
      <use xlink:href="#DejaVuSans-6c" x="633.349609"/>
      <use xlink:href="#DejaVuSans-75" x="661.132812"/>
      <use xlink:href="#DejaVuSans-65" x="724.511719"/>
     </g>
    </g>
   </g>
   <g id="patch_3">
    <path d="M 57.6 307.584 
L 57.6 41.472 
" style="fill: none; stroke: #000000; stroke-width: 0.8; stroke-linejoin: miter; stroke-linecap: square"/>
   </g>
   <g id="patch_4">
    <path d="M 414.72 307.584 
L 414.72 41.472 
" style="fill: none; stroke: #000000; stroke-width: 0.8; stroke-linejoin: miter; stroke-linecap: square"/>
   </g>
   <g id="patch_5">
    <path d="M 57.6 307.584 
L 414.72 307.584 
" style="fill: none; stroke: #000000; stroke-width: 0.8; stroke-linejoin: miter; stroke-linecap: square"/>
   </g>
   <g id="patch_6">
    <path d="M 57.6 41.472 
L 414.72 41.472 
" style="fill: none; stroke: #000000; stroke-width: 0.8; stroke-linejoin: miter; stroke-linecap: square"/>
   </g>
   <g id="legend_1">
    <g id="patch_7">
     <path d="M 337.365313 78.82825 
L 407.72 78.82825 
Q 409.72 78.82825 409.72 76.82825 
L 409.72 48.472 
Q 409.72 46.472 407.72 46.472 
L 337.365313 46.472 
Q 335.365313 46.472 335.365313 48.472 
L 335.365313 76.82825 
Q 335.365313 78.82825 337.365313 78.82825 
z
" style="fill: #ffffff; opacity: 0.8; stroke: #cccccc; stroke-linejoin: miter"/>
    </g>
    <g id="PathCollection_3">
     <g>
      <use xlink:href="#m6e4fd01725" x="349.365313" y="55.445437" style="stroke: #000000"/>
     </g>
    </g>
    <g id="text_19">
     <!-- Regular -->
     <g transform="translate(367.365313 58.070437) scale(0.1 -0.1)">
      <defs>
       <path id="DejaVuSans-52" d="M 2841 2188 
Q 3044 2119 3236 1894 
Q 3428 1669 3622 1275 
L 4263 0 
L 3584 0 
L 2988 1197 
Q 2756 1666 2539 1819 
Q 2322 1972 1947 1972 
L 1259 1972 
L 1259 0 
L 628 0 
L 628 4666 
L 2053 4666 
Q 2853 4666 3247 4331 
Q 3641 3997 3641 3322 
Q 3641 2881 3436 2590 
Q 3231 2300 2841 2188 
z
M 1259 4147 
L 1259 2491 
L 2053 2491 
Q 2509 2491 2742 2702 
Q 2975 2913 2975 3322 
Q 2975 3731 2742 3939 
Q 2509 4147 2053 4147 
L 1259 4147 
z
" transform="scale(0.015625)"/>
       <path id="DejaVuSans-67" d="M 2906 1791 
Q 2906 2416 2648 2759 
Q 2391 3103 1925 3103 
Q 1463 3103 1205 2759 
Q 947 2416 947 1791 
Q 947 1169 1205 825 
Q 1463 481 1925 481 
Q 2391 481 2648 825 
Q 2906 1169 2906 1791 
z
M 3481 434 
Q 3481 -459 3084 -895 
Q 2688 -1331 1869 -1331 
Q 1566 -1331 1297 -1286 
Q 1028 -1241 775 -1147 
L 775 -588 
Q 1028 -725 1275 -790 
Q 1522 -856 1778 -856 
Q 2344 -856 2625 -561 
Q 2906 -266 2906 331 
L 2906 616 
Q 2728 306 2450 153 
Q 2172 0 1784 0 
Q 1141 0 747 490 
Q 353 981 353 1791 
Q 353 2603 747 3093 
Q 1141 3584 1784 3584 
Q 2172 3584 2450 3431 
Q 2728 3278 2906 2969 
L 2906 3500 
L 3481 3500 
L 3481 434 
z
" transform="scale(0.015625)"/>
      </defs>
      <use xlink:href="#DejaVuSans-52"/>
      <use xlink:href="#DejaVuSans-65" x="64.982422"/>
      <use xlink:href="#DejaVuSans-67" x="126.505859"/>
      <use xlink:href="#DejaVuSans-75" x="189.982422"/>
      <use xlink:href="#DejaVuSans-6c" x="253.361328"/>
      <use xlink:href="#DejaVuSans-61" x="281.144531"/>
      <use xlink:href="#DejaVuSans-72" x="342.423828"/>
     </g>
    </g>
    <g id="PathCollection_4">
     <g>
      <use xlink:href="#mdebad4aa3a" x="349.365313" y="70.123562" style="fill: #ffffff; stroke: #000000"/>
     </g>
    </g>
    <g id="text_20">
     <!-- Outlier -->
     <g transform="translate(367.365313 72.748562) scale(0.1 -0.1)">
      <defs>
       <path id="DejaVuSans-74" d="M 1172 4494 
L 1172 3500 
L 2356 3500 
L 2356 3053 
L 1172 3053 
L 1172 1153 
Q 1172 725 1289 603 
Q 1406 481 1766 481 
L 2356 481 
L 2356 0 
L 1766 0 
Q 1100 0 847 248 
Q 594 497 594 1153 
L 594 3053 
L 172 3053 
L 172 3500 
L 594 3500 
L 594 4494 
L 1172 4494 
z
" transform="scale(0.015625)"/>
      </defs>
      <use xlink:href="#DejaVuSans-4f"/>
      <use xlink:href="#DejaVuSans-75" x="78.710938"/>
      <use xlink:href="#DejaVuSans-74" x="142.089844"/>
      <use xlink:href="#DejaVuSans-6c" x="181.298828"/>
      <use xlink:href="#DejaVuSans-69" x="209.082031"/>
      <use xlink:href="#DejaVuSans-65" x="236.865234"/>
      <use xlink:href="#DejaVuSans-72" x="298.388672"/>
     </g>
    </g>
   </g>
  </g>
 </g>
 <defs>
  <clipPath id="p8525c897cc">
   <rect x="57.6" y="41.472" width="357.12" height="266.112"/>
  </clipPath>
 </defs>
</svg>
