<?xml version="1.0" encoding="utf-8" standalone="no"?>
<!DOCTYPE svg PUBLIC "-//W3C//DTD SVG 1.1//EN"
  "http://www.w3.org/Graphics/SVG/1.1/DTD/svg11.dtd">
<svg xmlns:xlink="http://www.w3.org/1999/xlink" width="460.8pt" height="345.6pt" viewBox="0 0 460.8 345.6" xmlns="http://www.w3.org/2000/svg" version="1.1">
 <metadata>
  <rdf:RDF xmlns:dc="http://purl.org/dc/elements/1.1/" xmlns:cc="http://creativecommons.org/ns#" xmlns:rdf="http://www.w3.org/1999/02/22-rdf-syntax-ns#">
   <cc:Work>
    <dc:type rdf:resource="http://purl.org/dc/dcmitype/StillImage"/>
    <dc:date>2023-09-07T12:16:19.999781</dc:date>
    <dc:format>image/svg+xml</dc:format>
    <dc:creator>
     <cc:Agent>
      <dc:title>Matplotlib v3.7.1, https://matplotlib.org/</dc:title>
     </cc:Agent>
    </dc:creator>
   </cc:Work>
  </rdf:RDF>
 </metadata>
 <defs>
  <style type="text/css">*{stroke-linejoin: round; stroke-linecap: butt}</style>
 </defs>
 <g id="figure_1">
  <g id="patch_1">
   <path d="M 0 345.6 
L 460.8 345.6 
L 460.8 0 
L 0 0 
z
" style="fill: #ffffff"/>
  </g>
  <g id="axes_1">
   <g id="patch_2">
    <path d="M 57.6 307.584 
L 414.72 307.584 
L 414.72 41.472 
L 57.6 41.472 
z
" style="fill: #ffffff"/>
   </g>
   <g id="PathCollection_1">
    <defs>
     <path id="m97fae8df70" d="M 0 3 
C 0.795609 3 1.55874 2.683901 2.12132 2.12132 
C 2.683901 1.55874 3 0.795609 3 0 
C 3 -0.795609 2.683901 -1.55874 2.12132 -2.12132 
C 1.55874 -2.683901 0.795609 -3 0 -3 
C -0.795609 -3 -1.55874 -2.683901 -2.12132 -2.12132 
C -2.683901 -1.55874 -3 -0.795609 -3 0 
C -3 0.795609 -2.683901 1.55874 -2.12132 2.12132 
C -1.55874 2.683901 -0.795609 3 0 3 
z
" style="stroke: #000000"/>
    </defs>
    <g clip-path="url(#p5178780f92)">
     <use xlink:href="#m97fae8df70" x="289.933743" y="261.835775" style="stroke: #000000"/>
     <use xlink:href="#m97fae8df70" x="282.331678" y="260.334887" style="stroke: #000000"/>
     <use xlink:href="#m97fae8df70" x="341.736904" y="277.319321" style="stroke: #000000"/>
     <use xlink:href="#m97fae8df70" x="238.641215" y="259.153962" style="stroke: #000000"/>
     <use xlink:href="#m97fae8df70" x="278.143463" y="274.150939" style="stroke: #000000"/>
     <use xlink:href="#m97fae8df70" x="373.682768" y="255.505576" style="stroke: #000000"/>
     <use xlink:href="#m97fae8df70" x="228.696488" y="248.769493" style="stroke: #000000"/>
     <use xlink:href="#m97fae8df70" x="312.877055" y="266.330502" style="stroke: #000000"/>
     <use xlink:href="#m97fae8df70" x="262.927193" y="279.543547" style="stroke: #000000"/>
     <use xlink:href="#m97fae8df70" x="197.903446" y="269.322158" style="stroke: #000000"/>
     <use xlink:href="#m97fae8df70" x="240.448259" y="263.345754" style="stroke: #000000"/>
     <use xlink:href="#m97fae8df70" x="303.925777" y="287.060671" style="stroke: #000000"/>
     <use xlink:href="#m97fae8df70" x="234.093319" y="274.864076" style="stroke: #000000"/>
     <use xlink:href="#m97fae8df70" x="321.443506" y="272.241729" style="stroke: #000000"/>
     <use xlink:href="#m97fae8df70" x="203.83366" y="270.269303" style="stroke: #000000"/>
     <use xlink:href="#m97fae8df70" x="195.204158" y="268.949702" style="stroke: #000000"/>
     <use xlink:href="#m97fae8df70" x="381.316193" y="272.632534" style="stroke: #000000"/>
     <use xlink:href="#m97fae8df70" x="249.938482" y="250.012422" style="stroke: #000000"/>
     <use xlink:href="#m97fae8df70" x="237.077955" y="259.942402" style="stroke: #000000"/>
     <use xlink:href="#m97fae8df70" x="342.267009" y="267.405773" style="stroke: #000000"/>
     <use xlink:href="#m97fae8df70" x="273.455615" y="263.912796" style="stroke: #000000"/>
     <use xlink:href="#m97fae8df70" x="332.692184" y="275.590504" style="stroke: #000000"/>
     <use xlink:href="#m97fae8df70" x="265.63247" y="282.27095" style="stroke: #000000"/>
     <use xlink:href="#m97fae8df70" x="255.653854" y="259.849604" style="stroke: #000000"/>
     <use xlink:href="#m97fae8df70" x="232.156137" y="274.202218" style="stroke: #000000"/>
     <use xlink:href="#m97fae8df70" x="347.18556" y="260.66356" style="stroke: #000000"/>
     <use xlink:href="#m97fae8df70" x="195.096608" y="254.329035" style="stroke: #000000"/>
     <use xlink:href="#m97fae8df70" x="250.989376" y="271.842342" style="stroke: #000000"/>
     <use xlink:href="#m97fae8df70" x="226.526636" y="278.682942" style="stroke: #000000"/>
     <use xlink:href="#m97fae8df70" x="314.334553" y="273.351808" style="stroke: #000000"/>
     <use xlink:href="#m97fae8df70" x="192.6915" y="257.576541" style="stroke: #000000"/>
     <use xlink:href="#m97fae8df70" x="190.270947" y="276.223666" style="stroke: #000000"/>
     <use xlink:href="#m97fae8df70" x="208.654233" y="274.523149" style="stroke: #000000"/>
     <use xlink:href="#m97fae8df70" x="372.478439" y="265.761758" style="stroke: #000000"/>
     <use xlink:href="#m97fae8df70" x="362.365789" y="268.756862" style="stroke: #000000"/>
     <use xlink:href="#m97fae8df70" x="257.642605" y="258.957366" style="stroke: #000000"/>
     <use xlink:href="#m97fae8df70" x="234.291692" y="271.323472" style="stroke: #000000"/>
     <use xlink:href="#m97fae8df70" x="276.494559" y="267.5384" style="stroke: #000000"/>
     <use xlink:href="#m97fae8df70" x="302.53887" y="262.496581" style="stroke: #000000"/>
     <use xlink:href="#m97fae8df70" x="230.681295" y="270.289864" style="stroke: #000000"/>
     <use xlink:href="#m97fae8df70" x="238.624165" y="278.453789" style="stroke: #000000"/>
     <use xlink:href="#m97fae8df70" x="360.146796" y="257.684943" style="stroke: #000000"/>
     <use xlink:href="#m97fae8df70" x="386.624734" y="258.888338" style="stroke: #000000"/>
     <use xlink:href="#m97fae8df70" x="231.653981" y="282.8718" style="stroke: #000000"/>
     <use xlink:href="#m97fae8df70" x="268.188611" y="264.779846" style="stroke: #000000"/>
     <use xlink:href="#m97fae8df70" x="351.823783" y="272.960352" style="stroke: #000000"/>
     <use xlink:href="#m97fae8df70" x="390.9536" y="265.934336" style="stroke: #000000"/>
     <use xlink:href="#m97fae8df70" x="207.064585" y="277.675499" style="stroke: #000000"/>
     <use xlink:href="#m97fae8df70" x="243.617982" y="264.898107" style="stroke: #000000"/>
     <use xlink:href="#m97fae8df70" x="235.492334" y="264.884486" style="stroke: #000000"/>
     <use xlink:href="#m97fae8df70" x="218.977779" y="280.085924" style="stroke: #000000"/>
     <use xlink:href="#m97fae8df70" x="264.376886" y="279.076181" style="stroke: #000000"/>
     <use xlink:href="#m97fae8df70" x="359.155969" y="286.840767" style="stroke: #000000"/>
     <use xlink:href="#m97fae8df70" x="326.380863" y="275.185536" style="stroke: #000000"/>
     <use xlink:href="#m97fae8df70" x="376.388789" y="260.640787" style="stroke: #000000"/>
     <use xlink:href="#m97fae8df70" x="195.100705" y="272.570982" style="stroke: #000000"/>
     <use xlink:href="#m97fae8df70" x="303.46804" y="275.939674" style="stroke: #000000"/>
     <use xlink:href="#m97fae8df70" x="352.889171" y="277.199383" style="stroke: #000000"/>
     <use xlink:href="#m97fae8df70" x="331.508379" y="272.213754" style="stroke: #000000"/>
     <use xlink:href="#m97fae8df70" x="357.927271" y="266.357597" style="stroke: #000000"/>
     <use xlink:href="#m97fae8df70" x="345.103672" y="259.893696" style="stroke: #000000"/>
     <use xlink:href="#m97fae8df70" x="343.275161" y="274.435222" style="stroke: #000000"/>
     <use xlink:href="#m97fae8df70" x="350.929579" y="268.156239" style="stroke: #000000"/>
     <use xlink:href="#m97fae8df70" x="297.022336" y="260.941777" style="stroke: #000000"/>
     <use xlink:href="#m97fae8df70" x="211.441899" y="266.180453" style="stroke: #000000"/>
     <use xlink:href="#m97fae8df70" x="382.29133" y="265.229766" style="stroke: #000000"/>
     <use xlink:href="#m97fae8df70" x="217.241342" y="267.628059" style="stroke: #000000"/>
     <use xlink:href="#m97fae8df70" x="368.209885" y="265.80815" style="stroke: #000000"/>
     <use xlink:href="#m97fae8df70" x="284.235465" y="279.443785" style="stroke: #000000"/>
     <use xlink:href="#m97fae8df70" x="276.560046" y="261.3544" style="stroke: #000000"/>
     <use xlink:href="#m97fae8df70" x="232.631989" y="272.4032" style="stroke: #000000"/>
     <use xlink:href="#m97fae8df70" x="222.745183" y="264.464787" style="stroke: #000000"/>
     <use xlink:href="#m97fae8df70" x="301.830057" y="267.837877" style="stroke: #000000"/>
     <use xlink:href="#m97fae8df70" x="390.722819" y="267.239162" style="stroke: #000000"/>
     <use xlink:href="#m97fae8df70" x="263.151624" y="276.121226" style="stroke: #000000"/>
     <use xlink:href="#m97fae8df70" x="276.03953" y="270.708807" style="stroke: #000000"/>
     <use xlink:href="#m97fae8df70" x="357.599326" y="264.612691" style="stroke: #000000"/>
     <use xlink:href="#m97fae8df70" x="217.076308" y="262.707874" style="stroke: #000000"/>
     <use xlink:href="#m97fae8df70" x="308.324246" y="263.895175" style="stroke: #000000"/>
     <use xlink:href="#m97fae8df70" x="240.503392" y="272.890605" style="stroke: #000000"/>
     <use xlink:href="#m97fae8df70" x="215.870444" y="255.336115" style="stroke: #000000"/>
     <use xlink:href="#m97fae8df70" x="337.578237" y="271.336484" style="stroke: #000000"/>
     <use xlink:href="#m97fae8df70" x="379.431688" y="266.836169" style="stroke: #000000"/>
     <use xlink:href="#m97fae8df70" x="256.761482" y="276.013955" style="stroke: #000000"/>
     <use xlink:href="#m97fae8df70" x="365.156868" y="278.154744" style="stroke: #000000"/>
     <use xlink:href="#m97fae8df70" x="245.191881" y="277.318818" style="stroke: #000000"/>
     <use xlink:href="#m97fae8df70" x="362.2428" y="282.674778" style="stroke: #000000"/>
     <use xlink:href="#m97fae8df70" x="344.025921" y="270.546958" style="stroke: #000000"/>
     <use xlink:href="#m97fae8df70" x="296.710657" y="269.956663" style="stroke: #000000"/>
     <use xlink:href="#m97fae8df70" x="209.07148" y="254.77721" style="stroke: #000000"/>
     <use xlink:href="#m97fae8df70" x="343.965348" y="279.859229" style="stroke: #000000"/>
     <use xlink:href="#m97fae8df70" x="302.704384" y="268.815589" style="stroke: #000000"/>
     <use xlink:href="#m97fae8df70" x="232.416929" y="272.620389" style="stroke: #000000"/>
     <use xlink:href="#m97fae8df70" x="208.537062" y="273.3585" style="stroke: #000000"/>
     <use xlink:href="#m97fae8df70" x="117.954232" y="269.676803" style="stroke: #000000"/>
     <use xlink:href="#m97fae8df70" x="129.042831" y="264.543833" style="stroke: #000000"/>
     <use xlink:href="#m97fae8df70" x="163.527397" y="252.105514" style="stroke: #000000"/>
     <use xlink:href="#m97fae8df70" x="109.464957" y="280.13056" style="stroke: #000000"/>
     <use xlink:href="#m97fae8df70" x="187.187834" y="264.63159" style="stroke: #000000"/>
     <use xlink:href="#m97fae8df70" x="90.119593" y="273.326713" style="stroke: #000000"/>
     <use xlink:href="#m97fae8df70" x="153.523233" y="259.497041" style="stroke: #000000"/>
     <use xlink:href="#m97fae8df70" x="115.376745" y="256.616799" style="stroke: #000000"/>
     <use xlink:href="#m97fae8df70" x="173.762588" y="274.805643" style="stroke: #000000"/>
     <use xlink:href="#m97fae8df70" x="134.435542" y="259.921437" style="stroke: #000000"/>
     <use xlink:href="#m97fae8df70" x="122.18299" y="262.434845" style="stroke: #000000"/>
     <use xlink:href="#m97fae8df70" x="110.79824" y="269.683453" style="stroke: #000000"/>
     <use xlink:href="#m97fae8df70" x="175.589954" y="263.91547" style="stroke: #000000"/>
     <use xlink:href="#m97fae8df70" x="180.423615" y="252.89368" style="stroke: #000000"/>
     <use xlink:href="#m97fae8df70" x="100.457641" y="263.398684" style="stroke: #000000"/>
     <use xlink:href="#m97fae8df70" x="141.036423" y="252.564072" style="stroke: #000000"/>
     <use xlink:href="#m97fae8df70" x="98.432546" y="264.654581" style="stroke: #000000"/>
     <use xlink:href="#m97fae8df70" x="175.443673" y="256.99114" style="stroke: #000000"/>
     <use xlink:href="#m97fae8df70" x="159.406207" y="273.61181" style="stroke: #000000"/>
     <use xlink:href="#m97fae8df70" x="132.941123" y="255.572127" style="stroke: #000000"/>
     <use xlink:href="#m97fae8df70" x="174.356412" y="257.682117" style="stroke: #000000"/>
     <use xlink:href="#m97fae8df70" x="113.51167" y="276.489605" style="stroke: #000000"/>
     <use xlink:href="#m97fae8df70" x="134.846137" y="267.028101" style="stroke: #000000"/>
     <use xlink:href="#m97fae8df70" x="186.172509" y="270.308282" style="stroke: #000000"/>
     <use xlink:href="#m97fae8df70" x="111.23186" y="262.563127" style="stroke: #000000"/>
     <use xlink:href="#m97fae8df70" x="142.618408" y="270.914437" style="stroke: #000000"/>
     <use xlink:href="#m97fae8df70" x="131.310169" y="269.88096" style="stroke: #000000"/>
     <use xlink:href="#m97fae8df70" x="82.805737" y="267.322436" style="stroke: #000000"/>
     <use xlink:href="#m97fae8df70" x="126.772924" y="272.796493" style="stroke: #000000"/>
     <use xlink:href="#m97fae8df70" x="130.603431" y="275.576424" style="stroke: #000000"/>
     <use xlink:href="#m97fae8df70" x="136.778274" y="267.84164" style="stroke: #000000"/>
     <use xlink:href="#m97fae8df70" x="125.940158" y="268.425871" style="stroke: #000000"/>
     <use xlink:href="#m97fae8df70" x="175.387376" y="263.674989" style="stroke: #000000"/>
     <use xlink:href="#m97fae8df70" x="131.127932" y="284.429735" style="stroke: #000000"/>
     <use xlink:href="#m97fae8df70" x="147.219689" y="255.115941" style="stroke: #000000"/>
     <use xlink:href="#m97fae8df70" x="145.662344" y="258.690878" style="stroke: #000000"/>
     <use xlink:href="#m97fae8df70" x="90.325667" y="275.245092" style="stroke: #000000"/>
     <use xlink:href="#m97fae8df70" x="98.171187" y="275.864416" style="stroke: #000000"/>
     <use xlink:href="#m97fae8df70" x="116.754909" y="268.382458" style="stroke: #000000"/>
     <use xlink:href="#m97fae8df70" x="132.894018" y="248.871648" style="stroke: #000000"/>
     <use xlink:href="#m97fae8df70" x="131.721159" y="274.833263" style="stroke: #000000"/>
     <use xlink:href="#m97fae8df70" x="84.785019" y="267.836577" style="stroke: #000000"/>
     <use xlink:href="#m97fae8df70" x="152.946996" y="269.930541" style="stroke: #000000"/>
     <use xlink:href="#m97fae8df70" x="81.521039" y="283.681622" style="stroke: #000000"/>
     <use xlink:href="#m97fae8df70" x="88.073354" y="262.019905" style="stroke: #000000"/>
     <use xlink:href="#m97fae8df70" x="151.305303" y="273.283119" style="stroke: #000000"/>
     <use xlink:href="#m97fae8df70" x="155.338224" y="271.154837" style="stroke: #000000"/>
     <use xlink:href="#m97fae8df70" x="146.391509" y="264.627521" style="stroke: #000000"/>
     <use xlink:href="#m97fae8df70" x="78.512865" y="269.124253" style="stroke: #000000"/>
     <use xlink:href="#m97fae8df70" x="123.745555" y="249.451332" style="stroke: #000000"/>
     <use xlink:href="#m97fae8df70" x="86.645333" y="262.616678" style="stroke: #000000"/>
     <use xlink:href="#m97fae8df70" x="105.720945" y="278.809869" style="stroke: #000000"/>
     <use xlink:href="#m97fae8df70" x="78.886432" y="257.299246" style="stroke: #000000"/>
     <use xlink:href="#m97fae8df70" x="166.032443" y="263.125207" style="stroke: #000000"/>
     <use xlink:href="#m97fae8df70" x="155.817845" y="277.615938" style="stroke: #000000"/>
     <use xlink:href="#m97fae8df70" x="94.781679" y="266.177262" style="stroke: #000000"/>
     <use xlink:href="#m97fae8df70" x="187.265599" y="272.454647" style="stroke: #000000"/>
     <use xlink:href="#m97fae8df70" x="96.616739" y="267.858454" style="stroke: #000000"/>
     <use xlink:href="#m97fae8df70" x="180.75535" y="255.483139" style="stroke: #000000"/>
     <use xlink:href="#m97fae8df70" x="156.935682" y="268.131977" style="stroke: #000000"/>
     <use xlink:href="#m97fae8df70" x="140.852874" y="262.361022" style="stroke: #000000"/>
     <use xlink:href="#m97fae8df70" x="179.618199" y="255.414583" style="stroke: #000000"/>
     <use xlink:href="#m97fae8df70" x="102.02344" y="261.755665" style="stroke: #000000"/>
     <use xlink:href="#m97fae8df70" x="185.202782" y="267.004813" style="stroke: #000000"/>
     <use xlink:href="#m97fae8df70" x="134.623981" y="257.683107" style="stroke: #000000"/>
     <use xlink:href="#m97fae8df70" x="88.026164" y="275.343613" style="stroke: #000000"/>
     <use xlink:href="#m97fae8df70" x="178.514403" y="276.078961" style="stroke: #000000"/>
     <use xlink:href="#m97fae8df70" x="102.042007" y="261.877654" style="stroke: #000000"/>
     <use xlink:href="#m97fae8df70" x="114.191508" y="274.045613" style="stroke: #000000"/>
     <use xlink:href="#m97fae8df70" x="138.72864" y="266.848249" style="stroke: #000000"/>
     <use xlink:href="#m97fae8df70" x="148.499067" y="266.569414" style="stroke: #000000"/>
     <use xlink:href="#m97fae8df70" x="118.396882" y="281.479353" style="stroke: #000000"/>
     <use xlink:href="#m97fae8df70" x="98.576708" y="267.82102" style="stroke: #000000"/>
     <use xlink:href="#m97fae8df70" x="78.013097" y="272.883916" style="stroke: #000000"/>
     <use xlink:href="#m97fae8df70" x="120.968186" y="254.61838" style="stroke: #000000"/>
     <use xlink:href="#m97fae8df70" x="91.744326" y="267.037002" style="stroke: #000000"/>
     <use xlink:href="#m97fae8df70" x="128.952105" y="266.212453" style="stroke: #000000"/>
     <use xlink:href="#m97fae8df70" x="179.44915" y="265.990309" style="stroke: #000000"/>
     <use xlink:href="#m97fae8df70" x="154.860013" y="259.032526" style="stroke: #000000"/>
     <use xlink:href="#m97fae8df70" x="128.946365" y="253.422048" style="stroke: #000000"/>
     <use xlink:href="#m97fae8df70" x="109.427302" y="280.636062" style="stroke: #000000"/>
     <use xlink:href="#m97fae8df70" x="96.838128" y="272.749443" style="stroke: #000000"/>
     <use xlink:href="#m97fae8df70" x="134.385487" y="264.149771" style="stroke: #000000"/>
     <use xlink:href="#m97fae8df70" x="75.601885" y="267.308691" style="stroke: #000000"/>
     <use xlink:href="#m97fae8df70" x="111.281729" y="270.322424" style="stroke: #000000"/>
     <use xlink:href="#m97fae8df70" x="116.533113" y="292.628227" style="stroke: #000000"/>
     <use xlink:href="#m97fae8df70" x="115.940545" y="268.536261" style="stroke: #000000"/>
     <use xlink:href="#m97fae8df70" x="148.572371" y="266.717044" style="stroke: #000000"/>
     <use xlink:href="#m97fae8df70" x="84.751065" y="258.739627" style="stroke: #000000"/>
     <use xlink:href="#m97fae8df70" x="171.226979" y="274.817362" style="stroke: #000000"/>
     <use xlink:href="#m97fae8df70" x="128.532884" y="280.728163" style="stroke: #000000"/>
     <use xlink:href="#m97fae8df70" x="122.251357" y="280.313422" style="stroke: #000000"/>
     <use xlink:href="#m97fae8df70" x="103.790612" y="283.605485" style="stroke: #000000"/>
     <use xlink:href="#m97fae8df70" x="104.495665" y="261.865833" style="stroke: #000000"/>
     <use xlink:href="#m97fae8df70" x="80.61112" y="279.844956" style="stroke: #000000"/>
    </g>
   </g>
   <g id="PathCollection_2">
    <defs>
     <path id="m8278747333" d="M 0 3 
C 0.795609 3 1.55874 2.683901 2.12132 2.12132 
C 2.683901 1.55874 3 0.795609 3 0 
C 3 -0.795609 2.683901 -1.55874 2.12132 -2.12132 
C 1.55874 -2.683901 0.795609 -3 0 -3 
C -0.795609 -3 -1.55874 -2.683901 -2.12132 -2.12132 
C -2.683901 -1.55874 -3 -0.795609 -3 0 
C -3 0.795609 -2.683901 1.55874 -2.12132 2.12132 
C -1.55874 2.683901 -0.795609 3 0 3 
z
" style="stroke: #000000"/>
    </defs>
    <g clip-path="url(#p5178780f92)">
     <use xlink:href="#m8278747333" x="349.628643" y="73.581454" style="fill: #ffffff; stroke: #000000"/>
     <use xlink:href="#m8278747333" x="365.414084" y="63.37438" style="fill: #ffffff; stroke: #000000"/>
     <use xlink:href="#m8278747333" x="129.390532" y="96.744241" style="fill: #ffffff; stroke: #000000"/>
     <use xlink:href="#m8278747333" x="113.195706" y="99.221361" style="fill: #ffffff; stroke: #000000"/>
     <use xlink:href="#m8278747333" x="345.084146" y="89.290325" style="fill: #ffffff; stroke: #000000"/>
     <use xlink:href="#m8278747333" x="148.448728" y="75.964083" style="fill: #ffffff; stroke: #000000"/>
     <use xlink:href="#m8278747333" x="130.23847" y="53.568" style="fill: #ffffff; stroke: #000000"/>
     <use xlink:href="#m8278747333" x="130.405735" y="83.709815" style="fill: #ffffff; stroke: #000000"/>
     <use xlink:href="#m8278747333" x="359.663504" y="68.955877" style="fill: #ffffff; stroke: #000000"/>
     <use xlink:href="#m8278747333" x="351.742625" y="57.401984" style="fill: #ffffff; stroke: #000000"/>
     <use xlink:href="#m8278747333" x="342.866281" y="80.335507" style="fill: #ffffff; stroke: #000000"/>
     <use xlink:href="#m8278747333" x="115.75799" y="81.809256" style="fill: #ffffff; stroke: #000000"/>
     <use xlink:href="#m8278747333" x="395.70947" y="269.611193" style="fill: #ffffff; stroke: #000000"/>
     <use xlink:href="#m8278747333" x="305.321852" y="246.16531" style="fill: #ffffff; stroke: #000000"/>
     <use xlink:href="#m8278747333" x="395.655485" y="283.122749" style="fill: #ffffff; stroke: #000000"/>
     <use xlink:href="#m8278747333" x="292.863273" y="244.80916" style="fill: #ffffff; stroke: #000000"/>
     <use xlink:href="#m8278747333" x="259.946151" y="292.096679" style="fill: #ffffff; stroke: #000000"/>
     <use xlink:href="#m8278747333" x="398.487273" y="259.199747" style="fill: #ffffff; stroke: #000000"/>
     <use xlink:href="#m8278747333" x="180.903656" y="295.488" style="fill: #ffffff; stroke: #000000"/>
     <use xlink:href="#m8278747333" x="86.639179" y="289.385775" style="fill: #ffffff; stroke: #000000"/>
     <use xlink:href="#m8278747333" x="73.832727" y="274.637198" style="fill: #ffffff; stroke: #000000"/>
     <use xlink:href="#m8278747333" x="167.807105" y="290.386802" style="fill: #ffffff; stroke: #000000"/>
     <use xlink:href="#m8278747333" x="79.694147" y="291.452676" style="fill: #ffffff; stroke: #000000"/>
    </g>
   </g>
   <g id="matplotlib.axis_1">
    <g id="xtick_1">
     <g id="line2d_1">
      <defs>
       <path id="mc76e4c93a6" d="M 0 0 
L 0 3.5 
" style="stroke: #000000; stroke-width: 0.8"/>
      </defs>
      <g>
       <use xlink:href="#mc76e4c93a6" x="73.462721" y="307.584" style="stroke: #000000; stroke-width: 0.8"/>
      </g>
     </g>
     <g id="text_1">
      <!-- 0 -->
      <g transform="translate(70.281471 322.182437) scale(0.1 -0.1)">
       <defs>
        <path id="DejaVuSans-30" d="M 2034 4250 
Q 1547 4250 1301 3770 
Q 1056 3291 1056 2328 
Q 1056 1369 1301 889 
Q 1547 409 2034 409 
Q 2525 409 2770 889 
Q 3016 1369 3016 2328 
Q 3016 3291 2770 3770 
Q 2525 4250 2034 4250 
z
M 2034 4750 
Q 2819 4750 3233 4129 
Q 3647 3509 3647 2328 
Q 3647 1150 3233 529 
Q 2819 -91 2034 -91 
Q 1250 -91 836 529 
Q 422 1150 422 2328 
Q 422 3509 836 4129 
Q 1250 4750 2034 4750 
z
" transform="scale(0.015625)"/>
       </defs>
       <use xlink:href="#DejaVuSans-30"/>
      </g>
     </g>
    </g>
    <g id="xtick_2">
     <g id="line2d_2">
      <g>
       <use xlink:href="#mc76e4c93a6" x="121.57733" y="307.584" style="stroke: #000000; stroke-width: 0.8"/>
      </g>
     </g>
     <g id="text_2">
      <!-- 25 -->
      <g transform="translate(115.21483 322.182437) scale(0.1 -0.1)">
       <defs>
        <path id="DejaVuSans-32" d="M 1228 531 
L 3431 531 
L 3431 0 
L 469 0 
L 469 531 
Q 828 903 1448 1529 
Q 2069 2156 2228 2338 
Q 2531 2678 2651 2914 
Q 2772 3150 2772 3378 
Q 2772 3750 2511 3984 
Q 2250 4219 1831 4219 
Q 1534 4219 1204 4116 
Q 875 4013 500 3803 
L 500 4441 
Q 881 4594 1212 4672 
Q 1544 4750 1819 4750 
Q 2544 4750 2975 4387 
Q 3406 4025 3406 3419 
Q 3406 3131 3298 2873 
Q 3191 2616 2906 2266 
Q 2828 2175 2409 1742 
Q 1991 1309 1228 531 
z
" transform="scale(0.015625)"/>
        <path id="DejaVuSans-35" d="M 691 4666 
L 3169 4666 
L 3169 4134 
L 1269 4134 
L 1269 2991 
Q 1406 3038 1543 3061 
Q 1681 3084 1819 3084 
Q 2600 3084 3056 2656 
Q 3513 2228 3513 1497 
Q 3513 744 3044 326 
Q 2575 -91 1722 -91 
Q 1428 -91 1123 -41 
Q 819 9 494 109 
L 494 744 
Q 775 591 1075 516 
Q 1375 441 1709 441 
Q 2250 441 2565 725 
Q 2881 1009 2881 1497 
Q 2881 1984 2565 2268 
Q 2250 2553 1709 2553 
Q 1456 2553 1204 2497 
Q 953 2441 691 2322 
L 691 4666 
z
" transform="scale(0.015625)"/>
       </defs>
       <use xlink:href="#DejaVuSans-32"/>
       <use xlink:href="#DejaVuSans-35" x="63.623047"/>
      </g>
     </g>
    </g>
    <g id="xtick_3">
     <g id="line2d_3">
      <g>
       <use xlink:href="#mc76e4c93a6" x="169.69194" y="307.584" style="stroke: #000000; stroke-width: 0.8"/>
      </g>
     </g>
     <g id="text_3">
      <!-- 50 -->
      <g transform="translate(163.32944 322.182437) scale(0.1 -0.1)">
       <use xlink:href="#DejaVuSans-35"/>
       <use xlink:href="#DejaVuSans-30" x="63.623047"/>
      </g>
     </g>
    </g>
    <g id="xtick_4">
     <g id="line2d_4">
      <g>
       <use xlink:href="#mc76e4c93a6" x="217.806549" y="307.584" style="stroke: #000000; stroke-width: 0.8"/>
      </g>
     </g>
     <g id="text_4">
      <!-- 75 -->
      <g transform="translate(211.444049 322.182437) scale(0.1 -0.1)">
       <defs>
        <path id="DejaVuSans-37" d="M 525 4666 
L 3525 4666 
L 3525 4397 
L 1831 0 
L 1172 0 
L 2766 4134 
L 525 4134 
L 525 4666 
z
" transform="scale(0.015625)"/>
       </defs>
       <use xlink:href="#DejaVuSans-37"/>
       <use xlink:href="#DejaVuSans-35" x="63.623047"/>
      </g>
     </g>
    </g>
    <g id="xtick_5">
     <g id="line2d_5">
      <g>
       <use xlink:href="#mc76e4c93a6" x="265.921159" y="307.584" style="stroke: #000000; stroke-width: 0.8"/>
      </g>
     </g>
     <g id="text_5">
      <!-- 100 -->
      <g transform="translate(256.377409 322.182437) scale(0.1 -0.1)">
       <defs>
        <path id="DejaVuSans-31" d="M 794 531 
L 1825 531 
L 1825 4091 
L 703 3866 
L 703 4441 
L 1819 4666 
L 2450 4666 
L 2450 531 
L 3481 531 
L 3481 0 
L 794 0 
L 794 531 
z
" transform="scale(0.015625)"/>
       </defs>
       <use xlink:href="#DejaVuSans-31"/>
       <use xlink:href="#DejaVuSans-30" x="63.623047"/>
       <use xlink:href="#DejaVuSans-30" x="127.246094"/>
      </g>
     </g>
    </g>
    <g id="xtick_6">
     <g id="line2d_6">
      <g>
       <use xlink:href="#mc76e4c93a6" x="314.035768" y="307.584" style="stroke: #000000; stroke-width: 0.8"/>
      </g>
     </g>
     <g id="text_6">
      <!-- 125 -->
      <g transform="translate(304.492018 322.182437) scale(0.1 -0.1)">
       <use xlink:href="#DejaVuSans-31"/>
       <use xlink:href="#DejaVuSans-32" x="63.623047"/>
       <use xlink:href="#DejaVuSans-35" x="127.246094"/>
      </g>
     </g>
    </g>
    <g id="xtick_7">
     <g id="line2d_7">
      <g>
       <use xlink:href="#mc76e4c93a6" x="362.150378" y="307.584" style="stroke: #000000; stroke-width: 0.8"/>
      </g>
     </g>
     <g id="text_7">
      <!-- 150 -->
      <g transform="translate(352.606628 322.182437) scale(0.1 -0.1)">
       <use xlink:href="#DejaVuSans-31"/>
       <use xlink:href="#DejaVuSans-35" x="63.623047"/>
       <use xlink:href="#DejaVuSans-30" x="127.246094"/>
      </g>
     </g>
    </g>
    <g id="xtick_8">
     <g id="line2d_8">
      <g>
       <use xlink:href="#mc76e4c93a6" x="410.264987" y="307.584" style="stroke: #000000; stroke-width: 0.8"/>
      </g>
     </g>
     <g id="text_8">
      <!-- 175 -->
      <g transform="translate(400.721237 322.182437) scale(0.1 -0.1)">
       <use xlink:href="#DejaVuSans-31"/>
       <use xlink:href="#DejaVuSans-37" x="63.623047"/>
       <use xlink:href="#DejaVuSans-35" x="127.246094"/>
      </g>
     </g>
    </g>
    <g id="text_9">
     <!-- Time -->
     <g transform="translate(390.252813 335.860562) scale(0.1 -0.1)">
      <defs>
       <path id="DejaVuSans-54" d="M -19 4666 
L 3928 4666 
L 3928 4134 
L 2272 4134 
L 2272 0 
L 1638 0 
L 1638 4134 
L -19 4134 
L -19 4666 
z
" transform="scale(0.015625)"/>
       <path id="DejaVuSans-69" d="M 603 3500 
L 1178 3500 
L 1178 0 
L 603 0 
L 603 3500 
z
M 603 4863 
L 1178 4863 
L 1178 4134 
L 603 4134 
L 603 4863 
z
" transform="scale(0.015625)"/>
       <path id="DejaVuSans-6d" d="M 3328 2828 
Q 3544 3216 3844 3400 
Q 4144 3584 4550 3584 
Q 5097 3584 5394 3201 
Q 5691 2819 5691 2113 
L 5691 0 
L 5113 0 
L 5113 2094 
Q 5113 2597 4934 2840 
Q 4756 3084 4391 3084 
Q 3944 3084 3684 2787 
Q 3425 2491 3425 1978 
L 3425 0 
L 2847 0 
L 2847 2094 
Q 2847 2600 2669 2842 
Q 2491 3084 2119 3084 
Q 1678 3084 1418 2786 
Q 1159 2488 1159 1978 
L 1159 0 
L 581 0 
L 581 3500 
L 1159 3500 
L 1159 2956 
Q 1356 3278 1631 3431 
Q 1906 3584 2284 3584 
Q 2666 3584 2933 3390 
Q 3200 3197 3328 2828 
z
" transform="scale(0.015625)"/>
       <path id="DejaVuSans-65" d="M 3597 1894 
L 3597 1613 
L 953 1613 
Q 991 1019 1311 708 
Q 1631 397 2203 397 
Q 2534 397 2845 478 
Q 3156 559 3463 722 
L 3463 178 
Q 3153 47 2828 -22 
Q 2503 -91 2169 -91 
Q 1331 -91 842 396 
Q 353 884 353 1716 
Q 353 2575 817 3079 
Q 1281 3584 2069 3584 
Q 2775 3584 3186 3129 
Q 3597 2675 3597 1894 
z
M 3022 2063 
Q 3016 2534 2758 2815 
Q 2500 3097 2075 3097 
Q 1594 3097 1305 2825 
Q 1016 2553 972 2059 
L 3022 2063 
z
" transform="scale(0.015625)"/>
      </defs>
      <use xlink:href="#DejaVuSans-54"/>
      <use xlink:href="#DejaVuSans-69" x="57.958984"/>
      <use xlink:href="#DejaVuSans-6d" x="85.742188"/>
      <use xlink:href="#DejaVuSans-65" x="183.154297"/>
     </g>
    </g>
   </g>
   <g id="matplotlib.axis_2">
    <g id="ytick_1">
     <g id="line2d_9">
      <defs>
       <path id="m50a1b46066" d="M 0 0 
L -3.5 0 
" style="stroke: #000000; stroke-width: 0.8"/>
      </defs>
      <g>
       <use xlink:href="#m50a1b46066" x="57.6" y="304.108085" style="stroke: #000000; stroke-width: 0.8"/>
      </g>
     </g>
     <g id="text_10">
      <!-- 80 -->
      <g transform="translate(37.875 307.907303) scale(0.1 -0.1)">
       <defs>
        <path id="DejaVuSans-38" d="M 2034 2216 
Q 1584 2216 1326 1975 
Q 1069 1734 1069 1313 
Q 1069 891 1326 650 
Q 1584 409 2034 409 
Q 2484 409 2743 651 
Q 3003 894 3003 1313 
Q 3003 1734 2745 1975 
Q 2488 2216 2034 2216 
z
M 1403 2484 
Q 997 2584 770 2862 
Q 544 3141 544 3541 
Q 544 4100 942 4425 
Q 1341 4750 2034 4750 
Q 2731 4750 3128 4425 
Q 3525 4100 3525 3541 
Q 3525 3141 3298 2862 
Q 3072 2584 2669 2484 
Q 3125 2378 3379 2068 
Q 3634 1759 3634 1313 
Q 3634 634 3220 271 
Q 2806 -91 2034 -91 
Q 1263 -91 848 271 
Q 434 634 434 1313 
Q 434 1759 690 2068 
Q 947 2378 1403 2484 
z
M 1172 3481 
Q 1172 3119 1398 2916 
Q 1625 2713 2034 2713 
Q 2441 2713 2670 2916 
Q 2900 3119 2900 3481 
Q 2900 3844 2670 4047 
Q 2441 4250 2034 4250 
Q 1625 4250 1398 4047 
Q 1172 3844 1172 3481 
z
" transform="scale(0.015625)"/>
       </defs>
       <use xlink:href="#DejaVuSans-38"/>
       <use xlink:href="#DejaVuSans-30" x="63.623047"/>
      </g>
     </g>
    </g>
    <g id="ytick_2">
     <g id="line2d_10">
      <g>
       <use xlink:href="#m50a1b46066" x="57.6" y="267.773123" style="stroke: #000000; stroke-width: 0.8"/>
      </g>
     </g>
     <g id="text_11">
      <!-- 100 -->
      <g transform="translate(31.5125 271.572342) scale(0.1 -0.1)">
       <use xlink:href="#DejaVuSans-31"/>
       <use xlink:href="#DejaVuSans-30" x="63.623047"/>
       <use xlink:href="#DejaVuSans-30" x="127.246094"/>
      </g>
     </g>
    </g>
    <g id="ytick_3">
     <g id="line2d_11">
      <g>
       <use xlink:href="#m50a1b46066" x="57.6" y="231.438162" style="stroke: #000000; stroke-width: 0.8"/>
      </g>
     </g>
     <g id="text_12">
      <!-- 120 -->
      <g transform="translate(31.5125 235.237381) scale(0.1 -0.1)">
       <use xlink:href="#DejaVuSans-31"/>
       <use xlink:href="#DejaVuSans-32" x="63.623047"/>
       <use xlink:href="#DejaVuSans-30" x="127.246094"/>
      </g>
     </g>
    </g>
    <g id="ytick_4">
     <g id="line2d_12">
      <g>
       <use xlink:href="#m50a1b46066" x="57.6" y="195.103201" style="stroke: #000000; stroke-width: 0.8"/>
      </g>
     </g>
     <g id="text_13">
      <!-- 140 -->
      <g transform="translate(31.5125 198.90242) scale(0.1 -0.1)">
       <defs>
        <path id="DejaVuSans-34" d="M 2419 4116 
L 825 1625 
L 2419 1625 
L 2419 4116 
z
M 2253 4666 
L 3047 4666 
L 3047 1625 
L 3713 1625 
L 3713 1100 
L 3047 1100 
L 3047 0 
L 2419 0 
L 2419 1100 
L 313 1100 
L 313 1709 
L 2253 4666 
z
" transform="scale(0.015625)"/>
       </defs>
       <use xlink:href="#DejaVuSans-31"/>
       <use xlink:href="#DejaVuSans-34" x="63.623047"/>
       <use xlink:href="#DejaVuSans-30" x="127.246094"/>
      </g>
     </g>
    </g>
    <g id="ytick_5">
     <g id="line2d_13">
      <g>
       <use xlink:href="#m50a1b46066" x="57.6" y="158.76824" style="stroke: #000000; stroke-width: 0.8"/>
      </g>
     </g>
     <g id="text_14">
      <!-- 160 -->
      <g transform="translate(31.5125 162.567458) scale(0.1 -0.1)">
       <defs>
        <path id="DejaVuSans-36" d="M 2113 2584 
Q 1688 2584 1439 2293 
Q 1191 2003 1191 1497 
Q 1191 994 1439 701 
Q 1688 409 2113 409 
Q 2538 409 2786 701 
Q 3034 994 3034 1497 
Q 3034 2003 2786 2293 
Q 2538 2584 2113 2584 
z
M 3366 4563 
L 3366 3988 
Q 3128 4100 2886 4159 
Q 2644 4219 2406 4219 
Q 1781 4219 1451 3797 
Q 1122 3375 1075 2522 
Q 1259 2794 1537 2939 
Q 1816 3084 2150 3084 
Q 2853 3084 3261 2657 
Q 3669 2231 3669 1497 
Q 3669 778 3244 343 
Q 2819 -91 2113 -91 
Q 1303 -91 875 529 
Q 447 1150 447 2328 
Q 447 3434 972 4092 
Q 1497 4750 2381 4750 
Q 2619 4750 2861 4703 
Q 3103 4656 3366 4563 
z
" transform="scale(0.015625)"/>
       </defs>
       <use xlink:href="#DejaVuSans-31"/>
       <use xlink:href="#DejaVuSans-36" x="63.623047"/>
       <use xlink:href="#DejaVuSans-30" x="127.246094"/>
      </g>
     </g>
    </g>
    <g id="ytick_6">
     <g id="line2d_14">
      <g>
       <use xlink:href="#m50a1b46066" x="57.6" y="122.433278" style="stroke: #000000; stroke-width: 0.8"/>
      </g>
     </g>
     <g id="text_15">
      <!-- 180 -->
      <g transform="translate(31.5125 126.232497) scale(0.1 -0.1)">
       <use xlink:href="#DejaVuSans-31"/>
       <use xlink:href="#DejaVuSans-38" x="63.623047"/>
       <use xlink:href="#DejaVuSans-30" x="127.246094"/>
      </g>
     </g>
    </g>
    <g id="ytick_7">
     <g id="line2d_15">
      <g>
       <use xlink:href="#m50a1b46066" x="57.6" y="86.098317" style="stroke: #000000; stroke-width: 0.8"/>
      </g>
     </g>
     <g id="text_16">
      <!-- 200 -->
      <g transform="translate(31.5125 89.897536) scale(0.1 -0.1)">
       <use xlink:href="#DejaVuSans-32"/>
       <use xlink:href="#DejaVuSans-30" x="63.623047"/>
       <use xlink:href="#DejaVuSans-30" x="127.246094"/>
      </g>
     </g>
    </g>
    <g id="ytick_8">
     <g id="line2d_16">
      <g>
       <use xlink:href="#m50a1b46066" x="57.6" y="49.763356" style="stroke: #000000; stroke-width: 0.8"/>
      </g>
     </g>
     <g id="text_17">
      <!-- 220 -->
      <g transform="translate(31.5125 53.562575) scale(0.1 -0.1)">
       <use xlink:href="#DejaVuSans-32"/>
       <use xlink:href="#DejaVuSans-32" x="63.623047"/>
       <use xlink:href="#DejaVuSans-30" x="127.246094"/>
      </g>
     </g>
    </g>
    <g id="text_18">
     <!-- Observed value -->
     <g transform="translate(25.432812 120.079813) rotate(-90) scale(0.1 -0.1)">
      <defs>
       <path id="DejaVuSans-4f" d="M 2522 4238 
Q 1834 4238 1429 3725 
Q 1025 3213 1025 2328 
Q 1025 1447 1429 934 
Q 1834 422 2522 422 
Q 3209 422 3611 934 
Q 4013 1447 4013 2328 
Q 4013 3213 3611 3725 
Q 3209 4238 2522 4238 
z
M 2522 4750 
Q 3503 4750 4090 4092 
Q 4678 3434 4678 2328 
Q 4678 1225 4090 567 
Q 3503 -91 2522 -91 
Q 1538 -91 948 565 
Q 359 1222 359 2328 
Q 359 3434 948 4092 
Q 1538 4750 2522 4750 
z
" transform="scale(0.015625)"/>
       <path id="DejaVuSans-62" d="M 3116 1747 
Q 3116 2381 2855 2742 
Q 2594 3103 2138 3103 
Q 1681 3103 1420 2742 
Q 1159 2381 1159 1747 
Q 1159 1113 1420 752 
Q 1681 391 2138 391 
Q 2594 391 2855 752 
Q 3116 1113 3116 1747 
z
M 1159 2969 
Q 1341 3281 1617 3432 
Q 1894 3584 2278 3584 
Q 2916 3584 3314 3078 
Q 3713 2572 3713 1747 
Q 3713 922 3314 415 
Q 2916 -91 2278 -91 
Q 1894 -91 1617 61 
Q 1341 213 1159 525 
L 1159 0 
L 581 0 
L 581 4863 
L 1159 4863 
L 1159 2969 
z
" transform="scale(0.015625)"/>
       <path id="DejaVuSans-73" d="M 2834 3397 
L 2834 2853 
Q 2591 2978 2328 3040 
Q 2066 3103 1784 3103 
Q 1356 3103 1142 2972 
Q 928 2841 928 2578 
Q 928 2378 1081 2264 
Q 1234 2150 1697 2047 
L 1894 2003 
Q 2506 1872 2764 1633 
Q 3022 1394 3022 966 
Q 3022 478 2636 193 
Q 2250 -91 1575 -91 
Q 1294 -91 989 -36 
Q 684 19 347 128 
L 347 722 
Q 666 556 975 473 
Q 1284 391 1588 391 
Q 1994 391 2212 530 
Q 2431 669 2431 922 
Q 2431 1156 2273 1281 
Q 2116 1406 1581 1522 
L 1381 1569 
Q 847 1681 609 1914 
Q 372 2147 372 2553 
Q 372 3047 722 3315 
Q 1072 3584 1716 3584 
Q 2034 3584 2315 3537 
Q 2597 3491 2834 3397 
z
" transform="scale(0.015625)"/>
       <path id="DejaVuSans-72" d="M 2631 2963 
Q 2534 3019 2420 3045 
Q 2306 3072 2169 3072 
Q 1681 3072 1420 2755 
Q 1159 2438 1159 1844 
L 1159 0 
L 581 0 
L 581 3500 
L 1159 3500 
L 1159 2956 
Q 1341 3275 1631 3429 
Q 1922 3584 2338 3584 
Q 2397 3584 2469 3576 
Q 2541 3569 2628 3553 
L 2631 2963 
z
" transform="scale(0.015625)"/>
       <path id="DejaVuSans-76" d="M 191 3500 
L 800 3500 
L 1894 563 
L 2988 3500 
L 3597 3500 
L 2284 0 
L 1503 0 
L 191 3500 
z
" transform="scale(0.015625)"/>
       <path id="DejaVuSans-64" d="M 2906 2969 
L 2906 4863 
L 3481 4863 
L 3481 0 
L 2906 0 
L 2906 525 
Q 2725 213 2448 61 
Q 2172 -91 1784 -91 
Q 1150 -91 751 415 
Q 353 922 353 1747 
Q 353 2572 751 3078 
Q 1150 3584 1784 3584 
Q 2172 3584 2448 3432 
Q 2725 3281 2906 2969 
z
M 947 1747 
Q 947 1113 1208 752 
Q 1469 391 1925 391 
Q 2381 391 2643 752 
Q 2906 1113 2906 1747 
Q 2906 2381 2643 2742 
Q 2381 3103 1925 3103 
Q 1469 3103 1208 2742 
Q 947 2381 947 1747 
z
" transform="scale(0.015625)"/>
       <path id="DejaVuSans-20" transform="scale(0.015625)"/>
       <path id="DejaVuSans-61" d="M 2194 1759 
Q 1497 1759 1228 1600 
Q 959 1441 959 1056 
Q 959 750 1161 570 
Q 1363 391 1709 391 
Q 2188 391 2477 730 
Q 2766 1069 2766 1631 
L 2766 1759 
L 2194 1759 
z
M 3341 1997 
L 3341 0 
L 2766 0 
L 2766 531 
Q 2569 213 2275 61 
Q 1981 -91 1556 -91 
Q 1019 -91 701 211 
Q 384 513 384 1019 
Q 384 1609 779 1909 
Q 1175 2209 1959 2209 
L 2766 2209 
L 2766 2266 
Q 2766 2663 2505 2880 
Q 2244 3097 1772 3097 
Q 1472 3097 1187 3025 
Q 903 2953 641 2809 
L 641 3341 
Q 956 3463 1253 3523 
Q 1550 3584 1831 3584 
Q 2591 3584 2966 3190 
Q 3341 2797 3341 1997 
z
" transform="scale(0.015625)"/>
       <path id="DejaVuSans-6c" d="M 603 4863 
L 1178 4863 
L 1178 0 
L 603 0 
L 603 4863 
z
" transform="scale(0.015625)"/>
       <path id="DejaVuSans-75" d="M 544 1381 
L 544 3500 
L 1119 3500 
L 1119 1403 
Q 1119 906 1312 657 
Q 1506 409 1894 409 
Q 2359 409 2629 706 
Q 2900 1003 2900 1516 
L 2900 3500 
L 3475 3500 
L 3475 0 
L 2900 0 
L 2900 538 
Q 2691 219 2414 64 
Q 2138 -91 1772 -91 
Q 1169 -91 856 284 
Q 544 659 544 1381 
z
M 1991 3584 
L 1991 3584 
z
" transform="scale(0.015625)"/>
      </defs>
      <use xlink:href="#DejaVuSans-4f"/>
      <use xlink:href="#DejaVuSans-62" x="78.710938"/>
      <use xlink:href="#DejaVuSans-73" x="142.1875"/>
      <use xlink:href="#DejaVuSans-65" x="194.287109"/>
      <use xlink:href="#DejaVuSans-72" x="255.810547"/>
      <use xlink:href="#DejaVuSans-76" x="296.923828"/>
      <use xlink:href="#DejaVuSans-65" x="356.103516"/>
      <use xlink:href="#DejaVuSans-64" x="417.626953"/>
      <use xlink:href="#DejaVuSans-20" x="481.103516"/>
      <use xlink:href="#DejaVuSans-76" x="512.890625"/>
      <use xlink:href="#DejaVuSans-61" x="572.070312"/>
      <use xlink:href="#DejaVuSans-6c" x="633.349609"/>
      <use xlink:href="#DejaVuSans-75" x="661.132812"/>
      <use xlink:href="#DejaVuSans-65" x="724.511719"/>
     </g>
    </g>
   </g>
   <g id="patch_3">
    <path d="M 57.6 307.584 
L 57.6 41.472 
" style="fill: none; stroke: #000000; stroke-width: 0.8; stroke-linejoin: miter; stroke-linecap: square"/>
   </g>
   <g id="patch_4">
    <path d="M 414.72 307.584 
L 414.72 41.472 
" style="fill: none; stroke: #000000; stroke-width: 0.8; stroke-linejoin: miter; stroke-linecap: square"/>
   </g>
   <g id="patch_5">
    <path d="M 57.6 307.584 
L 414.72 307.584 
" style="fill: none; stroke: #000000; stroke-width: 0.8; stroke-linejoin: miter; stroke-linecap: square"/>
   </g>
   <g id="patch_6">
    <path d="M 57.6 41.472 
L 414.72 41.472 
" style="fill: none; stroke: #000000; stroke-width: 0.8; stroke-linejoin: miter; stroke-linecap: square"/>
   </g>
   <g id="legend_1">
    <g id="patch_7">
     <path d="M 337.365313 190.706125 
L 407.72 190.706125 
Q 409.72 190.706125 409.72 188.706125 
L 409.72 160.349875 
Q 409.72 158.349875 407.72 158.349875 
L 337.365313 158.349875 
Q 335.365313 158.349875 335.365313 160.349875 
L 335.365313 188.706125 
Q 335.365313 190.706125 337.365313 190.706125 
z
" style="fill: #ffffff; opacity: 0.8; stroke: #cccccc; stroke-linejoin: miter"/>
    </g>
    <g id="PathCollection_3">
     <g>
      <use xlink:href="#m97fae8df70" x="349.365313" y="167.323312" style="stroke: #000000"/>
     </g>
    </g>
    <g id="text_19">
     <!-- Regular -->
     <g transform="translate(367.365313 169.948312) scale(0.1 -0.1)">
      <defs>
       <path id="DejaVuSans-52" d="M 2841 2188 
Q 3044 2119 3236 1894 
Q 3428 1669 3622 1275 
L 4263 0 
L 3584 0 
L 2988 1197 
Q 2756 1666 2539 1819 
Q 2322 1972 1947 1972 
L 1259 1972 
L 1259 0 
L 628 0 
L 628 4666 
L 2053 4666 
Q 2853 4666 3247 4331 
Q 3641 3997 3641 3322 
Q 3641 2881 3436 2590 
Q 3231 2300 2841 2188 
z
M 1259 4147 
L 1259 2491 
L 2053 2491 
Q 2509 2491 2742 2702 
Q 2975 2913 2975 3322 
Q 2975 3731 2742 3939 
Q 2509 4147 2053 4147 
L 1259 4147 
z
" transform="scale(0.015625)"/>
       <path id="DejaVuSans-67" d="M 2906 1791 
Q 2906 2416 2648 2759 
Q 2391 3103 1925 3103 
Q 1463 3103 1205 2759 
Q 947 2416 947 1791 
Q 947 1169 1205 825 
Q 1463 481 1925 481 
Q 2391 481 2648 825 
Q 2906 1169 2906 1791 
z
M 3481 434 
Q 3481 -459 3084 -895 
Q 2688 -1331 1869 -1331 
Q 1566 -1331 1297 -1286 
Q 1028 -1241 775 -1147 
L 775 -588 
Q 1028 -725 1275 -790 
Q 1522 -856 1778 -856 
Q 2344 -856 2625 -561 
Q 2906 -266 2906 331 
L 2906 616 
Q 2728 306 2450 153 
Q 2172 0 1784 0 
Q 1141 0 747 490 
Q 353 981 353 1791 
Q 353 2603 747 3093 
Q 1141 3584 1784 3584 
Q 2172 3584 2450 3431 
Q 2728 3278 2906 2969 
L 2906 3500 
L 3481 3500 
L 3481 434 
z
" transform="scale(0.015625)"/>
      </defs>
      <use xlink:href="#DejaVuSans-52"/>
      <use xlink:href="#DejaVuSans-65" x="64.982422"/>
      <use xlink:href="#DejaVuSans-67" x="126.505859"/>
      <use xlink:href="#DejaVuSans-75" x="189.982422"/>
      <use xlink:href="#DejaVuSans-6c" x="253.361328"/>
      <use xlink:href="#DejaVuSans-61" x="281.144531"/>
      <use xlink:href="#DejaVuSans-72" x="342.423828"/>
     </g>
    </g>
    <g id="PathCollection_4">
     <g>
      <use xlink:href="#m8278747333" x="349.365313" y="182.001437" style="fill: #ffffff; stroke: #000000"/>
     </g>
    </g>
    <g id="text_20">
     <!-- Outlier -->
     <g transform="translate(367.365313 184.626437) scale(0.1 -0.1)">
      <defs>
       <path id="DejaVuSans-74" d="M 1172 4494 
L 1172 3500 
L 2356 3500 
L 2356 3053 
L 1172 3053 
L 1172 1153 
Q 1172 725 1289 603 
Q 1406 481 1766 481 
L 2356 481 
L 2356 0 
L 1766 0 
Q 1100 0 847 248 
Q 594 497 594 1153 
L 594 3053 
L 172 3053 
L 172 3500 
L 594 3500 
L 594 4494 
L 1172 4494 
z
" transform="scale(0.015625)"/>
      </defs>
      <use xlink:href="#DejaVuSans-4f"/>
      <use xlink:href="#DejaVuSans-75" x="78.710938"/>
      <use xlink:href="#DejaVuSans-74" x="142.089844"/>
      <use xlink:href="#DejaVuSans-6c" x="181.298828"/>
      <use xlink:href="#DejaVuSans-69" x="209.082031"/>
      <use xlink:href="#DejaVuSans-65" x="236.865234"/>
      <use xlink:href="#DejaVuSans-72" x="298.388672"/>
     </g>
    </g>
   </g>
  </g>
 </g>
 <defs>
  <clipPath id="p5178780f92">
   <rect x="57.6" y="41.472" width="357.12" height="266.112"/>
  </clipPath>
 </defs>
</svg>
