<?xml version="1.0" encoding="utf-8" standalone="no"?>
<!DOCTYPE svg PUBLIC "-//W3C//DTD SVG 1.1//EN"
  "http://www.w3.org/Graphics/SVG/1.1/DTD/svg11.dtd">
<svg xmlns:xlink="http://www.w3.org/1999/xlink" width="460.8pt" height="345.6pt" viewBox="0 0 460.8 345.6" xmlns="http://www.w3.org/2000/svg" version="1.1">
 <metadata>
  <rdf:RDF xmlns:dc="http://purl.org/dc/elements/1.1/" xmlns:cc="http://creativecommons.org/ns#" xmlns:rdf="http://www.w3.org/1999/02/22-rdf-syntax-ns#">
   <cc:Work>
    <dc:type rdf:resource="http://purl.org/dc/dcmitype/StillImage"/>
    <dc:date>2023-09-07T12:07:59.525728</dc:date>
    <dc:format>image/svg+xml</dc:format>
    <dc:creator>
     <cc:Agent>
      <dc:title>Matplotlib v3.7.1, https://matplotlib.org/</dc:title>
     </cc:Agent>
    </dc:creator>
   </cc:Work>
  </rdf:RDF>
 </metadata>
 <defs>
  <style type="text/css">*{stroke-linejoin: round; stroke-linecap: butt}</style>
 </defs>
 <g id="figure_1">
  <g id="patch_1">
   <path d="M 0 345.6 
L 460.8 345.6 
L 460.8 0 
L 0 0 
z
" style="fill: #ffffff"/>
  </g>
  <g id="axes_1">
   <g id="patch_2">
    <path d="M 57.6 307.584 
L 414.72 307.584 
L 414.72 41.472 
L 57.6 41.472 
z
" style="fill: #ffffff"/>
   </g>
   <g id="PathCollection_1">
    <defs>
     <path id="md166ed5580" d="M 0 3 
C 0.795609 3 1.55874 2.683901 2.12132 2.12132 
C 2.683901 1.55874 3 0.795609 3 0 
C 3 -0.795609 2.683901 -1.55874 2.12132 -2.12132 
C 1.55874 -2.683901 0.795609 -3 0 -3 
C -0.795609 -3 -1.55874 -2.683901 -2.12132 -2.12132 
C -2.683901 -1.55874 -3 -0.795609 -3 0 
C -3 0.795609 -2.683901 1.55874 -2.12132 2.12132 
C -1.55874 2.683901 -0.795609 3 0 3 
z
" style="stroke: #000000"/>
    </defs>
    <g clip-path="url(#p78386c804a)">
     <use xlink:href="#md166ed5580" x="308.66988" y="265.150584" style="stroke: #000000"/>
     <use xlink:href="#md166ed5580" x="367.382188" y="265.044905" style="stroke: #000000"/>
     <use xlink:href="#md166ed5580" x="261.075763" y="275.71343" style="stroke: #000000"/>
     <use xlink:href="#md166ed5580" x="315.624795" y="259.873938" style="stroke: #000000"/>
     <use xlink:href="#md166ed5580" x="332.362782" y="264.200637" style="stroke: #000000"/>
     <use xlink:href="#md166ed5580" x="262.815823" y="259.921123" style="stroke: #000000"/>
     <use xlink:href="#md166ed5580" x="381.177117" y="269.218091" style="stroke: #000000"/>
     <use xlink:href="#md166ed5580" x="316.348881" y="283.152958" style="stroke: #000000"/>
     <use xlink:href="#md166ed5580" x="313.536336" y="258.460167" style="stroke: #000000"/>
     <use xlink:href="#md166ed5580" x="284.603044" y="280.382654" style="stroke: #000000"/>
     <use xlink:href="#md166ed5580" x="257.538858" y="281.656687" style="stroke: #000000"/>
     <use xlink:href="#md166ed5580" x="329.569503" y="257.802449" style="stroke: #000000"/>
     <use xlink:href="#md166ed5580" x="361.104923" y="251.334462" style="stroke: #000000"/>
     <use xlink:href="#md166ed5580" x="287.554704" y="278.899437" style="stroke: #000000"/>
     <use xlink:href="#md166ed5580" x="247.837228" y="265.88539" style="stroke: #000000"/>
     <use xlink:href="#md166ed5580" x="366.199385" y="275.744789" style="stroke: #000000"/>
     <use xlink:href="#md166ed5580" x="295.612576" y="270.064373" style="stroke: #000000"/>
     <use xlink:href="#md166ed5580" x="199.280658" y="272.615587" style="stroke: #000000"/>
     <use xlink:href="#md166ed5580" x="346.848342" y="273.227773" style="stroke: #000000"/>
     <use xlink:href="#md166ed5580" x="260.561574" y="277.976841" style="stroke: #000000"/>
     <use xlink:href="#md166ed5580" x="199.885665" y="272.207536" style="stroke: #000000"/>
     <use xlink:href="#md166ed5580" x="389.269713" y="255.530877" style="stroke: #000000"/>
     <use xlink:href="#md166ed5580" x="390.097548" y="271.651497" style="stroke: #000000"/>
     <use xlink:href="#md166ed5580" x="301.151804" y="271.769673" style="stroke: #000000"/>
     <use xlink:href="#md166ed5580" x="282.270438" y="266.168589" style="stroke: #000000"/>
     <use xlink:href="#md166ed5580" x="360.162388" y="259.401554" style="stroke: #000000"/>
     <use xlink:href="#md166ed5580" x="307.218105" y="274.460055" style="stroke: #000000"/>
     <use xlink:href="#md166ed5580" x="370.509013" y="279.298715" style="stroke: #000000"/>
     <use xlink:href="#md166ed5580" x="284.598103" y="270.701019" style="stroke: #000000"/>
     <use xlink:href="#md166ed5580" x="307.346058" y="250.296307" style="stroke: #000000"/>
     <use xlink:href="#md166ed5580" x="384.217167" y="285.308504" style="stroke: #000000"/>
     <use xlink:href="#md166ed5580" x="210.702573" y="272.131366" style="stroke: #000000"/>
     <use xlink:href="#md166ed5580" x="385.141281" y="264.829393" style="stroke: #000000"/>
     <use xlink:href="#md166ed5580" x="216.939888" y="279.677256" style="stroke: #000000"/>
     <use xlink:href="#md166ed5580" x="279.753216" y="271.01685" style="stroke: #000000"/>
     <use xlink:href="#md166ed5580" x="194.889048" y="260.88268" style="stroke: #000000"/>
     <use xlink:href="#md166ed5580" x="211.930089" y="267.128027" style="stroke: #000000"/>
     <use xlink:href="#md166ed5580" x="278.897801" y="264.836553" style="stroke: #000000"/>
     <use xlink:href="#md166ed5580" x="372.040678" y="282.143254" style="stroke: #000000"/>
     <use xlink:href="#md166ed5580" x="245.205864" y="269.80957" style="stroke: #000000"/>
     <use xlink:href="#md166ed5580" x="321.800631" y="268.586577" style="stroke: #000000"/>
     <use xlink:href="#md166ed5580" x="356.818706" y="257.153883" style="stroke: #000000"/>
     <use xlink:href="#md166ed5580" x="200.084896" y="281.450954" style="stroke: #000000"/>
     <use xlink:href="#md166ed5580" x="193.298087" y="260.890682" style="stroke: #000000"/>
     <use xlink:href="#md166ed5580" x="219.804742" y="263.164015" style="stroke: #000000"/>
     <use xlink:href="#md166ed5580" x="225.020148" y="272.353566" style="stroke: #000000"/>
     <use xlink:href="#md166ed5580" x="323.460535" y="279.006744" style="stroke: #000000"/>
     <use xlink:href="#md166ed5580" x="354.999903" y="295.488" style="stroke: #000000"/>
     <use xlink:href="#md166ed5580" x="284.273702" y="265.127412" style="stroke: #000000"/>
     <use xlink:href="#md166ed5580" x="255.344288" y="260.072294" style="stroke: #000000"/>
     <use xlink:href="#md166ed5580" x="196.450805" y="273.34871" style="stroke: #000000"/>
     <use xlink:href="#md166ed5580" x="191.179123" y="263.509897" style="stroke: #000000"/>
     <use xlink:href="#md166ed5580" x="262.694503" y="270.496569" style="stroke: #000000"/>
     <use xlink:href="#md166ed5580" x="383.974561" y="262.563957" style="stroke: #000000"/>
     <use xlink:href="#md166ed5580" x="277.482419" y="268.381514" style="stroke: #000000"/>
     <use xlink:href="#md166ed5580" x="254.083914" y="277.322399" style="stroke: #000000"/>
     <use xlink:href="#md166ed5580" x="329.020959" y="262.749462" style="stroke: #000000"/>
     <use xlink:href="#md166ed5580" x="305.834609" y="279.935939" style="stroke: #000000"/>
     <use xlink:href="#md166ed5580" x="241.388066" y="265.747072" style="stroke: #000000"/>
     <use xlink:href="#md166ed5580" x="266.344387" y="277.248977" style="stroke: #000000"/>
     <use xlink:href="#md166ed5580" x="325.573268" y="261.824405" style="stroke: #000000"/>
     <use xlink:href="#md166ed5580" x="344.021787" y="276.246428" style="stroke: #000000"/>
     <use xlink:href="#md166ed5580" x="376.534322" y="257.011968" style="stroke: #000000"/>
     <use xlink:href="#md166ed5580" x="267.284333" y="270.317031" style="stroke: #000000"/>
     <use xlink:href="#md166ed5580" x="282.401097" y="275.415125" style="stroke: #000000"/>
     <use xlink:href="#md166ed5580" x="358.682527" y="266.030533" style="stroke: #000000"/>
     <use xlink:href="#md166ed5580" x="314.715789" y="280.339945" style="stroke: #000000"/>
     <use xlink:href="#md166ed5580" x="298.974639" y="272.903671" style="stroke: #000000"/>
     <use xlink:href="#md166ed5580" x="364.159955" y="270.599341" style="stroke: #000000"/>
     <use xlink:href="#md166ed5580" x="230.198964" y="268.88954" style="stroke: #000000"/>
     <use xlink:href="#md166ed5580" x="206.232975" y="271.999143" style="stroke: #000000"/>
     <use xlink:href="#md166ed5580" x="252.904924" y="265.849991" style="stroke: #000000"/>
     <use xlink:href="#md166ed5580" x="292.440347" y="275.257883" style="stroke: #000000"/>
     <use xlink:href="#md166ed5580" x="339.777136" y="267.484634" style="stroke: #000000"/>
     <use xlink:href="#md166ed5580" x="192.596356" y="278.25223" style="stroke: #000000"/>
     <use xlink:href="#md166ed5580" x="221.35813" y="274.852375" style="stroke: #000000"/>
     <use xlink:href="#md166ed5580" x="223.111927" y="261.967428" style="stroke: #000000"/>
     <use xlink:href="#md166ed5580" x="235.456239" y="285.978719" style="stroke: #000000"/>
     <use xlink:href="#md166ed5580" x="280.994645" y="263.723469" style="stroke: #000000"/>
     <use xlink:href="#md166ed5580" x="366.16106" y="282.940489" style="stroke: #000000"/>
     <use xlink:href="#md166ed5580" x="199.278913" y="287.528971" style="stroke: #000000"/>
     <use xlink:href="#md166ed5580" x="196.148372" y="261.223107" style="stroke: #000000"/>
     <use xlink:href="#md166ed5580" x="304.390868" y="251.767595" style="stroke: #000000"/>
     <use xlink:href="#md166ed5580" x="205.458704" y="280.664253" style="stroke: #000000"/>
     <use xlink:href="#md166ed5580" x="353.41937" y="274.050107" style="stroke: #000000"/>
     <use xlink:href="#md166ed5580" x="195.29748" y="261.740571" style="stroke: #000000"/>
     <use xlink:href="#md166ed5580" x="205.572773" y="278.319064" style="stroke: #000000"/>
     <use xlink:href="#md166ed5580" x="192.275197" y="270.592046" style="stroke: #000000"/>
     <use xlink:href="#md166ed5580" x="209.801768" y="266.449075" style="stroke: #000000"/>
     <use xlink:href="#md166ed5580" x="290.212864" y="279.116902" style="stroke: #000000"/>
     <use xlink:href="#md166ed5580" x="294.924316" y="276.105315" style="stroke: #000000"/>
     <use xlink:href="#md166ed5580" x="295.725393" y="273.063093" style="stroke: #000000"/>
     <use xlink:href="#md166ed5580" x="111.98738" y="279.877501" style="stroke: #000000"/>
     <use xlink:href="#md166ed5580" x="150.669738" y="272.201868" style="stroke: #000000"/>
     <use xlink:href="#md166ed5580" x="158.255051" y="262.874589" style="stroke: #000000"/>
     <use xlink:href="#md166ed5580" x="104.979096" y="286.349824" style="stroke: #000000"/>
     <use xlink:href="#md166ed5580" x="85.213467" y="279.685245" style="stroke: #000000"/>
     <use xlink:href="#md166ed5580" x="136.009259" y="266.630044" style="stroke: #000000"/>
     <use xlink:href="#md166ed5580" x="111.374985" y="275.576124" style="stroke: #000000"/>
     <use xlink:href="#md166ed5580" x="142.382012" y="278.454465" style="stroke: #000000"/>
     <use xlink:href="#md166ed5580" x="120.561095" y="288.126175" style="stroke: #000000"/>
     <use xlink:href="#md166ed5580" x="100.380217" y="278.69565" style="stroke: #000000"/>
     <use xlink:href="#md166ed5580" x="103.117632" y="267.402221" style="stroke: #000000"/>
     <use xlink:href="#md166ed5580" x="115.372689" y="270.063241" style="stroke: #000000"/>
     <use xlink:href="#md166ed5580" x="74.634033" y="264.646099" style="stroke: #000000"/>
     <use xlink:href="#md166ed5580" x="149.24565" y="276.661205" style="stroke: #000000"/>
     <use xlink:href="#md166ed5580" x="86.122189" y="277.654744" style="stroke: #000000"/>
     <use xlink:href="#md166ed5580" x="159.610189" y="269.014229" style="stroke: #000000"/>
     <use xlink:href="#md166ed5580" x="119.537178" y="280.67334" style="stroke: #000000"/>
     <use xlink:href="#md166ed5580" x="139.126963" y="264.842414" style="stroke: #000000"/>
     <use xlink:href="#md166ed5580" x="126.141947" y="254.815128" style="stroke: #000000"/>
     <use xlink:href="#md166ed5580" x="182.45637" y="271.34265" style="stroke: #000000"/>
     <use xlink:href="#md166ed5580" x="159.993254" y="266.39242" style="stroke: #000000"/>
     <use xlink:href="#md166ed5580" x="98.806169" y="259.703044" style="stroke: #000000"/>
     <use xlink:href="#md166ed5580" x="142.169881" y="256.949825" style="stroke: #000000"/>
     <use xlink:href="#md166ed5580" x="108.461774" y="282.725077" style="stroke: #000000"/>
     <use xlink:href="#md166ed5580" x="154.731677" y="258.853211" style="stroke: #000000"/>
     <use xlink:href="#md166ed5580" x="145.589302" y="253.747861" style="stroke: #000000"/>
     <use xlink:href="#md166ed5580" x="129.261322" y="275.261525" style="stroke: #000000"/>
     <use xlink:href="#md166ed5580" x="91.865746" y="272.079819" style="stroke: #000000"/>
     <use xlink:href="#md166ed5580" x="185.695639" y="275.499407" style="stroke: #000000"/>
     <use xlink:href="#md166ed5580" x="105.535663" y="268.613676" style="stroke: #000000"/>
     <use xlink:href="#md166ed5580" x="121.34961" y="258.030722" style="stroke: #000000"/>
     <use xlink:href="#md166ed5580" x="127.778931" y="272.43084" style="stroke: #000000"/>
     <use xlink:href="#md166ed5580" x="174.192739" y="252.848319" style="stroke: #000000"/>
     <use xlink:href="#md166ed5580" x="169.139171" y="263.832475" style="stroke: #000000"/>
     <use xlink:href="#md166ed5580" x="87.02929" y="280.159678" style="stroke: #000000"/>
     <use xlink:href="#md166ed5580" x="82.016187" y="285.255135" style="stroke: #000000"/>
     <use xlink:href="#md166ed5580" x="89.429683" y="268.731332" style="stroke: #000000"/>
     <use xlink:href="#md166ed5580" x="107.23527" y="258.332859" style="stroke: #000000"/>
     <use xlink:href="#md166ed5580" x="79.629249" y="281.206866" style="stroke: #000000"/>
     <use xlink:href="#md166ed5580" x="186.488228" y="265.914029" style="stroke: #000000"/>
     <use xlink:href="#md166ed5580" x="125.789082" y="266.588043" style="stroke: #000000"/>
     <use xlink:href="#md166ed5580" x="88.362514" y="277.666465" style="stroke: #000000"/>
     <use xlink:href="#md166ed5580" x="123.139407" y="257.392377" style="stroke: #000000"/>
     <use xlink:href="#md166ed5580" x="161.893854" y="275.853796" style="stroke: #000000"/>
     <use xlink:href="#md166ed5580" x="163.990652" y="265.192269" style="stroke: #000000"/>
     <use xlink:href="#md166ed5580" x="163.955918" y="282.247143" style="stroke: #000000"/>
     <use xlink:href="#md166ed5580" x="95.622577" y="277.158635" style="stroke: #000000"/>
     <use xlink:href="#md166ed5580" x="132.963029" y="261.571405" style="stroke: #000000"/>
     <use xlink:href="#md166ed5580" x="124.777116" y="253.295592" style="stroke: #000000"/>
     <use xlink:href="#md166ed5580" x="139.855477" y="271.887004" style="stroke: #000000"/>
     <use xlink:href="#md166ed5580" x="118.12994" y="278.711592" style="stroke: #000000"/>
     <use xlink:href="#md166ed5580" x="91.993527" y="266.925285" style="stroke: #000000"/>
     <use xlink:href="#md166ed5580" x="178.960769" y="290.386673" style="stroke: #000000"/>
     <use xlink:href="#md166ed5580" x="96.969313" y="249.765162" style="stroke: #000000"/>
     <use xlink:href="#md166ed5580" x="183.926356" y="279.161475" style="stroke: #000000"/>
     <use xlink:href="#md166ed5580" x="98.679835" y="265.259149" style="stroke: #000000"/>
     <use xlink:href="#md166ed5580" x="168.047257" y="262.904094" style="stroke: #000000"/>
     <use xlink:href="#md166ed5580" x="130.084898" y="270.473705" style="stroke: #000000"/>
     <use xlink:href="#md166ed5580" x="171.421971" y="289.011932" style="stroke: #000000"/>
     <use xlink:href="#md166ed5580" x="104.813297" y="258.783138" style="stroke: #000000"/>
     <use xlink:href="#md166ed5580" x="119.544164" y="273.817485" style="stroke: #000000"/>
     <use xlink:href="#md166ed5580" x="101.600354" y="258.988447" style="stroke: #000000"/>
     <use xlink:href="#md166ed5580" x="178.289517" y="282.028947" style="stroke: #000000"/>
     <use xlink:href="#md166ed5580" x="145.532967" y="257.405445" style="stroke: #000000"/>
     <use xlink:href="#md166ed5580" x="128.648111" y="255.860469" style="stroke: #000000"/>
     <use xlink:href="#md166ed5580" x="85.487751" y="266.34241" style="stroke: #000000"/>
     <use xlink:href="#md166ed5580" x="116.720521" y="273.343646" style="stroke: #000000"/>
     <use xlink:href="#md166ed5580" x="86.85702" y="280.367593" style="stroke: #000000"/>
     <use xlink:href="#md166ed5580" x="130.883022" y="256.628432" style="stroke: #000000"/>
     <use xlink:href="#md166ed5580" x="115.767579" y="263.147123" style="stroke: #000000"/>
     <use xlink:href="#md166ed5580" x="144.193336" y="277.629256" style="stroke: #000000"/>
     <use xlink:href="#md166ed5580" x="115.766884" y="266.585723" style="stroke: #000000"/>
     <use xlink:href="#md166ed5580" x="123.399344" y="270.413311" style="stroke: #000000"/>
     <use xlink:href="#md166ed5580" x="98.296596" y="280.931297" style="stroke: #000000"/>
     <use xlink:href="#md166ed5580" x="163.091235" y="271.023487" style="stroke: #000000"/>
     <use xlink:href="#md166ed5580" x="139.961047" y="266.096741" style="stroke: #000000"/>
     <use xlink:href="#md166ed5580" x="121.838947" y="264.365368" style="stroke: #000000"/>
     <use xlink:href="#md166ed5580" x="170.755976" y="262.225659" style="stroke: #000000"/>
     <use xlink:href="#md166ed5580" x="97.045503" y="275.164278" style="stroke: #000000"/>
     <use xlink:href="#md166ed5580" x="99.868176" y="277.590874" style="stroke: #000000"/>
     <use xlink:href="#md166ed5580" x="169.358887" y="271.863567" style="stroke: #000000"/>
     <use xlink:href="#md166ed5580" x="99.857747" y="254.900725" style="stroke: #000000"/>
     <use xlink:href="#md166ed5580" x="75.232135" y="277.044936" style="stroke: #000000"/>
     <use xlink:href="#md166ed5580" x="74.486681" y="271.52532" style="stroke: #000000"/>
     <use xlink:href="#md166ed5580" x="163.496513" y="269.579891" style="stroke: #000000"/>
     <use xlink:href="#md166ed5580" x="160.959841" y="260.035449" style="stroke: #000000"/>
     <use xlink:href="#md166ed5580" x="91.226394" y="262.382181" style="stroke: #000000"/>
     <use xlink:href="#md166ed5580" x="120.279265" y="278.742972" style="stroke: #000000"/>
     <use xlink:href="#md166ed5580" x="152.460937" y="282.353623" style="stroke: #000000"/>
     <use xlink:href="#md166ed5580" x="159.437049" y="266.036783" style="stroke: #000000"/>
     <use xlink:href="#md166ed5580" x="106.966171" y="267.497145" style="stroke: #000000"/>
     <use xlink:href="#md166ed5580" x="174.18642" y="278.417107" style="stroke: #000000"/>
     <use xlink:href="#md166ed5580" x="99.775431" y="263.061214" style="stroke: #000000"/>
     <use xlink:href="#md166ed5580" x="148.336251" y="267.994078" style="stroke: #000000"/>
     <use xlink:href="#md166ed5580" x="143.197508" y="274.026206" style="stroke: #000000"/>
     <use xlink:href="#md166ed5580" x="117.882129" y="269.596771" style="stroke: #000000"/>
    </g>
   </g>
   <g id="PathCollection_2">
    <defs>
     <path id="m4c6974a367" d="M 0 3 
C 0.795609 3 1.55874 2.683901 2.12132 2.12132 
C 2.683901 1.55874 3 0.795609 3 0 
C 3 -0.795609 2.683901 -1.55874 2.12132 -2.12132 
C 1.55874 -2.683901 0.795609 -3 0 -3 
C -0.795609 -3 -1.55874 -2.683901 -2.12132 -2.12132 
C -2.683901 -1.55874 -3 -0.795609 -3 0 
C -3 0.795609 -2.683901 1.55874 -2.12132 2.12132 
C -1.55874 2.683901 -0.795609 3 0 3 
z
" style="stroke: #000000"/>
    </defs>
    <g clip-path="url(#p78386c804a)">
     <use xlink:href="#m4c6974a367" x="310.238849" y="125.978169" style="fill: #ffffff; stroke: #000000"/>
     <use xlink:href="#m4c6974a367" x="299.103238" y="128.058718" style="fill: #ffffff; stroke: #000000"/>
     <use xlink:href="#m4c6974a367" x="317.640588" y="73.583948" style="fill: #ffffff; stroke: #000000"/>
     <use xlink:href="#m4c6974a367" x="294.248046" y="53.568" style="fill: #ffffff; stroke: #000000"/>
     <use xlink:href="#m4c6974a367" x="308.804076" y="145.911897" style="fill: #ffffff; stroke: #000000"/>
     <use xlink:href="#m4c6974a367" x="294.529386" y="106.85294" style="fill: #ffffff; stroke: #000000"/>
     <use xlink:href="#m4c6974a367" x="312.031168" y="91.561041" style="fill: #ffffff; stroke: #000000"/>
     <use xlink:href="#m4c6974a367" x="328.623813" y="88.138725" style="fill: #ffffff; stroke: #000000"/>
     <use xlink:href="#m4c6974a367" x="316.374814" y="79.904896" style="fill: #ffffff; stroke: #000000"/>
     <use xlink:href="#m4c6974a367" x="307.688581" y="130.804494" style="fill: #ffffff; stroke: #000000"/>
     <use xlink:href="#m4c6974a367" x="316.174728" y="78.816738" style="fill: #ffffff; stroke: #000000"/>
     <use xlink:href="#m4c6974a367" x="308.494898" y="116.129086" style="fill: #ffffff; stroke: #000000"/>
     <use xlink:href="#m4c6974a367" x="394.462153" y="254.423613" style="fill: #ffffff; stroke: #000000"/>
     <use xlink:href="#m4c6974a367" x="396.88702" y="268.738971" style="fill: #ffffff; stroke: #000000"/>
     <use xlink:href="#m4c6974a367" x="391.593535" y="288.27655" style="fill: #ffffff; stroke: #000000"/>
     <use xlink:href="#m4c6974a367" x="398.412949" y="277.251194" style="fill: #ffffff; stroke: #000000"/>
     <use xlink:href="#m4c6974a367" x="377.842698" y="294.919672" style="fill: #ffffff; stroke: #000000"/>
     <use xlink:href="#m4c6974a367" x="228.703793" y="293.219861" style="fill: #ffffff; stroke: #000000"/>
     <use xlink:href="#m4c6974a367" x="398.487273" y="280.405716" style="fill: #ffffff; stroke: #000000"/>
     <use xlink:href="#m4c6974a367" x="395.708907" y="251.176217" style="fill: #ffffff; stroke: #000000"/>
     <use xlink:href="#m4c6974a367" x="75.541378" y="279.594537" style="fill: #ffffff; stroke: #000000"/>
     <use xlink:href="#m4c6974a367" x="73.832727" y="263.919236" style="fill: #ffffff; stroke: #000000"/>
     <use xlink:href="#m4c6974a367" x="74.318722" y="288.506765" style="fill: #ffffff; stroke: #000000"/>
     <use xlink:href="#m4c6974a367" x="73.833036" y="283.304444" style="fill: #ffffff; stroke: #000000"/>
    </g>
   </g>
   <g id="matplotlib.axis_1">
    <g id="xtick_1">
     <g id="line2d_1">
      <defs>
       <path id="m6aba3cac53" d="M 0 0 
L 0 3.5 
" style="stroke: #000000; stroke-width: 0.8"/>
      </defs>
      <g>
       <use xlink:href="#m6aba3cac53" x="73.668237" y="307.584" style="stroke: #000000; stroke-width: 0.8"/>
      </g>
     </g>
     <g id="text_1">
      <!-- 0 -->
      <g transform="translate(70.486987 322.182437) scale(0.1 -0.1)">
       <defs>
        <path id="DejaVuSans-30" d="M 2034 4250 
Q 1547 4250 1301 3770 
Q 1056 3291 1056 2328 
Q 1056 1369 1301 889 
Q 1547 409 2034 409 
Q 2525 409 2770 889 
Q 3016 1369 3016 2328 
Q 3016 3291 2770 3770 
Q 2525 4250 2034 4250 
z
M 2034 4750 
Q 2819 4750 3233 4129 
Q 3647 3509 3647 2328 
Q 3647 1150 3233 529 
Q 2819 -91 2034 -91 
Q 1250 -91 836 529 
Q 422 1150 422 2328 
Q 422 3509 836 4129 
Q 1250 4750 2034 4750 
z
" transform="scale(0.015625)"/>
       </defs>
       <use xlink:href="#DejaVuSans-30"/>
      </g>
     </g>
    </g>
    <g id="xtick_2">
     <g id="line2d_2">
      <g>
       <use xlink:href="#m6aba3cac53" x="121.932442" y="307.584" style="stroke: #000000; stroke-width: 0.8"/>
      </g>
     </g>
     <g id="text_2">
      <!-- 25 -->
      <g transform="translate(115.569942 322.182437) scale(0.1 -0.1)">
       <defs>
        <path id="DejaVuSans-32" d="M 1228 531 
L 3431 531 
L 3431 0 
L 469 0 
L 469 531 
Q 828 903 1448 1529 
Q 2069 2156 2228 2338 
Q 2531 2678 2651 2914 
Q 2772 3150 2772 3378 
Q 2772 3750 2511 3984 
Q 2250 4219 1831 4219 
Q 1534 4219 1204 4116 
Q 875 4013 500 3803 
L 500 4441 
Q 881 4594 1212 4672 
Q 1544 4750 1819 4750 
Q 2544 4750 2975 4387 
Q 3406 4025 3406 3419 
Q 3406 3131 3298 2873 
Q 3191 2616 2906 2266 
Q 2828 2175 2409 1742 
Q 1991 1309 1228 531 
z
" transform="scale(0.015625)"/>
        <path id="DejaVuSans-35" d="M 691 4666 
L 3169 4666 
L 3169 4134 
L 1269 4134 
L 1269 2991 
Q 1406 3038 1543 3061 
Q 1681 3084 1819 3084 
Q 2600 3084 3056 2656 
Q 3513 2228 3513 1497 
Q 3513 744 3044 326 
Q 2575 -91 1722 -91 
Q 1428 -91 1123 -41 
Q 819 9 494 109 
L 494 744 
Q 775 591 1075 516 
Q 1375 441 1709 441 
Q 2250 441 2565 725 
Q 2881 1009 2881 1497 
Q 2881 1984 2565 2268 
Q 2250 2553 1709 2553 
Q 1456 2553 1204 2497 
Q 953 2441 691 2322 
L 691 4666 
z
" transform="scale(0.015625)"/>
       </defs>
       <use xlink:href="#DejaVuSans-32"/>
       <use xlink:href="#DejaVuSans-35" x="63.623047"/>
      </g>
     </g>
    </g>
    <g id="xtick_3">
     <g id="line2d_3">
      <g>
       <use xlink:href="#m6aba3cac53" x="170.196647" y="307.584" style="stroke: #000000; stroke-width: 0.8"/>
      </g>
     </g>
     <g id="text_3">
      <!-- 50 -->
      <g transform="translate(163.834147 322.182437) scale(0.1 -0.1)">
       <use xlink:href="#DejaVuSans-35"/>
       <use xlink:href="#DejaVuSans-30" x="63.623047"/>
      </g>
     </g>
    </g>
    <g id="xtick_4">
     <g id="line2d_4">
      <g>
       <use xlink:href="#m6aba3cac53" x="218.460852" y="307.584" style="stroke: #000000; stroke-width: 0.8"/>
      </g>
     </g>
     <g id="text_4">
      <!-- 75 -->
      <g transform="translate(212.098352 322.182437) scale(0.1 -0.1)">
       <defs>
        <path id="DejaVuSans-37" d="M 525 4666 
L 3525 4666 
L 3525 4397 
L 1831 0 
L 1172 0 
L 2766 4134 
L 525 4134 
L 525 4666 
z
" transform="scale(0.015625)"/>
       </defs>
       <use xlink:href="#DejaVuSans-37"/>
       <use xlink:href="#DejaVuSans-35" x="63.623047"/>
      </g>
     </g>
    </g>
    <g id="xtick_5">
     <g id="line2d_5">
      <g>
       <use xlink:href="#m6aba3cac53" x="266.725057" y="307.584" style="stroke: #000000; stroke-width: 0.8"/>
      </g>
     </g>
     <g id="text_5">
      <!-- 100 -->
      <g transform="translate(257.181307 322.182437) scale(0.1 -0.1)">
       <defs>
        <path id="DejaVuSans-31" d="M 794 531 
L 1825 531 
L 1825 4091 
L 703 3866 
L 703 4441 
L 1819 4666 
L 2450 4666 
L 2450 531 
L 3481 531 
L 3481 0 
L 794 0 
L 794 531 
z
" transform="scale(0.015625)"/>
       </defs>
       <use xlink:href="#DejaVuSans-31"/>
       <use xlink:href="#DejaVuSans-30" x="63.623047"/>
       <use xlink:href="#DejaVuSans-30" x="127.246094"/>
      </g>
     </g>
    </g>
    <g id="xtick_6">
     <g id="line2d_6">
      <g>
       <use xlink:href="#m6aba3cac53" x="314.989263" y="307.584" style="stroke: #000000; stroke-width: 0.8"/>
      </g>
     </g>
     <g id="text_6">
      <!-- 125 -->
      <g transform="translate(305.445513 322.182437) scale(0.1 -0.1)">
       <use xlink:href="#DejaVuSans-31"/>
       <use xlink:href="#DejaVuSans-32" x="63.623047"/>
       <use xlink:href="#DejaVuSans-35" x="127.246094"/>
      </g>
     </g>
    </g>
    <g id="xtick_7">
     <g id="line2d_7">
      <g>
       <use xlink:href="#m6aba3cac53" x="363.253468" y="307.584" style="stroke: #000000; stroke-width: 0.8"/>
      </g>
     </g>
     <g id="text_7">
      <!-- 150 -->
      <g transform="translate(353.709718 322.182437) scale(0.1 -0.1)">
       <use xlink:href="#DejaVuSans-31"/>
       <use xlink:href="#DejaVuSans-35" x="63.623047"/>
       <use xlink:href="#DejaVuSans-30" x="127.246094"/>
      </g>
     </g>
    </g>
    <g id="xtick_8">
     <g id="line2d_8">
      <g>
       <use xlink:href="#m6aba3cac53" x="411.517673" y="307.584" style="stroke: #000000; stroke-width: 0.8"/>
      </g>
     </g>
     <g id="text_8">
      <!-- 175 -->
      <g transform="translate(401.973923 322.182437) scale(0.1 -0.1)">
       <use xlink:href="#DejaVuSans-31"/>
       <use xlink:href="#DejaVuSans-37" x="63.623047"/>
       <use xlink:href="#DejaVuSans-35" x="127.246094"/>
      </g>
     </g>
    </g>
    <g id="text_9">
     <!-- Time -->
     <g transform="translate(390.252813 335.860562) scale(0.1 -0.1)">
      <defs>
       <path id="DejaVuSans-54" d="M -19 4666 
L 3928 4666 
L 3928 4134 
L 2272 4134 
L 2272 0 
L 1638 0 
L 1638 4134 
L -19 4134 
L -19 4666 
z
" transform="scale(0.015625)"/>
       <path id="DejaVuSans-69" d="M 603 3500 
L 1178 3500 
L 1178 0 
L 603 0 
L 603 3500 
z
M 603 4863 
L 1178 4863 
L 1178 4134 
L 603 4134 
L 603 4863 
z
" transform="scale(0.015625)"/>
       <path id="DejaVuSans-6d" d="M 3328 2828 
Q 3544 3216 3844 3400 
Q 4144 3584 4550 3584 
Q 5097 3584 5394 3201 
Q 5691 2819 5691 2113 
L 5691 0 
L 5113 0 
L 5113 2094 
Q 5113 2597 4934 2840 
Q 4756 3084 4391 3084 
Q 3944 3084 3684 2787 
Q 3425 2491 3425 1978 
L 3425 0 
L 2847 0 
L 2847 2094 
Q 2847 2600 2669 2842 
Q 2491 3084 2119 3084 
Q 1678 3084 1418 2786 
Q 1159 2488 1159 1978 
L 1159 0 
L 581 0 
L 581 3500 
L 1159 3500 
L 1159 2956 
Q 1356 3278 1631 3431 
Q 1906 3584 2284 3584 
Q 2666 3584 2933 3390 
Q 3200 3197 3328 2828 
z
" transform="scale(0.015625)"/>
       <path id="DejaVuSans-65" d="M 3597 1894 
L 3597 1613 
L 953 1613 
Q 991 1019 1311 708 
Q 1631 397 2203 397 
Q 2534 397 2845 478 
Q 3156 559 3463 722 
L 3463 178 
Q 3153 47 2828 -22 
Q 2503 -91 2169 -91 
Q 1331 -91 842 396 
Q 353 884 353 1716 
Q 353 2575 817 3079 
Q 1281 3584 2069 3584 
Q 2775 3584 3186 3129 
Q 3597 2675 3597 1894 
z
M 3022 2063 
Q 3016 2534 2758 2815 
Q 2500 3097 2075 3097 
Q 1594 3097 1305 2825 
Q 1016 2553 972 2059 
L 3022 2063 
z
" transform="scale(0.015625)"/>
      </defs>
      <use xlink:href="#DejaVuSans-54"/>
      <use xlink:href="#DejaVuSans-69" x="57.958984"/>
      <use xlink:href="#DejaVuSans-6d" x="85.742188"/>
      <use xlink:href="#DejaVuSans-65" x="183.154297"/>
     </g>
    </g>
   </g>
   <g id="matplotlib.axis_2">
    <g id="ytick_1">
     <g id="line2d_9">
      <defs>
       <path id="m4d71a7d324" d="M 0 0 
L -3.5 0 
" style="stroke: #000000; stroke-width: 0.8"/>
      </defs>
      <g>
       <use xlink:href="#m4d71a7d324" x="57.6" y="271.319189" style="stroke: #000000; stroke-width: 0.8"/>
      </g>
     </g>
     <g id="text_10">
      <!-- 100 -->
      <g transform="translate(31.5125 275.118408) scale(0.1 -0.1)">
       <use xlink:href="#DejaVuSans-31"/>
       <use xlink:href="#DejaVuSans-30" x="63.623047"/>
       <use xlink:href="#DejaVuSans-30" x="127.246094"/>
      </g>
     </g>
    </g>
    <g id="ytick_2">
     <g id="line2d_10">
      <g>
       <use xlink:href="#m4d71a7d324" x="57.6" y="233.951184" style="stroke: #000000; stroke-width: 0.8"/>
      </g>
     </g>
     <g id="text_11">
      <!-- 120 -->
      <g transform="translate(31.5125 237.750403) scale(0.1 -0.1)">
       <use xlink:href="#DejaVuSans-31"/>
       <use xlink:href="#DejaVuSans-32" x="63.623047"/>
       <use xlink:href="#DejaVuSans-30" x="127.246094"/>
      </g>
     </g>
    </g>
    <g id="ytick_3">
     <g id="line2d_11">
      <g>
       <use xlink:href="#m4d71a7d324" x="57.6" y="196.583179" style="stroke: #000000; stroke-width: 0.8"/>
      </g>
     </g>
     <g id="text_12">
      <!-- 140 -->
      <g transform="translate(31.5125 200.382398) scale(0.1 -0.1)">
       <defs>
        <path id="DejaVuSans-34" d="M 2419 4116 
L 825 1625 
L 2419 1625 
L 2419 4116 
z
M 2253 4666 
L 3047 4666 
L 3047 1625 
L 3713 1625 
L 3713 1100 
L 3047 1100 
L 3047 0 
L 2419 0 
L 2419 1100 
L 313 1100 
L 313 1709 
L 2253 4666 
z
" transform="scale(0.015625)"/>
       </defs>
       <use xlink:href="#DejaVuSans-31"/>
       <use xlink:href="#DejaVuSans-34" x="63.623047"/>
       <use xlink:href="#DejaVuSans-30" x="127.246094"/>
      </g>
     </g>
    </g>
    <g id="ytick_4">
     <g id="line2d_12">
      <g>
       <use xlink:href="#m4d71a7d324" x="57.6" y="159.215174" style="stroke: #000000; stroke-width: 0.8"/>
      </g>
     </g>
     <g id="text_13">
      <!-- 160 -->
      <g transform="translate(31.5125 163.014393) scale(0.1 -0.1)">
       <defs>
        <path id="DejaVuSans-36" d="M 2113 2584 
Q 1688 2584 1439 2293 
Q 1191 2003 1191 1497 
Q 1191 994 1439 701 
Q 1688 409 2113 409 
Q 2538 409 2786 701 
Q 3034 994 3034 1497 
Q 3034 2003 2786 2293 
Q 2538 2584 2113 2584 
z
M 3366 4563 
L 3366 3988 
Q 3128 4100 2886 4159 
Q 2644 4219 2406 4219 
Q 1781 4219 1451 3797 
Q 1122 3375 1075 2522 
Q 1259 2794 1537 2939 
Q 1816 3084 2150 3084 
Q 2853 3084 3261 2657 
Q 3669 2231 3669 1497 
Q 3669 778 3244 343 
Q 2819 -91 2113 -91 
Q 1303 -91 875 529 
Q 447 1150 447 2328 
Q 447 3434 972 4092 
Q 1497 4750 2381 4750 
Q 2619 4750 2861 4703 
Q 3103 4656 3366 4563 
z
" transform="scale(0.015625)"/>
       </defs>
       <use xlink:href="#DejaVuSans-31"/>
       <use xlink:href="#DejaVuSans-36" x="63.623047"/>
       <use xlink:href="#DejaVuSans-30" x="127.246094"/>
      </g>
     </g>
    </g>
    <g id="ytick_5">
     <g id="line2d_13">
      <g>
       <use xlink:href="#m4d71a7d324" x="57.6" y="121.847169" style="stroke: #000000; stroke-width: 0.8"/>
      </g>
     </g>
     <g id="text_14">
      <!-- 180 -->
      <g transform="translate(31.5125 125.646388) scale(0.1 -0.1)">
       <defs>
        <path id="DejaVuSans-38" d="M 2034 2216 
Q 1584 2216 1326 1975 
Q 1069 1734 1069 1313 
Q 1069 891 1326 650 
Q 1584 409 2034 409 
Q 2484 409 2743 651 
Q 3003 894 3003 1313 
Q 3003 1734 2745 1975 
Q 2488 2216 2034 2216 
z
M 1403 2484 
Q 997 2584 770 2862 
Q 544 3141 544 3541 
Q 544 4100 942 4425 
Q 1341 4750 2034 4750 
Q 2731 4750 3128 4425 
Q 3525 4100 3525 3541 
Q 3525 3141 3298 2862 
Q 3072 2584 2669 2484 
Q 3125 2378 3379 2068 
Q 3634 1759 3634 1313 
Q 3634 634 3220 271 
Q 2806 -91 2034 -91 
Q 1263 -91 848 271 
Q 434 634 434 1313 
Q 434 1759 690 2068 
Q 947 2378 1403 2484 
z
M 1172 3481 
Q 1172 3119 1398 2916 
Q 1625 2713 2034 2713 
Q 2441 2713 2670 2916 
Q 2900 3119 2900 3481 
Q 2900 3844 2670 4047 
Q 2441 4250 2034 4250 
Q 1625 4250 1398 4047 
Q 1172 3844 1172 3481 
z
" transform="scale(0.015625)"/>
       </defs>
       <use xlink:href="#DejaVuSans-31"/>
       <use xlink:href="#DejaVuSans-38" x="63.623047"/>
       <use xlink:href="#DejaVuSans-30" x="127.246094"/>
      </g>
     </g>
    </g>
    <g id="ytick_6">
     <g id="line2d_14">
      <g>
       <use xlink:href="#m4d71a7d324" x="57.6" y="84.479164" style="stroke: #000000; stroke-width: 0.8"/>
      </g>
     </g>
     <g id="text_15">
      <!-- 200 -->
      <g transform="translate(31.5125 88.278383) scale(0.1 -0.1)">
       <use xlink:href="#DejaVuSans-32"/>
       <use xlink:href="#DejaVuSans-30" x="63.623047"/>
       <use xlink:href="#DejaVuSans-30" x="127.246094"/>
      </g>
     </g>
    </g>
    <g id="ytick_7">
     <g id="line2d_15">
      <g>
       <use xlink:href="#m4d71a7d324" x="57.6" y="47.111159" style="stroke: #000000; stroke-width: 0.8"/>
      </g>
     </g>
     <g id="text_16">
      <!-- 220 -->
      <g transform="translate(31.5125 50.910378) scale(0.1 -0.1)">
       <use xlink:href="#DejaVuSans-32"/>
       <use xlink:href="#DejaVuSans-32" x="63.623047"/>
       <use xlink:href="#DejaVuSans-30" x="127.246094"/>
      </g>
     </g>
    </g>
    <g id="text_17">
     <!-- Observed value -->
     <g transform="translate(25.432812 120.079813) rotate(-90) scale(0.1 -0.1)">
      <defs>
       <path id="DejaVuSans-4f" d="M 2522 4238 
Q 1834 4238 1429 3725 
Q 1025 3213 1025 2328 
Q 1025 1447 1429 934 
Q 1834 422 2522 422 
Q 3209 422 3611 934 
Q 4013 1447 4013 2328 
Q 4013 3213 3611 3725 
Q 3209 4238 2522 4238 
z
M 2522 4750 
Q 3503 4750 4090 4092 
Q 4678 3434 4678 2328 
Q 4678 1225 4090 567 
Q 3503 -91 2522 -91 
Q 1538 -91 948 565 
Q 359 1222 359 2328 
Q 359 3434 948 4092 
Q 1538 4750 2522 4750 
z
" transform="scale(0.015625)"/>
       <path id="DejaVuSans-62" d="M 3116 1747 
Q 3116 2381 2855 2742 
Q 2594 3103 2138 3103 
Q 1681 3103 1420 2742 
Q 1159 2381 1159 1747 
Q 1159 1113 1420 752 
Q 1681 391 2138 391 
Q 2594 391 2855 752 
Q 3116 1113 3116 1747 
z
M 1159 2969 
Q 1341 3281 1617 3432 
Q 1894 3584 2278 3584 
Q 2916 3584 3314 3078 
Q 3713 2572 3713 1747 
Q 3713 922 3314 415 
Q 2916 -91 2278 -91 
Q 1894 -91 1617 61 
Q 1341 213 1159 525 
L 1159 0 
L 581 0 
L 581 4863 
L 1159 4863 
L 1159 2969 
z
" transform="scale(0.015625)"/>
       <path id="DejaVuSans-73" d="M 2834 3397 
L 2834 2853 
Q 2591 2978 2328 3040 
Q 2066 3103 1784 3103 
Q 1356 3103 1142 2972 
Q 928 2841 928 2578 
Q 928 2378 1081 2264 
Q 1234 2150 1697 2047 
L 1894 2003 
Q 2506 1872 2764 1633 
Q 3022 1394 3022 966 
Q 3022 478 2636 193 
Q 2250 -91 1575 -91 
Q 1294 -91 989 -36 
Q 684 19 347 128 
L 347 722 
Q 666 556 975 473 
Q 1284 391 1588 391 
Q 1994 391 2212 530 
Q 2431 669 2431 922 
Q 2431 1156 2273 1281 
Q 2116 1406 1581 1522 
L 1381 1569 
Q 847 1681 609 1914 
Q 372 2147 372 2553 
Q 372 3047 722 3315 
Q 1072 3584 1716 3584 
Q 2034 3584 2315 3537 
Q 2597 3491 2834 3397 
z
" transform="scale(0.015625)"/>
       <path id="DejaVuSans-72" d="M 2631 2963 
Q 2534 3019 2420 3045 
Q 2306 3072 2169 3072 
Q 1681 3072 1420 2755 
Q 1159 2438 1159 1844 
L 1159 0 
L 581 0 
L 581 3500 
L 1159 3500 
L 1159 2956 
Q 1341 3275 1631 3429 
Q 1922 3584 2338 3584 
Q 2397 3584 2469 3576 
Q 2541 3569 2628 3553 
L 2631 2963 
z
" transform="scale(0.015625)"/>
       <path id="DejaVuSans-76" d="M 191 3500 
L 800 3500 
L 1894 563 
L 2988 3500 
L 3597 3500 
L 2284 0 
L 1503 0 
L 191 3500 
z
" transform="scale(0.015625)"/>
       <path id="DejaVuSans-64" d="M 2906 2969 
L 2906 4863 
L 3481 4863 
L 3481 0 
L 2906 0 
L 2906 525 
Q 2725 213 2448 61 
Q 2172 -91 1784 -91 
Q 1150 -91 751 415 
Q 353 922 353 1747 
Q 353 2572 751 3078 
Q 1150 3584 1784 3584 
Q 2172 3584 2448 3432 
Q 2725 3281 2906 2969 
z
M 947 1747 
Q 947 1113 1208 752 
Q 1469 391 1925 391 
Q 2381 391 2643 752 
Q 2906 1113 2906 1747 
Q 2906 2381 2643 2742 
Q 2381 3103 1925 3103 
Q 1469 3103 1208 2742 
Q 947 2381 947 1747 
z
" transform="scale(0.015625)"/>
       <path id="DejaVuSans-20" transform="scale(0.015625)"/>
       <path id="DejaVuSans-61" d="M 2194 1759 
Q 1497 1759 1228 1600 
Q 959 1441 959 1056 
Q 959 750 1161 570 
Q 1363 391 1709 391 
Q 2188 391 2477 730 
Q 2766 1069 2766 1631 
L 2766 1759 
L 2194 1759 
z
M 3341 1997 
L 3341 0 
L 2766 0 
L 2766 531 
Q 2569 213 2275 61 
Q 1981 -91 1556 -91 
Q 1019 -91 701 211 
Q 384 513 384 1019 
Q 384 1609 779 1909 
Q 1175 2209 1959 2209 
L 2766 2209 
L 2766 2266 
Q 2766 2663 2505 2880 
Q 2244 3097 1772 3097 
Q 1472 3097 1187 3025 
Q 903 2953 641 2809 
L 641 3341 
Q 956 3463 1253 3523 
Q 1550 3584 1831 3584 
Q 2591 3584 2966 3190 
Q 3341 2797 3341 1997 
z
" transform="scale(0.015625)"/>
       <path id="DejaVuSans-6c" d="M 603 4863 
L 1178 4863 
L 1178 0 
L 603 0 
L 603 4863 
z
" transform="scale(0.015625)"/>
       <path id="DejaVuSans-75" d="M 544 1381 
L 544 3500 
L 1119 3500 
L 1119 1403 
Q 1119 906 1312 657 
Q 1506 409 1894 409 
Q 2359 409 2629 706 
Q 2900 1003 2900 1516 
L 2900 3500 
L 3475 3500 
L 3475 0 
L 2900 0 
L 2900 538 
Q 2691 219 2414 64 
Q 2138 -91 1772 -91 
Q 1169 -91 856 284 
Q 544 659 544 1381 
z
M 1991 3584 
L 1991 3584 
z
" transform="scale(0.015625)"/>
      </defs>
      <use xlink:href="#DejaVuSans-4f"/>
      <use xlink:href="#DejaVuSans-62" x="78.710938"/>
      <use xlink:href="#DejaVuSans-73" x="142.1875"/>
      <use xlink:href="#DejaVuSans-65" x="194.287109"/>
      <use xlink:href="#DejaVuSans-72" x="255.810547"/>
      <use xlink:href="#DejaVuSans-76" x="296.923828"/>
      <use xlink:href="#DejaVuSans-65" x="356.103516"/>
      <use xlink:href="#DejaVuSans-64" x="417.626953"/>
      <use xlink:href="#DejaVuSans-20" x="481.103516"/>
      <use xlink:href="#DejaVuSans-76" x="512.890625"/>
      <use xlink:href="#DejaVuSans-61" x="572.070312"/>
      <use xlink:href="#DejaVuSans-6c" x="633.349609"/>
      <use xlink:href="#DejaVuSans-75" x="661.132812"/>
      <use xlink:href="#DejaVuSans-65" x="724.511719"/>
     </g>
    </g>
   </g>
   <g id="patch_3">
    <path d="M 57.6 307.584 
L 57.6 41.472 
" style="fill: none; stroke: #000000; stroke-width: 0.8; stroke-linejoin: miter; stroke-linecap: square"/>
   </g>
   <g id="patch_4">
    <path d="M 414.72 307.584 
L 414.72 41.472 
" style="fill: none; stroke: #000000; stroke-width: 0.8; stroke-linejoin: miter; stroke-linecap: square"/>
   </g>
   <g id="patch_5">
    <path d="M 57.6 307.584 
L 414.72 307.584 
" style="fill: none; stroke: #000000; stroke-width: 0.8; stroke-linejoin: miter; stroke-linecap: square"/>
   </g>
   <g id="patch_6">
    <path d="M 57.6 41.472 
L 414.72 41.472 
" style="fill: none; stroke: #000000; stroke-width: 0.8; stroke-linejoin: miter; stroke-linecap: square"/>
   </g>
   <g id="legend_1">
    <g id="patch_7">
     <path d="M 337.365313 78.82825 
L 407.72 78.82825 
Q 409.72 78.82825 409.72 76.82825 
L 409.72 48.472 
Q 409.72 46.472 407.72 46.472 
L 337.365313 46.472 
Q 335.365313 46.472 335.365313 48.472 
L 335.365313 76.82825 
Q 335.365313 78.82825 337.365313 78.82825 
z
" style="fill: #ffffff; opacity: 0.8; stroke: #cccccc; stroke-linejoin: miter"/>
    </g>
    <g id="PathCollection_3">
     <g>
      <use xlink:href="#md166ed5580" x="349.365313" y="55.445437" style="stroke: #000000"/>
     </g>
    </g>
    <g id="text_18">
     <!-- Regular -->
     <g transform="translate(367.365313 58.070437) scale(0.1 -0.1)">
      <defs>
       <path id="DejaVuSans-52" d="M 2841 2188 
Q 3044 2119 3236 1894 
Q 3428 1669 3622 1275 
L 4263 0 
L 3584 0 
L 2988 1197 
Q 2756 1666 2539 1819 
Q 2322 1972 1947 1972 
L 1259 1972 
L 1259 0 
L 628 0 
L 628 4666 
L 2053 4666 
Q 2853 4666 3247 4331 
Q 3641 3997 3641 3322 
Q 3641 2881 3436 2590 
Q 3231 2300 2841 2188 
z
M 1259 4147 
L 1259 2491 
L 2053 2491 
Q 2509 2491 2742 2702 
Q 2975 2913 2975 3322 
Q 2975 3731 2742 3939 
Q 2509 4147 2053 4147 
L 1259 4147 
z
" transform="scale(0.015625)"/>
       <path id="DejaVuSans-67" d="M 2906 1791 
Q 2906 2416 2648 2759 
Q 2391 3103 1925 3103 
Q 1463 3103 1205 2759 
Q 947 2416 947 1791 
Q 947 1169 1205 825 
Q 1463 481 1925 481 
Q 2391 481 2648 825 
Q 2906 1169 2906 1791 
z
M 3481 434 
Q 3481 -459 3084 -895 
Q 2688 -1331 1869 -1331 
Q 1566 -1331 1297 -1286 
Q 1028 -1241 775 -1147 
L 775 -588 
Q 1028 -725 1275 -790 
Q 1522 -856 1778 -856 
Q 2344 -856 2625 -561 
Q 2906 -266 2906 331 
L 2906 616 
Q 2728 306 2450 153 
Q 2172 0 1784 0 
Q 1141 0 747 490 
Q 353 981 353 1791 
Q 353 2603 747 3093 
Q 1141 3584 1784 3584 
Q 2172 3584 2450 3431 
Q 2728 3278 2906 2969 
L 2906 3500 
L 3481 3500 
L 3481 434 
z
" transform="scale(0.015625)"/>
      </defs>
      <use xlink:href="#DejaVuSans-52"/>
      <use xlink:href="#DejaVuSans-65" x="64.982422"/>
      <use xlink:href="#DejaVuSans-67" x="126.505859"/>
      <use xlink:href="#DejaVuSans-75" x="189.982422"/>
      <use xlink:href="#DejaVuSans-6c" x="253.361328"/>
      <use xlink:href="#DejaVuSans-61" x="281.144531"/>
      <use xlink:href="#DejaVuSans-72" x="342.423828"/>
     </g>
    </g>
    <g id="PathCollection_4">
     <g>
      <use xlink:href="#m4c6974a367" x="349.365313" y="70.123562" style="fill: #ffffff; stroke: #000000"/>
     </g>
    </g>
    <g id="text_19">
     <!-- Outlier -->
     <g transform="translate(367.365313 72.748562) scale(0.1 -0.1)">
      <defs>
       <path id="DejaVuSans-74" d="M 1172 4494 
L 1172 3500 
L 2356 3500 
L 2356 3053 
L 1172 3053 
L 1172 1153 
Q 1172 725 1289 603 
Q 1406 481 1766 481 
L 2356 481 
L 2356 0 
L 1766 0 
Q 1100 0 847 248 
Q 594 497 594 1153 
L 594 3053 
L 172 3053 
L 172 3500 
L 594 3500 
L 594 4494 
L 1172 4494 
z
" transform="scale(0.015625)"/>
      </defs>
      <use xlink:href="#DejaVuSans-4f"/>
      <use xlink:href="#DejaVuSans-75" x="78.710938"/>
      <use xlink:href="#DejaVuSans-74" x="142.089844"/>
      <use xlink:href="#DejaVuSans-6c" x="181.298828"/>
      <use xlink:href="#DejaVuSans-69" x="209.082031"/>
      <use xlink:href="#DejaVuSans-65" x="236.865234"/>
      <use xlink:href="#DejaVuSans-72" x="298.388672"/>
     </g>
    </g>
   </g>
  </g>
 </g>
 <defs>
  <clipPath id="p78386c804a">
   <rect x="57.6" y="41.472" width="357.12" height="266.112"/>
  </clipPath>
 </defs>
</svg>
